<svg width="66" height="57" viewBox="0 0 66 57" fill="none" xmlns="http://www.w3.org/2000/svg">
<path d="M63.9375 36.6423C62.799 36.6423 61.875 37.5543 61.875 38.6781V52.9281H4.125V28.4995H26.8125C27.951 28.4995 28.875 27.5875 28.875 26.4638C28.875 25.3401 27.951 24.4281 26.8125 24.4281H4.125V16.2852H26.8125C27.951 16.2852 28.875 15.3732 28.875 14.2495C28.875 13.1258 27.951 12.2138 26.8125 12.2138H4.125C1.848 12.2138 0 14.0378 0 16.2852V52.9281C0 55.1755 1.848 56.9995 4.125 56.9995H61.875C64.152 56.9995 66 55.1755 66 52.9281V38.6781C66 37.5543 65.076 36.6423 63.9375 36.6423Z" fill="#6BCAE2" fill-opacity="0.5"/>
<path d="M18.5625 36.6423H10.3125C9.174 36.6423 8.25 37.5543 8.25 38.678C8.25 39.8018 9.174 40.7138 10.3125 40.7138H18.5625C19.701 40.7138 20.625 39.8018 20.625 38.678C20.625 37.5543 19.701 36.6423 18.5625 36.6423Z" fill="#6BCAE2" fill-opacity="0.5"/>
<path d="M64.7501 6.2695L50.3126 0.162358C49.7887 -0.0534276 49.2071 -0.0534276 48.6833 0.162358L34.2458 6.2695C33.4909 6.59114 33 7.32807 33 8.14236V16.2852C33 27.4857 37.1951 34.0326 48.4729 40.4451C48.7905 40.6242 49.1452 40.7138 49.5 40.7138C49.8548 40.7138 50.2095 40.6242 50.5271 40.4451C61.8049 34.0489 66 27.502 66 16.2852V8.14236C66 7.32807 65.5091 6.59114 64.7501 6.2695ZM61.875 16.2852C61.875 25.6861 58.7235 30.8609 49.5 36.3166C40.2765 30.8487 37.125 25.6739 37.125 16.2852V9.48593L49.5 4.25007L61.875 9.48593V16.2852Z" fill="#6BCAE2" fill-opacity="0.5"/>
<path d="M56.9786 12.6576C56.0917 11.9654 54.7965 12.0998 54.0787 12.9751L47.5942 20.9796L45.0285 17.1931C44.3891 16.2567 43.1062 16.0083 42.1698 16.6272C41.2252 17.2501 40.9653 18.5163 41.5965 19.4487L45.7215 25.5558C46.0886 26.0973 46.6908 26.4312 47.3508 26.4638C47.3797 26.4638 47.4127 26.4638 47.4375 26.4638C48.0603 26.4638 48.6543 26.1869 49.0503 25.6983L57.3003 15.5198C58.0098 14.6403 57.8696 13.3619 56.9786 12.6576Z" fill="#6BCAE2" fill-opacity="0.5"/>
</svg>
