<svg id="lamp_1_" data-name="lamp (1)" xmlns="http://www.w3.org/2000/svg" width="25.982" height="25.982" viewBox="0 0 25.982 25.982">
  <path id="Path_5878" data-name="Path 5878" d="M12.062,3.742a.812.812,0,0,1-.812-.812V.812a.812.812,0,1,1,1.624,0V2.931A.812.812,0,0,1,12.062,3.742Z" transform="translate(0.929)" fill="#4fba6f"/>
  <path id="Path_5879" data-name="Path 5879" d="M18.633,6.417a.812.812,0,0,1-.574-1.387l1.5-1.5a.812.812,0,0,1,1.149,1.149l-1.5,1.5A.814.814,0,0,1,18.633,6.417Z" transform="translate(1.472 0.272)" fill="#4fba6f"/>
  <path id="Path_5880" data-name="Path 5880" d="M23.474,12.874H21.355a.812.812,0,1,1,0-1.624h2.119a.812.812,0,1,1,0,1.624Z" transform="translate(1.696 0.929)" fill="#4fba6f"/>
  <path id="Path_5881" data-name="Path 5881" d="M20.131,20.943a.806.806,0,0,1-.574-.238l-1.5-1.5a.812.812,0,1,1,1.149-1.149l1.5,1.5a.812.812,0,0,1-.575,1.387Z" transform="translate(1.472 1.471)" fill="#4fba6f"/>
  <path id="Path_5882" data-name="Path 5882" d="M4.107,20.943a.812.812,0,0,1-.574-1.387l1.5-1.5A.812.812,0,1,1,6.18,19.207l-1.5,1.5A.81.81,0,0,1,4.107,20.943Z" transform="translate(0.272 1.471)" fill="#4fba6f"/>
  <path id="Path_5883" data-name="Path 5883" d="M2.931,12.874H.812a.812.812,0,1,1,0-1.624H2.931a.812.812,0,1,1,0,1.624Z" transform="translate(0 0.929)" fill="#4fba6f"/>
  <path id="Path_5884" data-name="Path 5884" d="M5.605,6.417a.806.806,0,0,1-.574-.238l-1.5-1.5A.812.812,0,0,1,4.682,3.532l1.5,1.5a.812.812,0,0,1-.575,1.387Z" transform="translate(0.272 0.272)" fill="#4fba6f"/>
  <path id="Path_5885" data-name="Path 5885" d="M15.5,21v1.353A1.9,1.9,0,0,1,13.6,24.248H10.895A1.974,1.974,0,0,1,9,22.039V21Z" transform="translate(0.743 1.734)" fill="#4fba6f"/>
  <path id="Path_5886" data-name="Path 5886" d="M17.352,6.689A7.579,7.579,0,1,0,8.02,18.629,3.269,3.269,0,0,1,9.255,20.7v.011A.184.184,0,0,1,9.33,20.7h6.5a.1.1,0,0,1,.054.011V20.7a3.611,3.611,0,0,1,1.386-2.165,7.582,7.582,0,0,0,.087-11.843Zm-.714,6.43a.818.818,0,0,1-.812-.812A2.975,2.975,0,0,0,12.849,9.33a.812.812,0,1,1,0-1.624,4.611,4.611,0,0,1,4.6,4.6A.818.818,0,0,1,16.638,13.119Z" transform="translate(0.413 0.413)" fill="#4fba6f"/>
  <path id="Path_5887" data-name="Path 5887" d="M8.93,19.5h.076a.184.184,0,0,0-.076.011Z" transform="translate(0.737 1.61)" fill="#4fba6f"/>
  <path id="Path_5888" data-name="Path 5888" d="M15.054,19.5v.011A.1.1,0,0,0,15,19.5Z" transform="translate(1.239 1.61)" fill="#4fba6f"/>
</svg>
