<svg width="72" height="60" viewBox="0 0 72 60" fill="none" xmlns="http://www.w3.org/2000/svg">
<g clip-path="url(#clip0)">
<path d="M53.2768 6.9191C53.2689 6.75221 53.2261 6.5888 53.1511 6.43937C53.0762 6.28993 52.9708 6.15777 52.8416 6.05133C48.8047 2.71444 43.8596 0.657627 38.6416 0.145163C37.7771 0.0594051 36.8979 0.0165266 36.0193 0.015777C36.0128 0.015777 36.0065 0.0148773 36 0.0148773C35.9936 0.0148773 35.9874 0.015777 35.9809 0.015777C35.1018 0.015777 34.2229 0.0594051 33.359 0.145163C29.4381 0.528942 25.6535 1.78504 22.2838 3.82094C18.9142 5.85684 16.0454 8.62068 13.8887 11.9089L13.8795 11.9223C10.7796 16.6351 9.27383 22.2139 9.58265 27.8419C9.89148 33.4699 11.9987 38.8516 15.5957 43.1989C15.7024 43.3278 15.8348 43.433 15.9846 43.5079C16.1344 43.5828 16.2983 43.6256 16.4657 43.6336C16.4847 43.6345 16.5037 43.6348 16.5228 43.6348C16.8417 43.6348 17.1475 43.5085 17.373 43.2837L52.9264 7.82405C53.0448 7.70587 53.1371 7.56432 53.1974 7.40849C53.2578 7.25265 53.2848 7.08596 53.2768 6.9191ZM32.1 25.2024H24.7173C24.8194 22.1409 25.3207 19.1057 26.2086 16.1733C29.0575 16.5417 31.925 16.7496 34.7974 16.7957V22.5121L32.1 25.2024ZM11.9817 25.2024C12.1731 21.2344 13.3552 17.377 15.4208 13.9803C18.1777 14.7525 20.9762 15.3685 23.8029 15.8254C22.9115 18.8759 22.4103 22.0265 22.3113 25.2024H11.9817ZM34.0469 2.4933C34.2963 2.47321 34.5464 2.45567 34.7974 2.44337V14.3969C32.1905 14.3538 29.5877 14.1732 26.9999 13.856C28.5947 9.65185 30.9873 5.79385 34.0469 2.4933V2.4933ZM29.695 27.6012L25.1629 32.1211C24.9183 30.6255 24.7697 29.1158 24.7183 27.6012H29.695ZM37.2026 16.7959C38.3551 16.7776 39.5086 16.733 40.6632 16.662L37.2026 20.1133V16.7959ZM43.2871 14.0449C41.2744 14.2452 39.2348 14.3634 37.2026 14.3966V2.44367C37.4539 2.45597 37.7044 2.47366 37.9542 2.4936C40.7436 5.50685 42.9818 8.98436 44.5674 12.7683L43.2871 14.0449ZM30.393 3.06886C27.8967 6.21463 25.9265 9.742 24.5585 13.5146C21.9626 13.1091 19.3903 12.5653 16.8527 11.8855C20.2029 7.46791 24.9901 4.35075 30.393 3.06886V3.06886ZM16.6334 40.6282C13.8361 36.8343 12.2179 32.3045 11.9797 27.6012H22.3113C22.3819 29.8118 22.6466 32.012 23.1021 34.1766L16.6334 40.6282ZM46.3967 10.943C45.1314 8.13097 43.5222 5.48584 41.6059 3.06781C44.734 3.8118 47.6791 5.17848 50.2645 7.08582L46.3967 10.943Z" fill="#6BCAE2" fill-opacity="0.5"/>
<path d="M58.1211 11.9233C57.5916 11.12 57.0185 10.3461 56.4044 9.60501C56.2978 9.47618 56.1653 9.37101 56.0154 9.29624C55.8656 9.22146 55.7018 9.17873 55.5344 9.17078C55.3671 9.16284 55.2 9.18985 55.0437 9.25009C54.8874 9.31033 54.7455 9.40247 54.627 9.5206L19.0736 44.9795C18.9551 45.0976 18.8627 45.2392 18.8023 45.395C18.7419 45.5508 18.7148 45.7176 18.7227 45.8845C18.7307 46.0514 18.7735 46.2148 18.8484 46.3642C18.9234 46.5136 19.0288 46.6458 19.1579 46.7522C23.1949 50.0891 28.14 52.1459 33.3579 52.6584C35.0359 52.8234 36.7258 52.8308 38.4052 52.6807V58.7857C38.4052 59.027 38.4782 59.2627 38.6146 59.4619C38.751 59.6612 38.9445 59.8148 39.1699 59.9027C39.3952 59.9905 39.6418 60.0086 39.8776 59.9544C40.1134 59.9003 40.3273 59.7765 40.4914 59.5992L51.2766 47.9461C56.875 43.9963 60.7174 38.0332 61.9942 31.3134C63.2709 24.5937 61.8824 17.6419 58.1211 11.9232V11.9233ZM49.789 46.057C49.7188 46.1062 49.654 46.1628 49.5957 46.2257L40.8104 55.7181V51.3327C40.8104 51.1609 40.7733 50.991 40.7018 50.8347C40.6303 50.6784 40.5259 50.5392 40.3957 50.4266C40.2655 50.314 40.1126 50.2306 39.9473 50.1821C39.782 50.1335 39.6082 50.121 39.4376 50.1453C39.0735 50.1974 38.7353 50.2384 38.4032 50.2713C36.8048 50.4288 35.1946 50.4288 33.5962 50.2713C29.3028 49.8499 25.2042 48.2763 21.7357 45.7177L55.3668 12.1753C55.6257 12.5252 55.8739 12.8804 56.1113 13.241C59.5414 18.4574 60.7997 24.8011 59.6195 30.9271C58.4392 37.0532 54.9133 42.48 49.789 46.057Z" fill="#6BCAE2" fill-opacity="0.5"/>
<path d="M36 40.7946C37.3283 40.7946 38.4052 39.7206 38.4052 38.3958C38.4052 37.071 37.3283 35.997 36 35.997C34.6717 35.997 33.5948 37.071 33.5948 38.3958C33.5948 39.7206 34.6717 40.7946 36 40.7946Z" fill="#6BCAE2" fill-opacity="0.5"/>
<path d="M43.2155 40.7946C44.5439 40.7946 45.6207 39.7206 45.6207 38.3958C45.6207 37.071 44.5439 35.997 43.2155 35.997C41.8872 35.997 40.8103 37.071 40.8103 38.3958C40.8103 39.7206 41.8872 40.7946 43.2155 40.7946Z" fill="#6BCAE2" fill-opacity="0.5"/>
<path d="M50.431 40.7946C51.7594 40.7946 52.8362 39.7206 52.8362 38.3958C52.8362 37.071 51.7594 35.997 50.431 35.997C49.1027 35.997 48.0259 37.071 48.0259 38.3958C48.0259 39.7206 49.1027 40.7946 50.431 40.7946Z" fill="#6BCAE2" fill-opacity="0.5"/>
<path d="M9.54191 42.603C9.22544 42.5636 8.90622 42.6511 8.65448 42.8464C8.40273 43.0417 8.23908 43.3288 8.19952 43.6444L8.09791 44.454C3.80815 38.426 1.80461 31.0743 2.44457 23.71C3.08453 16.3456 6.32638 9.44732 11.592 4.2453C11.7049 4.13461 11.7948 4.00278 11.8565 3.85737C11.9182 3.71196 11.9505 3.55583 11.9515 3.39794C11.9526 3.24005 11.9223 3.08351 11.8626 2.9373C11.8028 2.79108 11.7147 2.65807 11.6033 2.5459C11.4919 2.43373 11.3594 2.3446 11.2134 2.28362C11.0673 2.22265 10.9107 2.19103 10.7523 2.19059C10.594 2.19014 10.4372 2.22087 10.2908 2.28102C10.1445 2.34117 10.0114 2.42956 9.89938 2.5411C4.24158 8.13018 0.752879 15.5382 0.052807 23.4497C-0.647265 31.3613 1.48659 39.2642 6.07546 45.7552L5.05927 45.6053C4.90304 45.5822 4.74379 45.59 4.5906 45.6283C4.43741 45.6667 4.29328 45.7347 4.16645 45.8285C3.91031 46.0181 3.74016 46.3014 3.69343 46.6161C3.64671 46.9308 3.72723 47.2511 3.9173 47.5065C4.10736 47.762 4.3914 47.9317 4.70691 47.9783L8.76564 48.578C8.92414 48.6014 9.08572 48.593 9.24091 48.5532C9.3961 48.5135 9.54176 48.4432 9.66933 48.3465C9.79691 48.2498 9.90383 48.1287 9.98381 47.9903C10.0638 47.8518 10.1152 47.6988 10.1351 47.5402L10.5861 43.942C10.6057 43.7857 10.5942 43.6271 10.5523 43.4752C10.5105 43.3233 10.439 43.1812 10.342 43.0568C10.2451 42.9325 10.1245 42.8284 9.98723 42.7505C9.84995 42.6727 9.69862 42.6225 9.54191 42.603V42.603Z" fill="#6BCAE2" fill-opacity="0.5"/>
<path d="M65.8443 6.0119C66.1632 6.0119 66.4691 5.88553 66.6947 5.6606C66.9202 5.43567 67.0469 5.1306 67.0469 4.8125C67.0469 4.49439 66.9202 4.18932 66.6947 3.96439C66.4691 3.73946 66.1632 3.61309 65.8443 3.61309H62.2365C61.9176 3.61309 61.6117 3.73946 61.3862 3.96439C61.1606 4.18932 61.0339 4.49439 61.0339 4.8125V8.41071C61.0339 8.72881 61.1606 9.03388 61.3862 9.25882C61.6117 9.48375 61.9176 9.61011 62.2365 9.61011C62.5555 9.61011 62.8614 9.48375 63.0869 9.25882C63.3124 9.03388 63.4391 8.72881 63.4391 8.41071V8.01521C67.8205 14.0014 69.921 21.3482 69.3641 28.7388C68.8071 36.1294 65.6292 43.0806 60.3999 48.3464C60.1754 48.5724 60.0502 48.8781 60.0517 49.1962C60.0532 49.5143 60.1814 49.8188 60.408 50.0426C60.6346 50.2665 60.9411 50.3914 61.2601 50.3899C61.579 50.3884 61.8843 50.2606 62.1088 50.0346C67.8295 44.2738 71.2675 36.6434 71.788 28.5519C72.3084 20.4605 69.8762 12.4545 64.9404 6.0119H65.8443Z" fill="#6BCAE2" fill-opacity="0.5"/>
</g>
<defs>
<clipPath id="clip0">
<rect width="72" height="60" fill="white"/>
</clipPath>
</defs>
</svg>
