<svg width="40" height="60" viewBox="0 0 40 60" fill="none" xmlns="http://www.w3.org/2000/svg">
<path d="M20.466 39.3334C20.9477 39.3334 21.3381 38.9399 21.3381 38.4545C21.3381 37.9691 20.9477 37.5756 20.466 37.5756H18.6017C18.1201 37.5756 17.7296 37.9691 17.7296 38.4545C17.7296 38.9399 18.1201 39.3334 18.6017 39.3334H20.466Z" fill="#6BCAE2" fill-opacity="0.5"/>
<path d="M19.534 46.8485C21.1191 46.8485 22.6215 46.6371 23.7644 46.2531C25.6112 45.6327 25.9987 44.7347 25.9987 44.0907V41.1553L28.2812 40.1098C28.9335 39.8109 29.3387 39.1766 29.3387 38.4544C29.3387 37.7322 28.9335 37.0979 28.2812 36.7991L21.4377 33.6641C20.2279 33.1099 18.8401 33.1099 17.6302 33.6641L10.7867 36.7991C10.1344 37.0979 9.72919 37.7322 9.72919 38.4544C9.72919 39.1766 10.1344 39.8109 10.7867 40.1098L13.0692 41.1553V45.9695C13.0692 46.4549 13.4597 46.8484 13.9413 46.8484C14.3907 46.8484 14.7604 46.5057 14.8079 46.0656C14.9602 46.1303 15.1249 46.193 15.3035 46.253C16.4464 46.6371 17.9488 46.8485 19.534 46.8485V46.8485ZM11.4733 38.4545C11.4733 38.4156 11.492 38.407 11.5084 38.3994L18.3519 35.2644C18.7274 35.0924 19.1306 35.0064 19.5338 35.0064C19.9371 35.0064 20.3402 35.0924 20.7158 35.2644L27.5593 38.3994C27.5758 38.4069 27.5944 38.4156 27.5944 38.4545C27.5944 38.4935 27.5757 38.5021 27.5593 38.5096L20.7158 41.6446C19.9648 41.9886 19.1031 41.9888 18.3519 41.6446L11.5084 38.5096C11.492 38.5021 11.4733 38.4935 11.4733 38.4545ZM14.8134 44.0332V41.9544L17.6302 43.2448C18.2351 43.5219 18.8845 43.6604 19.534 43.6604C20.1833 43.6604 20.8327 43.5219 21.4377 43.2448L24.2545 41.9544V44.0336C24.0147 44.3654 22.414 45.0907 19.534 45.0907C16.6528 45.0907 15.0522 44.3649 14.8134 44.0332V44.0332Z" fill="#6BCAE2" fill-opacity="0.5"/>
<path d="M13.0692 48.7878C13.0692 49.2732 13.4596 49.6667 13.9413 49.6667H13.9506C14.4322 49.6667 14.818 49.2732 14.818 48.7878C14.818 48.3025 14.4229 47.9089 13.9413 47.9089C13.4596 47.9089 13.0692 48.3025 13.0692 48.7878V48.7878Z" fill="#6BCAE2" fill-opacity="0.5"/>
<path d="M7.07291 50.0805C7.24489 50.3033 7.50198 50.4199 7.76186 50.4199C7.94896 50.4199 8.13756 50.3594 8.29663 50.2346C8.67686 49.9366 8.74524 49.3844 8.44954 49.0014C4.11593 43.3862 4.61268 35.3579 9.605 30.3267C14.5972 25.2955 22.5633 24.7949 28.1349 29.1622C28.515 29.4604 29.0629 29.3912 29.3586 29.0081C29.6543 28.625 29.5858 28.0729 29.2057 27.7748C22.9413 22.8643 13.9845 23.4268 8.37175 29.0838C2.75872 34.7406 2.20035 43.7672 7.07291 50.0805V50.0805Z" fill="#6BCAE2" fill-opacity="0.5"/>
<path d="M29.4629 50.3398C24.4706 55.371 16.5045 55.8715 10.933 51.5042C10.5529 51.2061 10.0051 51.2753 9.70929 51.6584C9.41359 52.0416 9.48208 52.5936 9.8622 52.8916C12.7175 55.1299 16.1317 56.231 19.5343 56.231C23.5965 56.231 27.6417 54.661 30.6963 51.5826C36.3092 45.9259 36.8675 36.8992 31.9951 30.5859C31.6994 30.2026 31.1514 30.1337 30.7714 30.4318C30.3911 30.7298 30.3228 31.282 30.6185 31.6651C34.9518 37.2803 34.4551 45.3085 29.4629 50.3398V50.3398Z" fill="#6BCAE2" fill-opacity="0.5"/>
<path d="M39.9091 0.530977C39.7713 0.208711 39.4564 0 39.1083 0H32.5835C32.3436 0 32.1142 0.0996094 31.9494 0.275391L22.2902 10.5826C21.9595 10.9356 21.9753 11.4918 22.3255 11.8252C22.6757 12.1583 23.2276 12.1425 23.5584 11.7896L32.9594 1.75781H37.085L23.2624 16.5079L8.05058 0.275391C7.88581 0.0996094 7.65651 0 7.41651 0H0.891741C0.543486 0 0.228718 0.208711 0.0909272 0.530977C-0.0469798 0.853242 0.0186022 1.22719 0.257788 1.48242L14.8701 17.0752C13.8206 17.4612 13.0692 18.4772 13.0692 19.6668C13.0692 20.387 13.3449 21.0432 13.795 21.535C5.82686 24.0107 0.0196483 31.5012 0.0196483 40.3332C0.0196483 51.1775 8.77372 60 19.534 60C30.2942 60 39.0483 51.1775 39.0483 40.3332C39.0483 31.5011 33.241 24.0107 25.2729 21.535C25.7231 21.0432 25.9987 20.387 25.9987 19.6668C25.9987 18.7303 25.5328 17.9018 24.8226 17.4032L39.7422 1.4823C39.9813 1.2273 40.0469 0.853242 39.9091 0.530977V0.530977ZM7.04058 1.75781L21.2392 16.9091H17.1136L2.915 1.75781H7.04058ZM37.304 40.3332C37.304 50.2083 29.3323 58.2422 19.5338 58.2422C9.73535 58.2422 1.76383 50.2083 1.76383 40.3332C1.76383 30.4582 9.73546 22.4244 19.5338 22.4244C29.3322 22.4244 37.304 30.4583 37.304 40.3332ZM15.8055 20.6666C15.2584 20.6666 14.8134 20.218 14.8134 19.6668C14.8134 19.1155 15.2585 18.6669 15.8055 18.6669H23.2623C23.8094 18.6669 24.2544 19.1155 24.2544 19.6668C24.2544 20.218 23.8093 20.6666 23.2623 20.6666H15.8055Z" fill="#6BCAE2" fill-opacity="0.5"/>
</svg>
