<svg xmlns="http://www.w3.org/2000/svg" width="42.816" height="66.824" viewBox="0 0 42.816 66.824">
  <g id="stomach" transform="translate(-91.976)">
    <path id="Path_2678" data-name="Path 2678" d="M120.317,7.341a16.964,16.964,0,0,0-13.793,2.375h-1.466a3.647,3.647,0,0,1-3.641-3.644v-3.5A2.577,2.577,0,0,0,98.843,0h-2a2.577,2.577,0,0,0-2.574,2.574V7.108a9.763,9.763,0,0,0,7.552,9.51c-2.352,9.6,6.949,13.748,7.318,18.443.154,1.957-1.2,4.1-4.275,6.728a8.529,8.529,0,0,0-2.92,5.426H99.453a7.487,7.487,0,0,0-7.477,7.48V64.25a2.577,2.577,0,0,0,2.574,2.574h1.676A2.577,2.577,0,0,0,98.8,64.25v-8.1a.98.98,0,0,1,.979-.979h5.684a12.951,12.951,0,0,0,6.743,2.006c3.579,0,7.469-1.641,11.176-4.754a34.442,34.442,0,0,0,10.047-14.991c4.665-13.471-3.378-27.516-13.112-30.1Zm11.139,29.412c-3.558,10.275-13.869,21.792-23.8,17.275-2.588-1.176.805-.941-7.873-.941a3.071,3.071,0,0,0-3.067,3.067v8.1a.487.487,0,0,1-.486.486H94.55a.487.487,0,0,1-.486-.486V54.695A5.4,5.4,0,0,1,99.453,49.3h3.469a1.044,1.044,0,0,0,1.044-1.044,6.351,6.351,0,0,1,2.255-4.885c14.141-12.123-6.488-14.8-2.08-27.243a1.045,1.045,0,0,0-.882-1.388,7.639,7.639,0,0,1-6.9-7.634V2.574a.487.487,0,0,1,.486-.486h2a.487.487,0,0,1,.486.486v3.5a5.7,5.7,0,0,0,5.73,5.732c1.594-.026,1.981.137,2.441-.212A14.948,14.948,0,0,1,119.782,9.36c8.5,2.252,15.959,15.019,11.674,27.393Z" fill="#fff"/>
    <path id="Path_2679" data-name="Path 2679" d="M220.144,261.321a5.542,5.542,0,0,1-4.429-.249,9.925,9.925,0,0,0-5.736-1.368,2.43,2.43,0,0,0-2.156,2.233c-.147,2.094-1.692,4.57-4.351,6.97-6.828,6.165,1.549,16.724,13.278,5.042a25.939,25.939,0,0,0,6.444-9.507A2.44,2.44,0,0,0,220.144,261.321Zm1.081,2.43c-1.94,5.536-10.181,14.8-15.762,13.2-2.639-.759-3.363-3.988-.59-6.492,3.062-2.765,4.85-5.739,5.035-8.374a.346.346,0,0,1,.312-.3c.056.008,1.722-.335,4.524,1.141a7.651,7.651,0,0,0,6.045.388.35.35,0,0,1,.438.443Z" transform="translate(-94.81 -225.772)" fill="#fff"/>
    <path id="Path_2680" data-name="Path 2680" d="M288.951,88.264a1.044,1.044,0,0,0-.469,2.035c5.639,1.3,8.237,6.16,9.612,11.747a1.044,1.044,0,0,0,2.028-.5C298.242,93.907,294.588,89.562,288.951,88.264Z" transform="translate(-170.155 -76.721)" fill="#fff"/>
    <circle id="Ellipse_264" data-name="Ellipse 264" cx="1.044" cy="1.044" r="1.044" transform="translate(113.883 10.975)" fill="#fff"/>
  </g>
</svg>
