<svg width="513" height="472" viewBox="0 0 513 472" fill="none" xmlns="http://www.w3.org/2000/svg">
<g clip-path="url(#clip0)">
<path d="M461.84 44.1399H455.99V73.2799C455.99 77.2581 454.41 81.0735 451.597 83.8865C448.784 86.6995 444.968 88.2799 440.99 88.2799C437.012 88.2799 433.196 86.6995 430.383 83.8865C427.57 81.0735 425.99 77.2581 425.99 73.2799V44.1399H382.01V73.2799C382.01 77.2581 380.43 81.0735 377.617 83.8865C374.804 86.6995 370.988 88.2799 367.01 88.2799C363.032 88.2799 359.216 86.6995 356.403 83.8865C353.59 81.0735 352.01 77.2581 352.01 73.2799V44.1399H308.03V73.2799C308.03 77.2581 306.45 81.0735 303.637 83.8865C300.824 86.6995 297.008 88.2799 293.03 88.2799C289.052 88.2799 285.236 86.6995 282.423 83.8865C279.61 81.0735 278.03 77.2581 278.03 73.2799V44.1399H234.03V73.2799C234.03 77.2581 232.45 81.0735 229.637 83.8865C226.824 86.6995 223.008 88.2799 219.03 88.2799C215.052 88.2799 211.236 86.6995 208.423 83.8865C205.61 81.0735 204.03 77.2581 204.03 73.2799V44.1399H160.05V73.2799C160.05 77.2581 158.47 81.0735 155.657 83.8865C152.844 86.6995 149.028 88.2799 145.05 88.2799C141.072 88.2799 137.256 86.6995 134.443 83.8865C131.63 81.0735 130.05 77.2581 130.05 73.2799V44.1399H86.07V73.2799C86.07 77.2581 84.4897 81.0735 81.6766 83.8865C78.8636 86.6995 75.0483 88.2799 71.07 88.2799C67.0918 88.2799 63.2765 86.6995 60.4634 83.8865C57.6504 81.0735 56.07 77.2581 56.07 73.2799V44.1399H50.21C36.9044 44.1552 24.1484 49.4484 14.7408 58.8578C5.3333 68.2672 0.0427333 81.0243 0.0300293 94.3299L0.0300293 124.14H512.03V94.3299C512.015 81.0233 506.722 68.2661 497.313 58.8569C487.904 49.4477 475.147 44.155 461.84 44.1399V44.1399Z" fill="#727272"/>
<path d="M241.1 342.55V390.82H270.97V342.55C270.97 338.572 272.55 334.756 275.363 331.943C278.177 329.13 281.992 327.55 285.97 327.55H334.23V297.69H285.97C281.992 297.69 278.177 296.11 275.363 293.297C272.55 290.483 270.97 286.668 270.97 282.69V234.42H241.1V282.69C241.099 286.668 239.518 290.482 236.705 293.295C233.892 296.108 230.078 297.689 226.1 297.69H177.82V327.55H226.1C230.078 327.551 233.892 329.132 236.705 331.945C239.518 334.758 241.099 338.572 241.1 342.55V342.55Z" fill="#727272"/>
<path d="M0.0300293 420.91C0.0427333 434.215 5.3333 446.973 14.7408 456.382C24.1484 465.791 36.9044 471.085 50.21 471.1H461.84C475.147 471.085 487.904 465.792 497.313 456.383C506.722 446.974 512.015 434.216 512.03 420.91V154.14H0.0300293V420.91ZM147.82 282.69C147.82 278.712 149.4 274.896 152.213 272.083C155.026 269.27 158.842 267.69 162.82 267.69H211.1V219.42C211.099 217.45 211.486 215.499 212.24 213.679C212.993 211.858 214.098 210.204 215.491 208.811C216.884 207.418 218.538 206.313 220.359 205.56C222.179 204.806 224.13 204.419 226.1 204.42H285.97C289.948 204.42 293.764 206 296.577 208.813C299.39 211.626 300.97 215.442 300.97 219.42V267.69H349.23C353.208 267.69 357.024 269.27 359.837 272.083C362.65 274.896 364.23 278.712 364.23 282.69V342.55C364.23 346.528 362.65 350.343 359.837 353.156C357.024 355.97 353.208 357.55 349.23 357.55H300.97V405.82C300.97 409.798 299.39 413.613 296.577 416.426C293.764 419.24 289.948 420.82 285.97 420.82H226.1C224.13 420.821 222.179 420.433 220.359 419.68C218.538 418.926 216.884 417.822 215.491 416.429C214.098 415.035 212.993 413.382 212.24 411.561C211.486 409.741 211.099 407.79 211.1 405.82V357.55H162.82C158.842 357.55 155.026 355.97 152.213 353.156C149.4 350.343 147.82 346.528 147.82 342.55V282.69Z" fill="#727272"/>
<path d="M234.03 15C234.03 11.0218 232.45 7.20644 229.637 4.3934C226.824 1.58035 223.008 0 219.03 0C215.052 0 211.236 1.58035 208.423 4.3934C205.61 7.20644 204.03 11.0218 204.03 15V44.14H234.03V15Z" fill="#727272"/>
<path d="M160.05 15C160.05 11.0218 158.47 7.20644 155.657 4.3934C152.844 1.58035 149.028 0 145.05 0C141.072 0 137.256 1.58035 134.443 4.3934C131.63 7.20644 130.05 11.0218 130.05 15V44.14H160.05V15Z" fill="#727272"/>
<path d="M86.0701 15C86.0701 11.0218 84.4897 7.20644 81.6767 4.3934C78.8636 1.58035 75.0483 0 71.0701 0C67.0918 0 63.2765 1.58035 60.4635 4.3934C57.6504 7.20644 56.0701 11.0218 56.0701 15V44.14H86.0701V15Z" fill="#727272"/>
<path d="M455.99 15C455.99 11.0218 454.41 7.20644 451.597 4.3934C448.784 1.58035 444.968 0 440.99 0C437.012 0 433.196 1.58035 430.383 4.3934C427.57 7.20644 425.99 11.0218 425.99 15V44.14H455.99V15Z" fill="#727272"/>
<path d="M382.01 15C382.01 11.0218 380.43 7.20644 377.617 4.3934C374.804 1.58035 370.988 0 367.01 0C363.032 0 359.216 1.58035 356.403 4.3934C353.59 7.20644 352.01 11.0218 352.01 15V44.14H382.01V15Z" fill="#727272"/>
<path d="M308.03 15C308.03 11.0218 306.45 7.20644 303.637 4.3934C300.824 1.58035 297.008 0 293.03 0C289.052 0 285.236 1.58035 282.423 4.3934C279.61 7.20644 278.03 11.0218 278.03 15V44.14H308.03V15Z" fill="#727272"/>
</g>
<defs>
<clipPath id="clip0">
<rect width="512" height="471.1" fill="white" transform="translate(0.0300293)"/>
</clipPath>
</defs>
</svg>
