<svg id="attach" xmlns="http://www.w3.org/2000/svg" width="511.992" height="511.992" viewBox="0 0 511.992 511.992">
  <circle id="Ellipse_32" data-name="Ellipse 32" cx="255.996" cy="255.996" r="255.996" transform="translate(0 0)" fill="#59a0dd"/>
  <path id="Path_3262" data-name="Path 3262" d="M372.222,103.314a84.49,84.49,0,0,0-119.2,0l-175.2,175.2,19.4,19.4,175.2-175.2a56.852,56.852,0,0,1,80.4,80.4l-.365.365h0l-157.4,157.4a33.283,33.283,0,0,1-47.07-47.07l98.148-98.149h0l56.871-56.871A10.052,10.052,0,0,1,317.22,173L170.052,320.172l19.4,19.4L336.616,192.4a37.484,37.484,0,0,0-53.01-53.009L279.995,143l-53.257,53.257-98.15,98.149a60.717,60.717,0,0,0,85.867,85.865L238.434,356.3,372.221,222.51a84.491,84.491,0,0,0,0-119.2Z" transform="translate(18.673 17.638)" fill="#fff"/>
</svg>
