<svg width="512" height="512" viewBox="0 0 512 512" fill="none" xmlns="http://www.w3.org/2000/svg">
<path d="M280.23 197.18C329.185 197.18 376.76 159.574 376.76 96.53C376.73 70.9377 366.551 46.4022 348.454 28.3057C330.358 10.2093 305.822 0.0296421 280.23 0L96.53 0C47.24 0 0 37.9 0 100.65C0.0287148 123.645 8.25216 145.877 23.1944 163.356C38.1366 180.835 58.8192 192.415 81.53 196.02V260.17C81.53 273.876 98.561 280.447 107.73 270.14L172.73 197.18H280.23ZM279.83 80.01C283.505 80.01 287.097 81.0997 290.152 83.1413C293.208 85.1829 295.589 88.0847 296.996 91.4797C298.402 94.8748 298.77 98.6106 298.053 102.215C297.336 105.819 295.567 109.13 292.968 111.728C290.37 114.327 287.059 116.096 283.455 116.813C279.851 117.53 276.115 117.162 272.72 115.756C269.325 114.349 266.423 111.968 264.381 108.912C262.34 105.857 261.25 102.265 261.25 98.59C261.251 93.6626 263.209 88.9373 266.693 85.4531C270.177 81.9689 274.903 80.0111 279.83 80.01ZM96.92 117.17C93.2456 117.168 89.6544 116.077 86.6002 114.034C83.5461 111.991 81.1662 109.089 79.7614 105.693C78.3567 102.298 77.9902 98.5626 78.7082 94.9591C79.4263 91.3556 81.1966 88.0459 83.7955 85.4484C86.3943 82.851 89.705 81.0824 93.3089 80.3663C96.9128 79.6502 100.648 80.0187 104.043 81.4253C107.437 82.8318 110.338 85.2133 112.379 88.2685C114.421 91.3238 115.51 94.9156 115.51 98.59C115.51 101.031 115.029 103.447 114.094 105.702C113.16 107.957 111.79 110.006 110.064 111.731C108.338 113.456 106.288 114.825 104.033 115.758C101.778 116.691 99.3607 117.171 96.92 117.17V117.17ZM188.38 80.01C192.055 80.01 195.647 81.0997 198.702 83.1413C201.758 85.1829 204.139 88.0847 205.546 91.4797C206.952 94.8748 207.32 98.6106 206.603 102.215C205.886 105.819 204.116 109.13 201.518 111.728C198.92 114.327 195.609 116.096 192.005 116.813C188.401 117.53 184.665 117.162 181.27 115.756C177.875 114.349 174.973 111.968 172.931 108.912C170.89 105.857 169.8 102.265 169.8 98.59C169.801 93.6624 171.758 88.9369 175.243 85.4525C178.727 81.9682 183.452 80.0105 188.38 80.01V80.01Z" fill="#727272"/>
<path d="M415.37 236.83H231.67C206.077 236.862 181.541 247.044 163.445 265.142C145.348 283.24 135.169 307.777 135.14 333.37C135.14 395.543 181.92 434.02 231.67 434.02H339.17L404.17 506.98C413.26 517.199 430.37 510.793 430.37 497V432.85C453.081 429.246 473.763 417.665 488.706 400.186C503.648 382.707 511.871 360.475 511.9 337.48C511.9 275.44 465.245 236.83 415.37 236.83V236.83ZM232.07 354.009C228.394 354.01 224.801 352.921 221.744 350.88C218.687 348.838 216.304 345.936 214.897 342.541C213.489 339.145 213.12 335.409 213.836 331.803C214.552 328.198 216.321 324.886 218.92 322.286C221.518 319.686 224.829 317.915 228.434 317.197C232.039 316.479 235.776 316.846 239.173 318.252C242.569 319.658 245.472 322.039 247.515 325.095C249.558 328.15 250.649 331.743 250.65 335.419C250.651 340.348 248.694 345.076 245.21 348.562C241.725 352.048 236.999 354.007 232.07 354.009V354.009ZM323.52 354.009C319.844 354.01 316.251 352.921 313.194 350.88C310.137 348.838 307.754 345.936 306.347 342.541C304.939 339.145 304.57 335.409 305.286 331.803C306.002 328.198 307.771 324.886 310.37 322.286C312.968 319.686 316.279 317.915 319.884 317.197C323.489 316.479 327.226 316.846 330.623 318.252C334.019 319.658 336.922 322.039 338.965 325.095C341.008 328.15 342.099 331.743 342.1 335.419C342.101 337.86 341.621 340.277 340.688 342.532C339.754 344.787 338.386 346.836 336.66 348.562C334.935 350.289 332.887 351.658 330.632 352.593C328.377 353.527 325.961 354.009 323.52 354.009ZM414.98 354.009C411.304 354.01 407.711 352.921 404.654 350.88C401.597 348.838 399.214 345.936 397.807 342.541C396.399 339.145 396.03 335.409 396.746 331.803C397.462 328.198 399.231 324.886 401.83 322.286C404.428 319.686 407.739 317.915 411.344 317.197C414.949 316.479 418.686 316.846 422.083 318.252C425.479 319.658 428.382 322.039 430.425 325.095C432.468 328.15 433.559 331.743 433.56 335.419C433.561 340.348 431.604 345.076 428.12 348.562C424.635 352.048 419.909 354.007 414.98 354.009V354.009Z" fill="#727272"/>
</svg>
