<svg xmlns="http://www.w3.org/2000/svg" width="206" height="208" viewBox="0 0 206 208">
  <g id="Group_11670" data-name="Group 11670" transform="translate(-308 -712)">
    <g id="Rectangle_8" data-name="Rectangle 8" transform="translate(308 712)" fill="#6bcae2" stroke="#6bcae2" stroke-width="1" opacity="0.34">
      <path d="M10,0H206a0,0,0,0,1,0,0V208a0,0,0,0,1,0,0H10A10,10,0,0,1,0,198V10A10,10,0,0,1,10,0Z" stroke="none"/>
      <path d="M10,.5H205a.5.5,0,0,1,.5.5V207a.5.5,0,0,1-.5.5H10A9.5,9.5,0,0,1,.5,198V10A9.5,9.5,0,0,1,10,.5Z" fill="none"/>
    </g>
    <g id="Group_25" data-name="Group 25" transform="translate(467.07 805.795)">
      <path id="Path_625" data-name="Path 625" d="M1380.91,1206.462l7.7-66.98a1.837,1.837,0,0,1,1.834-1.719h.832v-2.083h1.1v-7.988h1.534v7.988h1.1v2.083h.832a1.837,1.837,0,0,1,1.834,1.719l7.7,66.98h-1.117l-9.449-65.187h-.391l-3.463,65.187h-1.117l1.4-63.812-9.2,63.812Z" transform="translate(-1380.91 -1111.224)" fill="#332938"/>
      <path id="Path_626" data-name="Path 626" d="M1385.044,1000.068h17.64l3.3,20.987h-24.242Z" transform="translate(-1381.636 -1000.068)" fill="#ffaf50"/>
    </g>
    <g id="Group_36" data-name="Group 36" transform="translate(374.646 734.5)">
      <g id="Group_26" data-name="Group 26" transform="translate(0 0)">
        <path id="Path_627" data-name="Path 627" d="M737.833,614.068H676.228a11.613,11.613,0,0,1-11.6-11.6V459.135a11.613,11.613,0,0,1,11.6-11.6h61.605a11.613,11.613,0,0,1,11.6,11.6V602.468A11.613,11.613,0,0,1,737.833,614.068ZM676.228,452a7.144,7.144,0,0,0-7.136,7.136V602.468a7.144,7.144,0,0,0,7.136,7.136h61.605a7.144,7.144,0,0,0,7.136-7.136V459.135A7.144,7.144,0,0,0,737.833,452Z" transform="translate(-664.628 -447.535)" fill="#fff"/>
      </g>
      <rect id="Rectangle_10" data-name="Rectangle 10" width="80.341" height="162.069" rx="40.171" transform="translate(2.232 2.232)" fill="#bdedff"/>
      <g id="Group_34" data-name="Group 34" transform="translate(2.27 2.232)">
        <path id="Path_628" data-name="Path 628" d="M753.138,464.832H691.6a9.384,9.384,0,0,0-9.384,9.384V475.8h80.3v-1.589A9.384,9.384,0,0,0,753.138,464.832Z" transform="translate(-682.219 -464.832)" fill="#e1f8ff"/>
        <g id="Group_28" data-name="Group 28" transform="translate(67.381 4.444)">
          <g id="Group_27" data-name="Group 27" transform="translate(0 0)">
            <circle id="Ellipse_173" data-name="Ellipse 173" cx="1.303" cy="1.303" r="1.303" transform="matrix(0.987, -0.16, 0.16, 0.987, 0, 0.417)" fill="#31c687"/>
          </g>
        </g>
        <g id="Group_30" data-name="Group 30" transform="translate(62.285 4.636)">
          <g id="Group_29" data-name="Group 29">
            <circle id="Ellipse_174" data-name="Ellipse 174" cx="1.303" cy="1.303" r="1.303" fill="#ffaf50"/>
          </g>
        </g>
        <g id="Group_32" data-name="Group 32" transform="translate(72.64 4.636)">
          <g id="Group_31" data-name="Group 31">
            <circle id="Ellipse_175" data-name="Ellipse 175" cx="1.303" cy="1.303" r="1.303" fill="#ff6060"/>
          </g>
        </g>
        <rect id="Rectangle_11" data-name="Rectangle 11" width="80.303" height="10.969" transform="translate(0 10.973)" fill="#9fe8ff"/>
        <path id="Path_629" data-name="Path 629" d="M775.914,570.252H722.451a2.855,2.855,0,1,0,0,5.71h53.463a2.855,2.855,0,1,0,0-5.71Z" transform="translate(-714.773 -556.649)" fill="#fff"/>
        <g id="Group_33" data-name="Group 33" transform="translate(67.436 13.697)">
          <path id="Path_630" data-name="Path 630" d="M1211.663,570.98h-6.254a.564.564,0,1,0,0,1.127h6.254a.564.564,0,0,0,0-1.127Z" transform="translate(-1204.845 -570.98)" fill="#fff"/>
          <path id="Path_631" data-name="Path 631" d="M1211.663,588.012h-6.254a.563.563,0,1,0,0,1.127h6.254a.563.563,0,0,0,0-1.127Z" transform="translate(-1204.845 -585.814)" fill="#fff"/>
          <path id="Path_632" data-name="Path 632" d="M1211.663,605.044h-6.254a.563.563,0,1,0,0,1.127h6.254a.563.563,0,1,0,0-1.127Z" transform="translate(-1204.845 -600.649)" fill="#fff"/>
        </g>
      </g>
      <g id="Group_35" data-name="Group 35" transform="translate(1.736 1.736)">
        <path id="Path_633" data-name="Path 633" d="M749.55,624.049H687.945a9.875,9.875,0,0,1-9.864-9.864V470.852a9.875,9.875,0,0,1,9.864-9.864H749.55a9.875,9.875,0,0,1,9.864,9.864V614.185A9.875,9.875,0,0,1,749.55,624.049ZM687.945,461.98a8.882,8.882,0,0,0-8.872,8.872V614.185a8.882,8.882,0,0,0,8.872,8.872H749.55a8.882,8.882,0,0,0,8.872-8.872V470.852a8.882,8.882,0,0,0-8.872-8.872Z" transform="translate(-678.081 -460.988)" fill="#332938"/>
      </g>
      <path id="Path_634" data-name="Path 634" d="M946.857,501.763H934.4a.468.468,0,0,1-.468-.468h0a.468.468,0,0,1,.468-.469h12.454a.468.468,0,0,1,.468.469h0A.468.468,0,0,1,946.857,501.763Z" transform="translate(-899.185 -493.95)" fill="#191f2b"/>
    </g>
    <g id="Group_96" data-name="Group 96" transform="translate(390.708 767.925)">
      <g id="Group_95" data-name="Group 95">
        <g id="Group_37" data-name="Group 37" transform="translate(20.337 18.33)">
          <path id="Path_635" data-name="Path 635" d="M954.162,865.118c-.017-.067-1.688-6.734-2.369-9.05-.66-2.242-5.037-6.906-5.081-6.952l.512-.482c.185.2,4.537,4.834,5.244,7.236.685,2.329,2.36,9.01,2.377,9.077Z" transform="translate(-946.712 -848.634)" fill="#6b6170"/>
        </g>
        <path id="Path_636" data-name="Path 636" d="M949.295,1054.315l21.553,1.66s1.935,7.547-16.336,6.66C946.123,1062.228,949.295,1054.315,949.295,1054.315Z" transform="translate(-928.113 -1009.445)" fill="#fff"/>
        <rect id="Rectangle_12" data-name="Rectangle 12" width="20.702" height="14.776" transform="translate(33.918 53.726) rotate(-79.654)" fill="#332938"/>
        <path id="Path_637" data-name="Path 637" d="M1021.666,1059.583l1.45,7.661.693-7.5Z" transform="translate(-991.658 -1014.033)" fill="#332938"/>
        <path id="Path_638" data-name="Path 638" d="M1165.581,1070.288c-.1.418-.812.482-1.588.144s-1.323-.953-1.221-1.371.812-.482,1.587-.144S1165.682,1069.869,1165.581,1070.288Z" transform="translate(-1114.546 -1021.973)" fill="#ff9479"/>
        <ellipse id="Ellipse_176" data-name="Ellipse 176" cx="1.485" cy="1.067" rx="1.485" ry="1.067" transform="translate(47.766 49.509)" fill="#ff9479"/>
        <ellipse id="Ellipse_177" data-name="Ellipse 177" cx="1.485" cy="1.067" rx="1.485" ry="1.067" transform="translate(47.468 50.993)" fill="#ff9479"/>
        <g id="Group_38" data-name="Group 38" transform="translate(22.773 119.597)">
          <path id="Path_639" data-name="Path 639" d="M987.2,1644.236a10.607,10.607,0,0,0-.19-1.451c-.027-.134-.059-.273-.1-.42a6.51,6.51,0,0,0-2.322-3.663,4.276,4.276,0,0,0-.469-.3,5.436,5.436,0,0,0-1.4-.582c-.489-.134-.962-.245-1.407-.356q-.269-.062-.525-.125c-.459-.115-.891-.226-1.287-.356-.176-.055-.344-.115-.508-.18a4.387,4.387,0,0,1-1.168-.647,2.573,2.573,0,0,1-.423-.4,4,4,0,0,1-.883-2.308H965.6l1.071,10.79Z" transform="translate(-965.596 -1633.446)" fill="#332938"/>
        </g>
        <g id="Group_39" data-name="Group 39" transform="translate(23.656 128.516)">
          <path id="Path_640" data-name="Path 640" d="M992.971,1702.993l-20.489,0-.042-.42,20.433,0C992.91,1702.718,992.943,1702.859,992.971,1702.993Z" transform="translate(-972.44 -1702.573)" fill="#6b6170"/>
        </g>
        <g id="Group_40" data-name="Group 40" transform="translate(0 119.597)">
          <path id="Path_641" data-name="Path 641" d="M790.573,1633.446l-1.469,10.79h20.531a10.541,10.541,0,0,0,.152-1.451c0-.134,0-.273,0-.42a4.971,4.971,0,0,0-1.459-3.663,3.065,3.065,0,0,0-.4-.3,4.2,4.2,0,0,0-1.265-.582c-.458-.134-.9-.245-1.324-.356q-.255-.062-.5-.125c-.432-.115-.838-.226-1.2-.356-.163-.055-.317-.115-.465-.18a3.228,3.228,0,0,1-1.016-.647,1.823,1.823,0,0,1-.329-.4,3.364,3.364,0,0,1-.339-2.308Z" transform="translate(-789.104 -1633.446)" fill="#332938"/>
        </g>
        <g id="Group_41" data-name="Group 41" transform="translate(0.194 128.516)">
          <path id="Path_642" data-name="Path 642" d="M811.1,1702.993l-20.49,0,.057-.42,20.433,0C811.1,1702.718,811.1,1702.859,811.1,1702.993Z" transform="translate(-790.61 -1702.573)" fill="#6b6170"/>
        </g>
        <g id="Group_43" data-name="Group 43" transform="translate(1.068 119.597)">
          <g id="Group_42" data-name="Group 42">
            <path id="Path_643" data-name="Path 643" d="M797.383,1636.39s6.1,1.054,6.4-1.278c.109-.857,1-1.379,1.714-1.666h-7.71Z" transform="translate(-797.383 -1633.446)" fill="#ff9479"/>
          </g>
        </g>
        <g id="Group_45" data-name="Group 45" transform="translate(22.773 119.597)">
          <g id="Group_44" data-name="Group 44">
            <path id="Path_644" data-name="Path 644" d="M966,1637.514s2.676-.135,4-.22,2.02-.562,2.02-2.217c0-1.138,1.3-1.51,2.119-1.63h-8.545Z" transform="translate(-965.592 -1633.446)" fill="#ff9479"/>
          </g>
        </g>
        <g id="Group_46" data-name="Group 46" transform="translate(16.806 59.309)">
          <path id="Path_645" data-name="Path 645" d="M943.443,1226.5l-18.127,0-5.967-60.29h14.7l4.3,26.667.078.5,2.411,14.955.079.47Z" transform="translate(-919.349 -1166.218)" fill="#7d4449"/>
        </g>
        <g id="Group_48" data-name="Group 48" transform="translate(23.368 59.308)">
          <g id="Group_47" data-name="Group 47">
            <path id="Path_646" data-name="Path 646" d="M976.152,1226.5l.427,0-5.864-60.29h-.51Z" transform="translate(-970.205 -1166.21)" fill="#573033"/>
          </g>
        </g>
        <g id="Group_49" data-name="Group 49" transform="translate(1.474 59.307)">
          <path id="Path_647" data-name="Path 647" d="M826.879,1166.2l-3.569,26.15-.066.48-2.124,15.555-.066.48-2.4,17.626H800.53l8.222-60.291Z" transform="translate(-800.53 -1166.204)" fill="#a35a5f"/>
        </g>
        <g id="Group_51" data-name="Group 51" transform="translate(4.964 59.304)">
          <g id="Group_50" data-name="Group 50">
            <path id="Path_648" data-name="Path 648" d="M828,1226.476l-.427,0,9.085-60.291h.51Z" transform="translate(-827.573 -1166.182)" fill="#7d4449"/>
          </g>
        </g>
        <g id="Group_52" data-name="Group 52" transform="translate(21.437 59.308)">
          <path id="Path_649" data-name="Path 649" d="M955.242,1213l6.386-46.793h3.9Z" transform="translate(-955.242 -1166.21)" fill="#332938"/>
        </g>
        <path id="Path_650" data-name="Path 650" d="M842.31,1331.975l-19.446,9.7,1.323-9.7,12.466-9.266Z" transform="translate(-818.508 -1243.208)" fill="#a35a5f" opacity="0.3" style="mix-blend-mode: multiply;isolation: isolate"/>
        <g id="Group_53" data-name="Group 53" transform="translate(4.964 18.39)">
          <path id="Path_651" data-name="Path 651" d="M860.523,919.475h-17.98l-2.15-8.118-3.134,8.118h-9.685l6.841-64.268,1.6-3.076.193-.367,1.39-2.666,6.019.987L851.526,868l.132.3,1.132,2.567Z" transform="translate(-827.573 -849.098)" fill="#fff"/>
        </g>
        <rect id="Rectangle_13" data-name="Rectangle 13" width="0.442" height="10.841" transform="matrix(-0.707, -0.707, 0.707, -0.707, 16.136, 77.081)" fill="#d6c5cf"/>
        <rect id="Rectangle_14" data-name="Rectangle 14" width="0.442" height="10.841" transform="translate(17.279 70.55) rotate(-135)" fill="#d6c5cf"/>
        <g id="Group_54" data-name="Group 54" transform="translate(13.409 21.057)">
          <path id="Path_652" data-name="Path 652" d="M908.741,886.221l-.078.075-.2.193-15.436-16.359.193-.367L908.53,886Z" transform="translate(-893.022 -869.762)" fill="#d6c5cf"/>
        </g>
        <g id="Group_55" data-name="Group 55" transform="translate(10.032 38.129)" opacity="0.3" style="mix-blend-mode: multiply;isolation: isolate">
          <path id="Path_653" data-name="Path 653" d="M872.852,1002.07l-6,9.252,2.482,17.416Z" transform="translate(-866.856 -1002.07)" fill="#a35a5f"/>
        </g>
        <path id="Path_654" data-name="Path 654" d="M827.461,1076.72h-8.686l.272-18.385,8.686-1.174Z" transform="translate(-814.946 -1011.924)" fill="#fff"/>
        <g id="Group_56" data-name="Group 56" transform="translate(13.569 1.879)">
          <circle id="Ellipse_178" data-name="Ellipse 178" cx="3.607" cy="3.607" r="3.607" transform="translate(0 2.32) rotate(-18.758)" fill="#332938"/>
        </g>
        <g id="Group_58" data-name="Group 58" transform="translate(14.991 10.28)">
          <g id="Group_57" data-name="Group 57">
            <path id="Path_655" data-name="Path 655" d="M911.3,786.242v9.1a57.333,57.333,0,0,1-6.019-.918v-8.18Z" transform="translate(-905.284 -786.242)" fill="#ffae9f"/>
          </g>
        </g>
        <g id="Group_59" data-name="Group 59" transform="translate(17.304 14.119)">
          <path id="Path_656" data-name="Path 656" d="M926.92,816.458,923.213,816l3.707,2.262Z" transform="translate(-923.213 -815.999)" fill="#332938"/>
        </g>
        <g id="Group_61" data-name="Group 61" transform="translate(15.21 3.593)">
          <g id="Group_60" data-name="Group 60">
            <path id="Path_657" data-name="Path 657" d="M912.89,745.922l-5.91-1.027v-6.3a4.274,4.274,0,0,1,4.37-4.17h0a4.273,4.273,0,0,1,4.369,4.17v4.966A2.233,2.233,0,0,1,912.89,745.922Z" transform="translate(-906.98 -734.422)" fill="#ffae9f"/>
          </g>
        </g>
        <g id="Group_63" data-name="Group 63" transform="translate(16.743 8.297)">
          <g id="Group_62" data-name="Group 62" transform="translate(0 0)">
            <circle id="Ellipse_179" data-name="Ellipse 179" cx="1.248" cy="1.248" r="1.248" transform="translate(0 1.766) rotate(-45)" fill="#ff887c"/>
          </g>
        </g>
        <g id="Group_64" data-name="Group 64" transform="translate(14.798 4.573)">
          <path id="Rectangle_15" data-name="Rectangle 15" d="M2.462,0h0a0,0,0,0,1,0,0V4.5a0,0,0,0,1,0,0H0a0,0,0,0,1,0,0V2.462A2.462,2.462,0,0,1,2.462,0Z" fill="#332938"/>
        </g>
        <g id="Group_66" data-name="Group 66" transform="translate(12.805 7.886)">
          <g id="Group_65" data-name="Group 65">
            <circle id="Ellipse_180" data-name="Ellipse 180" cx="1.993" cy="1.993" r="1.993" fill="#ffae9f"/>
          </g>
        </g>
        <path id="Path_658" data-name="Path 658" d="M895.809,772.99l1.806,2.381S894.444,776.208,895.809,772.99Z" transform="translate(-881.743 -764.42)" fill="#a35a5f" opacity="0.3" style="mix-blend-mode: multiply;isolation: isolate"/>
        <g id="Group_67" data-name="Group 67" transform="translate(16.589 9.07)">
          <path id="Path_659" data-name="Path 659" d="M918.338,776.87a5.058,5.058,0,0,0,.74,2.664c.722.813,2.783.433,2.783.433a2.474,2.474,0,0,0,1.194.7.779.779,0,0,0,.958-.649l.364-.345s2.019,2.009.286,3.078c-2.328,1.437-5.442.039-6.327-.956s-.641-4.923-.641-4.923Z" transform="translate(-917.666 -776.87)" fill="#332938"/>
        </g>
        <g id="Group_69" data-name="Group 69" transform="translate(22.651 8.849)">
          <g id="Group_68" data-name="Group 68">
            <path id="Path_660" data-name="Path 660" d="M965.946,775.19v2.278a.9.9,0,0,1-.259.039,1.187,1.187,0,0,1,0-2.356A.891.891,0,0,1,965.946,775.19Z" transform="translate(-964.646 -775.151)" fill="#ff887c"/>
          </g>
        </g>
        <g id="Group_74" data-name="Group 74" transform="translate(19.348 8.57)">
          <g id="Group_70" data-name="Group 70">
            <circle id="Ellipse_181" data-name="Ellipse 181" cx="0.394" cy="0.394" r="0.394" fill="#332938"/>
          </g>
          <g id="Group_71" data-name="Group 71" transform="translate(3.45 0)">
            <path id="Path_661" data-name="Path 661" d="M966.577,773.384a.394.394,0,1,1-.394-.394A.394.394,0,0,1,966.577,773.384Z" transform="translate(-965.788 -772.99)" fill="#332938"/>
          </g>
          <g id="Group_73" data-name="Group 73" transform="translate(1.815 1.457)">
            <g id="Group_72" data-name="Group 72">
              <path id="Path_662" data-name="Path 662" d="M953.887,785.062a.357.357,0,0,1-.058,0l-.715,0v-.315l.8-.011v-.009l.011-.042,0-.407h.315v.407a.339.339,0,0,1-.108.278A.35.35,0,0,1,953.887,785.062Z" transform="translate(-953.113 -784.278)" fill="#332938"/>
            </g>
          </g>
        </g>
        <g id="Group_75" data-name="Group 75" transform="translate(16.407 3.593)">
          <path id="Rectangle_16" data-name="Rectangle 16" d="M2.064,0h0a0,0,0,0,1,0,0V3.2a0,0,0,0,1,0,0H0a0,0,0,0,1,0,0V2.064A2.064,2.064,0,0,1,2.064,0Z" transform="translate(2.064 3.195) rotate(180)" fill="#332938"/>
        </g>
        <g id="Group_76" data-name="Group 76" transform="translate(17.411)">
          <ellipse id="Ellipse_182" data-name="Ellipse 182" cx="3.373" cy="3.064" rx="3.373" ry="3.064" fill="#332938"/>
        </g>
        <g id="Group_77" data-name="Group 77" transform="translate(18.909 10.736)">
          <path id="Path_663" data-name="Path 663" d="M938.673,790c.2.359-.3,1.027-1.121,1.492s-1.654.552-1.857.194.3-1.027,1.122-1.492S938.47,789.639,938.673,790Z" transform="translate(-935.65 -789.777)" fill="#332938"/>
        </g>
        <g id="Group_78" data-name="Group 78" transform="translate(21.487 10.746)">
          <path id="Path_664" data-name="Path 664" d="M955.672,790.071c-.2.338.274.959,1.05,1.388s1.563.5,1.76.164-.274-.96-1.05-1.388S955.868,789.733,955.672,790.071Z" transform="translate(-955.627 -789.858)" fill="#332938"/>
        </g>
        <g id="Group_79" data-name="Group 79" transform="translate(4.072 24.499)">
          <path id="Path_665" data-name="Path 665" d="M828.392,896.44l-7.373,20.011a5.848,5.848,0,0,0,.221,4.567l4.05,6.562,8.765-21.393Z" transform="translate(-820.659 -896.44)" fill="#fff"/>
        </g>
        <g id="Group_80" data-name="Group 80" transform="translate(21.01 19.378)">
          <path id="Path_666" data-name="Path 666" d="M951.929,856.753l4.322,5.463a4.522,4.522,0,0,1,.792,1.529l4.056,13.789Z" transform="translate(-951.929 -856.753)" fill="#fff"/>
        </g>
        <g id="Group_82" data-name="Group 82" transform="translate(18.144 19.034)">
          <g id="Group_81" data-name="Group 81">
            <path id="Path_667" data-name="Path 667" d="M929.723,854.084l12.035,21.125-4.585-13.017-4.585-7.764Z" transform="translate(-929.723 -854.084)" fill="#31c687"/>
          </g>
        </g>
        <g id="Group_83" data-name="Group 83" transform="translate(20.202 19.309)">
          <path id="Path_668" data-name="Path 668" d="M946.06,856.222,945.669,858l1.776.846,5.2,12.95,3.006,5.277-3.859-10.956-3.993-7.347.047-.167-1.365-2.311Z" transform="translate(-945.669 -856.222)" fill="#332938"/>
        </g>
        <g id="Group_85" data-name="Group 85" transform="translate(14.014 17.662)">
          <g id="Group_84" data-name="Group 84">
            <path id="Path_669" data-name="Path 669" d="M898.688,843.454l5.6,1.647-.624,2.925-5.954-2.616Z" transform="translate(-897.71 -843.454)" fill="#31c687"/>
          </g>
        </g>
        <g id="Group_87" data-name="Group 87" transform="translate(21.01 19.378)">
          <g id="Group_86" data-name="Group 86">
            <path id="Path_670" data-name="Path 670" d="M951.929,856.753l1.627,2.755.3-.326Z" transform="translate(-951.929 -856.753)" fill="#31c687"/>
          </g>
        </g>
        <g id="Group_88" data-name="Group 88" transform="translate(19.256 26.104)">
          <rect id="Rectangle_17" data-name="Rectangle 17" width="3.22" height="0.452" transform="matrix(0.914, -0.406, 0.406, 0.914, 0, 1.308)" fill="#d6c5cf"/>
        </g>
        <g id="Group_89" data-name="Group 89" transform="translate(28.36 43.694)">
          <rect id="Rectangle_18" data-name="Rectangle 18" width="1.253" height="0.451" fill="#d6c5cf"/>
        </g>
        <g id="Group_90" data-name="Group 90" transform="translate(28.986 52.389)">
          <rect id="Rectangle_19" data-name="Rectangle 19" width="1.253" height="0.451" fill="#d6c5cf"/>
        </g>
        <g id="Group_91" data-name="Group 91" transform="translate(30.008 60.193)">
          <rect id="Rectangle_20" data-name="Rectangle 20" width="1.253" height="0.451" fill="#d6c5cf"/>
        </g>
        <path id="Path_671" data-name="Path 671" d="M883.266,1247.369s5.709,3.465,4.989,4.2-5.656-2.351-5.656-2.351Z" transform="translate(-870.535 -1177.589)" fill="#ff775c"/>
        <path id="Path_672" data-name="Path 672" d="M851.528,1260.812s-3.089,5.921-3.871,5.25,1.98-5.8,1.98-5.8Z" transform="translate(-839.98 -1188.822)" fill="#ff9479"/>
        <path id="Path_673" data-name="Path 673" d="M843.844,1223.47l-2.974-3.491a3.1,3.1,0,0,1,.105-4.14l.9-.949s6.354,2.284,7.2,7.732Z" transform="translate(-833.545 -1149.301)" fill="#ff9479"/>
        <path id="Path_674" data-name="Path 674" d="M869.74,1253.8s-2.755,9.2-3.837,8.44,1.353-8.907,1.353-8.907Z" transform="translate(-855.752 -1182.786)" fill="#ff9479"/>
        <path id="Path_675" data-name="Path 675" d="M886.081,1268.432c.241,2.069-2.242,8.486-3.2,7.808s1.123-8.753,1.123-8.753Z" transform="translate(-870.555 -1195.111)" fill="#ff9479"/>
        <rect id="Rectangle_21" data-name="Rectangle 21" width="7.662" height="3.346" transform="translate(4.852 64.796)" fill="#31c687"/>
        <g id="Group_93" data-name="Group 93" transform="translate(19.229 26.612)">
          <g id="Group_92" data-name="Group 92">
            <path id="Path_676" data-name="Path 676" d="M940.063,923.912a1.936,1.936,0,0,1-1.933-1.933v-7.225a1.933,1.933,0,1,1,3.867,0v7.225A1.936,1.936,0,0,1,940.063,923.912Zm0-10.389a1.232,1.232,0,0,0-1.23,1.231v7.225a1.23,1.23,0,1,0,2.461,0v-7.225A1.232,1.232,0,0,0,940.063,913.523Z" transform="translate(-938.13 -912.82)" fill="#6b6170"/>
          </g>
          <path id="Path_677" data-name="Path 677" d="M945.226,991.722a.642.642,0,1,1-.642-.642A.642.642,0,0,1,945.226,991.722Z" transform="translate(-943.192 -980.982)" fill="#332938"/>
          <path id="Path_678" data-name="Path 678" d="M953.615,991.722a.642.642,0,1,1-.642-.642A.642.642,0,0,1,953.615,991.722Z" transform="translate(-950.499 -980.982)" fill="#332938"/>
        </g>
        <g id="Group_94" data-name="Group 94" transform="translate(12.451 15.474)">
          <path id="Path_679" data-name="Path 679" d="M893.971,838.068c-.29-1.227-1.92-2.028-3.646-2.876-1.9-.935-3.869-1.9-4.476-3.635-1.2-3.421,2.332-5.045,2.368-5.061l.287.641c-.122.055-2.974,1.38-1.991,4.187.511,1.462,2.347,2.364,4.122,3.236,1.879.923,3.653,1.8,4.02,3.345Z" transform="translate(-885.601 -826.497)" fill="#6b6170"/>
        </g>
      </g>
      <path id="Path_680" data-name="Path 680" d="M976.744,1394.52l-13.824,9.958,1.374-9.958Z" transform="translate(-940.492 -1305.753)" fill="#a35a5f" opacity="0.3" style="mix-blend-mode: multiply;isolation: isolate"/>
    </g>
    <g id="Group_128" data-name="Group 128" transform="translate(476.214 862.423)">
      <g id="Group_127" data-name="Group 127" transform="translate(0 0)">
        <g id="Group_98" data-name="Group 98" transform="translate(15.401 4.016)">
          <g id="Group_97" data-name="Group 97" transform="translate(0 0)">
            <rect id="Rectangle_22" data-name="Rectangle 22" width="26.454" height="1.133" transform="translate(0 26.423) rotate(-87.209)" fill="#31c687"/>
          </g>
        </g>
        <g id="Group_100" data-name="Group 100" transform="translate(8.089 20.255)">
          <g id="Group_99" data-name="Group 99">
            <path id="Path_681" data-name="Path 681" d="M1515.9,1595.914l3.743.6s-1.908,2.743-4.257,2.6S1515.9,1595.914,1515.9,1595.914Z" transform="translate(-1514.465 -1595.914)" fill="#31c687"/>
          </g>
        </g>
        <g id="Group_102" data-name="Group 102" transform="translate(8.961 27.507)">
          <g id="Group_101" data-name="Group 101">
            <path id="Path_682" data-name="Path 682" d="M1535.954,1655.138a11.623,11.623,0,0,1-.985,4.749,8.9,8.9,0,0,1-2.5,3.332H1524.7a8.912,8.912,0,0,1-2.5-3.332,11.623,11.623,0,0,1-.985-4.749c0-.094,0-.189,0-.282a11.956,11.956,0,0,1,.379-2.739h13.969a11.969,11.969,0,0,1,.379,2.739C1535.953,1654.949,1535.954,1655.044,1535.954,1655.138Z" transform="translate(-1521.22 -1652.117)" fill="#50adc4"/>
          </g>
        </g>
        <g id="Group_104" data-name="Group 104" transform="translate(1.717 11.529)">
          <g id="Group_103" data-name="Group 103">
            <path id="Path_683" data-name="Path 683" d="M1465.079,1533.146s9.958.242,13.117-1.725,2.884-2.1,2.884-2.1l-1.923-1.03Z" transform="translate(-1465.079 -1528.286)" fill="#31c687"/>
          </g>
        </g>
        <g id="Group_106" data-name="Group 106" transform="translate(14.513 7.477)">
          <g id="Group_105" data-name="Group 105">
            <path id="Path_684" data-name="Path 684" d="M1564.247,1496.884s3.48,4.254,7.257,6.007,10.164,2.206,10.164,2.206l-13.529-8.214Z" transform="translate(-1564.247 -1496.884)" fill="#31c687"/>
          </g>
        </g>
        <g id="Group_108" data-name="Group 108" transform="translate(15.377)">
          <g id="Group_107" data-name="Group 107">
            <path id="Path_685" data-name="Path 685" d="M1570.941,1443.852l19.641-4.533S1577.74,1436.984,1570.941,1443.852Z" transform="translate(-1570.941 -1438.936)" fill="#31c687"/>
          </g>
        </g>
        <g id="Group_110" data-name="Group 110" transform="translate(0 4.915)">
          <g id="Group_109" data-name="Group 109">
            <path id="Path_686" data-name="Path 686" d="M1451.773,1477.05l13.048,5.357S1464.821,1476.638,1451.773,1477.05Z" transform="translate(-1451.773 -1477.029)" fill="#31c687"/>
          </g>
        </g>
        <g id="Group_112" data-name="Group 112" transform="translate(20.534 15.826)">
          <g id="Group_111" data-name="Group 111">
            <path id="Path_687" data-name="Path 687" d="M1610.911,1561.588s1.511,5.452,3.983,7,7,1.859,7,1.859Z" transform="translate(-1610.911 -1561.588)" fill="#31c687"/>
          </g>
        </g>
        <g id="Group_114" data-name="Group 114" transform="translate(13.76 18.769)">
          <g id="Group_113" data-name="Group 113">
            <path id="Path_688" data-name="Path 688" d="M1559.852,1584.678l4.876-.282s-2.232,3.229-4.018,3.782-2.3.137-2.3.137Z" transform="translate(-1558.41 -1584.396)" fill="#31c687"/>
          </g>
        </g>
        <g id="Group_116" data-name="Group 116" transform="translate(16.578 17.284)">
          <g id="Group_115" data-name="Group 115" transform="translate(0 0)">
            <rect id="Rectangle_23" data-name="Rectangle 23" width="5.137" height="0.309" transform="translate(0 1.081) rotate(-12.151)" fill="#31c687"/>
          </g>
        </g>
        <g id="Group_118" data-name="Group 118" transform="translate(14.374 13.118)">
          <g id="Group_117" data-name="Group 117" transform="translate(0 0)">
            <rect id="Rectangle_24" data-name="Rectangle 24" width="0.309" height="4.521" transform="matrix(0.9, -0.436, 0.436, 0.9, 0, 0.135)" fill="#31c687"/>
          </g>
        </g>
        <g id="Group_120" data-name="Group 120" transform="translate(16.338 19.533)">
          <g id="Group_119" data-name="Group 119" transform="translate(0 0)">
            <rect id="Rectangle_25" data-name="Rectangle 25" width="5.459" height="0.309" transform="translate(0 5.096) rotate(-68.998)" fill="#31c687"/>
          </g>
        </g>
        <g id="Group_122" data-name="Group 122" transform="translate(10.935 21.273)">
          <g id="Group_121" data-name="Group 121">
            <path id="Path_689" data-name="Path 689" d="M1541.814,1608.525c-1.418-1.205-5.133-4.358-5.292-4.471l.173-.256c.157.1,4.792,4.043,5.319,4.492Z" transform="translate(-1536.522 -1603.798)" fill="#31c687"/>
          </g>
        </g>
        <g id="Group_124" data-name="Group 124" transform="translate(16.482 10.208)">
          <g id="Group_123" data-name="Group 123" transform="translate(0 0)">
            <rect id="Rectangle_26" data-name="Rectangle 26" width="5.9" height="0.309" transform="translate(0 4.928) rotate(-56.637)" fill="#31c687"/>
          </g>
        </g>
        <g id="Group_126" data-name="Group 126" transform="translate(9.934 7.978)">
          <g id="Group_125" data-name="Group 125" transform="translate(0 0)">
            <rect id="Rectangle_27" data-name="Rectangle 27" width="0.309" height="9.342" transform="translate(0 0.217) rotate(-44.665)" fill="#31c687"/>
          </g>
        </g>
      </g>
    </g>
    <g id="Group_139" data-name="Group 139" transform="translate(332.148 818.635)">
      <g id="Group_130" data-name="Group 130" transform="translate(32.064 5.225)">
        <g id="Group_129" data-name="Group 129">
          <path id="Path_690" data-name="Path 690" d="M584.348,1202.6c0-.125.107-12.779.974-31.234a47.912,47.912,0,0,1,7.142-22.4,46.82,46.82,0,0,1,6.481-8.475l-.406-.421a47.508,47.508,0,0,0-6.573,8.591,51.883,51.883,0,0,0-4.7,9.862,45.205,45.205,0,0,0-2.528,12.817c-.867,18.467-.974,31.131-.975,31.257Z" transform="translate(-583.763 -1140.073)" fill="#31c687"/>
        </g>
      </g>
      <g id="Group_132" data-name="Group 132" transform="translate(15.407 4.253)">
        <g id="Group_131" data-name="Group 131">
          <path id="Path_691" data-name="Path 691" d="M469.267,1195.073l.585,0c0-.126-.107-12.79-.975-31.257a45.212,45.212,0,0,0-2.529-12.817,51.885,51.885,0,0,0-4.7-9.862,47.5,47.5,0,0,0-6.573-8.591l-.406.421a46.936,46.936,0,0,1,6.49,8.491,47.911,47.911,0,0,1,7.132,22.385C469.16,1182.294,469.266,1194.948,469.267,1195.073Z" transform="translate(-454.67 -1132.542)" fill="#31c687"/>
        </g>
      </g>
      <g id="Group_134" data-name="Group 134" transform="translate(0 20.236)">
        <g id="Group_133" data-name="Group 133">
          <path id="Path_692" data-name="Path 692" d="M364.3,1302.977c0-.046.351-4.787-1.054-17.207a27.207,27.207,0,0,0-5.318-13.118,42.522,42.522,0,0,0-9.441-9.138,59.718,59.718,0,0,0-13.017-7.107l-.2.55a59.118,59.118,0,0,1,12.885,7.04c5.981,4.328,13.354,11.631,14.509,21.839,1.4,12.364,1.056,17.049,1.052,17.095Z" transform="translate(-335.268 -1256.408)" fill="#31c687"/>
        </g>
      </g>
      <g id="Group_136" data-name="Group 136" transform="translate(33.589 20.615)">
        <g id="Group_135" data-name="Group 135">
          <path id="Path_693" data-name="Path 693" d="M596.167,1308.208c.021-.331,2.161-33.124,5.772-38.673s13.41-9.611,13.509-9.652l-.222-.541a48.879,48.879,0,0,0-5.473,2.771c-3.953,2.32-6.747,4.71-8.3,7.1-3.694,5.676-5.778,37.6-5.865,38.954Z" transform="translate(-595.584 -1259.342)" fill="#31c687"/>
        </g>
      </g>
      <g id="Group_138" data-name="Group 138" transform="translate(31.085 39.675)">
        <g id="Group_137" data-name="Group 137">
          <path id="Path_694" data-name="Path 694" d="M576.215,1436.849l.584-.012c0-.1-.212-10.375.361-17.657.293-3.717,2.772-6.67,4.8-8.493a23.1,23.1,0,0,1,4.4-3.109l-.265-.521a23.3,23.3,0,0,0-4.525,3.2c-3.023,2.717-4.75,5.788-4.993,8.883C576,1426.445,576.213,1436.746,576.215,1436.849Z" transform="translate(-576.175 -1407.056)" fill="#31c687"/>
        </g>
      </g>
      <path id="Path_695" data-name="Path 695" d="M641.259,1100.155s-10.31-2.956-16.36,4.532a46.97,46.97,0,0,0-8.191,16.95Z" transform="translate(-580.393 -1099.58)" fill="#31c687"/>
      <path id="Path_696" data-name="Path 696" d="M451.762,1133.358l12.219,20.814S467.119,1135.9,451.762,1133.358Z" transform="translate(-436.73 -1129)" fill="#31c687"/>
      <path id="Path_697" data-name="Path 697" d="M357.571,1272.069l-21.533-15.112S352.389,1253.628,357.571,1272.069Z" transform="translate(-335.939 -1236.446)" fill="#31c687"/>
      <path id="Path_698" data-name="Path 698" d="M585.962,1392.333l20.594-10.494S592.368,1371.513,585.962,1392.333Z" transform="translate(-553.614 -1343.188)" fill="#31c687"/>
      <path id="Path_699" data-name="Path 699" d="M657.39,1261.479l-14.453,9.722S644.325,1260.706,657.39,1261.479Z" transform="translate(-603.238 -1240.553)" fill="#31c687"/>
      <path id="Path_700" data-name="Path 700" d="M499.462,1613.172h20.379l-3.57,16.127h-13.24Z" transform="translate(-478.276 -1546.902)" fill="#ff6060"/>
    </g>
    <g id="Group_140" data-name="Group 140" transform="translate(320.638 901.033)">
      <rect id="Rectangle_28" data-name="Rectangle 28" width="181.376" height="0.467" fill="#332938"/>
    </g>
    <g id="Group_141" data-name="Group 141" transform="translate(347.865 776.488)">
      <path id="Path_701" data-name="Path 701" d="M457.074,777.425h19.868a2.062,2.062,0,0,0-2.327-1.352,3.737,3.737,0,0,1-2.047.069c-2.333-.756-2.691-3.2-5.969-3.2s-3.615,3.336-5.272,3.506a15.691,15.691,0,0,1-2.077-.322C458.086,776.086,457.074,777.425,457.074,777.425Z" transform="translate(-457.074 -772.94)" fill="#ebfaff"/>
    </g>
    <path id="Path_702" data-name="Path 702" d="M284.858,926.526h17.05a3.839,3.839,0,0,0-2.937-1.192c-2.1,0-1.332.7-3.418.7-2.024,0-2.472-3.825-5.834-3.825C286.393,922.213,284.858,926.526,284.858,926.526Z" transform="translate(40.786 -126.464)" fill="#ebfaff"/>
    <path id="Path_703" data-name="Path 703" d="M236.2,558.831H282.33a10.387,10.387,0,0,0-7.945-3.225c-5.675,0-3.6,1.9-9.248,1.9-5.477,0-6.689-10.349-15.783-10.349C240.356,547.162,236.2,558.831,236.2,558.831Z" transform="translate(83.164 200.193)" fill="#ebfaff"/>
    <path id="Path_704" data-name="Path 704" d="M1414.776,806.091h-21.184a4.771,4.771,0,0,1,3.649-1.481c2.606,0,1.655.875,4.247.875,2.515,0,3.072-4.753,7.248-4.753C1412.868,800.732,1414.776,806.091,1414.776,806.091Z" transform="translate(-924.885 -20.658)" fill="#ebfaff"/>
    <g id="Group_150" data-name="Group 150" transform="translate(325.307 849.271)">
      <path id="Path_705" data-name="Path 705" d="M527.43,1550.576h2.887l4.444,24.195H533.43Z" transform="translate(-495.793 -1523.018)" fill="#332938"/>
      <g id="Group_142" data-name="Group 142" transform="translate(10.348 28.493)">
        <rect id="Rectangle_29" data-name="Rectangle 29" width="11.668" height="0.444" transform="matrix(0.583, -0.812, 0.812, 0.583, 0, 9.476)" fill="#332938"/>
      </g>
      <g id="Group_143" data-name="Group 143" transform="translate(10.017 29.231)">
        <rect id="Rectangle_30" data-name="Rectangle 30" width="13.455" height="0.444" transform="translate(0 10.736) rotate(-52.934)" fill="#332938"/>
      </g>
      <g id="Group_144" data-name="Group 144" transform="translate(17.123 27.499)">
        <rect id="Rectangle_31" data-name="Rectangle 31" width="0.444" height="14.378" transform="matrix(0.965, -0.263, 0.263, 0.965, 0, 0.117)" fill="#332938"/>
      </g>
      <g id="Group_145" data-name="Group 145" transform="translate(15.423 27.965)">
        <rect id="Rectangle_32" data-name="Rectangle 32" width="0.444" height="16.085" transform="translate(0 0.135) rotate(-17.704)" fill="#332938"/>
      </g>
      <path id="Path_706" data-name="Path 706" d="M335.284,1550.576H332.4l-5.931,24.195H327.8Z" transform="translate(-320.76 -1523.018)" fill="#332938"/>
      <g id="Group_146" data-name="Group 146" transform="translate(21.559 29.715)">
        <rect id="Rectangle_33" data-name="Rectangle 33" width="13.842" height="0.444" transform="translate(0 9.092) rotate(-41.058)" fill="#332938"/>
      </g>
      <g id="Group_147" data-name="Group 147" transform="translate(21.561 29.714)">
        <rect id="Rectangle_34" data-name="Rectangle 34" width="17.301" height="0.444" transform="translate(0 11.127) rotate(-40.027)" fill="#332938"/>
      </g>
      <path id="Path_707" data-name="Path 707" d="M432.319,1550.576h-3.775l-4.444,24.195h1.553Z" transform="translate(-405.796 -1523.018)" fill="#a35a5f"/>
      <g id="Group_148" data-name="Group 148" transform="translate(32.767 27.843)">
        <rect id="Rectangle_35" data-name="Rectangle 35" width="0.444" height="16.403" transform="translate(0 0.378) rotate(-58.425)" fill="#332938"/>
      </g>
      <g id="Group_149" data-name="Group 149" transform="translate(30.924 29.689)">
        <rect id="Rectangle_36" data-name="Rectangle 36" width="0.444" height="18.652" transform="translate(0 0.388) rotate(-60.828)" fill="#332938"/>
      </g>
      <path id="Path_708" data-name="Path 708" d="M613.538,1550.576h3.775l4.444,24.195H620.2Z" transform="translate(-570.79 -1523.018)" fill="#a35a5f"/>
      <path id="Path_709" data-name="Path 709" d="M313.874,1337.008H282.243v8.444a22.089,22.089,0,0,0,20.389,22.024c.56.042,1.128.064,1.7.064h31.634V1359.1A22.091,22.091,0,0,0,313.874,1337.008Zm1.728,24.567H300.869a1.349,1.349,0,0,1,0-2.7H315.6a1.349,1.349,0,0,1,0,2.7Z" transform="translate(-282.243 -1337.008)" fill="#6bcae2"/>
      <path id="Path_710" data-name="Path 710" d="M302.63,1359.311a22.091,22.091,0,0,0-20.387-21.8v8.379a22.09,22.09,0,0,0,20.389,22.024v-8.377C302.632,1359.46,302.632,1359.384,302.63,1359.311Z" transform="translate(-282.243 -1337.443)" fill="#3ca1ba"/>
    </g>
    <g id="Group_154" data-name="Group 154" transform="translate(413.122 754.003)">
      <circle id="Ellipse_183" data-name="Ellipse 183" cx="15.648" cy="15.648" r="15.648" transform="translate(0 22.129) rotate(-45)" fill="#ff6060"/>
      <g id="Group_153" data-name="Group 153" transform="translate(13.998 20.426)">
        <g id="Group_152" data-name="Group 152">
          <g id="Group_151" data-name="Group 151">
            <circle id="Ellipse_184" data-name="Ellipse 184" cx="1.703" cy="1.703" r="1.703" fill="#fff"/>
            <circle id="Ellipse_185" data-name="Ellipse 185" cx="1.703" cy="1.703" r="1.703" transform="translate(6.429)" fill="#fff"/>
            <circle id="Ellipse_186" data-name="Ellipse 186" cx="1.703" cy="1.703" r="1.703" transform="translate(12.857)" fill="#fff"/>
          </g>
        </g>
      </g>
      <path id="Path_711" data-name="Path 711" d="M1005.659,829.99l3.735-4.683,4.683,3.735Z" transform="translate(-1000.131 -796.064)" fill="#ff6060"/>
    </g>
  </g>
</svg>
