<svg id="dashboard" xmlns="http://www.w3.org/2000/svg" width="512" height="512" viewBox="0 0 512 512">
  <path id="Path_549" data-name="Path 549" d="M197.332,0h-160A37.373,37.373,0,0,0,0,37.332v96a37.374,37.374,0,0,0,37.332,37.336h160a37.375,37.375,0,0,0,37.336-37.336v-96A37.374,37.374,0,0,0,197.332,0Zm0,0" fill="#fff"/>
  <path id="Path_550" data-name="Path 550" d="M197.332,213.332h-160A37.374,37.374,0,0,0,0,250.668v224A37.373,37.373,0,0,0,37.332,512h160a37.374,37.374,0,0,0,37.336-37.332v-224A37.375,37.375,0,0,0,197.332,213.332Zm0,0" fill="#fff"/>
  <path id="Path_551" data-name="Path 551" d="M474.668,341.332h-160a37.375,37.375,0,0,0-37.336,37.336v96A37.374,37.374,0,0,0,314.668,512h160A37.373,37.373,0,0,0,512,474.668v-96A37.374,37.374,0,0,0,474.668,341.332Zm0,0" fill="#fff"/>
  <path id="Path_552" data-name="Path 552" d="M474.668,0h-160a37.374,37.374,0,0,0-37.336,37.332v224a37.375,37.375,0,0,0,37.336,37.336h160A37.374,37.374,0,0,0,512,261.332v-224A37.373,37.373,0,0,0,474.668,0Zm0,0" fill="#fff"/>
</svg>
