<svg xmlns="http://www.w3.org/2000/svg" width="20" height="18.106" viewBox="0 0 20 18.106">
  <g id="Group_11904" data-name="Group 11904" transform="translate(-745.912 -1181)">
    <path id="Path_5863" data-name="Path 5863" d="M14.227,10.422c.053-.047.612.242.669.267a13.176,13.176,0,0,1,1.642.864A9.985,9.985,0,0,1,19.87,14.9c.673,1.12,1.182,3.2,2.808,3.2a3.019,3.019,0,0,0,2.256-.569,5.244,5.244,0,0,0,.96-2.727A29.623,29.623,0,0,1,32.079,2.795q.273-.326.553-.645A15.654,15.654,0,0,1,33.84.933C33.9.881,34,.774,34.117.652A.384.384,0,0,0,33.836,0C31.39.076,25.571,1.357,22.293,11.191,22.293,11.191,17.3,7.733,14.227,10.422Zm0,0" transform="translate(731.686 1181.001)" fill="#4fba6f"/>
    <g id="Group_11904-2" data-name="Group 11904" transform="translate(756.668 1182.588)">
      <path id="Path_5864" data-name="Path 5864" d="M293.081,42.5a.379.379,0,0,1-.186-.048.384.384,0,0,1-.149-.522,11.727,11.727,0,0,1,4.389-4.767.385.385,0,1,1,.346.687,11.209,11.209,0,0,0-4.062,4.453A.384.384,0,0,1,293.081,42.5Zm0,0" transform="translate(-291.544 -37.125)" fill="#71c285"/>
      <path id="Path_5865" data-name="Path 5865" d="M266.124,173.419a.384.384,0,0,1-.343-.556l.384-.768a.384.384,0,0,1,.687.344l-.384.768A.384.384,0,0,1,266.124,173.419Zm0,0" transform="translate(-265.74 -166.119)" fill="#71c285"/>
    </g>
  </g>
</svg>
