<svg xmlns="http://www.w3.org/2000/svg" width="516.13" height="482.238" viewBox="0 0 516.13 482.238">
  <g id="history" transform="translate(-35 -34.445)">
    <path id="Path_556" data-name="Path 556" d="M310.011,34.445c-121.23,0-221.563,90.033-238.367,206.674H35l51.114,86.114,55.114-86.114h-34.78C122.925,143.53,207.8,68.891,310.011,68.891c113.966,0,206.674,92.707,206.674,206.674S423.978,482.239,310.011,482.239a205.6,205.6,0,0,1-162.978-79.555l-27.146,21.192a239.859,239.859,0,0,0,190.124,92.808c132.955,0,241.119-108.181,241.119-241.119S442.966,34.446,310.011,34.445Z" fill="#fff"/>
    <path id="Exclusion_1" data-name="Exclusion 1" d="M621,15271.447a152.069,152.069,0,0,1-30.432-3.068,150.143,150.143,0,0,1-53.994-22.721,151.432,151.432,0,0,1-54.709-66.437,150.191,150.191,0,0,1-8.8-28.344,152.465,152.465,0,0,1,0-60.863,150.185,150.185,0,0,1,22.721-53.994,151.435,151.435,0,0,1,66.437-54.709,150.185,150.185,0,0,1,28.344-8.8,152.441,152.441,0,0,1,60.863,0,150.182,150.182,0,0,1,53.993,22.721,151.441,151.441,0,0,1,54.707,66.438,150.249,150.249,0,0,1,8.8,28.344,152.476,152.476,0,0,1,0,60.863,150.205,150.205,0,0,1-22.72,54,151.45,151.45,0,0,1-66.435,54.709,150.181,150.181,0,0,1-28.344,8.8A152.066,152.066,0,0,1,621,15271.447Zm-67.673-105.428h0a50.671,50.671,0,0,0,4.353,21.119,46.785,46.785,0,0,0,12.12,16.062c10.237,8.862,24.729,14.366,41.909,15.916v22.517h18.071v-22.8a74.769,74.769,0,0,0,24.911-6.433,59.608,59.608,0,0,0,18.212-12.924,54.248,54.248,0,0,0,11.176-17.352,52.929,52.929,0,0,0,3.8-19.724,61.422,61.422,0,0,0-1.356-13.274,43.891,43.891,0,0,0-3.813-10.665,39.084,39.084,0,0,0-5.884-8.416,44.385,44.385,0,0,0-7.572-6.53,73.918,73.918,0,0,0-18.668-8.849c-6.9-2.3-14.274-4.074-20.784-5.638l-.022,0v-60.05a30.051,30.051,0,0,1,15.7,9.454,27.711,27.711,0,0,1,6.532,15.289h33.919a59.985,59.985,0,0,0-5.335-20.942,48.614,48.614,0,0,0-11.694-15.649,55.926,55.926,0,0,0-17.218-10.282,80.619,80.619,0,0,0-21.909-4.836V14999.5H611.711v22.8a80.734,80.734,0,0,0-23.666,5.6,60.656,60.656,0,0,0-18.453,11.672A50.585,50.585,0,0,0,557.6,15056.5a53.6,53.6,0,0,0-4.274,21.394,61.075,61.075,0,0,0,1.368,13.286,44.043,44.043,0,0,0,3.844,10.7,39.64,39.64,0,0,0,5.929,8.471,45.344,45.344,0,0,0,7.624,6.6,75.6,75.6,0,0,0,18.766,9.027c6.87,2.352,14.3,4.209,20.851,5.848v61.157c-7.528-1.344-13.467-4.478-17.653-9.312a26.557,26.557,0,0,1-4.708-7.966,35.032,35.032,0,0,1-2.1-9.685H553.328Zm76.454,26.962h0v-56.432c8.616,2.713,14.556,5.76,18.7,9.59,5,4.632,7.436,10.5,7.436,17.933a28.067,28.067,0,0,1-6.811,18.834C644.5,15188.158,637.816,15191.643,629.783,15192.981Zm-18.072-88.679h0c-8.573-2.7-14.513-5.8-18.693-9.764-5-4.742-7.436-10.733-7.436-18.313a31.423,31.423,0,0,1,1.932-11.269,24.052,24.052,0,0,1,5.4-8.4,26.809,26.809,0,0,1,8.266-5.586,37.9,37.9,0,0,1,10.534-2.822Z" transform="translate(-309 -14845)" fill="#fff"/>
  </g>
</svg>
