<svg width="57" height="57" viewBox="0 0 57 57" fill="none" xmlns="http://www.w3.org/2000/svg">
<g opacity="0.5" clip-path="url(#clip0)">
<path d="M41.5625 57H15.4375C14.782 57 14.25 56.468 14.25 55.8125V5.9375C14.25 2.66475 16.9147 0 20.1875 0H36.8125C40.0853 0 42.75 2.66475 42.75 5.9375V55.8125C42.75 56.468 42.218 57 41.5625 57ZM16.625 54.625H40.375V5.9375C40.375 3.97337 38.7766 2.375 36.8125 2.375H20.1875C18.2234 2.375 16.625 3.97337 16.625 5.9375V54.625Z" fill="#6BCAE2"/>
<path d="M53.4375 57H41.5625C40.907 57 40.375 56.468 40.375 55.8125C40.375 55.157 40.907 54.625 41.5625 54.625H53.4375C54.093 54.625 54.625 54.093 54.625 53.4375V30.248C54.625 28.8919 53.8697 27.6711 52.6561 27.0631L41.0305 21.2515C40.4439 20.957 40.2064 20.2445 40.4985 19.6579C40.7906 19.0712 41.5055 18.8361 42.0921 19.1259L53.7177 24.9375C55.7436 25.9516 57 27.9846 57 30.248V53.4375C57 55.4016 55.4016 57 53.4375 57Z" fill="#6BCAE2"/>
<path d="M15.4375 57H3.5625C1.59837 57 0 55.4016 0 53.4375V30.248C0 27.9846 1.25637 25.9516 3.28225 24.9375L14.9079 19.1259C15.4945 18.8338 16.2046 19.0689 16.4991 19.6555C16.7936 20.2421 16.5538 20.9546 15.9671 21.2491L4.3415 27.0608C3.13025 27.6688 2.375 28.8919 2.375 30.248V53.4375C2.375 54.093 2.907 54.625 3.5625 54.625H15.4375C16.093 54.625 16.625 55.157 16.625 55.8125C16.625 56.468 16.093 57 15.4375 57Z" fill="#6BCAE2"/>
<path d="M24.9375 19C24.282 19 23.75 18.468 23.75 17.8125V8.3125C23.75 7.657 24.282 7.125 24.9375 7.125C25.593 7.125 26.125 7.657 26.125 8.3125V17.8125C26.125 18.468 25.593 19 24.9375 19Z" fill="#6BCAE2"/>
<path d="M32.0625 19C31.407 19 30.875 18.468 30.875 17.8125V8.3125C30.875 7.657 31.407 7.125 32.0625 7.125C32.718 7.125 33.25 7.657 33.25 8.3125V17.8125C33.25 18.468 32.718 19 32.0625 19Z" fill="#6BCAE2"/>
<path d="M32.0625 14.25H24.9375C24.282 14.25 23.75 13.718 23.75 13.0625C23.75 12.407 24.282 11.875 24.9375 11.875H32.0625C32.718 11.875 33.25 12.407 33.25 13.0625C33.25 13.718 32.718 14.25 32.0625 14.25Z" fill="#6BCAE2"/>
<path d="M34.4375 57C33.782 57 33.25 56.468 33.25 55.8125V47.5C33.25 44.8804 31.1196 42.75 28.5 42.75C25.8804 42.75 23.75 44.8804 23.75 47.5V55.8125C23.75 56.468 23.218 57 22.5625 57C21.907 57 21.375 56.468 21.375 55.8125V47.5C21.375 43.5717 24.5717 40.375 28.5 40.375C32.4283 40.375 35.625 43.5717 35.625 47.5V55.8125C35.625 56.468 35.093 57 34.4375 57Z" fill="#6BCAE2"/>
<path d="M34.4375 26.125H22.5625C21.907 26.125 21.375 25.593 21.375 24.9375C21.375 24.282 21.907 23.75 22.5625 23.75H34.4375C35.093 23.75 35.625 24.282 35.625 24.9375C35.625 25.593 35.093 26.125 34.4375 26.125Z" fill="#6BCAE2"/>
<path d="M34.4375 33.25H22.5625C21.907 33.25 21.375 32.718 21.375 32.0625C21.375 31.407 21.907 30.875 22.5625 30.875H34.4375C35.093 30.875 35.625 31.407 35.625 32.0625C35.625 32.718 35.093 33.25 34.4375 33.25Z" fill="#6BCAE2"/>
<path d="M10.6875 49.875H5.93748C5.28198 49.875 4.74998 49.343 4.74998 48.6875C4.74998 48.032 5.28198 47.5 5.93748 47.5H10.6875C11.343 47.5 11.875 48.032 11.875 48.6875C11.875 49.343 11.343 49.875 10.6875 49.875Z" fill="#6BCAE2"/>
<path d="M10.6875 42.75H5.93748C5.28198 42.75 4.74998 42.218 4.74998 41.5625C4.74998 40.907 5.28198 40.375 5.93748 40.375H10.6875C11.343 40.375 11.875 40.907 11.875 41.5625C11.875 42.218 11.343 42.75 10.6875 42.75Z" fill="#6BCAE2"/>
<path d="M10.6875 35.625H5.93748C5.28198 35.625 4.74998 35.093 4.74998 34.4375C4.74998 33.782 5.28198 33.25 5.93748 33.25H10.6875C11.343 33.25 11.875 33.782 11.875 34.4375C11.875 35.093 11.343 35.625 10.6875 35.625Z" fill="#6BCAE2"/>
<path d="M51.0625 49.875H46.3125C45.657 49.875 45.125 49.343 45.125 48.6875C45.125 48.032 45.657 47.5 46.3125 47.5H51.0625C51.718 47.5 52.25 48.032 52.25 48.6875C52.25 49.343 51.718 49.875 51.0625 49.875Z" fill="#6BCAE2"/>
<path d="M51.0625 42.75H46.3125C45.657 42.75 45.125 42.218 45.125 41.5625C45.125 40.907 45.657 40.375 46.3125 40.375H51.0625C51.718 40.375 52.25 40.907 52.25 41.5625C52.25 42.218 51.718 42.75 51.0625 42.75Z" fill="#6BCAE2"/>
<path d="M51.0625 35.625H46.3125C45.657 35.625 45.125 35.093 45.125 34.4375C45.125 33.782 45.657 33.25 46.3125 33.25H51.0625C51.718 33.25 52.25 33.782 52.25 34.4375C52.25 35.093 51.718 35.625 51.0625 35.625Z" fill="#6BCAE2"/>
</g>
<defs>
<clipPath id="clip0">
<rect width="57" height="57" fill="white"/>
</clipPath>
</defs>
</svg>
