<svg width="14" height="14" viewBox="0 0 14 14" fill="none" xmlns="http://www.w3.org/2000/svg">
<g clip-path="url(#clip0)">
<path d="M8.74991 7.58469C8.42734 7.58469 8.16662 7.84605 8.16662 8.16798V10.5014C8.16662 10.8228 7.90525 11.0847 7.58322 11.0847H5.83324V2.33474C5.83324 1.83658 5.5159 1.3915 5.03878 1.22583L4.86607 1.16805H7.58322C7.90525 1.16805 8.16662 1.42995 8.16662 1.75145V3.50143C8.16662 3.82336 8.42734 4.08472 8.74991 4.08472C9.07248 4.08472 9.3332 3.82336 9.3332 3.50143V1.75145C9.3332 0.786628 8.54804 0.00146484 7.58322 0.00146484H1.31249C1.29027 0.00146484 1.27168 0.0113982 1.25011 0.0142821C1.22202 0.0119323 1.19521 0.00146484 1.16669 0.00146484C0.523264 0.00146484 0 0.524622 0 1.16805V11.6679C0 12.1661 0.317334 12.6112 0.794456 12.7768L4.30499 13.9471C4.42398 13.9838 4.54233 14.0013 4.66665 14.0013C5.31008 14.0013 5.83324 13.4781 5.83324 12.8346V12.2513H7.58322C8.54804 12.2513 9.3332 11.4662 9.3332 10.5014V8.16798C9.3332 7.84605 9.07248 7.58469 8.74991 7.58469Z" fill="#FF6F5B"/>
<path d="M13.8289 5.42085L11.4955 3.08758C11.3288 2.92074 11.0779 2.87054 10.8598 2.9609C10.6422 3.05137 10.4999 3.26424 10.4999 3.49997V5.24995H8.16659C7.84456 5.24995 7.58319 5.51121 7.58319 5.83325C7.58319 6.15528 7.84456 6.41654 8.16659 6.41654H10.4999V8.16652C10.4999 8.40225 10.6422 8.61512 10.8598 8.70559C11.0779 8.79595 11.3288 8.74575 11.4955 8.57902L13.8289 6.24564C14.057 6.0176 14.057 5.64889 13.8289 5.42085Z" fill="#FF6F5B"/>
</g>
<defs>
<clipPath id="clip0">
<rect width="14" height="14" fill="white"/>
</clipPath>
</defs>
</svg>
