<svg xmlns="http://www.w3.org/2000/svg" width="66.826" height="66.824" viewBox="0 0 66.826 66.824">
  <g id="lungs" transform="translate(0 -0.005)">
    <path id="Path_2672" data-name="Path 2672" d="M5.221,66.829a5.258,5.258,0,0,0,2.2-.484c1.628-.492,18.676-5.82,21.986-14.175,2.116-5.341.7-12.334-.985-17.522l2.224-2.224a3.919,3.919,0,0,1,5.537,0l2.224,2.224c-1.688,5.189-3.1,12.181-.985,17.522,3.31,8.355,20.357,13.683,21.986,14.175a5.222,5.222,0,0,0,7.41-5.038c-.062-1.693-.309-7.637-.927-14.34a1.305,1.305,0,0,0-2.6.24c.751,8.138.884,13.759.921,14.255A2.612,2.612,0,0,1,61.6,64.219a3.258,3.258,0,0,1-1.357-.347c-5.958-1.767-18.073-6.789-20.4-12.663-1.724-4.352-.57-10.341.645-14.474l2.439,2.439a1.305,1.305,0,0,0,1.846-1.846l-6.75-6.749a6.532,6.532,0,0,0-9.228,0l-6.751,6.749a1.305,1.305,0,0,0,1.846,1.846l2.439-2.439c1.215,4.133,2.369,10.122.645,14.474-1.186,2.994-5.04,6.121-11.143,9.042a71.119,71.119,0,0,1-9.257,3.621,3.261,3.261,0,0,1-1.357.347,2.611,2.611,0,0,1-2.6-2.8c.1-2.866,1.132-28.2,5.047-35.2,3.858-6.892,14.82-12.384,17.917-12.384A3.92,3.92,0,0,1,29.5,17.755v2.037a6.483,6.483,0,0,1-1.911,4.615L25.1,26.891H19.98c-4.667,0-7.262,3.231-8.617,5.942A1.305,1.305,0,1,0,13.7,34c2.249-4.5,5.285-4.5,6.283-4.5h2.512l-5.228,5.227a11.828,11.828,0,0,0-3.429,8.348V51.15L9,55.987a1.305,1.305,0,0,0,1.846,1.846l4.3-4.3,1.687,1.687a1.305,1.305,0,0,0,1.846-1.846l-2.229-2.229L16.436,47l3,3a1.305,1.305,0,1,0,1.846-1.846L16.429,43.3v-.229a9.218,9.218,0,0,1,2.682-6.5L29.433,26.253a9.077,9.077,0,0,0,2.675-6.461V2.615h2.61V19.793a9.077,9.077,0,0,0,2.675,6.461L47.7,36.563a9.081,9.081,0,0,1,2.676,6.461v.295l-4.838,4.838A1.305,1.305,0,0,0,47.388,50l2.993-2.993v4.139l-2.228,2.228A1.305,1.305,0,0,0,50,55.223l1.687-1.687,4.3,4.3a1.305,1.305,0,0,0,1.846-1.846l-4.838-4.838V43.023a11.675,11.675,0,0,0-3.44-8.306L44.335,29.5h2.511c1,0,4.033,0,6.283,4.5a1.305,1.305,0,1,0,2.335-1.167c-1.355-2.711-3.95-5.942-8.617-5.942H41.723l-2.484-2.484a6.484,6.484,0,0,1-1.911-4.615V17.755a3.92,3.92,0,0,1,3.915-3.915c3.652,0,14.344,6,17.916,12.384.991,1.771,1.889,4.945,2.668,9.434a1.305,1.305,0,1,0,2.572-.446c-.841-4.848-1.81-8.205-2.962-10.263-4.067-7.265-15.65-13.719-20.194-13.719a6.492,6.492,0,0,0-3.915,1.309V1.31A1.305,1.305,0,0,0,36.023,0H30.8A1.305,1.305,0,0,0,29.5,1.31V12.538a6.492,6.492,0,0,0-3.915-1.309c-4.551,0-16.127,6.453-20.194,13.719C1.266,32.313.186,56.483.01,61.308a5.227,5.227,0,0,0,5.211,5.522Z" transform="translate(0 0)" fill="#fff"/>
    <circle id="Ellipse_263" data-name="Ellipse 263" cx="1.133" cy="1.133" r="1.133" transform="translate(62.858 40.213)" fill="#fff"/>
  </g>
</svg>
