<svg width="14" height="21" viewBox="0 0 14 21" fill="none" xmlns="http://www.w3.org/2000/svg">
<path d="M7.00025 0C4.85485 0 3.10938 1.65035 3.10938 3.67881V10.909C3.10938 12.9372 4.85485 14.5876 7.00025 14.5876C9.14565 14.5876 10.8911 12.9487 10.8911 10.9343V3.67881C10.8911 1.65035 9.14565 0 7.00025 0ZM9.26967 10.9341C9.26967 12.1031 8.25154 13.0545 7.00025 13.0545C5.74896 13.0545 4.73057 12.0921 4.73057 10.9088V3.67881C4.73057 2.49547 5.7487 1.53284 7.00025 1.53284C8.2518 1.53284 9.26993 2.49547 9.26967 3.67881V10.9341Z" fill="white"/>
<path d="M7.81065 16.7847H6.18945V20.2336H7.81065V16.7847Z" fill="white"/>
<path d="M9.13448 19.4673H4.86529C4.41756 19.4673 4.05469 19.8104 4.05469 20.2337C4.05469 20.657 4.41756 21.0001 4.86529 21.0001H9.13448C9.5822 21.0001 9.94508 20.657 9.94508 20.2337C9.94508 19.8104 9.5822 19.4673 9.13448 19.4673Z" fill="white"/>
<path d="M13.1334 9.63135C12.6857 9.63135 12.3228 9.97444 12.3228 10.3978V11.0109C12.3228 13.7859 9.93479 16.0438 6.99984 16.0438C4.06466 16.0438 1.67686 13.7859 1.67686 11.0109V10.3978C1.67686 9.97444 1.31399 9.63135 0.866262 9.63135C0.418537 9.63135 0.0556641 9.97444 0.0556641 10.3978V11.0109C0.0556641 14.6312 3.17082 17.5766 6.99984 17.5766C10.8289 17.5766 13.944 14.6312 13.944 11.0109V10.3978C13.944 9.97448 13.5811 9.63135 13.1334 9.63135Z" fill="white"/>
</svg>
