<svg xmlns="http://www.w3.org/2000/svg" xmlns:xlink="http://www.w3.org/1999/xlink" width="208" height="210" viewBox="0 0 208 210">
  <defs>
    <filter id="Path_2312" x="149.122" y="60.003" width="44.259" height="45.259" filterUnits="userSpaceOnUse">
      <feOffset dy="1" input="SourceAlpha"/>
      <feGaussianBlur result="blur"/>
      <feFlood flood-opacity="0.039"/>
      <feComposite operator="in" in2="blur"/>
      <feComposite in="SourceGraphic"/>
    </filter>
  </defs>
  <g id="Group_11683" data-name="Group 11683" transform="translate(-974 -880)">
    <path id="Rectangle_9" data-name="Rectangle 9" d="M10,0H208a0,0,0,0,1,0,0V210a0,0,0,0,1,0,0H10A10,10,0,0,1,0,200V10A10,10,0,0,1,10,0Z" transform="translate(974 880)" fill="#afeaaa" opacity="0.33"/>
    <path id="Path_2313" data-name="Path 2313" d="M1414.776,806.091h-21.184a4.771,4.771,0,0,1,3.649-1.481c2.606,0,1.655.875,4.247.875,2.515,0,3.072-4.753,7.248-4.753C1412.868,800.732,1414.776,806.091,1414.776,806.091Z" transform="translate(-405.885 133.342)" fill="#c2e9be"/>
    <path id="Path_2314" data-name="Path 2314" d="M1414.776,806.091h-21.184a4.771,4.771,0,0,1,3.649-1.481c2.606,0,1.655.875,4.247.875,2.515,0,3.072-4.753,7.248-4.753C1412.868,800.732,1414.776,806.091,1414.776,806.091Z" transform="translate(-256.885 164.909)" fill="#c2e9be"/>
    <path id="Path_2315" data-name="Path 2315" d="M1414.776,806.091h-21.184a4.771,4.771,0,0,1,3.649-1.481c2.606,0,1.655.875,4.247.875,2.515,0,3.072-4.753,7.248-4.753C1412.868,800.732,1414.776,806.091,1414.776,806.091Z" transform="translate(-395.293 180.589)" fill="#c2e9be"/>
    <g transform="matrix(1, 0, 0, 1, 974, 880)" filter="url(#Path_2312)">
      <path id="Path_2312-2" data-name="Path 2312" d="M15.648,0A15.648,15.648,0,1,1,0,15.648a16.5,16.5,0,0,1,.307-3.1A15.574,15.574,0,0,1,15.648,0Z" transform="translate(149.12 82.13) rotate(-45)" fill="#afeaaa"/>
    </g>
    <path id="Path_2311" data-name="Path 2311" d="M1005.659,829.99l3.735-4.683,4.683,3.735Z" transform="translate(122.991 143.938)" fill="#afeaaa"/>
    <g id="Rectangle_166" data-name="Rectangle 166" transform="translate(1134 967)" fill="#fff" stroke="#fff" stroke-width="1">
      <rect width="10" height="1" stroke="none"/>
      <rect x="0.5" y="0.5" width="9" fill="none"/>
    </g>
    <g id="Rectangle_167" data-name="Rectangle 167" transform="translate(1134 955)" fill="#fff" stroke="#fff" stroke-width="1">
      <rect width="22" height="1" stroke="none"/>
      <rect x="0.5" y="0.5" width="21" fill="none"/>
    </g>
    <g id="Rectangle_168" data-name="Rectangle 168" transform="translate(1134 958)" fill="#fff" stroke="#fff" stroke-width="1">
      <rect width="22" height="1" stroke="none"/>
      <rect x="0.5" y="0.5" width="21" fill="none"/>
    </g>
    <g id="Rectangle_169" data-name="Rectangle 169" transform="translate(1134 961)" fill="#fff" stroke="#fff" stroke-width="1">
      <rect width="22" height="1" stroke="none"/>
      <rect x="0.5" y="0.5" width="21" fill="none"/>
    </g>
    <g id="Rectangle_170" data-name="Rectangle 170" transform="translate(1134 964)" fill="#fff" stroke="#fff" stroke-width="1">
      <rect width="22" height="1" stroke="none"/>
      <rect x="0.5" y="0.5" width="21" fill="none"/>
    </g>
    <g id="Group_2383" data-name="Group 2383" transform="translate(986.005 1088.33)">
      <rect id="Rectangle_28" data-name="Rectangle 28" width="181.376" height="0.467" fill="#332938"/>
    </g>
    <g id="Group_2382" data-name="Group 2382" transform="translate(669.15 697.494)">
      <g id="Group_2318" data-name="Group 2318" transform="translate(353.85 211.709)">
        <path id="Path_2256" data-name="Path 2256" d="M354.379,337.565c.062,3.795.494,8.036,2.832,10.439,1.6,1.644,3.783,2.02,5.848,2.312,13.021,1.84,57.978.675,70.071-.031,2.519-.146,6.161.4,7.245-3.233a20.279,20.279,0,0,0,.584-5.344c.415-20.152.334-94.519.2-123.629-.009-1.743-.087-3.7-1.117-4.868A3.769,3.769,0,0,0,437.279,212c-20.264-.568-49.349-.293-75.091.721-9.188.362-8.411,7.882-8.254,17.051.2,11.7.094,23.421.26,35.126C354.525,288.308,353.981,312.815,354.379,337.565Z" transform="translate(-353.85 -211.709)" fill="#6bcae2"/>
        <path id="Path_2257" data-name="Path 2257" d="M380.011,396.155c.073,3.3.5,6.985,2.727,9.081,1.524,1.434,3.6,1.77,5.56,2.031,12.374,1.644,55.068.792,66.55.222,2.391-.119,5.853.369,6.867-2.784a16.074,16.074,0,0,0,.537-4.641c.321-17.51-.019-82.131-.252-107.427-.014-1.515-.1-3.216-1.079-4.233a3.772,3.772,0,0,0-2.628-1.064c-19.247-.565-46.868-.43-71.312.359-8.725.281-7.96,6.818-7.778,14.787.231,10.169.173,20.352.372,30.524C379.975,353.353,379.546,374.647,380.011,396.155Z" transform="translate(-376.99 -280.683)" fill="#bdedff"/>
        <path id="Path_2258" data-name="Path 2258" d="M485.051,301.155c-.014-1.515-.1-3.216-1.079-4.234a3.229,3.229,0,0,0-.859-.629,11.945,11.945,0,0,1,.22,2.5c.233,25.3.573,89.918.252,107.427a16.06,16.06,0,0,1-.537,4.643c-1.015,3.151-4.477,2.664-6.868,2.784-11.482.569-54.176,1.422-66.549-.223a9.945,9.945,0,0,1-5.364-1.858,6.866,6.866,0,0,0,1.523,2.193c1.524,1.434,3.6,1.77,5.56,2.03,12.374,1.645,55.068.793,66.55.222,2.391-.119,5.853.369,6.867-2.784a16.075,16.075,0,0,0,.537-4.641C485.624,391.072,485.284,326.451,485.051,301.155Z" transform="translate(-400.039 -289.201)" fill="#c0daee" style="mix-blend-mode: multiply;isolation: isolate"/>
        <path id="Path_2259" data-name="Path 2259" d="M790.15,1765.446a3.078,3.078,0,0,0,.148.345c1.1,2.211,4.854,2.252,6.937,2.368,2,.112,10.917.361,9.35-3.93-.7-1.925-3.835-1.939-5.489-2.021C799.3,1762.119,788.772,1761.539,790.15,1765.446Z" transform="translate(-753.462 -1632.155)" fill="#2a9bb8"/>
        <path id="Path_2260" data-name="Path 2260" d="M739.979,231.548c-.485.086-.957.189-1.438.309a1.545,1.545,0,0,0-.734.328.53.53,0,0,0-.062.727.764.764,0,0,0,.469.155,86.638,86.638,0,0,0,10.2-.087c3.561-.088,7.121-.21,10.683-.319l.64-.019c.178,0,.357-.016.535-.016.764-.023,1.821-.412,1.605-1.146-.151-.516-.827-.615-1.365-.616q-5.286,0-10.569.16-2.669.082-5.336.207A36.442,36.442,0,0,0,739.979,231.548Z" transform="translate(-705.455 -229.259)" fill="#2a9bb8"/>
        <path id="Path_2261" data-name="Path 2261" d="M460.367,240.076a1.483,1.483,0,0,0-2.445.575,1.338,1.338,0,0,0,.059,1.272,1.385,1.385,0,0,0,1.426.6A1.508,1.508,0,0,0,460.367,240.076Z" transform="translate(-449.076 -237.3)" fill="#2a9bb8"/>
      </g>
      <g id="Group_2381" data-name="Group 2381" transform="translate(357.564 222.683)">
        <g id="Group_2319" data-name="Group 2319" transform="translate(25.993 9.223)">
          <path id="Path_2262" data-name="Path 2262" d="M708.4,468.917h-.006a.174.174,0,0,1-.169-.181,16.986,16.986,0,0,1,3.106-9.469,18.119,18.119,0,0,1,3.761-3.481,19.7,19.7,0,0,0,3.449-3.084.175.175,0,0,1,.272.22,20.052,20.052,0,0,1-3.507,3.142,17.736,17.736,0,0,0-3.691,3.41,16.629,16.629,0,0,0-3.04,9.275A.175.175,0,0,1,708.4,468.917Z" transform="translate(-708.222 -452.638)" fill="#3a3a62"/>
        </g>
        <g id="Group_2320" data-name="Group 2320" transform="translate(57.908 18.231)">
          <path id="Path_2263" data-name="Path 2263" d="M1112.837,583.869a.178.178,0,0,1-.082-.021.174.174,0,0,1-.072-.237,16.7,16.7,0,0,0,1.321-8.28,10.836,10.836,0,0,0-4.526-7.959,22.648,22.648,0,0,0-9.241-3.568c-3.909-.611-7.452-1.285-11.212-3.377a.175.175,0,1,1,.169-.306c3.71,2.064,7.221,2.733,11.1,3.337a22.99,22.99,0,0,1,9.382,3.625,11.176,11.176,0,0,1,4.677,8.209,17.1,17.1,0,0,1-1.359,8.485A.174.174,0,0,1,1112.837,583.869Z" transform="translate(-1088.933 -560.098)" fill="#3a3a62"/>
        </g>
        <g id="Group_2321" data-name="Group 2321" transform="translate(26.167 2.19)">
          <path id="Path_2264" data-name="Path 2264" d="M739.572,382.443q-.441-.468-.848-.961c-1.792-2.176-1.22-6.36-1.863-9.042-.018-.077-.166-.189-.2-.259a4.47,4.47,0,0,0-2.164-1.956,6.347,6.347,0,0,0-2.093-.625c-.642-.062-1.292.01-1.932-.067a13.46,13.46,0,0,1-1.791-.442,9.626,9.626,0,0,0-2.451-.346h-.893l-.436.14a4,4,0,0,0-1.584,1.169,5.748,5.748,0,0,0-1.193,2.021c-.439,1.033-.786,2.13-1.305,3.125a18.856,18.856,0,0,1-2.329,3,70.021,70.021,0,0,0-5.671,7.442c-3.311,5.388-3.267,13.729-.352,19.255,1.756,3.33,4.791,5.8,7.979,7.807,5.692,3.578,12.387,7.8,19.032,8.813,4.932.755,10.7.959,15.417-.665,7.56-2.6,14.307-13.081,11.469-21a12.134,12.134,0,0,0-1.939-3.359,18.127,18.127,0,0,0-5.512-4.668c-4.048-2.221-8.8-2.821-12.972-4.794A21.365,21.365,0,0,1,739.572,382.443Z" transform="translate(-710.304 -368.743)" fill="#3a3a62"/>
        </g>
        <g id="Group_2322" data-name="Group 2322" transform="translate(97.999 22.413)">
          <path id="Path_2265" data-name="Path 2265" d="M1577.353,622.29a15.519,15.519,0,0,0,2.189-1.612,24.654,24.654,0,0,0,2.7-2.875,4.75,4.75,0,0,0,1.374-3.125,13.586,13.586,0,0,0-.521-3.564,1.529,1.529,0,0,0-.99-1.106,1.688,1.688,0,0,0-1.416.631,47.9,47.9,0,0,1-5.471,4.481c-.272.185-.9.757-1.247.669-.806-.2.073-1.276.267-1.595.508-.833,2-2.994.635-3.866-.57-.362-1.476.276-1.911.526-2.231,1.286-4.65,3.448-5.524,6.015a3.948,3.948,0,0,0-.078,2.619,6.23,6.23,0,0,0,1.873,2.34c1.029,1.069,1.814,2.252,3.125,2.9.931.457,1.652-.447,2.338-.862C1575.6,623.319,1576.491,622.829,1577.353,622.29Z" transform="translate(-1567.177 -609.985)" fill="#fbc0af"/>
        </g>
        <g id="Group_2324" data-name="Group 2324" transform="translate(50.284 23.161)">
          <g id="Group_2323" data-name="Group 2323">
            <path id="Path_2266" data-name="Path 2266" d="M1008.133,620.722c3.238,3.369,6.495,6.7,9.79,9.946,1.648,1.619,3.305,3.217,4.965,4.749.83.763,1.66,1.512,2.477,2.214s1.647,1.379,2.3,1.833c.15.1.3.206.369.241.028.016.052.03.011.007a2.8,2.8,0,0,0-.368-.149c-.06-.02-.182-.061-.272-.082l-.148-.036c-.06-.013-.158-.036-.236-.05a4.58,4.58,0,0,0-.484-.059c-.117-.01-.235-.016-.354-.015l-.279.009c-.077,0-.164.015-.231.024-.093.008-.221.035-.28.046-.267.061-.261.078-.212.052a8.07,8.07,0,0,0,.836-.445c.363-.214.769-.477,1.183-.757,1.669-1.136,3.444-2.529,5.189-3.952s3.5-2.925,5.246-4.445q1.589-1.393,3.175-2.785c.984-.863,3.2-3.328,4.58-3.02a2.023,2.023,0,0,1,.885.563c1.7,1.572,7.84,6.967,6.788,9.431a5.263,5.263,0,0,1-1.542,1.8,200.806,200.806,0,0,1-15.98,12.87,19.653,19.653,0,0,1-6.389,3.265c-6.447,1.577-11.466-4.255-15.442-8.391q-7.062-7.346-14.089-14.718a5.892,5.892,0,0,1,8.515-8.147Z" transform="translate(-997.991 -618.903)" fill="#fff"/>
          </g>
        </g>
        <g id="Group_2325" data-name="Group 2325" transform="translate(35.731 83.126)">
          <path id="Path_2267" data-name="Path 2267" d="M838.886,1367.718c-.7-9.531-1.778-22.77-2.58-25.574-.737-2.583-1.662-5.227-3.623-7.187-.473-.475-1.188-.932-1.817-.651a1.664,1.664,0,0,0-.745.927c-3.672,8.173-4.516,17.178-5.206,26.008l-.524,6.477Z" transform="translate(-824.393 -1334.22)" fill="#e5f8e3"/>
        </g>
        <g id="Group_2326" data-name="Group 2326" transform="translate(34.327 15.023)">
          <path id="Path_2268" data-name="Path 2268" d="M826.742,529.186a4.122,4.122,0,0,1-1.645,2.733c-1.2,1.13-2.144,3.7-3.68,4.4a8.858,8.858,0,0,1-7.053.581c-2.477-.882-5.565-4.513-6.587-6.784-.126-.286-.232-.647-.007-.877a.52.52,0,0,1,.328-.2c6.109-.077,6.884-2.536,6.981-4.933.03-.8-.015-1.588.034-2.281h3.837a.1.1,0,0,0-.038.056.084.084,0,0,0-.011.025,10.222,10.222,0,0,0,.357,3.894c.01.034.016.07.028.1a4.408,4.408,0,0,0,1.085,2.113C821.564,529.032,825.138,528.977,826.742,529.186Z" transform="translate(-807.639 -521.826)" fill="#fbc0af"/>
        </g>
        <g id="Group_2328" data-name="Group 2328" transform="translate(42.074 14.879)" style="mix-blend-mode: multiply;isolation: isolate">
          <g id="Group_2327" data-name="Group 2327">
            <path id="Path_2269" data-name="Path 2269" d="M903.92,524.233a12.115,12.115,0,0,1-1.746-.564,5.042,5.042,0,0,1-1.728-1.13,2.86,2.86,0,0,1-.292-.364.121.121,0,0,1-.038-.14c-.028-.591-.053-1.185-.067-1.777,0-.049,0-.094,0-.143l2.512.143,1.015.056a.082.082,0,0,0-.011.025A10.221,10.221,0,0,0,903.92,524.233Z" transform="translate(-900.047 -520.115)" fill="#fde1d8"/>
          </g>
        </g>
        <g id="Group_2329" data-name="Group 2329" transform="translate(39.122 62.423)">
          <path id="Path_2270" data-name="Path 2270" d="M867.082,1103.654q1.409,5.849,2.748,11.767a231.149,231.149,0,0,1,4.26,26.039h23.253c-.118-.891-.231-1.759-.339-2.6-.528-4.115-1.793-10.525-2.192-14.6s-.82-8.151-1.262-12.229-.907-8.161-1.409-12.264-1.037-8.208-1.731-12.509l-23.063,4.35a2.9,2.9,0,0,0-2.413,3.524C865.675,1097.91,866.388,1100.785,867.082,1103.654Z" transform="translate(-864.842 -1087.259)" fill="#afeaaa"/>
        </g>
        <g id="Group_2330" data-name="Group 2330" transform="translate(18.087 62.143)">
          <path id="Path_2271" data-name="Path 2271" d="M637.071,1138.4q.088-.808.174-1.616l6.691-50.306-26.673-2.559c-.181,3.666-.331,7.333-.475,11-.448,11.366-.734,22.767-1.794,34.1-.294,3.154-.663,6.274-1.076,9.38Z" transform="translate(-613.919 -1083.916)" fill="#afeaaa"/>
        </g>
        <g id="Group_2332" data-name="Group 2332" transform="translate(20.306 22.995)" style="mix-blend-mode: multiply;isolation: isolate">
          <g id="Group_2331" data-name="Group 2331">
            <path id="Path_2272" data-name="Path 2272" d="M687.107,646.544a81.053,81.053,0,0,0-2.627-13.306,47.264,47.264,0,0,0-4.4-11.164c-1.608-2.664-6.513-3.608-9.279-5.037-.108-.056-.221.184-.3.116-.74-.07-1.576-.178-1.876.155a38.651,38.651,0,0,1-4.464,4.263.973.973,0,0,1-.358.159c-.322.049-3.427-2.506-4.366-3.415a6.823,6.823,0,0,1-1.063-1.261c-.2-.335-1.344.094-1.752.1a8.314,8.314,0,0,0-3.982.627c-3.071,1.435-6.784,3.936-8.147,6.881-4.23,9.132-4.219,16.955-4.062,25.521.015.873.856,18.937,1.2,19.038,12.421,3.676,32.708,3.3,46.991-1.748-.069,0-1.11-16.807-1.237-18.218Q687.263,647.9,687.107,646.544Z" transform="translate(-640.386 -616.926)" fill="#e0e2e8"/>
          </g>
        </g>
        <g id="Group_2333" data-name="Group 2333" transform="translate(20.306 21.596)">
          <path id="Path_2273" data-name="Path 2273" d="M687.107,629.512a79.325,79.325,0,0,0-2.627-13.154,46.4,46.4,0,0,0-4.4-11.036c-1.608-2.633-6.513-3.566-9.279-4.98-.108-.055-.221.182-.3.115-.74-.069-1.576-.177-1.876.154a38.5,38.5,0,0,1-4.464,4.214.979.979,0,0,1-.358.157c-.322.048-3.427-2.477-4.366-3.375a6.746,6.746,0,0,1-1.063-1.247c-.2-.331-1.344.093-1.752.094a8.4,8.4,0,0,0-3.982.62c-3.071,1.418-6.784,3.891-8.147,6.8-4.23,9.027-4.219,16.759-4.062,25.228.015.863.856,18.719,1.2,18.819,12.421,3.634,32.708,3.26,46.991-1.728-.069,0-1.11-16.616-1.237-18.009Q687.263,630.849,687.107,629.512Z" transform="translate(-640.386 -600.235)" fill="#afeaaa"/>
        </g>
        <g id="Group_2335" data-name="Group 2335" transform="translate(15.146 21.471)">
          <g id="Group_2334" data-name="Group 2334">
            <path id="Path_2274" data-name="Path 2274" d="M603.549,693.9c.6-14.707.148-29.588.148-44.281q.014-1.8.025-3.6c.063-8.265-.532-15.137-.169-23.4.185-4.23.572-8.289.4-12.469-.078-1.912-.955-3.367-1.559-5.18-.371-1.114-.666-2.648-.947-3.785-.244-1-.4-2.359-.934-2.4a17.476,17.476,0,0,0-7.628,1.158,11.324,11.324,0,0,0-6.55,6.691,62.328,62.328,0,0,0-2.125,11.2c-.284,2.056-.3,4.229-.448,6.3q-.226,3.15-.449,6.3c-.346,4.859.244,11.277.369,16.156.135,5.237.307,9.228-.672,14.589-1.244,6.812-1.766,12.633-2.507,20.407-.427,4.483-1.1,8.274-1.674,12.314Z" transform="translate(-578.831 -598.749)" fill="#fff"/>
          </g>
        </g>
        <g id="Group_2337" data-name="Group 2337" transform="translate(48.804 21.464)">
          <g id="Group_2336" data-name="Group 2336">
            <path id="Path_2275" data-name="Path 2275" d="M1003.689,679.983c-.042-3.089-.266-6.181-.56-9.249-.338-3.537-.087-7.028-.4-10.6-.4-4.6-.672-9.289-1.345-14.215-1.053-7.722-1.584-15.505-2.932-23.193a78.957,78.957,0,0,0-2.873-11.626c-.851-2.519-2-6.288-3.563-8.527-2.21-3.169-7.6-4.341-11.679-3.786.449,4.92,2.138,9.612,2.92,14.527,1,6.291.849,12.773,2.069,19,1.252,6.38,2.527,12.757,3.959,19.1,2.852,12.649,6.334,25.225,11.486,37.255q.85,1.983,1.76,3.944A54.525,54.525,0,0,0,1003.689,679.983Z" transform="translate(-980.339 -598.657)" fill="#fff"/>
          </g>
        </g>
        <g id="Group_2338" data-name="Group 2338" transform="translate(49.246 21.862)">
          <path id="Path_2276" data-name="Path 2276" d="M991.79,641.724l-.031,0a.275.275,0,0,1-.241-.3c.8-7.148,2.588-16.9,3.406-20.741-.451-.309-1.3-.827-2.194-1.372-1.316-.8-2.678-1.632-3.186-2.047a.274.274,0,0,1,.063-.46c.332-.148,1.26-.5,2.331-.91s2.265-.865,2.913-1.136c-2.15-4.088-6.148-8.153-9.156-10.866a.272.272,0,1,1,.364-.4c3.106,2.8,7.258,7.034,9.413,11.282a.281.281,0,0,1,.014.213.277.277,0,0,1-.145.158c-.547.247-1.961.786-3.208,1.262-.718.274-1.407.536-1.864.718.642.443,1.747,1.117,2.745,1.725s1.966,1.2,2.375,1.5a.272.272,0,0,1,.106.277c-.8,3.7-2.625,13.62-3.434,20.862A.273.273,0,0,1,991.79,641.724Z" transform="translate(-985.606 -603.413)" fill="#e4e2e2"/>
        </g>
        <g id="Group_2339" data-name="Group 2339" transform="translate(32.588 21.491)">
          <path id="Path_2277" data-name="Path 2277" d="M794.335,636.111a.272.272,0,0,1-.269-.227c-.775-4.607-5.382-16.1-7.135-19.244a.274.274,0,0,1,.03-.311,20.18,20.18,0,0,1,3.619-2.184c.716-.386,1.4-.756,1.858-1.026-.5-.2-1.335-.491-2.051-.742a23.46,23.46,0,0,1-3.376-1.32.275.275,0,0,1-.1-.311c.492-1.417.935-2.8,1.364-4.135a68.357,68.357,0,0,1,2.7-7.464.273.273,0,0,1,.5.228,68.061,68.061,0,0,0-2.678,7.4c-.408,1.272-.83,2.584-1.293,3.932.534.262,1.924.751,3.068,1.153a20.1,20.1,0,0,1,2.594,1,.272.272,0,0,1,.115.221.268.268,0,0,1-.114.223c-.374.271-1.278.758-2.325,1.323a32.817,32.817,0,0,0-3.33,1.938c1.829,3.389,6.3,14.5,7.1,19.231a.273.273,0,0,1-.225.315A.263.263,0,0,1,794.335,636.111Z" transform="translate(-786.896 -598.986)" fill="#e4e2e2"/>
        </g>
        <g id="Group_2340" data-name="Group 2340" transform="translate(37.13 9.416)">
          <path id="Path_2278" data-name="Path 2278" d="M842.173,455.006a.772.772,0,0,0-.817.158,1.043,1.043,0,0,0-.279.711,2.228,2.228,0,0,0,.5,1.509,1.531,1.531,0,0,0,.694.518.065.065,0,0,0,.055,0,.041.041,0,0,0,.014-.037c.025-.627.056-1.255.082-1.882Z" transform="translate(-841.073 -454.948)" fill="#fbc0af"/>
        </g>
        <g id="Group_2341" data-name="Group 2341" transform="translate(37.986 0.768)">
          <path id="Path_2279" data-name="Path 2279" d="M866.021,360.077c0,4.7-1.887,8.732-7.112,8.732-5.341,0-7.481-3.591-7.622-8.292s3.042-8.729,7.113-8.733C863.1,351.779,866.027,353.586,866.021,360.077Z" transform="translate(-851.282 -351.785)" fill="#fbc0af"/>
        </g>
        <g id="Group_2342" data-name="Group 2342" transform="translate(37.586)">
          <path id="Path_2280" data-name="Path 2280" d="M847.958,352.872c-.16.307-.331.085-.537-.163s-.388-.473-.582-.709a1.383,1.383,0,0,1-.169-.239,1.276,1.276,0,0,1-.112-.452,8.334,8.334,0,0,1,2.443-6.6,7.417,7.417,0,0,1,6.526-1.939,5.743,5.743,0,0,0,.81.169c.533.045,1.055-.134,1.59-.1a3.128,3.128,0,0,1,1.285.359,4.414,4.414,0,0,1,1.894,2.089,10.214,10.214,0,0,1,.733,3.582,5.052,5.052,0,0,1-.139,2.035c.294-.67-1.329-1.261-1.729-1.431a7.475,7.475,0,0,1-2.922-1.521A5.24,5.24,0,0,1,855.293,349a13.673,13.673,0,0,1-2.223.726c-.851.232-1.672.563-2.529.78a2.706,2.706,0,0,0-1.6.832A10.008,10.008,0,0,0,847.958,352.872Z" transform="translate(-846.514 -342.619)" fill="#3a3a62"/>
        </g>
        <g id="Group_2354" data-name="Group 2354" transform="translate(31.606 20.632)">
          <g id="Group_2343" data-name="Group 2343" transform="translate(2.048)">
            <path id="Path_2281" data-name="Path 2281" d="M800.165,605.291a.272.272,0,0,1-.268-.226,27.188,27.188,0,0,1,.136-8.418l.046-.325c.322-2.244.763-5.317,2.876-6.865a3.961,3.961,0,0,1,2.231-.718.274.274,0,0,1,.3.243.271.271,0,0,1-.243.3,3.419,3.419,0,0,0-1.965.615c-1.929,1.412-2.334,4.235-2.659,6.5l-.046.325a26.646,26.646,0,0,0-.137,8.248.274.274,0,0,1-.224.314A.293.293,0,0,1,800.165,605.291Z" transform="translate(-799.621 -588.739)" fill="#9bb0c2"/>
          </g>
          <g id="Group_2344" data-name="Group 2344" transform="translate(15.55 0.244)">
            <path id="Path_2282" data-name="Path 2282" d="M966.373,604.547a.31.31,0,0,1-.05,0,.273.273,0,0,1-.218-.318,18.16,18.16,0,0,0,.133-5.608,10.551,10.551,0,0,0-1.544-4.681,4.06,4.06,0,0,0-3.747-1.741.272.272,0,0,1-.265-.279.26.26,0,0,1,.28-.266,4.583,4.583,0,0,1,4.182,1.98,11.031,11.031,0,0,1,1.632,4.917,18.565,18.565,0,0,1-.137,5.777A.271.271,0,0,1,966.373,604.547Z" transform="translate(-960.683 -591.65)" fill="#9bb0c2"/>
          </g>
          <g id="Group_2345" data-name="Group 2345" transform="translate(0 14.092)">
            <path id="Path_2283" data-name="Path 2283" d="M779.911,759.026a2.37,2.37,0,1,1-2.362-2.189A2.28,2.28,0,0,1,779.911,759.026Z" transform="translate(-775.185 -756.837)" fill="#3a3a62"/>
          </g>
          <g id="Group_2346" data-name="Group 2346" transform="translate(0.918 14.943)">
            <path id="Path_2284" data-name="Path 2284" d="M789.027,768.326a1.449,1.449,0,1,1-1.443-1.338A1.394,1.394,0,0,1,789.027,768.326Z" transform="translate(-786.138 -766.988)" fill="#9bb0c2"/>
          </g>
          <g id="Group_2347" data-name="Group 2347" transform="translate(16.679 12.594)">
            <path id="Path_2285" data-name="Path 2285" d="M975.751,750.557a1.269,1.269,0,0,1-1.053-.4,1.8,1.8,0,0,1-.271-.7c-.731-3.375-.1-8.791,3-10.181a2.7,2.7,0,0,1,2.465,0c1.5.789,2.39,3.017,2.725,4.84a15.994,15.994,0,0,1,.214,2.913v.2a6.409,6.409,0,0,1-.265,2.726c-.239.338-.733.465-1.5.394a.272.272,0,0,1-.246-.3.276.276,0,0,1,.3-.246c.753.071.952-.093,1-.166a7.2,7.2,0,0,0,.166-2.408v-.2a15.433,15.433,0,0,0-.207-2.813c-.3-1.62-1.114-3.757-2.441-4.455a2.185,2.185,0,0,0-1.988.013c-2.794,1.255-3.363,6.454-2.689,9.568a1.359,1.359,0,0,0,.176.491c.162.218.77.225,1.243.106a.273.273,0,0,1,.132.529A3.38,3.38,0,0,1,975.751,750.557Z" transform="translate(-974.151 -738.977)" fill="#9bb0c2"/>
          </g>
          <g id="Group_2349" data-name="Group 2349" transform="translate(20.674 7.928)">
            <g id="Group_2348" data-name="Group 2348">
              <path id="Path_2286" data-name="Path 2286" d="M1022.01,683.545a1.8,1.8,0,0,0,.041.462c.016.21.032.42.035.629q.013.606-.015,1.213a17.048,17.048,0,0,1-.265,2.311.529.529,0,0,0,.463.6.659.659,0,0,0,.1.008.556.556,0,0,0,.558-.436,18.511,18.511,0,0,0,.287-2.629c.014-.389.041-.777.046-1.167a4.36,4.36,0,0,0-.057-1.057.222.222,0,0,0-.1-.158.251.251,0,0,0-.128-.016,6.679,6.679,0,0,0-.766.1.34.34,0,0,0-.144.047A.151.151,0,0,0,1022.01,683.545Z" transform="translate(-1021.799 -683.308)" fill="#3a3a62"/>
            </g>
          </g>
          <g id="Group_2351" data-name="Group 2351" transform="translate(16.798 12.345)">
            <g id="Group_2350" data-name="Group 2350">
              <path id="Path_2287" data-name="Path 2287" d="M983.851,740a3.594,3.594,0,0,0-.35-.988,8.037,8.037,0,0,0-.488-.963,4.846,4.846,0,0,0-1.323-1.5,3.194,3.194,0,0,0-.456-.267,3.069,3.069,0,0,0-2.646.044,5.187,5.187,0,0,0-2.485,2.743,7.1,7.1,0,0,0-.525,1.485.191.191,0,0,0,0,.128c.074.141.462.156.6.17.108.011.306.072.4.011a.306.306,0,0,0,.113-.152c.083-.206.117-.43.19-.641a7.2,7.2,0,0,1,.4-.95,4.387,4.387,0,0,1,1.158-1.464,3.09,3.09,0,0,1,.633-.386,1.859,1.859,0,0,1,1.634-.054,3.159,3.159,0,0,1,1.243,1.238,7.062,7.062,0,0,1,.484.936q.108.252.2.51c.038.106.074.385.221.406a.277.277,0,0,0,.1-.006,8.021,8.021,0,0,0,.832-.194.084.084,0,0,0,.052-.029.063.063,0,0,0,.007-.042C983.853,740.023,983.851,740.011,983.851,740Z" transform="translate(-975.569 -736.002)" fill="#3a3a62"/>
            </g>
          </g>
          <g id="Group_2352" data-name="Group 2352" transform="translate(22.298 22.907)">
            <path id="Path_2288" data-name="Path 2288" d="M1042.6,862.645a.812.812,0,0,1-.613.91.7.7,0,0,1-.809-.637.811.811,0,0,1,.611-.909A.7.7,0,0,1,1042.6,862.645Z" transform="translate(-1041.176 -861.996)" fill="#3a3a62"/>
          </g>
          <g id="Group_2353" data-name="Group 2353" transform="translate(18.678 22.902)">
            <path id="Path_2289" data-name="Path 2289" d="M999.464,862.489a.812.812,0,0,1-.507.993.733.733,0,0,1-.935-.512.814.814,0,0,1,.506-.993A.732.732,0,0,1,999.464,862.489Z" transform="translate(-997.99 -861.939)" fill="#3a3a62"/>
          </g>
        </g>
        <g id="Group_2366" data-name="Group 2366" transform="translate(42.804 9.212)">
          <g id="Group_2355" data-name="Group 2355" transform="translate(4.506 2.15)">
            <path id="Path_2290" data-name="Path 2290" d="M962.841,479.411l-.105,0a.1.1,0,0,1-.1-.109.106.106,0,0,1,.109-.1c.175.011.595,0,.7-.334a.35.35,0,0,0-.017-.278.441.441,0,0,0-.271-.2.757.757,0,0,0-.518.047.1.1,0,1,1-.083-.187.956.956,0,0,1,.661-.056.641.641,0,0,1,.394.3.557.557,0,0,1,.029.437A.763.763,0,0,1,962.841,479.411Z" transform="translate(-962.503 -478.156)" fill="#eb8e76"/>
          </g>
          <g id="Group_2358" data-name="Group 2358" transform="translate(1.069 1.311)">
            <g id="Group_2356" data-name="Group 2356">
              <path id="Path_2291" data-name="Path 2291" d="M922.512,468.913c0,.426-.224.773-.5.773s-.5-.347-.5-.773.224-.773.5-.773S922.512,468.486,922.512,468.913Z" transform="translate(-921.513 -468.14)" fill="#3a3a62"/>
            </g>
            <g id="Group_2357" data-name="Group 2357" transform="translate(0.174 0.174)">
              <path id="Path_2292" data-name="Path 2292" d="M923.914,470.421a.166.166,0,1,1-.163-.2A.184.184,0,0,1,923.914,470.421Z" transform="translate(-923.589 -470.22)" fill="#fff"/>
            </g>
          </g>
          <g id="Group_2361" data-name="Group 2361" transform="translate(7.149 1.311)">
            <g id="Group_2359" data-name="Group 2359">
              <path id="Path_2293" data-name="Path 2293" d="M995.038,468.913c0,.426-.225.773-.5.773s-.5-.347-.5-.773.224-.773.5-.773S995.038,468.486,995.038,468.913Z" transform="translate(-994.038 -468.14)" fill="#3a3a62"/>
            </g>
            <g id="Group_2360" data-name="Group 2360" transform="translate(0.174 0.174)">
              <path id="Path_2294" data-name="Path 2294" d="M996.439,470.421a.166.166,0,1,1-.162-.2A.184.184,0,0,1,996.439,470.421Z" transform="translate(-996.114 -470.22)" fill="#fff"/>
            </g>
          </g>
          <g id="Group_2362" data-name="Group 2362" transform="translate(7.075 0.016)">
            <path id="Path_2295" data-name="Path 2295" d="M993.339,452.709a3.281,3.281,0,0,1,1,.093,2.9,2.9,0,0,1,.92.369.1.1,0,0,1,.028.134.1.1,0,0,1-.123.033l0,0a2.7,2.7,0,0,0-.872-.247,3.006,3.006,0,0,0-.895.007h0a.2.2,0,0,1-.074-.386Z" transform="translate(-993.159 -452.701)" fill="#3a3a62"/>
          </g>
          <g id="Group_2363" data-name="Group 2363">
            <path id="Path_2296" data-name="Path 2296" d="M910.659,452.9a2.966,2.966,0,0,0-.892.02,2.659,2.659,0,0,0-.864.272l0,0a.1.1,0,0,1-.1-.163,2.913,2.913,0,0,1,.909-.4,3.3,3.3,0,0,1,1-.124.2.2,0,0,1-.02.392l-.02,0Z" transform="translate(-908.756 -452.506)" fill="#3a3a62"/>
          </g>
          <g id="Group_2364" data-name="Group 2364" transform="translate(3.482 4.493)">
            <path id="Path_2297" data-name="Path 2297" d="M953.144,506.176c.371.1.116.536-.119.78a1.443,1.443,0,0,1-.982.464,2.207,2.207,0,0,1-1.577-.735c-.283-.323-.234-.672.2-.558a4.928,4.928,0,0,0,2.29.025A.373.373,0,0,1,953.144,506.176Z" transform="translate(-950.289 -506.106)" fill="#3a3a62"/>
          </g>
          <g id="Group_2365" data-name="Group 2365" transform="translate(3.734 4.992)">
            <path id="Path_2298" data-name="Path 2298" d="M954.809,512.116a2.9,2.9,0,0,0-1.511.094,2.189,2.189,0,0,0,1.5.659,1.388,1.388,0,0,0,.83-.328A2.223,2.223,0,0,0,954.809,512.116Z" transform="translate(-953.298 -512.053)" fill="#eb4c4f"/>
          </g>
        </g>
        <g id="Group_2370" data-name="Group 2370" transform="translate(32.048 45.764)">
          <g id="Group_2367" data-name="Group 2367" transform="translate(0 1.555)">
            <path id="Path_2299" data-name="Path 2299" d="M780.567,931.148a2.773,2.773,0,0,0,.229,2.2,2.691,2.691,0,0,0,1.3.785c3.032,1.1,13.824,3.426,16.745,3.975.607.114,1.455.429,1.869-.22a3.283,3.283,0,0,0,.368-1.012c.963-3.919,4.126-18.473,5.339-24.176a1.315,1.315,0,0,0-.058-1.016,1.045,1.045,0,0,0-.608-.393c-4.817-1.263-11.779-2.863-17.972-4.127-2.21-.451-2.347,1.064-2.7,2.867-.453,2.3-.98,4.587-1.442,6.886C782.711,921.52,781.531,926.284,780.567,931.148Z" transform="translate(-780.452 -907.087)" fill="#6bcae2"/>
          </g>
          <g id="Group_2368" data-name="Group 2368" transform="translate(11.453 1.025)">
            <path id="Path_2300" data-name="Path 2300" d="M924.8,905.345c.078.007.155.012.233.011a.2.2,0,0,0,.116-.029.211.211,0,0,0,.061-.11c.216-.686.382-1.38.532-2.085a.9.9,0,0,0,.01-.533c-.106-.256-.412-.343-.678-.4l-3.771-.793-1.85-.388a3.381,3.381,0,0,0-1.653-.2c-.314.114-.285.525-.363.8q-.157.557-.271,1.124c-.111.543-.255.905.38,1.049,2.239.509,4.476.955,6.714,1.452A4.707,4.707,0,0,0,924.8,905.345Z" transform="translate(-917.069 -900.76)" fill="#9bb0c2"/>
          </g>
          <g id="Group_2369" data-name="Group 2369" transform="translate(13.85)">
            <path id="Path_2301" data-name="Path 2301" d="M949.927,891.061c.043,0,.086.006.128.006a.107.107,0,0,0,.064-.016.12.12,0,0,0,.034-.061c.118-.378.21-.759.292-1.147a.5.5,0,0,0,.006-.294c-.059-.141-.227-.189-.373-.22L948,888.894l-1.019-.214a1.852,1.852,0,0,0-.909-.11c-.172.062-.156.288-.2.441-.058.2-.108.411-.149.619-.061.3-.141.5.209.578,1.232.279,2.464.526,3.695.8A2.838,2.838,0,0,0,949.927,891.061Z" transform="translate(-945.672 -888.538)" fill="#9bb0c2"/>
          </g>
        </g>
        <g id="Group_2371" data-name="Group 2371" transform="translate(27.031 57.343)">
          <path id="Path_2302" data-name="Path 2302" d="M734.485,1030.707a5.413,5.413,0,0,0-3.094-1.059c-.76-.078-2.361-.076-3.24-.073.207-1.019.411-1.919.589-2.92-2.946.432-5.8,1.716-7.137,4.269a12.358,12.358,0,0,0-1,4.053c-.018,1.851,1.621,3.028,2.968,4,1.944,1.4,5.516,3.011,8.019,2.828a2.085,2.085,0,0,0,1.723-.928,1.178,1.178,0,0,0-.677-1.6,2.05,2.05,0,0,0,1.155-3.224,1.746,1.746,0,0,0,.581-2.888A1.471,1.471,0,0,0,734.485,1030.707Z" transform="translate(-720.606 -1026.655)" fill="#fbc0af"/>
        </g>
        <g id="Group_2372" data-name="Group 2372" transform="translate(72.907 52.546)">
          <path id="Path_2303" data-name="Path 2303" d="M1267.859,969.437c.01.014.015.022.011.021A.11.11,0,0,0,1267.859,969.437Z" transform="translate(-1267.859 -969.437)" fill="#fff"/>
        </g>
        <g id="Group_2374" data-name="Group 2374" transform="translate(0 23.022)">
          <g id="Group_2373" data-name="Group 2373">
            <path id="Path_2304" data-name="Path 2304" d="M426.269,652.15a46.694,46.694,0,0,1-11.713-5.155c-.93-.6-1.836-1.209-2.683-1.823q-.267-.193-.529-.389c.456-.533.961-1.084,1.486-1.633.739-.771,1.526-1.544,2.335-2.31,1.62-1.534,3.334-3.043,5.084-4.519s3.545-2.922,5.359-4.32c.5-.382,1-.754,1.5-1.126a.5.5,0,0,1-.013-.229c.769-4.371,1.715-8.707,2.782-13.015a5.843,5.843,0,0,0-5.315.582c-2.2,1.455-4.168,2.911-6.143,4.415s-3.885,3.038-5.782,4.624-3.766,3.22-5.613,4.952c-.923.868-1.84,1.761-2.753,2.7s-1.821,1.936-2.736,3.074c-.46.572-.922,1.183-1.394,1.9a13.5,13.5,0,0,0-1.454,2.827,8.579,8.579,0,0,0-.528,2.808l0,.139.008.224c.006.15.017.3.033.448a6.34,6.34,0,0,0,.127.766c.025.116.053.232.083.348s.055.186.086.281c.057.176.124.367.189.524a7.984,7.984,0,0,0,.362.775l.18.323.165.265a11.226,11.226,0,0,0,1.147,1.492c.34.376.657.7.957.979a34.663,34.663,0,0,0,3.363,2.741c1.08.787,2.147,1.509,3.218,2.2,2.142,1.385,4.29,2.661,6.493,3.881a32.691,32.691,0,0,0,4.477,2.04c.9.334,3.68,1.739,4.568,1.166a1.679,1.679,0,0,0,.522-.689,56.222,56.222,0,0,0,2.885-6.713c.28-.79,1.161-2.4,1.055-3.224C427.967,652.693,426.916,652.345,426.269,652.15Z" transform="translate(-398.155 -617.244)" fill="#fff"/>
          </g>
        </g>
        <g id="Group_2375" data-name="Group 2375" transform="translate(41.795 8.76)">
          <path id="Path_2305" data-name="Path 2305" d="M899.2,452.023a2.625,2.625,0,0,1-1.343-.357,2.277,2.277,0,0,1-1.078-2.386h0a2.721,2.721,0,0,1,1.475-1.884,2.819,2.819,0,0,1,2.447.008,2.086,2.086,0,0,1,1.183,1.958,2.619,2.619,0,0,1-1.376,2.355A2.985,2.985,0,0,1,899.2,452.023Zm.261-4.626a2.5,2.5,0,0,0-1.087.249,2.445,2.445,0,0,0-1.324,1.7h0a1.99,1.99,0,0,0,.95,2.087,2.568,2.568,0,0,0,2.388.04,2.337,2.337,0,0,0,1.22-2.105,1.817,1.817,0,0,0-1.024-1.711A2.62,2.62,0,0,0,899.458,447.4Zm-2.546,1.915h0Z" transform="translate(-896.728 -447.121)" fill="#fff"/>
        </g>
        <g id="Group_2376" data-name="Group 2376" transform="translate(48.432 8.76)">
          <path id="Path_2306" data-name="Path 2306" d="M978.372,452.023a2.621,2.621,0,0,1-1.342-.357,2.274,2.274,0,0,1-1.078-2.386h0a2.721,2.721,0,0,1,1.474-1.884,2.82,2.82,0,0,1,2.448.008,2.088,2.088,0,0,1,1.184,1.958,2.619,2.619,0,0,1-1.377,2.355A2.979,2.979,0,0,1,978.372,452.023Zm.261-4.626a2.5,2.5,0,0,0-1.087.249,2.449,2.449,0,0,0-1.326,1.7h0a1.99,1.99,0,0,0,.952,2.087,2.568,2.568,0,0,0,2.388.04,2.336,2.336,0,0,0,1.22-2.105,1.819,1.819,0,0,0-1.024-1.711A2.62,2.62,0,0,0,978.633,447.4Zm-2.546,1.915h0Z" transform="translate(-975.902 -447.121)" fill="#fff"/>
        </g>
        <g id="Group_2377" data-name="Group 2377" transform="translate(46.687 11.026)">
          <path id="Path_2307" data-name="Path 2307" d="M955.224,474.516a.138.138,0,0,1-.029-.273,4.162,4.162,0,0,1,1.675-.024.138.138,0,1,1-.052.271,3.9,3.9,0,0,0-1.562.024A.152.152,0,0,1,955.224,474.516Z" transform="translate(-955.086 -474.146)" fill="#fff"/>
        </g>
        <g id="Group_2378" data-name="Group 2378" transform="translate(37.677 9.107)">
          <path id="Path_2308" data-name="Path 2308" d="M851.8,453.322a.145.145,0,0,1-.054-.011c-1.4-.591-2.687-1.162-4.064-1.8a.138.138,0,1,1,.115-.251c1.374.634,2.663,1.2,4.056,1.794a.139.139,0,0,1,.074.181A.14.14,0,0,1,851.8,453.322Z" transform="translate(-847.6 -451.251)" fill="#fff"/>
        </g>
        <g id="Group_2379" data-name="Group 2379" transform="translate(39.285 4.933)">
          <path id="Path_2309" data-name="Path 2309" d="M866.916,405.563a.133.133,0,0,1-.116-.07.131.131,0,0,1,.055-.177,10.016,10.016,0,0,1,4.007-1.052c.268-.03.542-.061.832-.1a5,5,0,0,0,3.73-2.629.131.131,0,1,1,.235.116,5.266,5.266,0,0,1-3.933,2.773c-.288.037-.565.068-.832.1a9.672,9.672,0,0,0-3.914,1.022A.123.123,0,0,1,866.916,405.563Z" transform="translate(-866.784 -401.464)" fill="#3a3a62"/>
        </g>
        <g id="Group_2380" data-name="Group 2380" transform="translate(20.099 54.705)">
          <path id="Path_2310" data-name="Path 2310" d="M642.629,1010.876a2.141,2.141,0,0,1-.712-.159l-2.865-1.033a.272.272,0,1,1,.185-.512l2.866,1.033a1.109,1.109,0,0,0,.679.1,1.044,1.044,0,0,0,.439-.424,20.862,20.862,0,0,0,2.117-4.472l1.891-4.977a1.332,1.332,0,0,0,.137-.82.957.957,0,0,0-.6-.584c-2.36-.807-5.783-2.039-8.688-3.316a.272.272,0,1,1,.22-.5c2.887,1.27,6.294,2.495,8.645,3.3a1.5,1.5,0,0,1,.939.936,1.8,1.8,0,0,1-.147,1.178l-1.891,4.978a21.189,21.189,0,0,1-2.18,4.588,1.487,1.487,0,0,1-.712.631A1.015,1.015,0,0,1,642.629,1010.876Z" transform="translate(-637.92 -995.192)" fill="#c2d9e3"/>
        </g>
      </g>
    </g>
    <g id="Group_2384" data-name="Group 2384" transform="translate(1132.86 979.938)">
      <path id="Path_625" data-name="Path 625" d="M1380.91,1184.645l5.566-48.428a1.328,1.328,0,0,1,1.326-1.243h.6v-1.506h.794v-5.776h1.109v5.776h.794v1.506h.6a1.329,1.329,0,0,1,1.326,1.243l5.566,48.428h-.807l-6.832-47.131h-.283l-2.5,47.131h-.808l1.012-46.137-6.653,46.137Z" transform="translate(-1380.91 -1115.786)" fill="#332938"/>
      <path id="Path_626" data-name="Path 626" d="M1384.13,1000.068h12.754l2.387,15.174h-17.527Z" transform="translate(-1381.666 -1000.068)" fill="#00234b"/>
    </g>
    <g id="Group_2385" data-name="Group 2385" transform="translate(1139.471 1020.882)">
      <g id="Group_127" data-name="Group 127" transform="translate(0 0)">
        <g id="Group_98" data-name="Group 98" transform="translate(11.135 2.904)">
          <g id="Group_97" data-name="Group 97" transform="translate(0 0)">
            <rect id="Rectangle_22" data-name="Rectangle 22" width="19.127" height="0.819" transform="translate(0 19.104) rotate(-87.209)" fill="#31c687"/>
          </g>
        </g>
        <g id="Group_100" data-name="Group 100" transform="translate(5.849 14.645)">
          <g id="Group_99" data-name="Group 99">
            <path id="Path_681" data-name="Path 681" d="M1515.506,1595.914l2.706.433s-1.38,1.984-3.078,1.877S1515.506,1595.914,1515.506,1595.914Z" transform="translate(-1514.465 -1595.914)" fill="#31c687"/>
          </g>
        </g>
        <g id="Group_102" data-name="Group 102" transform="translate(6.479 19.888)">
          <g id="Group_101" data-name="Group 101">
            <path id="Path_682" data-name="Path 682" d="M1531.873,1654.3a8.4,8.4,0,0,1-.712,3.434,6.433,6.433,0,0,1-1.808,2.409h-5.613a6.441,6.441,0,0,1-1.807-2.409,8.4,8.4,0,0,1-.712-3.434c0-.068,0-.136,0-.2a8.642,8.642,0,0,1,.274-1.98h10.1a8.656,8.656,0,0,1,.274,1.98C1531.872,1654.165,1531.873,1654.233,1531.873,1654.3Z" transform="translate(-1521.22 -1652.117)" fill="#50adc4"/>
          </g>
        </g>
        <g id="Group_104" data-name="Group 104" transform="translate(1.241 8.336)">
          <g id="Group_103" data-name="Group 103">
            <path id="Path_683" data-name="Path 683" d="M1465.079,1531.8s7.2.175,9.484-1.247,2.085-1.522,2.085-1.522l-1.39-.745Z" transform="translate(-1465.079 -1528.286)" fill="#31c687"/>
          </g>
        </g>
        <g id="Group_106" data-name="Group 106" transform="translate(10.493 5.406)">
          <g id="Group_105" data-name="Group 105">
            <path id="Path_684" data-name="Path 684" d="M1564.247,1496.884a18.314,18.314,0,0,0,5.247,4.344,26.282,26.282,0,0,0,7.349,1.6l-9.782-5.939Z" transform="translate(-1564.247 -1496.884)" fill="#31c687"/>
          </g>
        </g>
        <g id="Group_108" data-name="Group 108" transform="translate(11.118)">
          <g id="Group_107" data-name="Group 107">
            <path id="Path_685" data-name="Path 685" d="M1570.941,1442.49l14.2-3.277S1575.857,1437.525,1570.941,1442.49Z" transform="translate(-1570.941 -1438.936)" fill="#31c687"/>
          </g>
        </g>
        <g id="Group_110" data-name="Group 110" transform="translate(0 3.554)">
          <g id="Group_109" data-name="Group 109">
            <path id="Path_686" data-name="Path 686" d="M1451.773,1477.044l9.434,3.873S1461.207,1476.746,1451.773,1477.044Z" transform="translate(-1451.773 -1477.029)" fill="#31c687"/>
          </g>
        </g>
        <g id="Group_112" data-name="Group 112" transform="translate(14.847 11.443)">
          <g id="Group_111" data-name="Group 111">
            <path id="Path_687" data-name="Path 687" d="M1610.911,1561.588s1.092,3.942,2.88,5.06a13.625,13.625,0,0,0,5.065,1.344Z" transform="translate(-1610.911 -1561.588)" fill="#31c687"/>
          </g>
        </g>
        <g id="Group_114" data-name="Group 114" transform="translate(9.949 13.57)">
          <g id="Group_113" data-name="Group 113">
            <path id="Path_688" data-name="Path 688" d="M1559.453,1584.6l3.526-.2s-1.614,2.335-2.9,2.734-1.663.1-1.663.1Z" transform="translate(-1558.41 -1584.396)" fill="#31c687"/>
          </g>
        </g>
        <g id="Group_116" data-name="Group 116" transform="translate(11.986 12.497)">
          <g id="Group_115" data-name="Group 115" transform="translate(0 0)">
            <rect id="Rectangle_23" data-name="Rectangle 23" width="3.714" height="0.223" transform="translate(0 0.782) rotate(-12.151)" fill="#31c687"/>
          </g>
        </g>
        <g id="Group_118" data-name="Group 118" transform="translate(10.393 9.485)">
          <g id="Group_117" data-name="Group 117" transform="translate(0 0)">
            <rect id="Rectangle_24" data-name="Rectangle 24" width="0.223" height="3.268" transform="matrix(0.9, -0.436, 0.436, 0.9, 0, 0.097)" fill="#31c687"/>
          </g>
        </g>
        <g id="Group_120" data-name="Group 120" transform="translate(11.813 14.123)">
          <g id="Group_119" data-name="Group 119" transform="translate(0 0)">
            <rect id="Rectangle_25" data-name="Rectangle 25" width="3.947" height="0.223" transform="translate(0 3.685) rotate(-68.998)" fill="#31c687"/>
          </g>
        </g>
        <g id="Group_122" data-name="Group 122" transform="translate(7.907 15.381)">
          <g id="Group_121" data-name="Group 121">
            <path id="Path_689" data-name="Path 689" d="M1540.348,1607.216c-1.025-.871-3.711-3.151-3.826-3.233l.125-.185c.114.076,3.464,2.923,3.846,3.248Z" transform="translate(-1536.522 -1603.798)" fill="#31c687"/>
          </g>
        </g>
        <g id="Group_124" data-name="Group 124" transform="translate(11.917 7.38)">
          <g id="Group_123" data-name="Group 123" transform="translate(0 0)">
            <rect id="Rectangle_26" data-name="Rectangle 26" width="4.266" height="0.223" transform="translate(0 3.563) rotate(-56.637)" fill="#31c687"/>
          </g>
        </g>
        <g id="Group_126" data-name="Group 126" transform="translate(7.182 5.768)">
          <g id="Group_125" data-name="Group 125" transform="translate(0 0)">
            <rect id="Rectangle_27" data-name="Rectangle 27" width="0.223" height="6.754" transform="translate(0 0.157) rotate(-44.665)" fill="#31c687"/>
          </g>
        </g>
      </g>
    </g>
    <g id="Group_2386" data-name="Group 2386" transform="translate(994.471 1020.882)">
      <g id="Group_127-2" data-name="Group 127" transform="translate(0 0)">
        <g id="Group_98-2" data-name="Group 98" transform="translate(11.135 2.904)">
          <g id="Group_97-2" data-name="Group 97" transform="translate(0 0)">
            <rect id="Rectangle_22-2" data-name="Rectangle 22" width="19.127" height="0.819" transform="translate(0 19.104) rotate(-87.209)" fill="#31c687"/>
          </g>
        </g>
        <g id="Group_100-2" data-name="Group 100" transform="translate(5.849 14.645)">
          <g id="Group_99-2" data-name="Group 99">
            <path id="Path_681-2" data-name="Path 681" d="M1515.506,1595.914l2.706.433s-1.38,1.984-3.078,1.877S1515.506,1595.914,1515.506,1595.914Z" transform="translate(-1514.465 -1595.914)" fill="#31c687"/>
          </g>
        </g>
        <g id="Group_102-2" data-name="Group 102" transform="translate(6.479 19.888)">
          <g id="Group_101-2" data-name="Group 101">
            <path id="Path_682-2" data-name="Path 682" d="M1531.873,1654.3a8.4,8.4,0,0,1-.712,3.434,6.433,6.433,0,0,1-1.808,2.409h-5.613a6.441,6.441,0,0,1-1.807-2.409,8.4,8.4,0,0,1-.712-3.434c0-.068,0-.136,0-.2a8.642,8.642,0,0,1,.274-1.98h10.1a8.656,8.656,0,0,1,.274,1.98C1531.872,1654.165,1531.873,1654.233,1531.873,1654.3Z" transform="translate(-1521.22 -1652.117)" fill="#50adc4"/>
          </g>
        </g>
        <g id="Group_104-2" data-name="Group 104" transform="translate(1.241 8.336)">
          <g id="Group_103-2" data-name="Group 103">
            <path id="Path_683-2" data-name="Path 683" d="M1465.079,1531.8s7.2.175,9.484-1.247,2.085-1.522,2.085-1.522l-1.39-.745Z" transform="translate(-1465.079 -1528.286)" fill="#31c687"/>
          </g>
        </g>
        <g id="Group_106-2" data-name="Group 106" transform="translate(10.493 5.406)">
          <g id="Group_105-2" data-name="Group 105">
            <path id="Path_684-2" data-name="Path 684" d="M1564.247,1496.884a18.314,18.314,0,0,0,5.247,4.344,26.282,26.282,0,0,0,7.349,1.6l-9.782-5.939Z" transform="translate(-1564.247 -1496.884)" fill="#31c687"/>
          </g>
        </g>
        <g id="Group_108-2" data-name="Group 108" transform="translate(11.118)">
          <g id="Group_107-2" data-name="Group 107">
            <path id="Path_685-2" data-name="Path 685" d="M1570.941,1442.49l14.2-3.277S1575.857,1437.525,1570.941,1442.49Z" transform="translate(-1570.941 -1438.936)" fill="#31c687"/>
          </g>
        </g>
        <g id="Group_110-2" data-name="Group 110" transform="translate(0 3.554)">
          <g id="Group_109-2" data-name="Group 109">
            <path id="Path_686-2" data-name="Path 686" d="M1451.773,1477.044l9.434,3.873S1461.207,1476.746,1451.773,1477.044Z" transform="translate(-1451.773 -1477.029)" fill="#31c687"/>
          </g>
        </g>
        <g id="Group_112-2" data-name="Group 112" transform="translate(14.847 11.443)">
          <g id="Group_111-2" data-name="Group 111">
            <path id="Path_687-2" data-name="Path 687" d="M1610.911,1561.588s1.092,3.942,2.88,5.06a13.625,13.625,0,0,0,5.065,1.344Z" transform="translate(-1610.911 -1561.588)" fill="#31c687"/>
          </g>
        </g>
        <g id="Group_114-2" data-name="Group 114" transform="translate(9.949 13.57)">
          <g id="Group_113-2" data-name="Group 113">
            <path id="Path_688-2" data-name="Path 688" d="M1559.453,1584.6l3.526-.2s-1.614,2.335-2.9,2.734-1.663.1-1.663.1Z" transform="translate(-1558.41 -1584.396)" fill="#31c687"/>
          </g>
        </g>
        <g id="Group_116-2" data-name="Group 116" transform="translate(11.986 12.497)">
          <g id="Group_115-2" data-name="Group 115" transform="translate(0 0)">
            <rect id="Rectangle_23-2" data-name="Rectangle 23" width="3.714" height="0.223" transform="translate(0 0.782) rotate(-12.151)" fill="#31c687"/>
          </g>
        </g>
        <g id="Group_118-2" data-name="Group 118" transform="translate(10.393 9.485)">
          <g id="Group_117-2" data-name="Group 117" transform="translate(0 0)">
            <rect id="Rectangle_24-2" data-name="Rectangle 24" width="0.223" height="3.268" transform="matrix(0.9, -0.436, 0.436, 0.9, 0, 0.097)" fill="#31c687"/>
          </g>
        </g>
        <g id="Group_120-2" data-name="Group 120" transform="translate(11.813 14.123)">
          <g id="Group_119-2" data-name="Group 119" transform="translate(0 0)">
            <rect id="Rectangle_25-2" data-name="Rectangle 25" width="3.947" height="0.223" transform="translate(0 3.685) rotate(-68.998)" fill="#31c687"/>
          </g>
        </g>
        <g id="Group_122-2" data-name="Group 122" transform="translate(7.907 15.381)">
          <g id="Group_121-2" data-name="Group 121">
            <path id="Path_689-2" data-name="Path 689" d="M1540.348,1607.216c-1.025-.871-3.711-3.151-3.826-3.233l.125-.185c.114.076,3.464,2.923,3.846,3.248Z" transform="translate(-1536.522 -1603.798)" fill="#31c687"/>
          </g>
        </g>
        <g id="Group_124-2" data-name="Group 124" transform="translate(11.917 7.38)">
          <g id="Group_123-2" data-name="Group 123" transform="translate(0 0)">
            <rect id="Rectangle_26-2" data-name="Rectangle 26" width="4.266" height="0.223" transform="translate(0 3.563) rotate(-56.637)" fill="#31c687"/>
          </g>
        </g>
        <g id="Group_126-2" data-name="Group 126" transform="translate(7.182 5.768)">
          <g id="Group_125-2" data-name="Group 125" transform="translate(0 0)">
            <rect id="Rectangle_27-2" data-name="Rectangle 27" width="0.223" height="6.754" transform="translate(0 0.157) rotate(-44.665)" fill="#31c687"/>
          </g>
        </g>
      </g>
    </g>
  </g>
</svg>
