<svg xmlns="http://www.w3.org/2000/svg" width="19.881" height="29.492" viewBox="0 0 19.881 29.492">
  <g id="placeholder" transform="translate(-83.419)">
    <path id="Path_522" data-name="Path 522" d="M173.173,84.781a5.391,5.391,0,1,0-5.391,5.391A5.4,5.4,0,0,0,173.173,84.781Zm-8.412.864V83.917h2.156V81.761h1.728v2.156H170.8v1.728h-2.156V87.8h-1.728V85.645Z" transform="translate(-74.422 -74.817)" fill="#72d1f7"/>
    <path id="Path_523" data-name="Path 523" d="M103.3,9.941a9.941,9.941,0,1,0-19.881,0c0,6.269,7.823,13.1,9.941,14.833C95.477,23.04,103.3,16.21,103.3,9.941Zm-17.06.024a7.12,7.12,0,1,1,7.12,7.12,7.128,7.128,0,0,1-7.12-7.12Z" transform="translate(0)" fill="#72d1f7"/>
    <path id="Path_524" data-name="Path 524" d="M119.812,417.656a7.406,7.406,0,0,0-1.93-.725,18.816,18.816,0,0,0-2.318-.41c-1.648,1.557-2.9,2.515-2.979,2.573l-.522.4-.522-.4c-.076-.058-1.331-1.016-2.979-2.573a18.83,18.83,0,0,0-2.318.41,7.405,7.405,0,0,0-1.93.725,1.62,1.62,0,0,0,0,3.032,7.4,7.4,0,0,0,1.93.725,28.213,28.213,0,0,0,11.639,0,7.4,7.4,0,0,0,1.93-.725,1.62,1.62,0,0,0,0-3.032Z" transform="translate(-18.703 -392.527)" fill="#72d1f7"/>
  </g>
</svg>
