<svg width="391" height="512" viewBox="0 0 391 512" fill="none" xmlns="http://www.w3.org/2000/svg">
<g clip-path="url(#clip0)">
<path d="M105.03 307H90.03V337H105.03C109.008 337 112.824 335.42 115.637 332.607C118.45 329.794 120.03 325.978 120.03 322C120.03 318.022 118.45 314.206 115.637 311.393C112.824 308.58 109.008 307 105.03 307Z" fill="#727272"/>
<path d="M300.03 8.78711V90.0001H381.243L300.03 8.78711Z" fill="#727272"/>
<path d="M285.03 120C281.052 120 277.236 118.42 274.423 115.607C271.61 112.794 270.03 108.978 270.03 105V0H15.03C11.0518 0 7.23647 1.58035 4.42342 4.3934C1.61038 7.20644 0.0300293 11.0218 0.0300293 15V497C0.0300293 500.978 1.61038 504.794 4.42342 507.607C7.23647 510.42 11.0518 512 15.03 512H375.03C379.008 512 382.824 510.42 385.637 507.607C388.45 504.794 390.03 500.978 390.03 497V120H285.03ZM75.03 90H225.03C229.008 90 232.824 91.5803 235.637 94.3934C238.45 97.2064 240.03 101.022 240.03 105C240.03 108.978 238.45 112.794 235.637 115.607C232.824 118.42 229.008 120 225.03 120H75.03C71.0518 120 67.2365 118.42 64.4234 115.607C61.6104 112.794 60.03 108.978 60.03 105C60.03 101.022 61.6104 97.2064 64.4234 94.3934C67.2365 91.5803 71.0518 90 75.03 90V90ZM190.565 424.322C193.358 427.139 194.921 430.948 194.912 434.915C194.903 438.882 193.324 442.684 190.519 445.489C187.714 448.294 183.912 449.873 179.945 449.882C175.978 449.891 172.169 448.328 169.352 445.535L153.53 429.713L137.604 445.639C134.787 448.432 130.978 449.995 127.011 449.986C123.044 449.977 119.242 448.398 116.437 445.593C113.632 442.788 112.053 438.986 112.044 435.019C112.035 431.052 113.598 427.243 116.391 424.426L132.317 408.5L90.817 367H90.03V405C90.03 408.978 88.4497 412.794 85.6366 415.607C82.8236 418.42 79.0083 420 75.03 420C71.0518 420 67.2365 418.42 64.4234 415.607C61.6104 412.794 60.03 408.978 60.03 405V292C60.03 288.022 61.6104 284.206 64.4234 281.393C67.2365 278.58 71.0518 277 75.03 277H105.03C114.956 276.997 124.604 280.277 132.472 286.329C140.34 292.38 145.985 300.865 148.528 310.459C151.071 320.054 150.369 330.22 146.532 339.375C142.695 348.529 135.938 356.157 127.314 361.071L153.53 387.287L169.424 371.393C172.241 368.6 176.05 367.037 180.017 367.046C183.984 367.055 187.786 368.634 190.591 371.439C193.396 374.244 194.975 378.046 194.984 382.013C194.993 385.98 193.43 389.789 190.637 392.606L174.743 408.5L190.565 424.322ZM315.03 360H225.03C221.052 360 217.236 358.42 214.423 355.607C211.61 352.794 210.03 348.978 210.03 345C210.03 341.022 211.61 337.206 214.423 334.393C217.236 331.58 221.052 330 225.03 330H315.03C319.008 330 322.824 331.58 325.637 334.393C328.45 337.206 330.03 341.022 330.03 345C330.03 348.978 328.45 352.794 325.637 355.607C322.824 358.42 319.008 360 315.03 360ZM315.03 300H225.03C221.052 300 217.236 298.42 214.423 295.607C211.61 292.794 210.03 288.978 210.03 285C210.03 281.022 211.61 277.206 214.423 274.393C217.236 271.58 221.052 270 225.03 270H315.03C319.008 270 322.824 271.58 325.637 274.393C328.45 277.206 330.03 281.022 330.03 285C330.03 288.978 328.45 292.794 325.637 295.607C322.824 298.42 319.008 300 315.03 300ZM315.03 240H75.03C71.0518 240 67.2365 238.42 64.4234 235.607C61.6104 232.794 60.03 228.978 60.03 225C60.03 221.022 61.6104 217.206 64.4234 214.393C67.2365 211.58 71.0518 210 75.03 210H315.03C319.008 210 322.824 211.58 325.637 214.393C328.45 217.206 330.03 221.022 330.03 225C330.03 228.978 328.45 232.794 325.637 235.607C322.824 238.42 319.008 240 315.03 240ZM315.03 180H75.03C71.0518 180 67.2365 178.42 64.4234 175.607C61.6104 172.794 60.03 168.978 60.03 165C60.03 161.022 61.6104 157.206 64.4234 154.393C67.2365 151.58 71.0518 150 75.03 150H315.03C319.008 150 322.824 151.58 325.637 154.393C328.45 157.206 330.03 161.022 330.03 165C330.03 168.978 328.45 172.794 325.637 175.607C322.824 178.42 319.008 180 315.03 180Z" fill="#727272"/>
</g>
<defs>
<clipPath id="clip0">
<rect width="390" height="512" fill="white" transform="translate(0.0300293)"/>
</clipPath>
</defs>
</svg>
