<svg width="55" height="64" viewBox="0 0 55 64" fill="none" xmlns="http://www.w3.org/2000/svg">
<g clip-path="url(#clip0)" filter="url(#filter0_d)">
<path d="M24.067 11.3289C13.1546 11.3289 4.27573 20.0825 3.99942 30.986C3.98967 31.359 4.06313 55.9773 4.06313 55.9773L12.7659 48.1904C25.5368 57.3637 44.4819 47.44 44.1411 31.5095C44.1414 20.3643 35.1538 11.3289 24.067 11.3289V11.3289Z" fill="#DEF8FF"/>
<path d="M44.1411 31.5095C44.1411 30.9795 44.1206 30.4543 44.0807 29.9345C42.8765 44.6725 25.8223 54.543 13.4027 43.9715L6.62376 50.1075C6.60275 42.8007 6.57061 31.2407 6.57722 30.986C6.84263 20.5154 15.0413 12.0289 25.3555 11.3714C14.027 10.5977 4.24196 19.6311 3.99953 30.986C3.98978 31.359 4.06324 55.9773 4.06324 55.9773L12.766 48.1904C25.5367 57.3637 44.4819 47.44 44.1411 31.5095V31.5095Z" fill="#ADEFFF"/>
<path d="M24.067 36.9238C18.2987 36.9238 13.6226 41.6247 13.6226 47.4238C13.6226 47.8522 13.6481 48.2746 13.6977 48.6895C13.6977 48.6895 17.5311 51.6136 24.0988 51.6136C30.6665 51.6136 34.4312 48.7316 34.4312 48.7316C34.4841 48.3031 34.5114 47.8666 34.5114 47.4238C34.5115 41.6249 29.8354 36.9238 24.067 36.9238V36.9238Z" fill="#FFC277"/>
<path d="M34.4313 48.7318C34.6124 47.3079 34.4831 45.7736 34.08 44.4302C34.0985 44.9815 34.073 45.5443 34.009 46.0833C31.0533 48.6562 22.0042 50.3796 16.0993 47.2089C16.2051 41.9279 20.1867 37.6039 25.3029 36.9974C18.6482 36.0948 12.789 42.1661 13.6978 48.6897C18.4827 52.3951 29.3577 52.5982 34.4313 48.7318V48.7318Z" fill="#FF905B"/>
<path d="M39.7523 0.0471876C37.1238 0.0203543 34.7601 0.965354 32.7452 2.47315C24.3179 8.88457 29.0221 23.052 39.7526 22.9237C54.7582 22.5401 54.7563 0.428804 39.7523 0.0471876V0.0471876Z" fill="white"/>
<g filter="url(#filter1_d)">
<path d="M41.6209 21.0455C31.9157 21.1615 27.1413 9.58389 32.5521 2.62659C24.3944 9.10695 29.106 23.0511 39.7526 22.9237C43.8087 22.82 46.7676 21.1284 48.6306 18.7079C46.8526 20.0879 44.5164 20.9715 41.6209 21.0455Z" fill="#6BCAE2"/>
</g>
<path d="M33.6553 7.98364H42.359V14.9874H33.6553V7.98364Z" fill="#6BCAE2"/>
<path d="M36.2664 12.3191V7.98364H33.6553V14.9874H42.359V12.3191H36.2664Z" fill="#4FAFC8"/>
<path d="M42.359 9.7634V13.189L45.8402 14.6372V8.36328L42.359 9.7634Z" fill="#6BCAE2"/>
<path d="M42.359 13.1889L45.8402 14.6371V12.0903L42.359 10.6421V13.1889Z" fill="#4FAFC8"/>
<path d="M24.067 36.9237C27.9126 36.9237 31.03 33.7897 31.03 29.9237C31.03 26.0577 27.9126 22.9237 24.067 22.9237C20.2215 22.9237 17.1041 26.0577 17.1041 29.9237C17.1041 33.7897 20.2215 36.9237 24.067 36.9237Z" fill="#FFF1D8"/>
<path d="M25.9208 35.0602C22.0753 35.0602 18.9578 31.9262 18.9578 28.0602C18.9578 26.6035 19.4008 25.251 20.1583 24.1306C18.3152 25.3899 17.1042 27.5145 17.1042 29.9238C17.1042 33.7898 20.2216 36.9238 24.0671 36.9238C26.4637 36.9238 28.5771 35.7064 29.8297 33.8534C28.7153 34.6149 27.3699 35.0602 25.9208 35.0602Z" fill="#F7E0BA"/>
<path d="M19.2576 43.5495L17.8811 42.4781C18.2815 41.9583 18.7467 41.4906 19.264 41.088L20.3298 42.4716C19.9286 42.7839 19.5678 43.1465 19.2576 43.5495Z" fill="white"/>
<path d="M36.2664 10.5621H38.0071V12.3121H36.2664V10.5621Z" fill="white"/>
<path d="M13.9677 19.2725L12.8379 17.9413C13.315 17.5318 13.8396 17.1519 14.2896 16.8345L15.2896 18.2668C14.8728 18.5608 14.3898 18.9103 13.9677 19.2725Z" fill="white"/>
<path d="M16.6859 17.4252L15.8767 15.8758C16.4715 15.5619 17.0146 15.3078 17.537 15.0991L18.1801 16.7252C17.715 16.9112 17.2261 17.1402 16.6859 17.4252V17.4252Z" fill="white"/>
</g>
<defs>
<filter id="filter0_d" x="0" y="0" width="55" height="64" filterUnits="userSpaceOnUse" color-interpolation-filters="sRGB">
<feFlood flood-opacity="0" result="BackgroundImageFix"/>
<feColorMatrix in="SourceAlpha" type="matrix" values="0 0 0 0 0 0 0 0 0 0 0 0 0 0 0 0 0 0 127 0"/>
<feOffset dy="4"/>
<feGaussianBlur stdDeviation="2"/>
<feColorMatrix type="matrix" values="0 0 0 0 0 0 0 0 0 0 0 0 0 0 0 0 0 0 0.25 0"/>
<feBlend mode="normal" in2="BackgroundImageFix" result="effect1_dropShadow"/>
<feBlend mode="normal" in="SourceGraphic" in2="effect1_dropShadow" result="shape"/>
</filter>
<filter id="filter1_d" x="24.4187" y="2.62659" width="28.212" height="28.298" filterUnits="userSpaceOnUse" color-interpolation-filters="sRGB">
<feFlood flood-opacity="0" result="BackgroundImageFix"/>
<feColorMatrix in="SourceAlpha" type="matrix" values="0 0 0 0 0 0 0 0 0 0 0 0 0 0 0 0 0 0 127 0"/>
<feOffset dy="4"/>
<feGaussianBlur stdDeviation="2"/>
<feColorMatrix type="matrix" values="0 0 0 0 0 0 0 0 0 0 0 0 0 0 0 0 0 0 0.25 0"/>
<feBlend mode="normal" in2="BackgroundImageFix" result="effect1_dropShadow"/>
<feBlend mode="normal" in="SourceGraphic" in2="effect1_dropShadow" result="shape"/>
</filter>
<clipPath id="clip0">
<rect width="47" height="56" fill="white" transform="translate(4)"/>
</clipPath>
</defs>
</svg>
