<svg width="26" height="15" viewBox="0 0 26 15" fill="none" xmlns="http://www.w3.org/2000/svg">
<path d="M14.4155 0H2.81385C1.26052 0.00176222 0.00175866 1.26307 0 2.81955V12.1776C0.00175866 13.7341 1.26052 14.9954 2.81385 14.9971H14.4155C15.9688 14.9954 17.2276 13.7341 17.2294 12.1776V2.81955C17.2276 1.26307 15.9688 0.00176222 14.4155 0V0ZM16.1038 12.1776C16.1029 13.1113 15.3476 13.8682 14.4155 13.8693H2.81385C1.88176 13.8682 1.12664 13.1113 1.12554 12.1776V2.81955C1.12664 1.88579 1.88176 1.12892 2.81385 1.12782H14.4155C15.3476 1.12892 16.1029 1.88579 16.1038 2.81955V12.1776Z" fill="white"/>
<path d="M25.7162 1.46821C25.5408 1.36776 25.3251 1.36953 25.151 1.4724L18.9289 5.15367C18.7574 5.25522 18.6523 5.43981 18.6523 5.63938V9.04002C18.6523 9.21426 18.7326 9.37881 18.87 9.48564L25.0921 14.326C25.2618 14.458 25.4918 14.4818 25.6848 14.387C25.8778 14.2923 26 14.0958 26 13.8806V1.95789C26 1.75545 25.8916 1.56866 25.7162 1.46821ZM24.8745 12.7288L19.7779 8.76401V5.96143L24.8745 2.94583V12.7288Z" fill="white"/>
</svg>
