<svg width="23" height="23" viewBox="0 0 23 23" fill="none" xmlns="http://www.w3.org/2000/svg">
<circle cx="11.5" cy="11.5" r="11.5" fill="#3CC9EE"/>
<path d="M16.9426 10.2847L19.0078 9.51846C19.1948 9.44908 19.3156 9.27346 19.3156 9.0711C19.3156 8.86874 19.1948 8.69322 19.0078 8.62384L12.1968 6.09675C11.8493 5.96777 11.4664 5.96773 11.1188 6.09675L4.30785 8.6238C4.12086 8.69313 4 8.8687 4 9.0711C4 9.27351 4.12081 9.44908 4.3078 9.51846L6.37306 10.2847V14.4153C6.37306 14.6877 6.49126 14.9462 6.67238 15.12C6.85181 15.2921 7.05072 15.454 7.26599 15.6054C7.26594 15.6055 7.26585 15.6056 7.26576 15.6056C7.03454 15.8363 6.90195 16.1563 6.90195 16.4835V16.7187C6.90195 16.8224 6.93394 16.9211 6.98972 17.0029L6.65565 17.7858C6.58012 17.9629 6.66005 18.1687 6.83421 18.2455C7.00819 18.3222 7.21072 18.2411 7.28634 18.0639L7.60111 17.3262C7.64607 17.3408 7.69149 17.3535 7.73732 17.3638V18.1505C7.73732 18.3435 7.89118 18.5 8.08106 18.5C8.27094 18.5 8.42479 18.3435 8.42479 18.1505V17.3638C8.47062 17.3534 8.51604 17.3408 8.56096 17.3262L8.87577 18.0639C8.95144 18.2412 9.15401 18.3222 9.3279 18.2455C9.5021 18.1687 9.58203 17.9629 9.50646 17.7858L9.17239 17.0029C9.22817 16.9211 9.26021 16.8224 9.26021 16.7186V16.5383C10.0139 16.756 10.8312 16.8702 11.6577 16.8702C13.4128 16.8702 15.3794 16.3318 16.6432 15.1199C16.8249 14.9456 16.9425 14.685 16.9425 14.4152C16.9426 13.948 16.9426 10.7582 16.9426 10.2847V10.2847ZM11.3545 6.75331C11.5501 6.68072 11.7655 6.68072 11.9611 6.75331L18.2081 9.07115C18.092 9.11425 12.0684 11.3492 11.9611 11.3889C11.7654 11.4615 11.55 11.4615 11.3545 11.3889L8.9535 10.4981L10.9399 9.50066L11.1189 9.56705C11.2926 9.63154 11.4752 9.66378 11.6578 9.66378C11.8405 9.66378 12.0231 9.63154 12.1969 9.56705L12.5139 9.44945C12.7072 9.37779 12.837 9.18913 12.837 8.97996V8.72253C12.837 8.0738 12.3181 7.5361 11.6803 7.52393C11.369 7.51816 11.0701 7.63972 10.8425 7.86687C10.6113 8.09761 10.4787 8.41757 10.4787 8.7448V8.9528C7.97129 10.2119 8.13133 10.1282 8.06969 10.1702L5.10752 9.07115L11.3545 6.75331ZM11.1661 8.8406V8.74476C11.1661 8.60399 11.2236 8.46579 11.3239 8.36562C11.4187 8.27108 11.5393 8.22089 11.6673 8.22267C11.9331 8.22774 12.1495 8.45196 12.1495 8.72248V8.84055L11.9611 8.91045C11.7655 8.98304 11.5501 8.98299 11.3545 8.91045L11.1661 8.8406ZM7.73737 13.4261C7.52063 13.2801 7.32163 13.1217 7.14408 12.9514C7.09096 12.9005 7.06053 12.8289 7.06053 12.7551V10.5399L7.73787 10.7912C7.73709 10.8361 7.73737 10.4887 7.73737 13.4261ZM7.58938 16.5794C7.58938 16.48 7.57137 16.28 7.74727 16.1044C7.84782 16.0041 7.97308 15.9593 8.09054 15.9615C8.44345 15.9683 8.57274 16.2219 8.57274 16.5794C8.15975 16.7326 8.08582 16.7636 7.58938 16.5794V16.5794ZM7.73737 15.0861C7.54052 14.9536 7.3599 14.8113 7.19706 14.6608C7.14577 14.6133 7.06048 14.5494 7.06048 14.4153V13.7939C7.26906 13.9556 7.4962 14.1046 7.73737 14.2415V15.0861ZM9.0102 15.7243C8.86349 15.5325 8.66114 15.3874 8.42484 15.3143V14.58C9.14934 14.8871 9.96647 15.0921 10.8246 15.1714C11.014 15.1887 11.1809 15.0473 11.198 14.8551C11.2152 14.6629 11.0759 14.4929 10.8869 14.4754C9.98902 14.3924 9.14407 14.1634 8.42479 13.8181V11.046L11.1188 12.0456C11.2883 12.1085 11.4729 12.1423 11.6577 12.1423C11.847 12.1422 12.0318 12.1067 12.1967 12.0456H12.1968L16.255 10.5399V12.7551C16.255 12.8289 16.2246 12.9005 16.1715 12.9514C15.3075 13.7799 13.9433 14.3354 12.4287 14.4755C12.2396 14.4929 12.1003 14.6629 12.1175 14.8551C12.1347 15.0473 12.3017 15.189 12.491 15.1715C13.9486 15.0367 15.2901 14.5418 16.255 13.794V14.4153C16.255 14.4921 16.2214 14.5637 16.1715 14.6116C15.0296 15.7066 13.2322 16.1714 11.6578 16.1714C10.7298 16.1713 9.81697 16.017 9.0102 15.7243V15.7243Z" fill="white"/>
</svg>
