<svg width="368" height="344" viewBox="0 0 368 344" fill="none" xmlns="http://www.w3.org/2000/svg">
<path d="M122.73 97.2321C123.488 93.7831 124.363 90.3541 124.977 86.8791C126.022 80.9611 127.513 75.1441 128.766 69.2791C129.652 65.1261 130.219 60.9021 131.612 56.8141C124.023 56.4451 119.342 51.7851 115.633 46.0391C109.822 37.0391 108.696 27.1151 111.489 16.9391C113.578 9.32706 118.179 3.31406 126.013 0.898063C133.282 -1.34294 139.789 0.759065 145.298 5.94907C149.767 10.1961 152.906 15.6507 154.331 21.6491C155.963 20.2811 157.352 18.9711 158.884 17.8571C166.026 12.6641 173.528 8.09607 182.044 5.51207C184.85 4.66107 187.764 3.75207 190.772 4.66407C193.022 5.34707 193.766 6.95307 192.817 9.16407C192.263 10.4531 191.491 11.6491 190.745 13.0181C194.022 12.5071 197.164 11.9431 200.327 11.5461C203.448 11.0409 206.627 10.9891 209.763 11.3921C212.769 11.8851 214.18 14.4921 213.324 17.9921C212.945 19.2736 212.499 20.5344 211.987 21.7691C213.069 22.0331 213.841 22.6591 214.376 20.7431C216.418 13.4231 220.327 7.30006 226.871 3.07806C235.907 -2.75194 247.436 0.319069 253.486 9.44207C261.251 21.1511 259.286 38.9521 250.445 49.2941C246.914 53.4241 242.808 56.6811 236.968 56.7661C238.975 65.9061 240.982 74.9581 242.944 84.0191C243.682 87.4271 244.426 90.8411 244.949 94.2851C245.149 95.6071 245.721 96.0171 246.862 96.0851C246.257 96.9944 246.03 98.1041 246.23 99.1781C246.493 102.378 246.757 105.578 246.961 108.778C247.148 110.72 246.887 112.678 246.198 114.503C244.385 121.096 240.759 127.049 235.733 131.686C234.255 133.044 232.803 134.421 231.198 135.628C223.165 141.549 214.08 145.095 204.478 147.481C202.208 148.045 199.948 148.655 197.633 149.014C196.714 148.993 196.059 149.692 195.225 149.906C193.724 149.757 192.211 149.812 190.725 150.07C189.685 150.252 188.625 150.27 187.586 150.435C183.328 151.126 179.161 150.049 174.953 149.79C173.294 149.527 171.652 149.164 170.036 148.703C163.439 147.609 156.989 145.763 150.812 143.203C145.337 140.981 140.198 138.006 135.544 134.365C129.389 129.196 124.744 122.991 122.392 115.206C121.692 112.905 121.305 110.521 121.241 108.117C122.052 104.542 122.548 100.903 122.724 97.2411L122.73 97.2321Z" fill="#9B654C"/>
<path d="M283.747 193.846C285.447 195.381 287.769 195.446 289.739 196.369C292.331 197.568 294.854 198.909 297.298 200.386C301.074 202.649 304.537 205.398 307.598 208.562C313.675 214.944 317.206 222.399 316.521 231.408C316.217 234.444 315.505 237.425 314.404 240.27C314.254 240.578 314.187 240.92 314.211 241.262C314.234 241.604 314.347 241.934 314.538 242.219C317.89 247.769 320.375 253.633 321.038 260.177C321.73 266.997 320.915 273.556 317.456 279.544C314.833 284.318 311.163 288.436 306.722 291.589C302.281 294.743 297.183 296.85 291.812 297.753C288.612 298.34 287.56 299.863 286.012 302.416C283.114 307.193 279.32 311.365 274.839 314.702C266.466 320.929 256.638 324.909 246.291 326.263C239.922 327.241 233.417 326.838 227.217 325.08C225.67 324.591 224.159 323.995 222.695 323.295C221.883 322.927 221.356 323.013 220.922 323.795C217.337 330.216 210.904 332.81 204.722 335.63C197.06 339.018 188.975 341.356 180.688 342.582C171.872 343.998 162.974 344.289 154.242 341.936C148.366 340.353 143.047 337.716 139.742 332.207C139.591 331.853 139.309 331.572 138.954 331.422C138.599 331.273 138.201 331.267 137.842 331.407C129.53 333.78 120.997 333.578 112.504 333.276C106.876 333.076 101.578 331.199 96.517 328.75C87.448 324.361 80.885 317.502 75.974 308.732C72.4741 302.547 70.9575 295.437 71.629 288.363C71.7447 285.365 72.5433 282.432 73.964 279.789C74.814 278.359 74.45 277.663 73.142 276.908C69.1409 274.743 65.4875 271.99 62.304 268.74C56.3321 262.563 52.9174 254.355 52.745 245.765C52.4072 237.559 54.1676 229.402 57.86 222.065C62.33 213.279 68.805 206.442 77.717 202.183C80.825 200.698 84.304 199.99 87.617 198.927C87.8021 198.864 87.9998 198.846 88.1933 198.874C88.3869 198.903 88.5709 198.977 88.73 199.091C91.925 201.135 95.53 201.385 99.167 201.522C99.8169 201.46 100.468 201.628 101.006 201.998C101.217 202.324 101.34 202.699 101.364 203.086C101.389 203.474 101.314 203.861 101.146 204.211C101.038 204.373 100.91 204.572 100.718 204.575C96.394 204.645 93.527 207.49 90.418 209.909C87.66 212.052 85.666 214.876 83.411 217.471C82.996 217.948 82.611 218.65 81.862 218.423C81.241 218.235 81.193 217.512 81.055 216.958C80.8935 215.795 80.4702 214.684 79.817 213.708C79.6626 213.456 79.4549 213.24 79.2085 213.076C78.962 212.912 78.6827 212.804 78.3902 212.76C78.0976 212.715 77.7988 212.735 77.5148 212.819C77.2308 212.902 76.9684 213.046 76.746 213.241C75.5436 214.147 74.6013 215.355 74.014 216.741C71.778 221.528 70.4657 226.694 70.146 231.968C69.733 239.079 70.9053 246.193 73.578 252.795C76.1709 259.145 80.2489 264.781 85.47 269.229C95.528 278.219 107.719 282.664 120.359 286.315C126.248 288.015 132.299 288.915 138.259 290.242C139.17 290.305 140.049 290.605 140.808 291.112C140.972 291.988 140.34 292.557 139.989 293.234C137.91 297.234 136.806 301.342 138.606 305.784C138.963 307.041 139.067 308.356 138.912 309.653C138.885 313.423 140.04 316.56 143.504 318.512C144.257 318.922 144.828 319.6 145.104 320.412C146.713 325.057 151.875 326.685 156.318 326.412C160.353 326.033 164.247 324.727 167.694 322.595C170.575 320.965 170.703 320.936 172.194 323.971C173.379 326.439 175.045 328.646 177.094 330.462C179.936 332.962 182.977 334.606 186.822 332.603C187.16 332.397 187.551 332.294 187.946 332.306C188.342 332.318 188.725 332.445 189.05 332.671C192.912 335.388 196.75 334.396 200.487 332.482C203.937 330.714 206.407 328.057 207.113 324.062C207.215 323.144 207.664 322.301 208.369 321.704C212.769 318.262 213.451 313.455 213.094 308.363C212.99 306.268 212.302 304.243 211.107 302.519C209.747 300.605 210.049 299.973 212.4 299.719C216.4 299.282 220.429 299.077 224.449 298.828C229.762 298.499 235.105 298.549 240.363 297.528C246.059 296.371 251.43 293.976 256.097 290.512C257.077 289.655 258.192 288.965 259.397 288.471C264.092 286.727 268.652 284.639 273.04 282.225C278.491 279.306 283.701 275.96 288.624 272.219C298.992 264.391 305.652 254.051 309.302 241.736C311.115 235.583 311.262 229.059 309.729 222.831C309.545 222.001 309.168 221.225 308.629 220.567C307.756 219.52 306.723 218.924 305.394 219.705C304.094 220.472 303.659 219.905 303.524 218.647C303.406 217.547 303.206 216.46 303.087 215.358C303.05 213.849 302.546 212.389 301.644 211.179C300.293 209.603 299.172 209.534 297.681 210.94C297.491 211.119 297.741 210.911 297.541 211.075C296.607 211.842 296.341 213.432 294.935 213.54C293.64 213.64 292.693 212.576 291.642 211.969C284.479 207.83 276.876 207.903 269.091 209.461C266.284 210.023 263.456 210.479 260.665 211.127C259.865 211.312 259.022 211.663 258.213 211.094C257.985 210.677 257.876 210.206 257.898 209.732C257.92 209.257 258.072 208.798 258.337 208.404C260.68 206.404 263.092 204.473 264.661 201.732C264.869 201.478 265.169 201.316 265.496 201.28C268.13 201.62 270.8 201.568 273.419 201.126C276.362 200.605 279.019 199.701 280.749 196.926C281.506 195.745 282.075 194.202 283.747 193.846Z" fill="white" fill-opacity="0.36"/>
<path d="M309.507 122.333C308.025 117.885 307.934 113.541 310.079 109.206C313.238 102.82 319.453 102.092 323.803 107.696C326.619 102.027 332.514 100.857 337.548 103.024C342.329 105.082 346.701 109.683 344.74 118.916C347.429 117.347 350.283 116.077 353.249 115.13C355.864 114.248 358.623 113.868 361.379 114.01C367.933 114.597 369.302 119.218 366.159 124.55C363.579 128.928 359.614 131.826 355.213 134.188C354.093 134.788 352.99 135.425 351.613 136.196C354.338 136.545 356.926 137.594 359.125 139.24C362.025 141.554 363.098 143.957 362.277 146.532C361.449 149.132 358.427 151.063 355.126 151.279C348.074 151.637 341.009 150.926 334.17 149.171C331.597 148.556 329.023 147.927 326.419 147.471C325.25 147.271 323.967 146.981 322.819 147.729C321.341 147.76 321.343 146.603 321.106 145.618C320.074 141.326 319.187 136.987 317.287 132.959C315.797 129.8 314.542 126.481 311.007 124.848C310.517 124.648 310.105 124.294 309.835 123.839C309.564 123.385 309.449 122.854 309.507 122.328V122.333Z" fill="#9B654C"/>
<path d="M44.668 147.677C42.876 146.852 41.081 147.434 39.368 147.841C33.8757 149.283 28.298 150.377 22.668 151.117C18.626 151.549 14.488 151.831 10.454 150.849C7.75401 150.193 5.75401 148.67 5.37401 145.682C5.22321 144.521 5.39205 143.341 5.86236 142.268C6.33268 141.196 7.08664 140.273 8.04301 139.597C10.3667 137.731 13.1664 136.554 16.125 136.197C13.1948 134.718 10.3728 133.033 7.68001 131.156C4.11201 128.537 1.18001 125.423 0.18701 120.901C-0.175594 119.575 -0.00102741 118.16 0.672858 116.962C1.34674 115.764 2.46564 114.88 3.78701 114.501C7.67501 113.192 11.403 114.188 15.108 115.336C17.9103 116.221 20.5745 117.495 23.023 119.12C21.911 114.949 22.123 111.327 24.289 107.913C25.2895 106.324 26.6314 104.977 28.2171 103.97C29.8029 102.964 31.5928 102.323 33.457 102.094C37.342 101.473 42.179 103.534 43.649 107.576C44.61 107.211 44.862 106.152 45.658 105.599C46.6482 104.858 47.7997 104.361 49.0185 104.149C50.2373 103.938 51.4888 104.018 52.6708 104.383C53.8529 104.747 54.9318 105.387 55.8196 106.248C56.7074 107.109 57.3788 108.169 57.779 109.339C59.5221 113.304 59.6707 117.789 58.194 121.861C58.2901 122.576 58.1309 123.302 57.7446 123.911C57.3583 124.52 56.7696 124.973 56.082 125.191C54.622 125.911 53.4191 127.063 52.637 128.491C49.476 133.673 48.021 139.441 46.7 145.264C46.438 146.433 46.503 147.851 44.668 147.677Z" fill="#9B654C"/>
<path d="M44.669 147.681C45.0707 147.553 45.427 147.312 45.6955 146.987C45.9641 146.662 46.1337 146.267 46.184 145.848C47.0985 139.544 49.1977 133.471 52.371 127.948C53.0995 126.559 54.2767 125.457 55.711 124.822C56.3464 124.585 56.9095 124.188 57.3454 123.669C57.7813 123.149 58.0751 122.526 58.198 121.859C58.298 122.59 58.931 122.659 59.447 122.91C62.0287 124.112 64.4757 125.584 66.747 127.302C68.623 128.783 71.178 128.524 73.436 128.923C78.197 129.765 83 130.369 87.788 131.055C90.8018 131.384 93.7911 131.909 96.737 132.625C97.546 132.851 97.783 132.502 98.05 131.941C100.287 127.34 102.923 122.944 105.928 118.803C106.752 120.262 105.787 121.864 106.295 123.349C106.01 125.247 105.617 127.128 105.117 128.981C103.866 130.97 102.982 133.148 101.889 135.217C100.613 137.633 99.922 137.998 97.258 137.795C87.914 137.08 78.639 135.808 69.376 134.431C67.256 134.116 67.271 134.115 66.826 136.221C64.768 145.962 63.014 155.759 61.426 165.587C61.343 166.101 61.293 166.62 61.211 167.132C60.805 169.667 61.741 171.345 63.943 172.8C68.019 175.492 72.3 177.829 76.443 180.4C82.019 183.855 87.269 187.607 91.037 193.1C91.6283 193.884 92.4528 194.46 93.392 194.745C95.5672 195.424 97.8172 195.834 100.092 195.967C101.941 196.187 102.315 195.843 102.292 193.984C102.124 188.587 102.402 183.185 103.125 177.834C103.325 176.512 103.195 175.079 104.152 173.949C105.223 173.616 105.284 174.57 105.552 175.133C106.133 176.582 106.79 178 107.52 179.38C107.652 179.54 107.765 179.715 107.856 179.901C108.189 180.583 108.311 181.349 108.206 182.101C107.955 185.201 108.216 188.301 108.126 191.401C108.153 192.175 108.102 192.95 107.974 193.714C107.882 194.026 107.725 194.314 107.513 194.561C107.301 194.807 107.039 195.006 106.745 195.143C104.245 196.568 102.197 198.365 101.5 201.324C101.455 201.481 101.376 201.627 101.27 201.751C101.165 201.876 101.034 201.977 100.886 202.047C96.221 202.04 91.568 201.984 87.626 198.916C84.437 193.188 79.209 189.785 73.806 186.468C68.9 183.456 63.606 181.058 59.134 177.346C58.9963 177.187 58.8284 177.057 58.64 176.963C58.4516 176.869 58.2465 176.813 58.0364 176.799C57.8264 176.785 57.6156 176.812 57.4163 176.88C57.217 176.947 57.033 177.054 56.875 177.193C54.31 179.221 51.575 178.644 48.764 177.766C42.185 175.712 41.564 169.315 42.029 163.908C42.501 158.431 43.702 153.077 44.669 147.681Z" fill="#CACACA"/>
<path d="M309.512 122.333C310.2 123.587 311.267 124.591 312.559 125.204C315.575 126.684 316.359 129.867 317.645 132.557C319.62 136.853 320.942 141.42 321.57 146.107C321.646 146.453 321.797 146.778 322.013 147.059C322.229 147.34 322.504 147.57 322.819 147.733C324.744 154.463 325.67 161.439 325.569 168.438C325.559 170.013 325.185 171.565 324.476 172.972C323.767 174.379 322.743 175.603 321.483 176.549C320.223 177.494 318.762 178.136 317.213 178.423C315.664 178.711 314.069 178.637 312.554 178.206C312.367 178.155 312.116 178.163 312.002 178.042C309.971 175.903 308.369 177.465 306.741 178.65C301.59 182.402 295.756 185.033 290.475 188.57C288.103 190.156 285.855 191.919 283.748 193.843C282.768 194.958 281.864 196.136 281.041 197.371C279.263 200.424 276.313 201.141 273.19 201.671C270.582 202.186 267.896 202.165 265.296 201.609C264.757 199.821 265.489 198.209 266.002 196.573C267.408 195.758 269.002 195.86 270.535 195.659C273.535 195.266 276.061 194.376 277.877 191.559C280.609 187.324 284.795 184.567 288.961 181.859C293.983 178.599 299.249 175.741 304.236 172.418C305.138 171.904 305.848 171.111 306.26 170.159C306.672 169.206 306.763 168.146 306.52 167.137C305.001 156.696 302.847 146.376 300.852 136.024C300.534 134.371 299.822 134.109 298.306 134.359C289.124 135.876 279.887 136.934 270.621 137.815C269.634 137.998 268.614 137.835 267.733 137.354C266.853 136.872 266.165 136.102 265.786 135.172C265.449 134.613 265.176 134.019 264.973 133.399C264.773 130.56 264.499 127.728 264.273 124.892C264.207 124.641 264.21 124.376 264.283 124.126C264.356 123.877 264.496 123.652 264.687 123.476C266.902 125.916 268.095 128.954 269.517 131.848C269.905 132.639 270.142 132.848 271.069 132.633C278.622 130.918 286.356 130.314 293.969 128.974C295.747 128.661 297.518 128.295 299.305 128.056C301.048 127.822 301.879 126.242 303.305 125.509C305.298 124.308 307.372 123.247 309.512 122.333V122.333Z" fill="#CACACA"/>
<path d="M264.683 123.48L265.434 133.697C265.99 135.575 266.17 137.544 265.962 139.492C265.648 148.989 264.582 158.446 262.774 167.774C261.954 171.062 261.464 174.443 260.049 177.567C259.268 178.794 259.43 180.467 258.198 181.484C254.92 180.584 251.525 180.441 248.185 179.93C247.957 179.615 247.818 179.244 247.784 178.857C247.751 178.469 247.823 178.08 247.993 177.73C248.512 175.936 248.558 174.03 249.307 172.29C249.97 169.353 250.652 166.419 251.1 163.437C252 157.587 252.584 151.693 252.849 145.78C253.181 141.969 253.193 138.137 252.884 134.324C252.805 129.016 252.068 123.738 250.692 118.611C249.912 115.87 248.799 113.235 247.379 110.765C246.961 110.313 246.968 109.665 246.659 109.165C245.686 107.245 246.351 105.132 245.959 103.12C245.617 101.373 245.839 99.5201 245.48 97.7381C245.254 96.6171 245.662 96.0131 246.861 96.0721C247.633 96.1081 248.39 96.3039 249.083 96.6471C254.983 99.3841 258.531 104.199 261.063 109.967C262.728 113.758 263.411 117.797 264.228 121.808C264.344 122.374 264.532 122.923 264.683 123.48Z" fill="#2B2D2F"/>
<path d="M106.027 123.49C105.08 121.948 105.943 120.368 105.927 118.806C106.906 114.604 108.379 110.532 110.314 106.676C112.491 102.607 116.001 99.4102 120.255 97.6211C121.051 97.3458 121.89 97.2141 122.732 97.2321C123.126 97.4691 123.632 97.7541 123.476 98.2491C122.449 101.512 122.941 105.049 121.623 108.255C121.345 109.025 121.017 109.777 120.641 110.504C118.975 113.095 117.859 116 117.361 119.039C117.317 119.464 117.145 119.865 116.868 120.19C116.591 120.514 116.222 120.747 115.809 120.857C112.84 121.553 109.931 122.482 107.109 123.635C106.936 123.726 106.739 123.762 106.545 123.736C106.351 123.71 106.17 123.624 106.027 123.49V123.49Z" fill="#2B2D2F"/>
<path d="M120.414 110.154C120.617 109.414 121.038 108.752 121.621 108.254C122.179 113.824 123.991 119.196 126.921 123.966C129.312 127.789 132.521 130.898 135.734 134.001C138.558 136.485 139.578 140.146 141.665 143.115C143.61 145.883 144.926 149.046 146.904 151.803C147.913 153.58 149.036 155.287 150.12 157.019C152.041 160.698 154.278 164.187 156.506 167.683C159.36 172.161 162.034 176.751 164.874 181.238C169.555 188.825 174.401 196.307 179.082 203.894C179.383 204.545 179.881 205.084 180.504 205.438C181.128 205.791 181.847 205.94 182.56 205.864C183.076 205.816 183.601 205.864 184.122 205.846C185.145 205.888 186.159 205.643 187.05 205.138C187.941 204.633 188.672 203.889 189.161 202.989C192.666 197.282 196.19 191.577 199.913 186.003C200.154 185.616 200.376 185.217 200.576 184.808C205.057 177.765 209.303 170.575 213.767 163.521C215.22 161.221 216.549 158.853 217.924 156.509C219.524 154.416 220.524 151.941 222.111 149.833C224.446 145.482 227.202 141.379 229.571 137.049C229.952 136.349 230.623 135.904 231.033 135.238C234.947 132.152 238.381 128.501 241.22 124.404C244.178 119.808 246.041 114.595 246.668 109.165C246.863 109.249 247.034 109.38 247.167 109.545C247.3 109.711 247.39 109.906 247.431 110.114C248.177 111.953 247.604 113.788 246.962 115.402C245.672 118.645 245.835 121.238 248.122 124.187C250.388 127.173 252.161 130.503 253.372 134.05C253.745 137.968 253.726 141.913 253.316 145.827C252.363 145.507 252.243 144.592 251.916 143.837C249.216 137.575 246.849 131.162 243.134 124.903C234.926 137.718 227.659 150.894 219.746 163.674C211.846 176.432 204.125 189.303 196.069 201.797C202.133 198.246 207.46 193.37 213.412 189.371C213.629 189.212 213.854 189.065 214.081 188.923C214.684 188.557 215.238 188.116 215.73 187.61C222.53 183.042 229.437 178.641 236.14 173.935C240.499 170.875 244.924 167.907 249.217 164.751C249.925 164.231 250.594 163.503 251.638 163.737C251.232 166.657 250.608 169.542 249.771 172.369C249.143 172.545 248.564 172.863 248.078 173.297C239.361 179.757 230.278 185.686 221.259 191.703C218.392 193.616 215.723 195.803 212.859 197.703C211.54 198.581 211.569 199.82 211.659 201.155C212.352 211.083 211.879 221.022 211.914 230.955C211.903 231.085 211.877 231.214 211.836 231.338C210.772 232.686 209.805 234.216 207.672 233.609C207.022 232.615 206.781 231.408 206.999 230.241C207.466 221.723 207.365 213.197 207.375 204.673C207.375 204.413 207.399 204.15 207.375 203.892C207.331 203.398 207.595 202.76 207.041 202.469C206.503 202.186 206.056 202.663 205.65 202.956C202.94 204.985 200.126 206.871 197.22 208.607C195.755 209.577 194.177 210.363 192.52 210.947C192.282 210.989 192.056 211.078 191.854 211.21C191.652 211.341 191.478 211.513 191.344 211.713C191.21 211.913 191.118 212.139 191.073 212.376C191.028 212.613 191.032 212.857 191.084 213.092C191.551 220.757 191.506 228.446 190.949 236.105C190.991 236.527 190.944 236.953 190.809 237.354C190.675 237.756 190.457 238.125 190.17 238.437C188.57 238.857 187.787 237.858 187.116 236.669C186.527 233.552 186.249 230.385 186.287 227.213C186.103 222.813 186.299 218.391 186.23 213.98C186.218 213.185 186.488 212.14 185.415 211.815C184.362 211.438 183.206 211.469 182.175 211.903C181.42 212.265 181.658 213.15 181.599 213.839C181.136 219.27 181.153 224.712 181.199 230.156C181.242 230.805 181.166 231.456 180.973 232.077C180.824 232.355 180.637 232.729 180.292 232.589C178.863 232.011 177.242 231.7 176.479 230.094C176.632 224.319 176.397 218.54 176.615 212.765C176.682 212.383 176.603 211.989 176.392 211.662C176.182 211.336 175.856 211.101 175.48 211.004C170.706 209.304 166.729 206.251 162.635 203.396C161.971 202.932 161.312 201.957 160.473 202.479C159.699 202.96 160.078 204.032 160.167 204.845C160.755 210.221 160.339 215.61 160.415 220.992C160.435 221.452 160.304 221.905 160.044 222.284C159.263 222.446 158.451 222.364 157.718 222.05C156.985 221.735 156.366 221.204 155.944 220.527C155.67 216.051 155.657 211.563 155.905 207.085C156.339 204.23 156.417 201.333 156.135 198.459C155.828 197.822 155.61 197.148 155.341 196.495C153.592 192.254 150.875 190.595 146.287 190.977C146.031 191.003 145.773 190.992 145.52 190.944C143.184 189.47 141.054 187.687 138.631 186.344C138.395 186.235 138.188 186.073 138.024 185.872C137.86 185.67 137.743 185.434 137.684 185.181C138.444 180.841 138.011 176.437 138.402 172.081C139.383 170.681 139.494 172.004 139.575 172.543C139.765 174.029 139.788 175.532 139.644 177.023C139.551 177.828 139.712 178.641 140.106 179.349C140.5 180.057 141.106 180.623 141.839 180.968C148.227 184.863 154.304 189.214 160.28 193.717C163.939 196.474 167.537 199.331 171.62 201.83C155.385 176.402 140.215 150.568 124.532 124.663C123.491 126.601 122.747 128.248 121.842 129.805C121.485 130.42 121.217 131.122 120.363 131.221C119.991 131.259 119.615 131.22 119.259 131.105C118.903 130.99 118.575 130.803 118.296 130.555C118.016 130.306 117.791 130.003 117.635 129.663C117.478 129.323 117.394 128.955 117.388 128.581C117.005 126.487 117.007 124.34 117.394 122.247C118.23 121.338 118.326 122.265 118.476 122.741C118.743 123.593 118.497 124.51 118.709 125.619C119.538 124.024 120.482 122.491 121.534 121.034C121.745 120.704 121.866 120.325 121.883 119.934C121.901 119.543 121.815 119.154 121.634 118.807C121.068 117.218 120.59 115.599 120.202 113.958C119.867 112.701 119.941 111.37 120.412 110.158L120.414 110.154Z" fill="#CACACA"/>
<path d="M187.33 143.778C180.808 144.247 174.256 143.487 168.014 141.537C162.297 139.697 159.763 136.186 160.722 130.262C161.932 123.163 163.952 116.226 166.743 109.587C168.491 105.325 170.601 101.22 173.049 97.318C174.813 94.4426 177.077 91.9054 179.734 89.826C182.793 87.46 185.961 86.339 189.626 87.426C193.023 88.3934 196.037 90.3896 198.254 93.14C204.566 100.96 208.308 110.009 211.174 119.517C212.454 123.463 213.349 127.524 213.845 131.643C214.388 137.061 211.333 139.843 206.605 141.46C200.403 143.522 193.848 144.312 187.334 143.781L187.33 143.778Z" fill="#E5AB6B"/>
<path d="M200.961 184.848C200.795 186.161 199.754 186.973 199.114 188.007C195.565 193.739 191.953 199.431 188.38 205.148C188.044 205.686 187.699 206.09 187.007 206.001C186.943 205.989 186.877 205.989 186.813 206.001C182.235 207.256 179.275 205.97 176.878 201.466C173.169 194.499 168.598 187.992 164.392 181.291C164.166 180.404 164.213 179.47 164.526 178.61C165.84 173.447 167.091 168.268 168.42 163.11C168.787 161.995 168.727 160.784 168.252 159.71C169.063 156.608 170.601 153.743 172.741 151.355C173.349 150.613 174.018 149.922 174.741 149.292C178.431 149.268 182.034 150.436 185.749 150.092C186.382 150.033 187.021 150.048 187.657 150.029C188.175 150.888 187.572 151.535 187.18 152.159C184.58 156.282 180.68 158.365 176.005 159.182C174.42 159.474 172.821 159.685 171.215 159.815C173.664 160.65 176.299 160.774 178.815 160.172C180.395 159.822 182.035 159.856 183.599 160.272C187.192 161.156 190.874 161.622 194.574 161.661C195.531 161.69 196.535 161.481 197.399 162.116C197.15 164.216 197.773 166.216 198.211 168.224C199.235 172.918 200.129 177.638 201.011 182.36C201.237 183.178 201.218 184.045 200.956 184.852L200.961 184.848Z" fill="#60A059"/>
<path d="M122.2 26.9761C122.576 20.2091 125.624 14.8761 133.587 14.2161C137.8 13.8681 141.246 15.8891 143.463 19.6111C144.477 21.4269 145.275 23.355 145.842 25.3561C146.011 25.8941 146.359 26.4041 145.342 26.6031C138.687 27.9031 135.125 32.2681 133.842 38.6621C133.56 40.0621 133.079 41.5031 133.599 43.0621C134.011 44.2951 133.121 44.1131 132.393 43.7161C129.947 42.4864 127.803 40.7332 126.111 38.5811C123.523 35.2732 122.144 31.1804 122.201 26.9811L122.2 26.9761Z" fill="#5F3523"/>
<path d="M246.245 27.1851C245.753 34.1901 242.971 39.84 236.582 43.385C234.989 44.27 234.833 43.737 234.882 42.219C235.055 39.4492 234.478 36.6838 233.211 34.2147C231.943 31.7456 230.033 29.6642 227.682 28.19C226.452 27.3366 225.035 26.7913 223.55 26.6C222.959 26.527 222.228 26.562 222.524 25.652C223.694 22.052 224.894 18.452 228.161 16.106C234.488 11.568 244.217 15.531 245.79 23.298C246.185 24.5522 246.339 25.8697 246.244 27.181L246.245 27.1851Z" fill="#5F3523"/>
<path d="M146.601 152.034C143.776 148.177 141.647 143.894 139.194 139.811C138.035 137.882 136.794 135.989 135.73 134.002C137.945 135.464 140.111 137.002 142.382 138.375C150.948 143.537 160.352 146.386 170.097 148.263C171.021 148.848 170.327 149.425 170.007 149.88C168.949 151.364 168.098 152.986 167.48 154.701C167.334 155.17 167.077 155.597 166.731 155.945C166.384 156.293 165.959 156.553 165.491 156.701C161.405 158.022 157.403 158.134 153.691 155.656C151.457 154.167 148.661 153.829 146.601 152.034Z" fill="#B0EAAA"/>
<path d="M209.068 51.613C215.895 51.8366 222.49 54.1435 227.968 58.224C229.599 59.3363 230.722 61.0511 231.089 62.991C231.517 65.671 229.574 67.391 227.037 66.5C224.684 65.671 222.874 63.9 220.642 62.823C215.093 60.1449 208.726 59.7066 202.862 61.599C200.009 62.435 197.929 61.767 197.062 59.475C196.148 57.068 197.327 54.724 199.954 53.553C202.911 52.236 206.068 51.98 209.068 51.613Z" fill="#5F3523"/>
<path d="M177.108 57.823C177.116 61.162 174.878 62.74 171.665 61.745C164.165 59.423 157.054 60.151 150.427 64.545C149.355 65.3904 148.163 66.0721 146.891 66.568C144.407 67.323 142.565 65.817 142.936 63.239C143.077 61.8069 143.72 60.4711 144.753 59.469C149.379 55.116 155.026 53.053 161.142 52.007C165.457 51.3251 169.876 51.8423 173.917 53.502C176.195 54.377 177.102 55.598 177.108 57.823Z" fill="#5F3523"/>
<path d="M231.028 135.241C228.458 140.363 225.256 145.116 222.414 150.08C220.093 151.494 217.872 153.067 215.769 154.788C214.148 156.193 212.229 157.21 210.157 157.763C208.085 158.316 205.914 158.39 203.809 157.98C202.486 157.749 201.396 157.222 201.041 155.889C200.463 153.553 199.313 151.397 197.695 149.615C197.547 149.486 197.441 149.315 197.393 149.125C197.344 148.935 197.355 148.734 197.423 148.55C205.72 146.975 213.802 144.424 221.5 140.95C224.879 139.386 227.872 137.178 231.028 135.241Z" fill="#B0EAAA"/>
<path d="M197.454 162.237C192.204 162.199 186.975 161.986 181.919 160.347C181.286 160.199 180.623 160.249 180.019 160.49C177.382 161.195 174.619 161.294 171.938 160.778C171.106 160.635 169.766 160.643 169.938 159.47C170.055 158.67 171.283 159.109 172.006 159.075C177.134 158.836 181.858 157.652 185.467 153.639C186.424 152.588 187.168 151.361 187.658 150.027C188.657 149.727 189.7 149.597 190.742 149.644C190.916 151.531 189.642 152.855 188.853 154.344C187.944 156.062 187.923 156.126 189.675 156.824C191.568 157.636 193.579 158.14 195.632 158.316C197.168 158.416 198.275 157.294 199.717 157.381C200.625 157.945 200.217 158.792 200.191 159.559C199.695 160.875 199.432 162.433 197.454 162.237Z" fill="#43743E"/>
<path d="M146.601 152.034C149.249 152.868 151.796 153.995 154.194 155.395C157.82 157.747 161.689 157.34 165.585 156.195C165.926 156.081 166.231 155.88 166.471 155.613C166.711 155.345 166.877 155.019 166.953 154.668C167.603 152.564 168.686 150.62 170.133 148.961C170.244 148.833 170.114 148.497 170.097 148.261L174.739 149.291C174.555 149.77 174.511 150.433 174.164 150.699C171.229 152.942 170.183 156.387 168.493 159.42C167.493 161.21 165.593 161.263 163.937 161.606C161.375 162.23 158.69 162.127 156.184 161.309C153.678 160.49 151.45 158.989 149.75 156.973C148.45 155.501 147.387 153.834 146.601 152.034V152.034Z" fill="#6D9069"/>
<path d="M229.923 86.6191C228.063 85.1761 226.742 83.2441 224.837 81.9031C219.746 78.3181 212.56 76.8791 207.29 81.0711C205.935 82.1491 205.322 84.0381 203.448 84.5171C204.906 77.1171 210.165 72.3891 218.021 74.1671C222.221 75.1181 225.762 77.0011 228.251 80.6731C229.343 82.4644 229.921 84.5213 229.923 86.6191V86.6191Z" fill="#542A18"/>
<path d="M170.797 85.0361C160.816 74.0741 152.259 78.0261 144.142 86.8521C143.415 81.9521 148.322 75.3201 156.897 73.9621C164.188 72.8081 168.943 77.0331 170.797 85.0361Z" fill="#542A18"/>
<path d="M199.782 159.49C199.547 158.844 200.222 158.172 199.727 157.534C198.167 154.972 196.409 152.518 195.409 149.648C195.564 149.259 195.85 148.937 196.217 148.736C196.585 148.535 197.011 148.469 197.422 148.548C199.305 150.64 200.981 152.828 201.444 155.737C201.616 156.822 202.513 157.298 203.556 157.474C205.754 157.913 208.024 157.826 210.182 157.221C212.339 156.616 214.324 155.509 215.973 153.992C217.67 152.479 219.544 151.177 221.554 150.114C221.818 149.976 222.113 149.714 222.414 150.077C220.804 152.17 220.123 154.867 218.103 156.693C216.027 159.117 213.185 160.76 210.049 161.35C206.912 161.939 203.668 161.441 200.853 159.937C200.507 159.76 200.136 159.646 199.782 159.49Z" fill="#6D9069"/>
<path d="M195.41 149.648C197.255 152.033 198.713 154.695 199.728 157.534C195.591 160.227 191.793 158.112 187.965 156.672C187.099 156.346 187.317 155.772 187.784 155.127C188.948 153.402 189.938 151.566 190.74 149.645C192.254 149.127 193.896 149.127 195.41 149.645V149.648Z" fill="#60A059"/>
<path d="M258.34 211.03C262.932 210.195 267.52 209.335 272.117 208.53C279.917 207.168 287.25 208.302 293.904 212.772C294.945 213.472 295.428 213.29 295.985 212.258C296.839 210.675 298.004 209.042 299.971 209.393C302.123 209.776 302.995 211.664 303.288 213.734C303.569 215.717 303.827 217.703 304.094 219.681C307.481 218.098 309.504 219.186 310.33 223.075C312.338 232.531 310.737 241.446 306.63 250.116C304.23 255.196 301.709 260.148 297.882 264.309C290.988 271.802 282.734 277.484 273.852 282.352C269.972 284.478 265.87 286.114 261.915 288.068C261.136 288.384 260.334 288.639 259.515 288.83C259.223 287.852 260.046 287.73 260.151 287.622C251.615 292.185 241.921 294.054 231.858 294.842C223.831 295.471 215.749 295.43 207.775 296.72C200.722 297.934 193.844 300.004 187.293 302.885C181.093 305.523 176.53 310.01 171.649 314.25C167.168 318.142 162.277 321.241 156.285 322.275C154.294 322.646 152.241 322.502 150.321 321.858C147.621 320.943 146.61 318.82 147.657 316.144C148.254 314.625 149.124 313.227 150.225 312.022C152.716 309.256 155.371 306.642 158.175 304.194C152.91 306.477 148.224 309.078 145.602 314.251C144.937 315.563 144.115 315.306 143.312 314.451C142.597 313.773 142.063 312.927 141.759 311.99C141.456 311.052 141.393 310.053 141.575 309.085C142.01 306.503 143.293 304.139 145.223 302.369C147.539 300.324 149.392 297.764 152.351 296.054C152.003 295.827 151.601 295.699 151.186 295.684C150.771 295.668 150.36 295.766 149.996 295.966C147.626 296.704 145.451 297.964 143.632 299.654C143.168 300.112 142.612 300.954 141.861 300.345C141.232 299.832 141.585 299.005 141.893 298.35C142.404 297.08 143.09 295.887 143.93 294.806C146.33 292.106 148.439 289.129 151.671 287.206C159.702 282.244 167.237 276.52 174.171 270.114C180.623 264.342 186.762 258.251 192.908 252.161C195.679 249.416 198.594 246.817 201.502 244.212C206.019 240.165 209.819 235.437 213.869 230.947C214.059 230.766 214.209 230.549 214.313 230.309C214.416 230.068 214.469 229.809 214.469 229.547C215.934 227.582 218.26 226.872 220.23 225.664C226.009 222.149 232.095 219.164 238.412 216.747C244.158 214.482 250.046 212.598 256.039 211.107C256.773 210.811 257.588 210.784 258.34 211.03V211.03Z" fill="#9B654C"/>
<path d="M176.621 230.282L180.611 232.482C183.271 233.348 185.678 234.854 187.619 236.868C188.236 237.573 189.009 238.123 189.877 238.474C192.066 239.841 194.507 240.914 195.677 243.468C195.621 243.755 195.508 244.028 195.345 244.27C195.182 244.513 194.973 244.721 194.728 244.881C188.598 250.425 182.803 256.315 176.862 262.054C171.338 267.476 165.53 272.602 159.462 277.408C155.108 280.8 151.039 284.592 146.003 287.026C143.916 288.035 142.723 290.166 140.677 291.218C133.012 289.527 125.251 288.308 117.705 286.038C107.261 282.897 97.1761 279.029 88.4121 272.365C82.1211 267.581 76.7721 261.865 73.7561 254.474C69.1801 243.263 67.9321 231.788 72.1561 220.081C72.8329 217.911 73.8525 215.863 75.1761 214.015C76.0121 212.943 76.9701 211.852 78.5591 212.176C80.1011 212.49 80.7281 213.742 81.1211 215.091C81.4211 216.134 81.6031 217.214 81.8881 218.508C82.8881 217.341 83.8181 216.37 84.6171 215.302C87.8177 211.11 91.8513 207.626 96.4641 205.068C97.8831 204.254 99.3001 203.757 100.895 204.514C102.114 205.701 102.321 207.285 102.565 208.844C102.569 209.478 102.636 210.11 102.765 210.73C102.785 210.859 102.836 210.982 102.913 211.087C102.991 211.193 103.092 211.278 103.209 211.336C103.326 211.394 103.456 211.423 103.586 211.42C103.717 211.418 103.845 211.384 103.96 211.321C104.56 211.075 105.204 210.954 105.852 210.964C108.537 211.664 111.185 212.525 114.023 211.585C115.446 211.114 116.596 210.074 118.089 209.793C123.401 210.13 128.653 211.1 133.735 212.682C140.697 214.971 147.773 216.929 154.541 219.79C155.229 219.987 155.859 220.346 156.379 220.837L159.93 222.293C160.162 222.174 160.421 222.118 160.681 222.133C160.942 222.148 161.193 222.232 161.41 222.376C166.216 224.305 170.888 226.554 175.393 229.109C175.871 229.407 176.425 229.664 176.621 230.282Z" fill="#9B654C"/>
<path d="M140.67 291.222C142.823 288.519 145.582 286.361 148.724 284.922C152.154 283.151 154.824 280.367 157.868 278.08C163.83 273.597 169.231 268.443 174.779 263.471C177.048 261.438 179.142 259.208 181.29 257.042C185.726 252.569 190.266 248.207 195.014 244.063C195.186 243.87 195.333 243.657 195.451 243.427C195.707 242.758 196.145 242.174 196.717 241.742C199.838 238.835 203.263 236.273 206.933 234.099C207.253 233.874 207.643 233.767 208.033 233.799C209.311 233.214 210.476 232.407 211.473 231.415C212.387 230.583 213.241 229.632 214.664 229.815C215.644 230.083 214.892 230.442 214.678 230.685C210.178 235.785 205.806 240.985 200.7 245.556C195.234 250.447 190.162 255.776 184.864 260.856C176.364 269.015 167.674 276.968 158.02 283.781C156.819 284.667 155.548 285.455 154.22 286.136C150.368 288.007 147.67 291.204 144.936 294.29C143.361 295.918 142.354 298.011 142.065 300.258C144.132 298.172 146.645 296.581 149.416 295.606C150.571 295.19 152.301 294.387 152.848 295.306C153.478 296.365 151.648 296.928 150.854 297.689C147.533 300.871 143.554 303.497 142.214 308.334C141.821 309.778 141.968 311.316 142.63 312.658C142.99 313.466 143.467 314.508 144.34 314.693C145.488 314.937 145.284 313.567 145.684 312.956C148.984 307.922 153.454 305.447 159.217 303.416C159.107 304.144 158.482 304.447 158.061 304.879C155.716 307.294 153.151 309.479 150.906 312.008C149.721 313.305 148.763 314.792 148.073 316.408C147.1 318.754 148.037 320.62 150.483 321.408C154.898 322.831 158.927 321.482 162.849 319.626C168.212 317.087 172.333 312.933 176.692 309.041C179.441 306.586 182.313 304.221 186.072 303.064C188.231 302.399 190.272 301.037 192.43 300.181C198.492 297.892 204.83 296.416 211.28 295.79C217.144 295.119 223.038 295.068 228.913 294.648C239.765 293.872 250.428 292.318 260.213 287.099C260.466 287.008 260.726 286.939 260.99 286.892L259.537 288.831C259.021 289.082 258.526 289.371 258.054 289.697C250.741 295.557 241.691 298.828 232.321 298.997C224.953 299.139 217.598 299.666 210.285 300.577C212.182 302.595 213.36 305.183 213.634 307.939C214.134 312.525 213.601 317.022 210.47 320.409C208.85 322.306 207.594 324.485 206.764 326.837C204.818 331.459 198.679 335.054 193.655 334.888C191.893 334.769 190.204 334.144 188.789 333.088C188.308 332.763 187.989 332.488 187.267 332.845C183.59 334.684 180.209 334.034 177.146 331.274C174.567 328.973 172.524 326.134 171.163 322.957C170.67 321.809 170.299 321.557 169.114 322.329C165.363 324.954 160.985 326.541 156.423 326.929C152.345 327.162 148.34 326.429 145.984 322.904C144.456 320.737 142.706 318.735 140.764 316.929C138.564 314.763 138.159 311.754 138.322 308.755C138.409 307.408 138.213 306.058 137.746 304.792C136.176 300.445 137.688 296.492 139.722 292.683C139.982 292.173 140.348 291.709 140.67 291.222Z" fill="#794A35"/>
<path d="M214.662 229.818L211.471 231.418C211.457 222.897 211.405 214.375 211.46 205.854C211.473 203.894 211.204 201.976 211.043 200.043C210.979 199.504 211.076 198.959 211.322 198.475C211.568 197.991 211.952 197.591 212.425 197.326C220.269 191.572 228.478 186.358 236.518 180.895C240.534 178.166 244.413 175.237 248.373 172.426C248.764 172.149 249.273 171.156 249.773 172.376L248.2 179.766C247.945 180.989 246.92 180.602 246.179 180.674C238.631 181.404 231.897 188.697 232.34 196.014C232.72 202.285 236.44 206.441 241.875 208.995C244.155 210.134 246.673 210.715 249.222 210.689C251.77 210.663 254.276 210.031 256.532 208.845C257.201 208.507 257.866 207.971 258.714 208.354C258.426 209.214 258.3 210.12 258.342 211.026C253.021 212.446 247.756 214.035 242.547 215.842C235.63 218.256 228.954 221.312 222.605 224.968C219.912 226.514 217.065 227.8 214.662 229.818Z" fill="#FEFEFE"/>
<path d="M102.332 211.012C102.151 208.791 101.665 206.606 100.889 204.518C100.889 203.696 100.889 202.874 100.889 202.052C101.442 198.034 104.107 195.811 107.534 194.236C108.888 192.936 110.566 193.521 112.347 193.503C110.3 189.703 107.904 186.171 107.889 181.772L107.516 179.816C107.247 179.376 107.327 179.063 107.844 178.908C109.186 180.115 109.776 181.813 110.607 183.33C112.691 187.13 115.583 190.312 118.263 193.658C118.846 194.277 119.547 194.774 120.325 195.119C126.392 198.419 132.51 201.593 139.683 202.228C139.366 200.183 139.391 198.1 139.758 196.063C140.002 195.012 139.132 194.934 138.477 194.716C133.685 193.196 129.247 190.728 125.428 187.459C122.628 185.005 119.936 182.439 118.537 178.866C118.142 177.858 117.628 176.716 119.125 176.053C120.717 176.283 121.394 177.645 122.345 178.666C122.777 179.13 123.092 180 123.755 179.854C124.585 179.672 124.343 178.675 124.524 178.025C124.647 177.32 124.672 176.602 124.598 175.89C124.783 173.844 124.538 171.803 124.561 169.759C124.517 166.7 124.444 163.642 124.586 160.587C124.727 160.029 124.786 159.348 125.566 159.36C126.173 159.369 126.449 159.903 126.605 160.393C128.824 167.353 130.591 174.344 127.365 181.493C127.235 181.697 127.147 181.925 127.107 182.164C127.067 182.403 127.074 182.647 127.129 182.883C127.185 183.118 127.286 183.341 127.429 183.536C127.571 183.732 127.751 183.898 127.958 184.023C128.783 184.657 129.585 185.323 130.458 185.893C132.558 187.27 132.794 187.193 133.442 184.826C134.432 181.05 134.993 177.173 135.113 173.271C135.185 171.712 135.368 170.161 135.659 168.628C135.85 167.595 136.213 166.549 137.649 166.728C138.354 167.29 138.853 168.068 139.07 168.943C139.287 169.817 139.21 170.739 138.849 171.565C138.596 175.485 139.177 179.435 138.411 183.336C138.262 184.092 138.127 184.85 137.986 185.607C138.408 186.513 137.834 187.26 137.486 187.967C136.917 189.126 137.312 189.587 138.422 189.914C140.702 190.587 142.969 191.25 145.377 190.646C151.188 189.646 154.597 191.972 156.417 198.185C156.884 199.449 156.476 200.704 156.378 201.96C155.272 208.019 149.561 210.85 144.136 207.925C142.835 207.211 141.373 206.839 139.889 206.845C135.838 206.806 132.169 205.251 128.52 203.723C126.232 202.765 126.354 202.765 124.814 204.654C123.043 207.069 120.697 209.004 117.988 210.281C116.191 211.527 114.1 212.283 111.921 212.474C109.743 212.665 107.552 212.284 105.566 211.369C104.335 211.009 103.274 210.221 102.574 209.147C103.016 209.86 103.052 210.475 102.332 211.012Z" fill="#79828B"/>
<path d="M258.715 208.363C253.464 211.45 247.96 212.189 242.283 209.786C234.163 206.35 229.457 197.986 232.811 190.286C235.465 184.186 240.295 180.838 246.917 180.109C247.364 180.06 247.838 180.14 248.201 179.777C251.625 179.4 255.088 179.924 258.247 181.297C258.916 181.326 259.561 181.551 260.102 181.945C262.566 184.009 264.421 186.706 265.469 189.745C266.021 191.976 267.259 194.131 266.223 196.537C265.914 198.229 265.606 199.921 265.297 201.612C263.609 204.352 261.653 206.834 258.715 208.363Z" fill="#79828B"/>
<path d="M329.005 118.077C328.951 119.088 328.518 120.041 327.791 120.746C327.064 121.45 326.098 121.855 325.086 121.877C324.039 121.8 323.062 121.322 322.36 120.542C321.657 119.762 321.283 118.74 321.316 117.691C321.293 116.031 323.516 112.691 324.616 112.74C325.966 112.804 328.973 116.453 329.005 118.077Z" fill="#FEFDFD"/>
<path d="M46.1931 117.943C46.1201 120.284 44.5601 121.962 42.5281 121.882C42.0073 121.896 41.4895 121.799 41.0093 121.597C40.5292 121.394 40.0979 121.092 39.7442 120.709C39.3905 120.327 39.1227 119.873 38.9586 119.379C38.7946 118.884 38.7382 118.36 38.7931 117.842C38.8621 116.074 41.5931 112.901 43.1401 112.796C44.3081 112.717 46.2531 116.002 46.1931 117.943Z" fill="#FEFEFD"/>
<path d="M104.414 173.916C103.808 176.297 103.421 178.728 103.26 181.179C102.791 185.706 102.655 190.261 102.853 194.807C102.868 196.126 102.553 196.713 101.116 196.583C98.8576 196.415 96.6115 196.111 94.3899 195.672C93.4186 195.446 92.5024 195.027 91.6952 194.442C90.8881 193.856 90.2063 193.114 89.6899 192.261C86.1499 187.207 81.0629 183.961 75.9369 180.729C71.2759 177.79 66.2979 175.363 61.9219 171.951C61.4773 171.646 61.1216 171.229 60.8911 170.742C60.6606 170.255 60.5635 169.715 60.6099 169.178C60.6599 164.932 61.8179 160.855 62.4019 156.692C63.4359 149.31 65.2639 142.08 66.5019 134.739C66.6709 133.731 66.9159 133.455 67.9669 133.623C73.0759 134.443 78.1879 135.265 83.3209 135.908C87.6879 136.455 92.1369 136.477 96.4539 137.261C99.7659 137.861 100.989 136.275 102.071 133.725C102.778 131.91 103.701 130.186 104.819 128.59C105.435 131.81 106.394 134.767 103.874 138.005C99.5469 143.562 99.0529 150.12 100.758 156.862C101.083 157.639 101.489 158.38 101.97 159.071C102.417 162.046 102.17 165.108 103.195 168.019C103.643 169.288 103.989 170.601 104.383 171.894C104.576 172.552 104.92 173.232 104.414 173.916Z" fill="#FEFEFE"/>
<path d="M101.672 159.036C99.772 157.864 99.853 155.826 99.672 154.027C99.111 148.302 99.572 142.668 103.177 137.922C104.592 136.06 105.569 134.454 104.991 132.075C104.818 130.921 104.756 129.754 104.806 128.588C105.005 126.846 105.412 125.133 106.019 123.488C109.187 122.326 112.286 120.944 115.652 120.412C116.652 120.254 116.752 119.478 116.962 118.744C118.243 119.551 118.298 120.669 117.772 121.934C117.772 123.807 117.8 125.68 117.753 127.552C117.699 129.695 118.553 130.938 120.834 130.902C122.841 130.368 124.134 131.708 125.46 132.775C128.324 135.136 130.589 138.14 132.07 141.543C133.699 145.367 134.79 149.399 135.312 153.523C135.428 154.103 135.333 154.706 135.045 155.223C131.397 156.018 127.835 157.777 123.971 156.231C123.264 155.653 122.762 154.864 122.537 153.98C121.975 152.459 121.255 151.001 120.39 149.629C119.125 147.753 117.682 147.138 115.964 147.669C115.068 147.977 114.295 148.566 113.762 149.349C113.228 150.133 112.963 151.067 113.005 152.014C113.005 153.483 113.452 154.984 112.692 156.4C111.127 157.558 109.344 158.389 107.451 158.841C105.557 159.294 103.592 159.361 101.672 159.036V159.036Z" fill="#6D7277"/>
<path d="M101.672 159.036C103.372 158.423 105.202 158.914 106.942 158.387C108.642 157.872 110.515 157.854 111.668 156.167C111.881 155.855 112.25 156.094 112.507 156.308C113.607 156.122 113.767 156.997 114 157.703C114.359 159.088 114.474 160.524 114.34 161.948C114.008 164.531 115.152 166.836 115.731 169.248C116.259 171.287 117.593 172.91 118.559 174.723C118.822 175.216 119.399 175.563 119.259 176.241C118.123 176.785 118.603 177.641 118.876 178.413C120.162 182.05 122.884 184.594 125.664 187.034C129.699 190.526 134.456 193.083 139.594 194.523C140.516 194.792 140.522 195.156 140.335 195.851C139.767 197.856 139.754 199.977 140.298 201.988C140.706 203.488 139.434 202.849 139.006 202.758C135.525 202.026 131.976 201.493 128.736 199.912C125.763 198.462 122.817 196.956 119.872 195.449C117.159 194.061 115.859 191.332 113.985 189.149C111.43 186.12 109.376 182.701 107.9 179.023C107.521 178.849 107.434 178.472 107.273 178.088C107.459 178.641 107.42 179.245 107.163 179.769L104.411 173.917C102.917 169.064 101.094 164.271 101.672 159.036Z" fill="#BDC3C4"/>
<path d="M46.557 164.746C46.451 158.976 47.857 153.752 48.741 148.455C49.787 142.211 51.975 136.304 54.017 130.355C54.2145 129.806 54.4728 129.281 54.787 128.789C56.164 126.572 56.536 126.451 59.059 127.351C59.6103 127.545 60.1502 127.77 60.676 128.025C64.449 129.875 64.385 129.859 63.176 133.725C59.6863 144.792 57.1261 156.132 55.522 167.625C55.1766 169.076 55.1636 170.587 55.484 172.044C55.76 172.939 55.144 173.144 54.375 173.144C50.389 173.137 45.896 171.865 46.552 166.157C46.5864 165.687 46.5881 165.216 46.557 164.746V164.746Z" fill="#FEFEFE"/>
<path d="M107.885 181.77C109.023 185.686 110.16 189.601 112.754 192.882C112.954 193.136 113.454 193.45 112.997 193.823C112.853 193.947 112.685 194.04 112.503 194.096C112.321 194.151 112.13 194.168 111.941 194.145C110.487 193.801 108.969 193.832 107.53 194.234C107.522 190.619 107.505 187.004 107.515 183.389C107.517 182.837 107.328 182.21 107.885 181.77Z" fill="#FDFDFD"/>
<path d="M107.165 179.768V177.797C107.757 178.051 107.651 178.645 107.903 179.022C107.577 179.189 107.549 179.504 107.512 179.814C107.397 179.795 107.281 179.779 107.165 179.768Z" fill="#91ABC6"/>
<path d="M266.222 196.532C266.112 194.161 265.687 191.816 264.959 189.557C263.659 182.681 263.213 175.685 262.081 168.785C262.038 168.527 262.096 168.262 262.242 168.044C264.042 156.663 265.453 145.244 265.434 133.698C268.271 137.962 268.256 137.856 273.239 137.126C278.359 136.376 283.517 135.897 288.65 135.233C292.178 134.776 295.697 134.253 299.208 133.663C300.463 133.453 301.015 133.784 301.228 135.063C302.661 143.684 304.88 152.163 306.021 160.838C306.308 163.018 306.755 165.176 307.112 167.348C307.376 168.352 307.302 169.414 306.903 170.372C306.503 171.329 305.8 172.129 304.902 172.648C300.845 175.358 296.576 177.702 292.459 180.301C288.459 182.828 284.368 185.255 281.015 188.65C279.616 190.005 278.394 191.532 277.378 193.194C276.122 195.35 273.753 195.672 271.632 196.052C269.862 196.477 268.04 196.641 266.223 196.54L266.222 196.532Z" fill="#FEFEFE"/>
<path d="M321.233 164.893C321.233 165.81 321.263 166.528 321.228 167.242C321.036 171.11 316.314 174.314 312.606 173.142C311.943 172.932 312.088 172.593 312.156 172.115C312.656 168.645 311.817 165.279 311.301 161.892C309.874 153.66 307.997 145.512 305.678 137.486C305.221 135.526 304.556 133.619 303.696 131.799C303.188 130.806 303.263 130.199 304.302 129.581C305.835 128.608 307.452 127.774 309.134 127.089C309.45 126.923 309.797 126.826 310.153 126.803C310.51 126.78 310.867 126.832 311.201 126.956C311.536 127.08 311.841 127.273 312.096 127.522C312.352 127.771 312.552 128.071 312.684 128.403C314.555 131.794 315.384 135.545 316.576 139.172C318.543 145.547 319.933 152.086 320.73 158.709C321.147 160.742 321.316 162.819 321.233 164.893V164.893Z" fill="#FEFEFE"/>
<path d="M213.784 189.558C207.519 194.064 201.716 199.228 194.628 203.136C211.443 176.929 227.04 150.383 243.14 123.767C245.943 128.81 248.42 134.027 250.557 139.386C251.421 141.556 252.39 143.686 253.312 145.829C253.343 151.84 252.782 157.839 251.638 163.74C245.956 167.693 240.296 171.677 234.585 175.587C230.578 178.331 226.507 180.98 222.455 183.658C220.241 185.122 218.008 186.558 215.784 188.005C215.715 188.069 215.625 188.103 215.531 188.101C215.438 188.099 215.349 188.06 215.284 187.993C215.192 187.786 215.155 187.559 215.175 187.333C215.196 187.107 215.274 186.89 215.402 186.703C215.584 186.36 215.738 186.004 215.863 185.636C216.382 183.827 215.809 181.912 214.574 181.324C213.339 180.736 211.574 181.566 210.556 183.251C209.992 184.128 209.681 185.143 209.656 186.185C209.645 188.202 210.665 189.213 212.716 189.239C212.906 189.206 213.102 189.218 213.287 189.273C213.473 189.329 213.643 189.426 213.784 189.558V189.558Z" fill="#FEFEFE"/>
<path d="M253.367 134.052C251.367 131.261 250.056 128.073 248.245 125.172C248.005 124.788 247.899 124.278 247.582 123.991C245 121.655 244.911 119.022 246.282 115.991C246.978 114.109 247.364 112.125 247.424 110.119C249.324 112.189 250.097 114.831 250.943 117.386C252.666 122.769 253.486 128.401 253.367 134.052V134.052Z" fill="#FEFEFE"/>
<path d="M262.242 168.043C263.784 175.12 264.694 182.319 264.959 189.557C263.831 186.766 262.105 184.256 259.904 182.203C258.826 180.688 259.604 179.058 259.611 177.477L262.242 168.043Z" fill="#CACACA"/>
<path d="M259.611 177.481C260.211 179.025 259.8 180.632 259.904 182.207C259.272 182.079 258.693 181.76 258.246 181.295L259.611 177.481Z" fill="#EFF1F3"/>
<path d="M117.776 121.937C117.601 120.849 117.7 119.692 116.966 118.747C117.49 115.67 118.666 112.741 120.414 110.155C120.233 113.208 121.175 116.036 122.214 118.828C122.454 119.302 122.537 119.84 122.451 120.365C122.365 120.889 122.114 121.372 121.734 121.744C120.494 123.407 119.37 125.153 118.37 126.971C117.723 125.182 118.572 123.449 117.776 121.937Z" fill="#FDFDFD"/>
<path d="M134.85 155.139C134.477 149.389 132.81 143.798 129.973 138.783C127.843 135.083 124.994 132.245 120.839 130.907L124.445 123.701C140.635 150.183 156.01 176.701 172.745 202.645C170.952 202.052 169.277 201.149 167.795 199.978C159.881 193.679 151.648 187.79 143.129 182.335C139.997 180.398 138.605 178.528 139.143 174.987C139.439 173.844 139.333 172.634 138.843 171.559C138.862 169.921 138.431 168.309 137.597 166.899C137.06 166.334 136.721 165.61 136.63 164.836C135.938 162.274 135.63 159.607 134.613 157.136C134.464 156.814 134.406 156.456 134.448 156.103C134.489 155.75 134.628 155.415 134.848 155.136L134.85 155.139Z" fill="#FEFEFE"/>
<path d="M208.03 233.799C203.555 236.621 199.344 239.843 195.451 243.426C193.951 241.369 191.53 240.356 189.877 238.477C190.492 236.636 190.763 234.697 190.677 232.758C190.798 226.843 191.054 220.897 190.585 215.017C190.337 211.904 190.941 210.785 193.93 209.665C198.149 208.085 201.782 205.165 205.408 202.426C205.678 202.148 205.996 201.921 206.347 201.755C206.889 201.611 207.441 201.022 207.987 201.424C208.5 201.802 207.956 202.383 207.966 202.881C207.992 204.051 207.938 205.222 207.94 206.392C207.952 214.51 207.956 222.628 207.577 230.74C207.514 231.78 207.667 232.821 208.027 233.799H208.03Z" fill="#FEFEFE"/>
<path d="M176.621 230.283C171.192 227.342 165.619 224.676 159.921 222.297C159.901 217.997 159.803 213.704 159.894 209.411C159.94 207.252 159.463 205.15 159.503 203.005C159.54 201.071 159.76 200.905 161.477 201.886C162.37 202.395 163.122 203.143 163.988 203.707C168.046 206.35 171.788 209.565 176.678 210.707C177.294 210.851 177.426 211.33 177.364 211.921C176.793 217.304 177.252 222.706 177.079 228.096C177.053 228.839 177.375 229.682 176.621 230.283Z" fill="#FEFEFE"/>
<path d="M117.985 210.272C119.47 209.017 120.985 207.79 122.431 206.497C123.155 205.851 123.768 205.08 124.439 204.374C125.064 203.716 124.898 202.249 125.826 202.201C126.754 202.153 127.752 202.857 128.707 203.258C132.919 205.028 137.154 206.692 141.861 206.337C142.379 206.284 142.898 206.427 143.316 206.737C149.39 211.078 153.585 207.601 155.609 203.175C155.771 202.82 155.909 202.454 156.056 202.093C157.068 203.583 156.484 205.187 156.391 206.756C156.384 211.451 156.376 216.145 156.368 220.839C152.678 220.068 149.361 218.228 145.768 217.158C140.568 215.607 135.398 213.935 130.209 212.338C126.229 211.113 122.068 210.916 117.985 210.272Z" fill="#FEFEFE"/>
<path d="M199.782 159.49C200.147 159.478 199.939 158.43 200.724 159.062C203.901 161.62 207.546 161.34 211.2 160.562C213.876 159.995 215.794 157.972 218.1 156.692C217.533 158.96 216.017 160.747 214.852 162.671C210.334 170.131 205.607 177.464 200.958 184.844C199.54 178.024 198.444 171.137 196.729 164.379C196.509 163.513 196.529 162.719 197.451 162.234C198.073 162.069 198.63 161.717 199.046 161.226C199.462 160.735 199.718 160.128 199.779 159.487L199.782 159.49Z" fill="#B0EAAA"/>
<path d="M149.75 156.973C151.001 157.787 152.234 158.632 153.507 159.41C158.495 162.458 163.496 162.005 168.493 159.419C169.481 160.496 169.351 161.619 168.987 162.981C167.368 169.061 165.908 175.181 164.387 181.291C161.698 176.968 159.009 172.644 156.322 168.32C154.384 165.19 152.474 162.042 150.534 158.913C150.078 158.363 149.804 157.685 149.75 156.973V156.973Z" fill="#B0EAAA"/>
<path d="M187.619 236.872L180.611 232.486C180.476 225.81 180.711 219.141 180.935 212.47C180.972 211.351 181.38 211.012 182.435 211.031C187.819 211.125 186.745 210.186 186.827 215.15C186.898 219.497 186.68 223.857 186.937 228.191C187.112 231.08 186.955 234.014 187.619 236.872Z" fill="#FEFEFE"/>
<path d="M213.784 189.558C210.632 190.033 209.331 189.222 209.124 186.652C208.893 183.785 211.249 180.639 213.683 180.564C216.035 180.492 217.435 183.642 216.209 186.273C215.938 186.854 215.621 187.413 215.325 187.982C215.148 188.569 214.625 188.823 214.193 189.17L213.784 189.558Z" fill="#CACACA"/>
<path d="M145.378 190.638C142.297 192.581 139.592 190.498 136.762 189.816C136.12 189.661 136.303 189.238 136.538 188.771C137.06 187.733 137.508 186.659 137.986 185.599C140.726 186.833 143.228 188.539 145.378 190.638V190.638Z" fill="#FDFDFD"/>
<path d="M156.388 206.757C156.178 205.21 156.727 203.608 156.053 202.094L156.411 198.176C156.564 198.287 156.859 198.412 156.849 198.505C156.564 201.249 157.14 204.042 156.388 206.757Z" fill="#EDEEEF"/>
<path d="M214.192 189.171C214.427 188.66 214.826 188.242 215.325 187.983L215.784 188.006C215.638 188.319 215.416 188.59 215.138 188.793C214.859 188.997 214.534 189.127 214.192 189.171Z" fill="#EBEBEB"/>
<path d="M199.515 101.083C199.294 101.906 198.859 102.655 198.253 103.253C195.448 106.166 192.064 108.361 188.877 110.8C188.479 111.135 187.976 111.322 187.456 111.329C186.935 111.336 186.428 111.162 186.021 110.838C182.448 108.733 179.246 106.053 176.546 102.905C175.179 101.235 175.668 100.031 177.796 99.3571C179.939 98.8397 182.14 98.6044 184.343 98.6571C188.686 98.5601 193.03 98.7689 197.343 99.2821C198.502 99.3901 199.317 99.8451 199.515 101.083Z" fill="#694C3D"/>
<path d="M187.134 121.861C193.212 122.661 198.847 125.478 203.134 129.861C203.595 130.336 204.299 131.061 203.68 131.692C203.124 132.257 202.48 131.506 202.012 131.134C198.92 128.668 195.312 127.234 191.703 125.75C190.264 125.148 188.717 124.851 187.158 124.874C185.599 124.898 184.062 125.244 182.642 125.889C179.185 127.367 175.82 129.055 172.568 130.943C171.82 131.364 170.776 132.43 170.031 131.393C169.366 130.467 170.431 129.563 171.131 128.961C175.608 125.003 181.196 122.524 187.134 121.861Z" fill="#542A18"/>
<path d="M102.331 211.012L102.521 208.702L105.564 211.361C104.94 211.517 104.324 211.707 103.721 211.931C102.736 212.351 102.425 211.872 102.331 211.012Z" fill="#D0CCCB"/>
<path d="M207.185 317.695C205.715 314.046 203.754 310.614 201.357 307.495C201.516 308.628 201.604 309.776 201.848 310.895C202.564 314.121 202.919 317.416 202.905 320.72C202.941 321.795 202.743 322.866 202.325 323.857C201.908 324.849 201.28 325.738 200.486 326.464C198.113 328.817 194.927 330.168 191.586 330.24C190.152 330.231 189.679 330.001 190.06 328.36C191.277 323.117 189.501 318.489 186.46 314.141C186.46 316.765 186.413 319.391 186.477 322.014C186.476 323.639 186.176 325.251 185.591 326.767C185.469 327.258 185.238 327.716 184.913 328.105C184.589 328.493 184.181 328.803 183.719 329.011C183.257 329.219 182.755 329.319 182.249 329.304C181.743 329.289 181.247 329.16 180.798 328.925C176.929 327.391 174.809 324.119 172.762 320.78C172.462 320.288 172.342 319.756 172.884 319.398C176.305 317.137 177.999 313.216 181.148 310.739C185.345 307.446 190.148 305.01 195.285 303.57C198.639 302.635 202.043 301.888 205.48 301.332C206.38 301.185 206.845 301.404 207.297 302.463C209.075 306.179 209.564 310.382 208.686 314.407C208.455 315.607 207.941 316.735 207.185 317.695V317.695Z" fill="#9B654C"/>
<path d="M134.853 155.137C134.707 157.119 135.965 158.752 136.203 160.67C136.561 162.769 137.028 164.848 137.603 166.898C136.379 166.985 136.195 167.973 136.097 168.846C135.772 171.734 135.513 174.631 135.289 177.529C135.019 180.686 134.382 183.802 133.389 186.811C133.089 187.758 132.747 187.935 131.889 187.442C130.016 186.29 128.226 185.008 126.532 183.606C126.418 183.549 126.318 183.467 126.241 183.365C126.164 183.264 126.112 183.145 126.088 183.02C126.065 182.895 126.071 182.766 126.105 182.643C126.14 182.52 126.202 182.407 126.288 182.313C128.988 177.82 128.927 172.923 128.107 168.006C127.594 165.47 126.94 162.964 126.148 160.5C126.032 160.092 125.815 158.768 125.105 160.251C122.818 158.297 122.579 157.396 123.96 155.938C126.966 156.641 130.12 156.347 132.944 155.099C133.697 154.792 134.224 155.859 134.853 155.137Z" fill="#BDC3C4"/>
<path d="M123.957 155.938C123.59 156.852 122.847 157.755 124.475 158.361C125.084 158.588 124.475 159.735 125.101 160.251C125.101 163.499 125.101 166.747 125.101 169.995C123.225 170.004 122.201 168.443 120.838 167.568C118.348 165.968 115.738 164.468 113.801 162.138C113.607 160.701 113.933 159.238 113.479 157.8C113.279 157.18 113.213 156.559 112.504 156.309C112.475 154.888 112.415 153.467 112.425 152.046C112.393 150.971 112.697 149.913 113.294 149.018C113.891 148.123 114.752 147.436 115.757 147.053C117.911 146.413 119.585 147.206 121.057 149.596C122.159 151.645 123.128 153.764 123.957 155.938V155.938Z" fill="#FEFEFE"/>
<path d="M110.037 207.905C108.469 208.082 106.891 207.667 105.613 206.741C105.088 206.474 104.633 206.087 104.287 205.61C103.941 205.133 103.713 204.581 103.622 203.999C103.532 203.417 103.581 202.821 103.765 202.262C103.95 201.703 104.265 201.195 104.684 200.781C107.777 197.111 111.754 196.853 114.72 199.968C116.487 201.823 116.372 203.904 115.593 205.92C115.009 207.433 113.213 207.54 111.784 207.884C111.204 207.958 110.618 207.965 110.037 207.905Z" fill="#BDC3C4"/>
<path d="M147.94 193.844C151.012 193.896 153.316 196.075 153.246 198.861C153.183 201.361 150.118 204.781 147.955 204.761C145.016 204.738 142.245 201.961 142.363 199.154C142.411 197.714 143.022 196.351 144.065 195.358C145.108 194.365 146.5 193.821 147.94 193.844V193.844Z" fill="#BDC3C4"/>
<path d="M113.804 162.137L125.104 169.994C125.304 172.09 125.288 174.201 125.056 176.294C124.937 176.347 124.809 176.372 124.679 176.368C124.549 176.364 124.422 176.331 124.307 176.271C121.075 174.422 118.071 172.199 115.358 169.648C114.667 167.177 113.443 164.821 113.804 162.137Z" fill="#CACACA"/>
<path d="M115.36 169.642L125.06 176.297C125.161 177.526 125.028 178.763 124.668 179.942C124.449 181.083 123.916 181.113 123.131 180.296C121.836 178.949 120.86 177.296 119.266 176.237C117.559 174.305 116.234 172.068 115.36 169.642Z" fill="#FDFDFE"/>
<path d="M117.385 197.026C118.818 198.019 120.222 199.058 121.694 199.988C122.627 200.578 122.704 201.006 121.739 201.607C121.093 202.007 120.506 202.507 119.813 203.019C119.321 200.907 118.501 198.885 117.384 197.026H117.385Z" fill="#BDC3C4"/>
<path d="M262.668 196.287C263.238 199.636 260.823 201.919 258.15 203.827C251.891 208.293 242.15 208.554 236.613 201.554C234.472 198.846 233.661 195.721 235.242 192.439C238.088 186.531 243.548 183.591 249.426 183.145C256.986 182.572 262.543 187.187 262.668 196.287Z" fill="#BDC3C4"/>
<path d="M229.826 174.643C229.791 175.877 229.365 177.068 228.61 178.045C227.856 179.023 226.811 179.736 225.626 180.082C225.297 180.172 224.952 180.195 224.614 180.151C224.275 180.106 223.949 179.995 223.654 179.823C223.358 179.652 223.1 179.423 222.894 179.151C222.688 178.878 222.538 178.568 222.453 178.237C221.978 176.494 223.263 172.959 224.779 171.962C225.284 171.547 225.895 171.282 226.543 171.198C227.191 171.113 227.85 171.213 228.444 171.484C229.813 172.152 229.84 173.383 229.826 174.643Z" fill="#CACACA"/>
<path d="M185.676 216.699C185.638 219.225 184.784 220.58 183.405 220.414C181.387 220.171 181.613 218.389 181.46 217.099C181.254 215.372 182.314 214.07 183.566 214.18C185.239 214.327 185.514 215.623 185.676 216.699Z" fill="#CBCBCB"/>
<path d="M181.748 228.054C181.782 227.03 181.616 225.932 183.068 225.892C184.624 225.849 185.068 227.022 185.104 228.183C185.135 229.262 184.737 230.521 183.347 230.522C181.701 230.525 181.782 229.157 181.748 228.054Z" fill="#CBCBCB"/>
<path d="M188.968 99.993C190.156 100.148 191.31 100.272 192.455 100.457C193.09 100.557 193.855 100.715 193.749 101.573C193.743 101.755 193.697 101.934 193.614 102.096C193.531 102.258 193.413 102.4 193.269 102.512C193.124 102.623 192.957 102.701 192.779 102.741C192.601 102.78 192.417 102.779 192.239 102.739C189.799 102.186 187.347 102.479 184.898 102.469C184.309 102.469 183.622 102.475 183.498 101.742C183.347 100.834 184.198 100.704 184.768 100.592C186.16 100.317 187.575 100.182 188.968 99.993Z" fill="#C4AC9F"/>
<path d="M239.187 197.319C239.406 193.319 241.027 190.006 244.495 187.919C246.007 186.948 247.765 186.43 249.562 186.425C251.359 186.421 253.12 186.931 254.637 187.895C258.637 190.239 261.017 196.295 258.354 200.595C257.891 201.293 257.303 201.9 256.62 202.385C252.62 205.492 246.345 206.06 242.742 203.625C240.533 202.128 239.013 200.202 239.187 197.319Z" fill="#79828B"/>
<path d="M248.084 202.453C245.294 202.467 243.884 201.081 242.91 197.737C242.556 196.687 242.564 195.549 242.933 194.504C243.302 193.459 244.011 192.568 244.946 191.973C246.23 191.203 247.674 190.742 249.167 190.625C250.659 190.508 252.158 190.739 253.546 191.3C254.223 191.6 254.824 192.046 255.307 192.607C255.79 193.168 256.143 193.829 256.34 194.542C256.536 195.256 256.572 196.004 256.445 196.733C256.317 197.462 256.029 198.154 255.602 198.758C253.648 201.495 250.848 202.306 248.084 202.453Z" fill="#BDC3C4"/>
</svg>
