<svg xmlns="http://www.w3.org/2000/svg" xmlns:xlink="http://www.w3.org/1999/xlink" width="749.209" height="458.365" viewBox="0 0 749.209 458.365">
  <defs>
    <clipPath id="clip-path">
      <path id="Path_16" data-name="Path 16" d="M75.421,359.667l-12.606,3.357-12.607,3.357a7.556,7.556,0,1,1-3.888-14.6l12.606-3.357,12.606-3.357a7.557,7.557,0,0,1,3.89,14.6Z" transform="translate(-40.706 -344.806)" fill="#6bcae2"/>
    </clipPath>
    <clipPath id="clip-path-2">
      <path id="Path_21" data-name="Path 21" d="M308.633,41.189,320.854,51.2l12.221,10.015a9.153,9.153,0,1,1-11.6,14.158L309.25,65.362,297.03,55.347a9.153,9.153,0,0,1,11.6-14.158Z" transform="translate(-293.678 -39.115)" fill="#cfdbf7"/>
    </clipPath>
    <clipPath id="clip-path-3">
      <path id="Path_39" data-name="Path 39" d="M217.347,191.65s-11.2,22.6-19.143,67.914c0,0,36.014-30,59.122-63.3l-16.542-4.614Z" transform="translate(-198.204 -191.65)" fill="#af6f3b"/>
    </clipPath>
    <clipPath id="clip-path-4">
      <path id="Path_70" data-name="Path 70" d="M213.176,129.374s4.78-11.867,20.754-2.751C233.93,126.624,225.744,137.359,213.176,129.374Z" transform="translate(-213.176 -123.18)" fill="#fff"/>
    </clipPath>
    <clipPath id="clip-path-5">
      <path id="Path_74" data-name="Path 74" d="M257.755,129.191s-4.622-12.184-13.563-3.93C244.192,125.26,249.178,136.819,257.755,129.191Z" transform="translate(-244.192 -122.392)" fill="#fff"/>
    </clipPath>
    <filter id="Rectangle_188" x="45.145" y="15.024" width="362" height="138" filterUnits="userSpaceOnUse">
      <feOffset dy="10" input="SourceAlpha"/>
      <feGaussianBlur stdDeviation="10" result="blur"/>
      <feFlood flood-opacity="0.071"/>
      <feComposite operator="in" in2="blur"/>
      <feComposite in="SourceGraphic"/>
    </filter>
  </defs>
  <g id="Group_2601" data-name="Group 2601" transform="translate(-1017.291 -4867.854)">
    <g id="Group_2600" data-name="Group 2600" transform="translate(-30.383 12)">
      <g id="OBJECTS" transform="translate(1011.652 4823.26)">
        <g id="Group_41" data-name="Group 41" transform="translate(36.985 33.558)">
          <g id="Group_31" data-name="Group 31" transform="translate(0)">
            <g id="Group_2" data-name="Group 2" transform="translate(18.764 50.993)">
              <g id="Group_1" data-name="Group 1" transform="translate(0 38.821)">
                <path id="Path_1" data-name="Path 1" d="M51.451,321.765q-.075-1.688-.125-3.361c-3.044-101.483,61.69-112.473,167-99.956,2.59.308,2.83,1.211,3.777,1.6,103.334,42.709,148.72,28.226,276.573-73.105C671.848,9.695,813.863,347.1,604.751,480.848H153.284c-5.776-3.155-11.168-6.289-16.167-9.347C87,440.832,54.234,384.4,51.451,321.765Z" transform="translate(8.825 -114.724)" fill="#6bcae2" opacity="0.329"/>
              </g>
            </g>
            <g id="Group_30" data-name="Group 30">
              <g id="Group_19" data-name="Group 19">
                <g id="Group_18" data-name="Group 18">
                  <path id="Path_5" data-name="Path 5" d="M394.362,40.886a7.328,7.328,0,1,0,7.328-7.328A7.328,7.328,0,0,0,394.362,40.886Z" transform="translate(-52.11 -33.558)" fill="none" stroke="#fdffff" stroke-miterlimit="10" stroke-width="1.928"/>
                  <path id="Path_6" data-name="Path 6" d="M703.658,388.579a7.328,7.328,0,1,0,7.328-7.328A7.328,7.328,0,0,0,703.658,388.579Z" transform="translate(-703.658 3.488)" fill="none" stroke="#fdffff" stroke-miterlimit="10" stroke-width="1.928"/>
                  <path id="Path_7" data-name="Path 7" d="M45.672,402.211a6.217,6.217,0,1,0,6.217-6.218A6.216,6.216,0,0,0,45.672,402.211Z" transform="translate(684.644 5.059)" fill="#fdffff"/>
                  <circle id="Ellipse_2" data-name="Ellipse 2" cx="6.217" cy="6.217" r="6.217" transform="translate(52.731 34.537)" fill="#fdffff"/>
                  <circle id="Ellipse_3" data-name="Ellipse 3" cx="6.217" cy="6.217" r="6.217" transform="translate(648.371 23.593)" fill="#fdffff"/>
                </g>
              </g>
              <g id="Group_29" data-name="Group 29" transform="translate(3.918 6.149)">
                <g id="Group_25" data-name="Group 25" transform="translate(703.999 338.263)">
                  <g id="Group_24" data-name="Group 24" transform="translate(0)">
                    <path id="Path_13" data-name="Path 13" d="M75.421,359.667l-12.606,3.357-12.607,3.357a7.556,7.556,0,1,1-3.888-14.6l12.606-3.357,12.606-3.357a7.557,7.557,0,0,1,3.89,14.6Z" transform="translate(-40.706 -344.806)" fill="#cfdbf7"/>
                    <g id="Group_23" data-name="Group 23" clip-path="url(#clip-path)">
                      <path id="Path_14" data-name="Path 14" d="M66.673,366.034a7.557,7.557,0,0,1-3.888-14.6l12.606-3.357,3.89,14.6Z" transform="translate(-57.171 -344.459)" fill="#6bcae2"/>
                      <path id="Path_15" data-name="Path 15" d="M52.122,369.562s-4.871-8.738,4.536-13.222l33.258-8.857L83,339.571l-18.58,2.687-5.642,1.361-19.516,8.449.717,11.716Z" transform="translate(-47.994 -345.364)" fill="#c4c4c4" opacity="0.28" style="mix-blend-mode: multiply;isolation: isolate"/>
                    </g>
                  </g>
                  <path id="Path_17" data-name="Path 17" d="M65.034,353.745l-18.873,5.026a1.368,1.368,0,0,0-.968,1.672h0a1.368,1.368,0,0,0,1.672.968l18.873-5.026a1.368,1.368,0,0,0,.968-1.672h0A1.368,1.368,0,0,0,65.034,353.745Z" transform="translate(-31.337 -343.859)" fill="#fff" opacity="0.34"/>
                </g>
                <g id="Group_28" data-name="Group 28" transform="translate(421.654)">
                  <g id="Group_27" data-name="Group 27" transform="translate(0)">
                    <path id="Path_18" data-name="Path 18" d="M308.633,41.189,320.854,51.2l12.221,10.015a9.153,9.153,0,1,1-11.6,14.158L309.25,65.362,297.03,55.347a9.153,9.153,0,0,1,11.6-14.158Z" transform="translate(-293.678 -39.115)" fill="#cfdbf7"/>
                    <g id="Group_26" data-name="Group 26" clip-path="url(#clip-path-2)">
                      <path id="Path_19" data-name="Path 19" d="M317.5,60.055a9.153,9.153,0,1,1-11.6,14.158L293.678,64.2l11.6-14.158Z" transform="translate(-278.106 -37.95)" fill="#6bcae2"/>
                      <path id="Path_20" data-name="Path 20" d="M339.643,64.262s-5.142,10.971-16.206,4.9L291.194,42.735l-2.885,12.394L304.1,71.491l5.33,4.583L331.545,89.28l11.009-9Z" transform="translate(-293.866 -38.729)" fill="#c4c4c4" opacity="0.28" style="mix-blend-mode: multiply;isolation: isolate"/>
                    </g>
                  </g>
                  <path id="Path_22" data-name="Path 22" d="M304.191,45.357l18.3,14.995a1.654,1.654,0,0,0,2.328-.231h0a1.654,1.654,0,0,0-.231-2.328L306.288,42.8a1.653,1.653,0,0,0-2.327.231h0A1.654,1.654,0,0,0,304.191,45.357Z" transform="translate(-293.406 -38.762)" fill="#fff" opacity="0.34"/>
                </g>
              </g>
            </g>
          </g>
        </g>
        <g id="Group_108" data-name="Group 108" transform="translate(51.681 76.512)">
          <g id="Group_86" data-name="Group 86" transform="translate(334.885)">
            <g id="Group_42" data-name="Group 42" transform="translate(141.774)">
              <path id="Path_29" data-name="Path 29" d="M173.592,84.749s0-21.944,42.2-7.385c36.559,12.615,25.6,38.962,39.464,81.483,17.15,52.594-24.09,70.612-43.718,65.833l-39.875-1.621-10.666-49.893Z" transform="translate(-135.545 -72.376)"/>
              <path id="Path_30" data-name="Path 30" d="M261.248,88.678s-7.783-13.512-20.125-7.287c-12.638,6.375-15.359,19.62-13.324,39.559,2.54,24.886-38.31,67.553,16.675,99.917l34.491,1.405Z" transform="translate(-215.576 -71.59)"/>
            </g>
            <g id="Group_71" data-name="Group 71" transform="translate(0 83.974)">
              <g id="Group_50" data-name="Group 50">
                <path id="Path_31" data-name="Path 31" d="M363.78,219.253S348.557,252.882,241.59,306.7L212.3,274.242l104.715-71.114Z" transform="translate(-154.991 -142.418)" fill="#fff"/>
                <g id="Group_49" data-name="Group 49">
                  <g id="Group_44" data-name="Group 44">
                    <path id="Path_32" data-name="Path 32" d="M347.531,267.642l-17.192-79.278,16.094-1.377,22.179,62.127Q358.4,258.828,347.531,267.642Z" transform="translate(-290.439 -144.138)" fill="#af6f3b"/>
                    <g id="Group_43" data-name="Group 43">
                      <path id="Path_33" data-name="Path 33" d="M406.52,188.86l-.165-4.195a36,36,0,0,0-4.5-16.073l-4.823-8.68a3.814,3.814,0,0,0-5.715-1.128h0A4.882,4.882,0,0,0,389.682,164l3.029,10.1-26.386-24.975a2.954,2.954,0,0,0-4.425.291l-.728.945a2.954,2.954,0,0,0,.11,3.74l17.146,17.436-22.465-17.3a2.955,2.955,0,0,0-4.389.565l-.492.727a2.953,2.953,0,0,0,.5,3.882l19,16.415-17.158-9.293a2.955,2.955,0,0,0-4.3,1.651l-.116.362a2.954,2.954,0,0,0,1.115,3.321l17.137,10.925L357.151,179.2a2.954,2.954,0,0,0-4.324,2.516h0a2.95,2.95,0,0,0,1.344,2.577l43.544,26.977,5.776-10.071A23,23,0,0,0,406.52,188.86Z" transform="translate(-348.863 -148.264)" fill="#af6f3b"/>
                      <path id="Path_34" data-name="Path 34" d="M363.584,171.612s-4.4,6.893-.828,16.484" transform="translate(-319.736 -145.776)" fill="none" stroke="#000" stroke-linecap="round" stroke-linejoin="round" stroke-width="0.99"/>
                    </g>
                  </g>
                  <g id="Group_48" data-name="Group 48" transform="translate(37.721 59.874)">
                    <g id="Group_47" data-name="Group 47" transform="translate(0)">
                      <g id="Group_46" data-name="Group 46" transform="translate(0)">
                        <g id="Group_45" data-name="Group 45">
                          <path id="Path_35" data-name="Path 35" d="M370.21,275.737,345.49,202.373l-31.759,12.1,14.87,78.765a22.563,22.563,0,0,0,30.475,15.38h0C370.53,303.9,376.041,290.833,370.21,275.737Z" transform="translate(-313.731 -202.373)" fill="#fff"/>
                          <line id="Line_4" data-name="Line 4" x2="5.707" y2="17.563" transform="translate(49.468 51.656)" fill="none" stroke="#cfdbf7" stroke-linecap="round" stroke-linejoin="round" stroke-width="1.406"/>
                        </g>
                      </g>
                    </g>
                  </g>
                </g>
              </g>
              <g id="Group_59" data-name="Group 59" transform="translate(117.243 47.13)">
                <path id="Path_36" data-name="Path 36" d="M267.068,196.264s26.053,9.7,34.639,16.446,10.375,21.634,3.506,42.241-30.883,91.019-30.883,91.019l30.82,126.681H159.926L179.561,347.79l-2.076-36.739s-13.56-37.817-.558-68.12C194.919,201,227.09,191.65,227.09,191.65Z" transform="translate(-159.926 -190.771)" fill="#fff"/>
                <g id="Group_58" data-name="Group 58" transform="translate(11.377)">
                  <g id="Group_52" data-name="Group 52" transform="translate(36.644 0.879)">
                    <path id="Path_37" data-name="Path 37" d="M217.347,191.65s-11.2,22.6-19.143,67.914c0,0,36.014-30,59.122-63.3l-16.542-4.614Z" transform="translate(-198.204 -191.65)" fill="#af6f3b"/>
                    <g id="Group_51" data-name="Group 51" transform="translate(0)" clip-path="url(#clip-path-3)">
                      <path id="Path_38" data-name="Path 38" d="M280.641,221.065s-59.021-14.47-88.178-7.281L189.721,269.1l39.923,10.448L260.183,230.8" transform="translate(-212.132 -189.505)" fill="#90b2f9"/>
                    </g>
                  </g>
                  <path id="Path_40" data-name="Path 40" d="M268.244,253.025,255.011,285.77l-3.378,180.342" transform="translate(-231.6 -184.232)" fill="none" stroke="#cfdbf7" stroke-linecap="round" stroke-linejoin="round" stroke-width="1.406"/>
                  <path id="Path_41" data-name="Path 41" d="M261.395,197.048l12.641,24.264-20.743,3.836,3.425,16.1-68.162,50.6-2.213-61.25,12.311-10.013-4.637-8.036,17.419-16.592" transform="translate(-165.145 -190.312)" fill="none" stroke="#cfdbf7" stroke-linecap="round" stroke-linejoin="round" stroke-width="1.406"/>
                  <path id="Path_42" data-name="Path 42" d="M275.065,281.1s-.6-31.1,10.716-50.839" transform="translate(-275.06 -186.657)" fill="none" stroke="#cfdbf7" stroke-linecap="round" stroke-linejoin="round" stroke-width="1.406"/>
                  <g id="Group_55" data-name="Group 55" transform="translate(67.363 2.753)">
                    <path id="Path_43" data-name="Path 43" d="M211.437,255.1l1.036-7.455a8.429,8.429,0,0,0-7.189-9.509h0a8.429,8.429,0,0,0-9.324,6.252l-1.31,8.38" transform="translate(-180.217 -188.58)" fill="none" stroke="#000" stroke-miterlimit="10" stroke-width="1.572"/>
                    <path id="Path_44" data-name="Path 44" d="M197.873,242.9s14.733-47.228-2.056-49.559" transform="translate(-172.807 -193.344)" fill="none" stroke="#000" stroke-miterlimit="10" stroke-width="1.572"/>
                    <g id="Group_53" data-name="Group 53" transform="translate(12.905 64.191)">
                      <path id="Path_45" data-name="Path 45" d="M194.982,251.354s-9.577,57.707,19.227,37.713" transform="translate(-193.454 -251.354)" fill="none" stroke="#cfdbf7" stroke-miterlimit="10" stroke-width="1.406"/>
                      <path id="Path_46" data-name="Path 46" d="M196.1,285.588a2.491,2.491,0,1,1-2.125-2.811A2.491,2.491,0,0,1,196.1,285.588Z" transform="translate(-172.813 -248.008)"/>
                    </g>
                    <g id="Group_54" data-name="Group 54" transform="translate(0 66.52)">
                      <path id="Path_47" data-name="Path 47" d="M224.453,253.459s-6.514,58.133-28.779,31.045" transform="translate(-193.25 -253.459)" fill="none" stroke="#cfdbf7" stroke-miterlimit="10" stroke-width="1.406"/>
                      <path id="Path_48" data-name="Path 48" d="M219.394,280.981a2.491,2.491,0,1,0,2.81-2.125A2.491,2.491,0,0,0,219.394,280.981Z" transform="translate(-219.37 -250.755)"/>
                    </g>
                  </g>
                  <g id="Group_57" data-name="Group 57" transform="translate(20.166)">
                    <path id="Path_49" data-name="Path 49" d="M233.733,242.3s9.317-49.573,28.961-51.448" transform="translate(-226.408 -190.856)" fill="none" stroke="#000" stroke-miterlimit="10" stroke-width="1.572"/>
                    <g id="Group_56" data-name="Group 56" transform="translate(0 50.651)">
                      <path id="Path_50" data-name="Path 50" d="M267.729,245.809c-.46,4.706-3.735,8.237-7.313,7.886s-6.1-4.448-5.645-9.154,3.735-8.237,7.313-7.887S268.189,241.1,267.729,245.809Z" transform="translate(-254.717 -236.629)"/>
                      <path id="Path_51" data-name="Path 51" d="M265.368,245.11c-.3,3.025-2.052,5.329-3.922,5.145s-3.145-2.783-2.849-5.807,2.052-5.329,3.922-5.147S265.664,242.086,265.368,245.11Z" transform="translate(-256.591 -236.346)" fill="#cfdbf7"/>
                    </g>
                  </g>
                </g>
              </g>
              <g id="Group_70" data-name="Group 70" transform="translate(69.001 66.914)">
                <g id="Group_60" data-name="Group 60" transform="translate(168.547)">
                  <path id="Path_52" data-name="Path 52" d="M128.44,208.735s38.752,12.542,65.989,146.135L153.194,369.5,110.107,256.878Z" transform="translate(-110.107 -208.735)" fill="#fff"/>
                  <line id="Line_5" data-name="Line 5" x1="9.972" y1="27.634" transform="translate(4.242 60.35)" fill="none" stroke="#cfdbf7" stroke-linecap="round" stroke-linejoin="round" stroke-width="1.406"/>
                </g>
                <g id="Group_69" data-name="Group 69" transform="translate(0 63.328)">
                  <g id="Group_66" data-name="Group 66" transform="translate(109.651 58.875)">
                    <g id="Group_65" data-name="Group 65" transform="translate(0)">
                      <g id="Group_64" data-name="Group 64">
                        <g id="Group_61" data-name="Group 61" transform="translate(0 8.801)">
                          <path id="Path_53" data-name="Path 53" d="M247.218,327.125l-74.586.331-5.215,17.68,74.159,10.236Z" transform="translate(-167.417 -327.125)" fill="#af6f3b"/>
                        </g>
                        <g id="Group_63" data-name="Group 63" transform="translate(36.504)">
                          <g id="Group_62" data-name="Group 62" transform="translate(0)">
                            <path id="Path_54" data-name="Path 54" d="M190.3,319.357l-80.461,4.117L112.85,361.7l80.945,5.793c14.75-.063,24.952-9.8,22.757-24.388h0C214.578,329.973,203.446,317.493,190.3,319.357Z" transform="translate(-109.839 -319.171)" fill="#fff"/>
                            <path id="Path_55" data-name="Path 55" d="M213.631,319.706l-73.589,3.712.354,4.5" transform="translate(-140.042 -319.114)" fill="none" stroke="#cfdbf7" stroke-linecap="round" stroke-linejoin="round" stroke-width="1.406"/>
                          </g>
                        </g>
                      </g>
                    </g>
                    <path id="Path_56" data-name="Path 56" d="M178.966,349.073l.743,9.441,27.506,2.849" transform="translate(-140.195 -315.985)" fill="none" stroke="#cfdbf7" stroke-linecap="round" stroke-linejoin="round" stroke-width="1.406"/>
                  </g>
                  <g id="Group_68" data-name="Group 68">
                    <g id="Group_67" data-name="Group 67">
                      <path id="Path_57" data-name="Path 57" d="M316.3,278.983l29.4,104.338a6.051,6.051,0,0,1-5.824,7.692H271.551a6.051,6.051,0,0,1-5.786-4.28L233.831,282.394a6.051,6.051,0,0,1,5.786-7.821H310.48A6.05,6.05,0,0,1,316.3,278.983Z" transform="translate(-229.679 -265.048)"/>
                      <path id="Path_58" data-name="Path 58" d="M317.565,272.142s-4.86-6.958-16.235-6.1c-12.669.953-10.6,12.211-10.6,12.211Z" transform="translate(-264.423 -265.965)"/>
                      <path id="Path_59" data-name="Path 59" d="M317.257,275.224l24.52,87.008a5.046,5.046,0,0,1-4.857,6.415H279.936a5.047,5.047,0,0,1-4.826-3.57l-26.629-87.008a5.045,5.045,0,0,1,4.825-6.522H312.4A5.045,5.045,0,0,1,317.257,275.224Z" transform="translate(-241.97 -265.371)"/>
                      <path id="Path_60" data-name="Path 60" d="M319.814,278.983l29.4,104.338a6.05,6.05,0,0,1-5.824,7.692H275.06a6.052,6.052,0,0,1-5.786-4.28L237.341,282.394a6.05,6.05,0,0,1,5.785-7.821h70.863A6.052,6.052,0,0,1,319.814,278.983Z" transform="translate(-237.071 -265.048)" fill="#eab65b"/>
                    </g>
                    <path id="Path_61" data-name="Path 61" d="M281.78,332.392s-2.715-11.019-25.478-22.041l3.354,12.221s-10.892-1.622-25.915-8.719a2.994,2.994,0,0,0-2.556,5.413l5.267,2.586-8.84-2.21a2.875,2.875,0,0,0-1.882,5.408,91.445,91.445,0,0,0,9.621,3.493h0s-4.224-.488-8.548-1.266a2.817,2.817,0,0,0-3.337,2.2,2.764,2.764,0,0,0,1.608,3.05,109.445,109.445,0,0,0,11.881,4.322c-3.988-.233-8.405-1.016-9.022.458s-.51,2.932,10.711,6.12,26.362,8.289,36.181,5.867l12.389-5.123V330.479Z" transform="translate(-159.725 -261.236)" fill="#af6f3b"/>
                  </g>
                </g>
              </g>
            </g>
            <g id="Group_85" data-name="Group 85" transform="translate(148.882 5.782)">
              <g id="Group_84" data-name="Group 84" transform="translate(0)">
                <g id="Group_83" data-name="Group 83" transform="translate(0)">
                  <path id="Path_62" data-name="Path 62" d="M241.867,131.813c-1.336,5.743,2.657,12.053,8.917,14.093s12.417-.959,13.751-6.7-2.657-12.051-8.917-14.092S243.2,126.071,241.867,131.813Z" transform="translate(-237.318 -72.608)" fill="#965726"/>
                  <path id="Path_63" data-name="Path 63" d="M177.744,119.216c-.33,23.288,15.637,42.371,40.714,42.726s45.675-18.235,46-41.523-19.732-42.457-44.81-42.812S178.074,95.928,177.744,119.216Z" transform="translate(-166.319 -77.602)"/>
                  <path id="Path_64" data-name="Path 64" d="M230.64,146.536l6.367,56.128L206.545,206.2l2.623-53.072Z" transform="translate(-170.733 -70.257)" fill="#af6f3b"/>
                  <path id="Path_65" data-name="Path 65" d="M209.611,189.068l26.322-31.939-24.57-.865Z" transform="translate(-173.053 -69.22)" fill="#965726"/>
                  <path id="Path_66" data-name="Path 66" d="M240.642,89.189a50.247,50.247,0,0,0-22.668-1.3C207.827,89.755,194.785,95.656,193,113.51c-2.974,29.754,1.963,52.131,17.148,59.167,11.656,5.4,18.79,3.568,32.33-3.753,5.038-2.724,13.375-12.77,13.553-18.717l5.155-14.655S275.787,99.16,240.642,89.189Z" transform="translate(-182.018 -76.585)" fill="#af6f3b"/>
                  <g id="Group_81" data-name="Group 81" transform="translate(0 34.441)">
                    <g id="Group_79" data-name="Group 79" transform="translate(8.961)">
                      <g id="Group_72" data-name="Group 72" transform="translate(16.402 27.009)">
                        <path id="Path_67" data-name="Path 67" d="M243.351,141.951l-3.649-2.957,4.221-5.86" transform="translate(-239.702 -133.134)" fill="none" stroke="#000" stroke-linecap="round" stroke-linejoin="round" stroke-width="0.809"/>
                      </g>
                      <g id="Group_75" data-name="Group 75" transform="translate(28.839 15.21)">
                        <g id="Group_74" data-name="Group 74" transform="translate(0.382 0.785)">
                          <path id="Path_68" data-name="Path 68" d="M213.176,129.374s4.78-11.867,20.754-2.751C233.93,126.624,225.744,137.359,213.176,129.374Z" transform="translate(-213.176 -123.18)" fill="#fff"/>
                          <g id="Group_73" data-name="Group 73" transform="translate(0)" clip-path="url(#clip-path-4)">
                            <path id="Path_69" data-name="Path 69" d="M218.334,126.768a5.637,5.637,0,1,0,6.352-5.016A5.724,5.724,0,0,0,218.334,126.768Z" transform="translate(-214.452 -123.337)"/>
                          </g>
                        </g>
                        <path id="Path_71" data-name="Path 71" d="M234.227,126.432a17.339,17.339,0,0,0-11.341-3.961,12.429,12.429,0,0,0-6.058,1.306,7.876,7.876,0,0,0-3.948,5.025.73.73,0,0,0,1.42.344l.006-.023.017-.084a6.594,6.594,0,0,1,3.123-4.184,11.244,11.244,0,0,1,5.462-1.357,16.487,16.487,0,0,1,10.856,3.469.355.355,0,0,0,.5-.038A.36.36,0,0,0,234.227,126.432Z" transform="translate(-212.859 -122.471)"/>
                      </g>
                      <g id="Group_78" data-name="Group 78" transform="translate(1.79 14.776)">
                        <g id="Group_77" data-name="Group 77" transform="translate(0.301 0.347)">
                          <path id="Path_72" data-name="Path 72" d="M257.755,129.191s-4.622-12.184-13.563-3.93C244.192,125.26,249.178,136.819,257.755,129.191Z" transform="translate(-244.192 -122.392)" fill="#fff"/>
                          <g id="Group_76" data-name="Group 76" transform="translate(0)" clip-path="url(#clip-path-5)">
                            <path id="Path_73" data-name="Path 73" d="M255.184,126.252c.419,2.771-1.018,5.286-3.212,5.619s-4.313-1.644-4.733-4.415,1.018-5.287,3.212-5.619S254.764,123.481,255.184,126.252Z" transform="translate(-244.985 -122.455)"/>
                          </g>
                        </g>
                        <path id="Path_75" data-name="Path 75" d="M244.43,125.464a5.583,5.583,0,0,1,5.893-2.392l.06.013c3.045.507,5.431,3.033,6.5,5.813l.017.042a.617.617,0,1,0,1.152-.44l-.008-.02a10.006,10.006,0,0,0-7.522-6.262l.058.012a6.313,6.313,0,0,0-6.637,2.894.3.3,0,0,0,.07.417A.317.317,0,0,0,244.43,125.464Z" transform="translate(-243.883 -122.079)"/>
                      </g>
                      <path id="Path_76" data-name="Path 76" d="M259.425,113.264a2.95,2.95,0,0,1-2.546,3.8c-2.6.443-5.66.676-7.122,1.379a1.727,1.727,0,0,1-2.272-.842h0a2.406,2.406,0,0,1,.009-2.319c.819-1.412,3.967-3.594,7.127-4.183C258.682,110.339,259.425,113.264,259.425,113.264Z" transform="translate(-247.192 -108.487)"/>
                      <path id="Path_77" data-name="Path 77" d="M213.423,110.972s-1.188,3.257,3.7,3.945a77.34,77.34,0,0,1,11.644,2.881,2.867,2.867,0,0,0,3.217-.8h0a1.866,1.866,0,0,0-.06-2.367c-1.194-1.463-7.2-5.057-11.711-5.744C214.421,108.008,213.423,110.972,213.423,110.972Z" transform="translate(-182.537 -108.726)"/>
                      <path id="Path_78" data-name="Path 78" d="M227.128,145.579l17.628-.427s-.017,7.174-8.374,7.351C227.437,152.692,227.128,145.579,227.128,145.579Z" transform="translate(-210.22 -104.845)" fill="#fff"/>
                    </g>
                    <g id="Group_80" data-name="Group 80" transform="translate(0 5.106)">
                      <ellipse id="Ellipse_4" data-name="Ellipse 4" cx="14.065" cy="14.065" rx="14.065" ry="14.065" transform="matrix(-0.154, -0.988, 0.988, -0.154, 35.376, 32.139)" fill="#fff" opacity="0.3"/>
                      <ellipse id="Ellipse_5" data-name="Ellipse 5" cx="12.719" cy="14.065" rx="12.719" ry="14.065" transform="translate(0 2.869)" fill="#fff" opacity="0.3"/>
                      <ellipse id="Ellipse_6" data-name="Ellipse 6" cx="14.065" cy="14.065" rx="14.065" ry="14.065" transform="matrix(-0.154, -0.988, 0.988, -0.154, 35.376, 32.139)" fill="none" stroke="#eab65b" stroke-miterlimit="10" stroke-width="1.01"/>
                      <ellipse id="Ellipse_7" data-name="Ellipse 7" cx="12.719" cy="14.065" rx="12.719" ry="14.065" transform="translate(0 2.869)" fill="none" stroke="#eab65b" stroke-miterlimit="10" stroke-width="1.01"/>
                      <path id="Path_79" data-name="Path 79" d="M236.58,128.443a7.672,7.672,0,0,1,7.606-.184" transform="translate(-211.148 -111.849)" fill="none" stroke="#eab65b" stroke-miterlimit="10" stroke-width="1.01"/>
                      <line id="Line_6" data-name="Line 6" x2="10.588" y2="5.966" transform="translate(61.147 15.366)" fill="none" stroke="#eab65b" stroke-miterlimit="10" stroke-width="1.01"/>
                    </g>
                  </g>
                  <path id="Path_80" data-name="Path 80" d="M235.513,129.173s-55.3-16.747-48.927-48.33c0,0,20.095-5.357,36.157,12.563S235.513,129.173,235.513,129.173Z" transform="translate(-146.866 -77.336)"/>
                  <path id="Path_81" data-name="Path 81" d="M189.516,115.714v28.839l13.337-21.374Z" transform="translate(-117.736 -73.541)"/>
                  <g id="Group_82" data-name="Group 82" transform="translate(68.274 56.625)">
                    <path id="Path_82" data-name="Path 82" d="M206.712,136.116c1.336,5.743-2.657,12.053-8.917,14.093s-12.417-.959-13.751-6.7,2.657-12.051,8.917-14.093S205.378,130.374,206.712,136.116Z" transform="translate(-183.787 -128.774)" fill="#af6f3b"/>
                    <path id="Path_83" data-name="Path 83" d="M199.913,135.907s-6.819-1.612-10.4,5.743" transform="translate(-183.07 -128.03)" fill="none" stroke="#000" stroke-linecap="round" stroke-linejoin="round" stroke-width="0.961"/>
                  </g>
                </g>
                <path id="Path_84" data-name="Path 84" d="M253.7,92.156s-10-3.376-15.158,2.968c-6.9,8.5-10.149,16.725-18.181,18.88,0,0-2.651-28.89,29.782-31.5l14.485,5.137Z" transform="translate(-213.584 -77.079)"/>
              </g>
            </g>
          </g>
          <g id="Group_107" data-name="Group 107" transform="translate(143.227 214.974)">
            <g id="Group_103" data-name="Group 103" transform="translate(0)">
              <rect id="Rectangle_10" data-name="Rectangle 10" width="176.113" height="109.556" transform="translate(0 30.966)" fill="#fff"/>
              <path id="Path_94" data-name="Path 94" d="M668.864,327.675v19.173H492.751V327.675a6.9,6.9,0,0,1,6.9-6.9H661.967A6.9,6.9,0,0,1,668.864,327.675Z" transform="translate(-492.751 -315.883)" fill="#90dff4"/>
              <g id="Group_92" data-name="Group 92" transform="translate(145.414)">
                <g id="Group_91" data-name="Group 91" transform="translate(0)">
                  <circle id="Ellipse_8" data-name="Ellipse 8" cx="4.081" cy="4.081" r="4.081" transform="translate(0 14.878)" fill="#62c1d9"/>
                  <path id="Path_95" data-name="Path 95" d="M517.031,336.846h0a2.339,2.339,0,0,0,2.339-2.339V318.693a2.339,2.339,0,0,0-2.339-2.339h0a2.34,2.34,0,0,0-2.339,2.339v15.814A2.339,2.339,0,0,0,517.031,336.846Z" transform="translate(-512.95 -316.354)" fill="#62c1d9"/>
                </g>
              </g>
              <g id="Group_94" data-name="Group 94" transform="translate(120.525)">
                <g id="Group_93" data-name="Group 93" transform="translate(0)">
                  <circle id="Ellipse_9" data-name="Ellipse 9" cx="4.081" cy="4.081" r="4.081" transform="translate(0 14.878)" fill="#62c1d9"/>
                  <path id="Path_96" data-name="Path 96" d="M539.523,336.846h0a2.339,2.339,0,0,0,2.339-2.339V318.693a2.34,2.34,0,0,0-2.339-2.339h0a2.339,2.339,0,0,0-2.339,2.339v15.814A2.339,2.339,0,0,0,539.523,336.846Z" transform="translate(-535.442 -316.354)" fill="#62c1d9"/>
                </g>
              </g>
              <g id="Group_96" data-name="Group 96" transform="translate(95.636)">
                <g id="Group_95" data-name="Group 95" transform="translate(0)">
                  <circle id="Ellipse_10" data-name="Ellipse 10" cx="4.081" cy="4.081" r="4.081" transform="translate(0 14.878)" fill="#62c1d9"/>
                  <path id="Path_97" data-name="Path 97" d="M562.015,336.846h0a2.339,2.339,0,0,0,2.339-2.339V318.693a2.34,2.34,0,0,0-2.339-2.339h0a2.339,2.339,0,0,0-2.339,2.339v15.814A2.339,2.339,0,0,0,562.015,336.846Z" transform="translate(-557.934 -316.354)" fill="#62c1d9"/>
                </g>
              </g>
              <g id="Group_98" data-name="Group 98" transform="translate(70.748)">
                <g id="Group_97" data-name="Group 97" transform="translate(0)">
                  <circle id="Ellipse_11" data-name="Ellipse 11" cx="4.081" cy="4.081" r="4.081" transform="translate(0 14.878)" fill="#62c1d9"/>
                  <path id="Path_98" data-name="Path 98" d="M584.507,336.846h0a2.339,2.339,0,0,0,2.339-2.339V318.693a2.34,2.34,0,0,0-2.339-2.339h0a2.339,2.339,0,0,0-2.339,2.339v15.814A2.339,2.339,0,0,0,584.507,336.846Z" transform="translate(-580.425 -316.354)" fill="#62c1d9"/>
                </g>
              </g>
              <g id="Group_100" data-name="Group 100" transform="translate(45.859)">
                <g id="Group_99" data-name="Group 99" transform="translate(0)">
                  <circle id="Ellipse_12" data-name="Ellipse 12" cx="4.081" cy="4.081" r="4.081" transform="translate(0 14.878)" fill="#62c1d9"/>
                  <path id="Path_99" data-name="Path 99" d="M607,336.846h0a2.339,2.339,0,0,0,2.339-2.339V318.693A2.339,2.339,0,0,0,607,316.354h0a2.34,2.34,0,0,0-2.339,2.339v15.814A2.339,2.339,0,0,0,607,336.846Z" transform="translate(-602.919 -316.354)" fill="#62c1d9"/>
                </g>
              </g>
              <g id="Group_102" data-name="Group 102" transform="translate(20.97)">
                <g id="Group_101" data-name="Group 101" transform="translate(0)">
                  <circle id="Ellipse_13" data-name="Ellipse 13" cx="4.081" cy="4.081" r="4.081" transform="translate(0 14.878)" fill="#62c1d9"/>
                  <path id="Path_100" data-name="Path 100" d="M629.492,336.846h0a2.338,2.338,0,0,0,2.339-2.339V318.693a2.339,2.339,0,0,0-2.339-2.339h0a2.34,2.34,0,0,0-2.339,2.339v15.814A2.339,2.339,0,0,0,629.492,336.846Z" transform="translate(-625.411 -316.354)" fill="#62c1d9"/>
                </g>
              </g>
            </g>
            <g id="Group_104" data-name="Group 104" transform="translate(11.508 45.099)">
              <rect id="Rectangle_11" data-name="Rectangle 11" width="23.103" height="23.103" transform="translate(92.212)" fill="#e5eaf7"/>
              <rect id="Rectangle_12" data-name="Rectangle 12" width="23.103" height="23.103" transform="translate(61.475)" fill="#e5eaf7"/>
              <rect id="Rectangle_13" data-name="Rectangle 13" width="23.103" height="23.103" transform="translate(30.737)" fill="#e5eaf7"/>
              <rect id="Rectangle_14" data-name="Rectangle 14" width="23.103" height="23.103" transform="translate(0)" fill="#e5eaf7"/>
              <rect id="Rectangle_15" data-name="Rectangle 15" width="23.103" height="23.103" transform="translate(122.949)" fill="#eab65b"/>
            </g>
            <g id="Group_105" data-name="Group 105" transform="translate(11.508 74.425)">
              <rect id="Rectangle_16" data-name="Rectangle 16" width="23.103" height="23.103" transform="translate(92.212)" fill="#e5eaf7"/>
              <rect id="Rectangle_17" data-name="Rectangle 17" width="23.103" height="23.103" transform="translate(61.475)" fill="#e5eaf7"/>
              <rect id="Rectangle_18" data-name="Rectangle 18" width="23.103" height="23.103" transform="translate(30.737)" fill="#eab65b"/>
              <rect id="Rectangle_19" data-name="Rectangle 19" width="23.103" height="23.103" transform="translate(0)" fill="#e5eaf7"/>
              <rect id="Rectangle_20" data-name="Rectangle 20" width="23.103" height="23.103" transform="translate(122.949)" fill="#e5eaf7"/>
            </g>
            <g id="Group_106" data-name="Group 106" transform="translate(11.508 103.751)">
              <rect id="Rectangle_21" data-name="Rectangle 21" width="23.103" height="23.103" transform="translate(92.212)" fill="#eab65b"/>
              <rect id="Rectangle_22" data-name="Rectangle 22" width="23.103" height="23.103" transform="translate(61.475)" fill="#e5eaf7"/>
              <rect id="Rectangle_23" data-name="Rectangle 23" width="23.103" height="23.103" transform="translate(30.737)" fill="#e5eaf7"/>
              <rect id="Rectangle_24" data-name="Rectangle 24" width="23.103" height="23.103" transform="translate(0)" fill="#e5eaf7"/>
              <rect id="Rectangle_25" data-name="Rectangle 25" width="23.103" height="23.103" transform="translate(122.949)" fill="#e5eaf7"/>
            </g>
          </g>
          <line id="Line_9" data-name="Line 9" x1="460" transform="translate(161 412.984)" fill="none" stroke="#6bcae2" stroke-miterlimit="10" stroke-width="2.926"/>
        </g>
      </g>
      <g id="Group_2599" data-name="Group 2599" transform="translate(-18.757 -144)">
        <g transform="matrix(1, 0, 0, 1, 1066.43, 4999.85)" filter="url(#Rectangle_188)">
          <rect id="Rectangle_188-2" data-name="Rectangle 188" width="302" height="78" rx="16" transform="translate(75.15 35.02)" fill="#fff"/>
        </g>
        <g id="Group_2446" data-name="Group 2446" transform="translate(-347.386 750.88)">
          <path id="Icon_awesome-star" data-name="Icon awesome-star" d="M18.232,1.252l-4.591,9.309-10.273,1.5A2.251,2.251,0,0,0,2.123,15.9L9.555,23.14,7.8,33.37a2.249,2.249,0,0,0,3.262,2.37l9.19-4.83,9.19,4.83A2.25,2.25,0,0,0,32.7,33.37L30.945,23.14,38.377,15.9a2.251,2.251,0,0,0-1.245-3.839l-10.273-1.5L22.268,1.252a2.252,2.252,0,0,0-4.036,0Z" transform="translate(1517.52 4304.999)" fill="#eece00"/>
          <path id="Icon_awesome-star-2" data-name="Icon awesome-star" d="M18.232,1.252l-4.591,9.309-10.273,1.5A2.251,2.251,0,0,0,2.123,15.9L9.555,23.14,7.8,33.37a2.249,2.249,0,0,0,3.262,2.37l9.19-4.83,9.19,4.83A2.25,2.25,0,0,0,32.7,33.37L30.945,23.14,38.377,15.9a2.251,2.251,0,0,0-1.245-3.839l-10.273-1.5L22.268,1.252a2.252,2.252,0,0,0-4.036,0Z" transform="translate(1568.52 4304.999)" fill="#eece00"/>
          <path id="Icon_awesome-star-3" data-name="Icon awesome-star" d="M18.232,1.252l-4.591,9.309-10.273,1.5A2.251,2.251,0,0,0,2.123,15.9L9.555,23.14,7.8,33.37a2.249,2.249,0,0,0,3.262,2.37l9.19-4.83,9.19,4.83A2.25,2.25,0,0,0,32.7,33.37L30.945,23.14,38.377,15.9a2.251,2.251,0,0,0-1.245-3.839l-10.273-1.5L22.268,1.252a2.252,2.252,0,0,0-4.036,0Z" transform="translate(1619.52 4304.999)" fill="#eece00"/>
          <path id="Icon_awesome-star-4" data-name="Icon awesome-star" d="M18.232,1.252l-4.591,9.309-10.273,1.5A2.251,2.251,0,0,0,2.123,15.9L9.555,23.14,7.8,33.37a2.249,2.249,0,0,0,3.262,2.37l9.19-4.83,9.19,4.83A2.25,2.25,0,0,0,32.7,33.37L30.945,23.14,38.377,15.9a2.251,2.251,0,0,0-1.245-3.839l-10.273-1.5L22.268,1.252a2.252,2.252,0,0,0-4.036,0Z" transform="translate(1670.52 4304.999)" fill="#eece00"/>
          <path id="Icon_awesome-star-5" data-name="Icon awesome-star" d="M18.232,1.252l-4.591,9.309-10.273,1.5A2.251,2.251,0,0,0,2.123,15.9L9.555,23.14,7.8,33.37a2.249,2.249,0,0,0,3.262,2.37l9.19-4.83,9.19,4.83A2.25,2.25,0,0,0,32.7,33.37L30.945,23.14,38.377,15.9a2.251,2.251,0,0,0-1.245-3.839l-10.273-1.5L22.268,1.252a2.252,2.252,0,0,0-4.036,0Z" transform="translate(1721.52 4304.999)" fill="#eece00"/>
        </g>
      </g>
    </g>
  </g>
</svg>
