<svg width="68" height="68" viewBox="0 0 68 68" fill="none" xmlns="http://www.w3.org/2000/svg">
<path d="M27.625 13.8125H30.8125V10.625C30.8125 10.3432 30.9244 10.073 31.1237 9.8737C31.323 9.67444 31.5932 9.5625 31.875 9.5625H36.125C36.4068 9.5625 36.677 9.67444 36.8763 9.8737C37.0756 10.073 37.1875 10.3432 37.1875 10.625V13.8125H40.375C40.6568 13.8125 40.927 13.9244 41.1263 14.1237C41.3256 14.323 41.4375 14.5932 41.4375 14.875V19.125C41.4375 19.4068 41.3256 19.677 41.1263 19.8763C40.927 20.0756 40.6568 20.1875 40.375 20.1875H37.1875V23.375C37.1875 23.6568 37.0756 23.927 36.8763 24.1263C36.677 24.3256 36.4068 24.4375 36.125 24.4375H31.875C31.5932 24.4375 31.323 24.3256 31.1237 24.1263C30.9244 23.927 30.8125 23.6568 30.8125 23.375V20.1875H27.625C27.3432 20.1875 27.073 20.0756 26.8737 19.8763C26.6744 19.677 26.5625 19.4068 26.5625 19.125V14.875C26.5625 14.5932 26.6744 14.323 26.8737 14.1237C27.073 13.9244 27.3432 13.8125 27.625 13.8125ZM28.6875 18.0625H31.875C32.1568 18.0625 32.427 18.1744 32.6263 18.3737C32.8256 18.573 32.9375 18.8432 32.9375 19.125V22.3125H35.0625V19.125C35.0625 18.8432 35.1744 18.573 35.3737 18.3737C35.573 18.1744 35.8432 18.0625 36.125 18.0625H39.3125V15.9375H36.125C35.8432 15.9375 35.573 15.8256 35.3737 15.6263C35.1744 15.427 35.0625 15.1568 35.0625 14.875V11.6875H32.9375V14.875C32.9375 15.1568 32.8256 15.427 32.6263 15.6263C32.427 15.8256 32.1568 15.9375 31.875 15.9375H28.6875V18.0625Z" fill="white"/>
<path d="M4.53688 19.5074C4.51537 19.3205 4.50473 19.1325 4.50501 18.9443C4.51016 17.9704 4.848 17.0275 5.46252 16.2719C6.07703 15.5163 6.93132 14.9934 7.88375 14.7899C8.96109 14.5849 10.0761 14.7967 11.0032 15.3825C11.9303 15.9684 12.6002 16.8845 12.8775 17.9456L17.5525 31.3968C17.6218 31.4243 17.6892 31.4562 17.7544 31.4924L27.1469 36.9962C28.5841 37.8404 29.7762 39.045 30.6055 40.491C31.4347 41.937 31.8722 43.5743 31.875 45.2412V55.2499C32.1568 55.2499 32.427 55.3619 32.6263 55.5611C32.8256 55.7604 32.9375 56.0306 32.9375 56.3124V64.8124C32.9375 65.0942 32.8256 65.3645 32.6263 65.5637C32.427 65.763 32.1568 65.8749 31.875 65.8749H17C16.7182 65.8749 16.448 65.763 16.2487 65.5637C16.0494 65.3645 15.9375 65.0942 15.9375 64.8124V56.3124C15.9375 56.0306 16.0494 55.7604 16.2487 55.5611C16.448 55.3619 16.7182 55.2499 17 55.2499V52.9124C16.998 52.4637 16.9025 52.0202 16.7196 51.6105C16.5366 51.2007 16.2703 50.8335 15.9375 50.5324L8.75501 44.1468C7.96935 43.4594 7.40697 42.5529 7.14001 41.5437L2.52876 24.2993C2.43031 23.9392 2.38029 23.5676 2.38001 23.1943C2.38418 22.4445 2.58571 21.709 2.96433 21.0618C3.34295 20.4146 3.88532 19.8785 4.53688 19.5074V19.5074ZM10.8481 18.5724C10.7177 18.023 10.385 17.5428 9.91631 17.2278C9.44764 16.9127 8.87744 16.7858 8.31938 16.8724C7.84314 16.9722 7.41556 17.2323 7.10808 17.6094C6.80059 17.9865 6.63184 18.4577 6.63001 18.9443V18.9656C7.57908 18.9832 8.49642 19.3103 9.24249 19.8972C9.98856 20.4841 10.5225 21.2986 10.7631 22.2168L13.7275 31.3649C14.1763 31.152 14.6575 31.0156 15.1513 30.9612L10.8481 18.5724ZM18.0625 63.7499H30.8125V57.3749H18.0625V63.7499ZM4.57938 23.7468L9.20126 41.0018C9.36116 41.6014 9.69368 42.1408 10.1575 42.5531L17.3506 48.9387C17.9072 49.4406 18.3526 50.0535 18.6582 50.7378C18.9638 51.4222 19.1228 52.1629 19.125 52.9124V55.2499H29.75V45.2412C29.7447 43.9449 29.4032 42.6721 28.7589 41.5472C28.1145 40.4224 27.1893 39.484 26.0738 38.8237L16.6919 33.3306C16.45 33.1896 16.1826 33.0979 15.9051 33.0606C15.6277 33.0233 15.3456 33.0412 15.075 33.1133C14.8045 33.1853 14.5509 33.3102 14.3288 33.4806C14.1066 33.651 13.9203 33.8636 13.7806 34.1062C13.5047 34.5971 13.4285 35.1756 13.5681 35.7212C13.6419 35.9906 13.7681 36.2428 13.9395 36.4634C14.1109 36.684 14.3241 36.8687 14.5669 37.0068L20.655 40.5237C20.8863 40.6707 21.0518 40.9014 21.117 41.1676C21.1822 41.4337 21.142 41.7148 21.0049 41.9521C20.8677 42.1893 20.6442 42.3644 20.381 42.4408C20.1178 42.5171 19.8353 42.4888 19.5925 42.3618L13.5044 38.8449C13.0177 38.5688 12.5913 38.1982 12.2501 37.7548C11.9088 37.3114 11.6598 36.8042 11.5175 36.2631C11.2283 35.1759 11.3811 34.0185 11.9425 33.0437L12.0063 32.9481L8.72313 22.8224C8.5927 22.273 8.25999 21.7928 7.79131 21.4777C7.32264 21.1627 6.75244 21.0358 6.19438 21.1224C5.71814 21.2222 5.29056 21.4823 4.98308 21.8594C4.67559 22.2365 4.50684 22.7077 4.50501 23.1943C4.50143 23.3812 4.52651 23.5675 4.57938 23.7468V23.7468Z" fill="white"/>
<path d="M36.125 55.2499V45.2412C36.1277 43.5743 36.5653 41.937 37.3945 40.491C38.2237 39.0451 39.4158 37.8404 40.8531 36.9962L50.2456 31.4818C50.3093 31.4499 50.3837 31.4287 50.4475 31.3968L55.0906 18.0199C55.3605 16.9434 56.0304 16.0102 56.964 15.4101C57.8976 14.81 59.0248 14.5883 60.1162 14.7899C61.0686 14.9934 61.9229 15.5163 62.5375 16.2719C63.152 17.0275 63.4898 17.9704 63.495 18.9443C63.4952 19.1325 63.4846 19.3205 63.4631 19.5074C64.1147 19.8785 64.657 20.4146 65.0356 21.0618C65.4143 21.709 65.6158 22.4445 65.62 23.1943C65.6179 23.5668 65.5715 23.9378 65.4818 24.2993L60.86 41.5331C60.5958 42.5465 60.0332 43.4572 59.245 44.1468L52.0731 50.5324C51.737 50.8314 51.4677 51.1979 51.2828 51.608C51.0979 52.0181 51.0015 52.4626 51 52.9124V55.2499C51.2818 55.2499 51.552 55.3619 51.7513 55.5611C51.9505 55.7604 52.0625 56.0307 52.0625 56.3124V64.8124C52.0625 65.0942 51.9505 65.3645 51.7513 65.5637C51.552 65.763 51.2818 65.8749 51 65.8749H36.125C35.8432 65.8749 35.5729 65.763 35.3737 65.5637C35.1744 65.3645 35.0625 65.0942 35.0625 64.8124V56.3124C35.0625 56.0307 35.1744 55.7604 35.3737 55.5611C35.5729 55.3619 35.8432 55.2499 36.125 55.2499ZM61.37 18.9443C61.3687 18.4592 61.2014 17.9892 60.896 17.6123C60.5906 17.2354 60.1655 16.9743 59.6912 16.8724C59.1178 16.7892 58.5342 16.9258 58.0573 17.2549C57.5804 17.584 57.2456 18.0812 57.12 18.6468L52.8487 30.9612C53.3425 31.0156 53.8237 31.1521 54.2725 31.3649L57.2156 22.2699C57.4551 21.3426 57.9901 20.5186 58.7397 19.9224C59.4892 19.3262 60.4125 18.9903 61.37 18.9656V18.9443ZM50.66 48.9387L57.8425 42.5531C58.3088 42.1386 58.6417 41.595 58.7987 40.9912L63.4312 23.7468C63.4752 23.566 63.4966 23.3804 63.495 23.1943C63.4937 22.7092 63.3264 22.2392 63.021 21.8623C62.7156 21.4854 62.2905 21.2243 61.8162 21.1224C61.2469 21.037 60.6663 21.1703 60.1912 21.4955C59.7162 21.8208 59.3819 22.3139 59.2556 22.8756L55.9937 32.9481L56.0575 33.0437C56.6189 34.0185 56.7717 35.1759 56.4825 36.2631C56.3402 36.8042 56.0911 37.3114 55.7499 37.7548C55.4087 38.1982 54.9822 38.5688 54.4956 38.8449L48.4075 42.3618C48.1646 42.4888 47.8821 42.5171 47.6189 42.4408C47.3557 42.3644 47.1322 42.1893 46.9951 41.9521C46.8579 41.7148 46.8178 41.4337 46.883 41.1676C46.9482 40.9014 47.1137 40.6707 47.345 40.5237L53.4331 37.0068C53.6759 36.8687 53.8891 36.684 54.0605 36.4634C54.2318 36.2428 54.358 35.9906 54.4318 35.7212C54.5714 35.1756 54.4953 34.5971 54.2193 34.1062C54.0805 33.8641 53.8954 33.6517 53.6745 33.4812C53.4536 33.3107 53.2012 33.1853 52.9319 33.1123C52.6625 33.0393 52.3814 33.0201 52.1046 33.0557C51.8279 33.0913 51.5608 33.1811 51.3187 33.3199L41.9262 38.8237C40.8106 39.484 39.8855 40.4224 39.2411 41.5473C38.5967 42.6721 38.2552 43.9449 38.25 45.2412V55.2499H48.875V52.9124C48.8768 52.1619 49.0367 51.4201 49.3442 50.7354C49.6518 50.0508 50.1001 49.4386 50.66 48.9387ZM37.1875 63.7499H49.9375V57.3749H37.1875V63.7499Z" fill="white"/>
<path d="M18.9688 5.45269C19.9552 4.4646 21.1267 3.68073 22.4163 3.14593C23.706 2.61113 25.0885 2.3359 26.4846 2.336C27.8808 2.3361 29.2632 2.61152 30.5528 3.1465C31.8423 3.68149 33.0138 4.46553 34 5.45375V5.45375C34.9861 4.4655 36.1575 3.68145 37.447 3.1465C38.7366 2.61154 40.119 2.33618 41.5151 2.33618C42.9111 2.33618 44.2935 2.61154 45.5831 3.1465C46.8726 3.68145 48.044 4.4655 49.0301 5.45375C51.0187 7.44667 52.1356 10.1471 52.1356 12.9624C52.1356 15.7778 51.0187 18.4782 49.0301 20.4711L34.7501 34.7511C34.5509 34.9503 34.2807 35.0622 33.9989 35.0622C33.7172 35.0622 33.447 34.9503 33.2477 34.7511L18.9677 20.4711C16.9792 18.4779 15.8625 15.7772 15.8627 12.9617C15.8629 10.1461 16.98 7.44564 18.9688 5.45269V5.45269ZM34 32.4976L47.5288 18.9688C48.7165 17.7794 49.525 16.2646 49.8519 14.6159C50.1789 12.9671 50.0097 11.2584 49.3657 9.70583C48.7217 8.15324 47.6319 6.82643 46.2339 5.89313C44.836 4.95983 43.1927 4.46196 41.5119 4.46244C40.3953 4.45861 39.2892 4.67713 38.2579 5.10527C37.2267 5.53341 36.2911 6.1626 35.5055 6.95613L34.7512 7.71051C34.5519 7.90969 34.2817 8.02159 34 8.02159C33.7183 8.02159 33.448 7.90969 33.2488 7.71051L32.4923 6.95401C31.7035 6.16377 30.7666 5.53685 29.7352 5.1091C28.7039 4.68135 27.5983 4.46117 26.4817 4.46117C25.3652 4.46117 24.2596 4.68135 23.2282 5.1091C22.1969 5.53685 21.26 6.16377 20.4712 6.95401C18.8796 8.54773 17.9857 10.708 17.9857 12.9603C17.9857 15.2127 18.8796 17.3729 20.4712 18.9666L34 32.4976Z" fill="white"/>
</svg>
