<svg id="Group_11663" data-name="Group 11663" xmlns="http://www.w3.org/2000/svg" viewBox="0 0 155.2691 126.3681">
  <defs>
    <style>
      .cls-1 {
        fill: #6bcae2;
      }

      .cls-2, .cls-3, .cls-5 {
        fill: #fff;
      }

      .cls-2, .cls-4, .cls-5 {
        stroke: #fff;
      }

      .cls-4 {
        fill: none;
      }

      .cls-6 {
        fill: #31a7fb;
      }

      .cls-7 {
        fill: #f8f3f1;
      }

      .cls-8 {
        fill: #fc9085;
      }

      .cls-9 {
        fill: #fc7c6a;
      }

      .cls-10 {
        fill: #6c3328;
      }

      .cls-11 {
        fill: #873f30;
      }

      .cls-12 {
        fill: #fda79b;
      }

      .cls-13 {
        fill: #ba5d4f;
      }

      .cls-14 {
        fill: #a34f41;
      }

      .cls-15 {
        fill: #b5dbfd;
      }
    </style>
  </defs>
  <path id="Path_2664" data-name="Path 2664" class="cls-1" d="M30.755,19.129S38.59.9761,56.361.0391,84.486,15.72,84.486,15.72s22.7-6.573,35.5,7.408S130.963,51.394,130.963,51.394s18.924,8.7,14.215,27.8731-25.192,17.08-25.192,17.08-11.33,23.14-35.5,24.975a48.05,48.05,0,0,1-37.956-13.654s-12.36,6.357-23.316-2.429-8.983-22.666-8.983-22.666A36.9589,36.9589,0,0,1,.508,47.1592C4.178,23.8051,30.755,19.129,30.755,19.129Z"/>
  <path id="Subtraction_5" data-name="Subtraction 5" class="cls-2" d="M81.074,102.856h0a9.8624,9.8624,0,0,1-5.168-1.513,15.7532,15.7532,0,0,1-3.79-3.339,22.9632,22.9632,0,0,1-3.129-4.861h0a18.4062,18.4062,0,0,1-2.4.686,29.59,29.59,0,0,1-6.388.687,31.3751,31.3751,0,0,1-10.352-1.767A38.31,38.31,0,0,1,32.774,80.213a33.274,33.274,0,0,1-6.538-15.718,34.77,34.77,0,0,1-.211-7.686,22.6565,22.6565,0,0,1,.438-3.024h0a16.48,16.48,0,0,1-2.244-2.177,11.0031,11.0031,0,0,1-1.514-2.251,5.4384,5.4384,0,0,1-.626-2.6,10.5251,10.5251,0,0,1,1-4.532,8.079,8.079,0,0,1,3.351-3.282,6.8585,6.8585,0,0,1,3.426-.914,7.0681,7.0681,0,0,1,3.207.767,5.719,5.719,0,0,1,2.271,2.017,6.0319,6.0319,0,0,1,.285,4.542,12.416,12.416,0,0,1-1.615,3.688,66.5629,66.5629,0,0,1-5.093,5.191,23.0769,23.0769,0,0,0-.277,2.8,36.14,36.14,0,0,0,.38,7.089,33.8164,33.8164,0,0,0,2.854,9.4,32.06,32.06,0,0,0,7.146,9.72,30.4322,30.4322,0,0,0,11.018,6.656,30.7448,30.7448,0,0,0,9.891,1.6,31.6843,31.6843,0,0,0,5.737-.52,19.5476,19.5476,0,0,0,2.191-.52l-.879-5.042a29.9087,29.9087,0,0,1-5.084-4.062,5.7184,5.7184,0,0,1-1.383-2.722,3.0212,3.0212,0,0,1,1.07-2.759,8.399,8.399,0,0,1,2.8-1.7,9.3,9.3,0,0,1,4.2-.522,3.022,3.022,0,0,1,2.486,1.547,5.4643,5.4643,0,0,1,.509,3,42.1768,42.1768,0,0,1-1.664,6.874l.872,4.341a22.2892,22.2892,0,0,0,2.541-1.145,34.8322,34.8322,0,0,0,5.877-3.846,32.8457,32.8457,0,0,0,6.6-7.166,31.8317,31.8317,0,0,0,4.7-11.1,32.6113,32.6113,0,0,0,.349-12.122,34.36,34.36,0,0,0-2.972-9.407,36.5131,36.5131,0,0,0-3.694-6.085,23.2114,23.2114,0,0,0-1.808-2.164h0a26.7046,26.7046,0,0,1-2.992.164,15.3,15.3,0,0,1-5.115-.715,10.1568,10.1568,0,0,1-2.025-.986,7.52,7.52,0,0,1-1.356-1.11,8.2718,8.2718,0,0,1-1.4-2.045,3.759,3.759,0,0,1-.339-1.2,5.68,5.68,0,0,1,.035-1.694,4.863,4.863,0,0,1,2.324-3.4,11.4772,11.4772,0,0,1,5.841-1.75,7.3922,7.3922,0,0,1,4.435,1.389,5.45,5.45,0,0,1,1.76,2.455,13.0286,13.0286,0,0,1,.768,3.148,21.8766,21.8766,0,0,1,.14,3.87h0c.06.068,1.49,1.688,3.1,3.876.968,1.315,1.818,2.583,2.526,3.767a23.4815,23.4815,0,0,1,1.976,4.028,37.2,37.2,0,0,1,2.11,11.609,37.9242,37.9242,0,0,1-3.666,17.038,31.06,31.06,0,0,1-5.421,7.952,37.7286,37.7286,0,0,1-6.229,5.345,40.6835,40.6835,0,0,1-5.134,3.008c-1.294.632-2.126.939-2.134.942a21.5094,21.5094,0,0,0,2.616,4.051,13.5763,13.5763,0,0,0,3.03,2.785,7.27,7.27,0,0,0,3.965,1.266,7.8713,7.8713,0,0,0,4.654-1.707,17.3214,17.3214,0,0,0,3.1-2.94,23.6636,23.6636,0,0,0,2.388-3.509,65.9149,65.9149,0,0,0,3.609-8.013c.855-2.145,1.738-4.364,2.772-6.453a28.2026,28.2026,0,0,1,3.739-5.853c4.016-4.716,7.248-5.706,9.252-5.706a4.4522,4.4522,0,0,1,2.2.493h0a10.61,10.61,0,0,1,2.1-2.1,11.1408,11.1408,0,0,1,2.571-1.488,10.3268,10.3268,0,0,1,3.542-.764q.3-.0105.6-.011a14.29,14.29,0,0,1,3.879.512,10.5333,10.5333,0,0,1,3.515,1.708,9.2064,9.2064,0,0,1,2.647,3.164,12.6239,12.6239,0,0,1,1.277,4.878,10.3116,10.3116,0,0,1-.908,5.186,10.8833,10.8833,0,0,1-2.731,3.566,12.1905,12.1905,0,0,1-5.694,2.88,14.1381,14.1381,0,0,1-1.538.086,11.6335,11.6335,0,0,1-4.229-.762,11.0916,11.0916,0,0,1-4.579-3.385,9.2062,9.2062,0,0,1-1.764-3.546,13.2109,13.2109,0,0,1-.4-3.554,16.1583,16.1583,0,0,1,.519-3.832,1.621,1.621,0,0,0-1.306-.529c-1.279,0-3.609,1-7.448,5.777a27.8275,27.8275,0,0,0-3.264,5.356c-.945,1.954-1.8,4.073-2.624,6.123a60.1664,60.1664,0,0,1-4.541,9.625,19.5143,19.5143,0,0,1-3.133,3.869,13.9667,13.9667,0,0,1-4.172,2.727A10.6644,10.6644,0,0,1,81.074,102.856Zm40.948-38.839a9.8984,9.8984,0,0,0-3.26.528,8.55,8.55,0,0,0-2.228,1.161,6.9212,6.9212,0,0,0-1.685,1.689,9.3625,9.3625,0,0,0-1,1.725,10.2187,10.2187,0,0,0-.658,1.907,8.7054,8.7054,0,0,0-.231,2.383,9.948,9.948,0,0,0,.579,2.754,9.29,9.29,0,0,0,1.525,2.71,8.3637,8.3637,0,0,0,2.632,2.143,9.9564,9.9564,0,0,0,3.9,1.053c.2.009.4.014.585.014a9,9,0,0,0,4.477-1.073,7.9543,7.9543,0,0,0,2.566-2.35,8.7557,8.7557,0,0,0,1.253-2.62,11.3259,11.3259,0,0,0,.426-2.494,11.8139,11.8139,0,0,0-.113-2.6,11.04,11.04,0,0,0-1.531-3.204,8.9808,8.9808,0,0,0-2.307-2.332,7.9,7.9,0,0,0-3.694-1.33A12.2077,12.2077,0,0,0,122.022,64.017Z"/>
  <g id="Ellipse_259" data-name="Ellipse 259">
    <circle class="cls-3" cx="121.917" cy="73.408" r="4.419"/>
    <circle class="cls-4" cx="121.917" cy="73.408" r="3.919"/>
  </g>
  <path id="Path_2665" data-name="Path 2665" class="cls-2" d="M48.85,64.843c-.449,1.376.954,2.52-.229,4.318s-7.749,2.327-9.293-2.52-.161-9.433,5.1-12.258,9.444.568,9.7,2.159c.252,1.568-1.324,3.724-2.522,4.981S49.299,63.467,48.85,64.843Z"/>
  <path id="Path_2666" data-name="Path 2666" class="cls-5" d="M72.1424,56.55c1.3406.6908,1.26,2.5041,3.4135,2.9908s6.9774-3.7032,4.36-8.3157-7.01-6.9927-12.6881-5.39-5.9321,7-4.9038,8.3335c1.0146,1.32,3.7037,1.7943,5.46,1.8769S70.8012,55.8586,72.1424,56.55Z"/>
  <g>
    <g>
      <g>
        <g>
          <g>
            <path class="cls-1" d="M105.2676,92.94h11.2363v32.9009h-23.26V98.7979a17.6311,17.6311,0,0,1,10.4031-5.6087Z"/>
            <path class="cls-1" d="M153.3527,125.8411H123.85V92.94h11.2479l1.62.249A17.64,17.64,0,0,1,151.2,106.5518l4.0168,16.9314a1.9155,1.9155,0,0,1-1.8638,2.3579Z"/>
            <path class="cls-6" d="M114.5887,92.94v8.5988a.9558.9558,0,0,1-1.1924.9271c-2.6569-.68-6.0548.7014-8.0289,1.7008a.9571.9571,0,0,1-1.3754-1.0171,18.8975,18.8975,0,0,1,4.7409-10.21h5.8558Z"/>
            <path class="cls-6" d="M134.9876,104.1671c-1.9741-.9994-5.372-2.3806-8.0289-1.7008a.956.956,0,0,1-1.1924-.9271V92.94h5.8576a18.9257,18.9257,0,0,1,4.741,10.21A.9586.9586,0,0,1,134.9876,104.1671Z"/>
            <path class="cls-7" d="M114.5891,92.94h11.1772v32.9009H114.5891Z"/>
            <path class="cls-6" d="M153.3521,125.8411h-3.7452l-4.5743-19.2892a17.6441,17.6441,0,0,0-14.4832-13.3625l-1.6186-.249h6.168l1.6186.249a17.6445,17.6445,0,0,1,14.4832,13.3625l4.0152,16.9317a1.9155,1.9155,0,0,1-1.8637,2.3575Z"/>
            <g>
              <path class="cls-8" d="M128.3722,90.4282A6.6159,6.6159,0,0,1,124.98,84.63V80.4657H115.386V84.63a6.665,6.665,0,0,1-3.4761,5.8449v.3966a8.2312,8.2312,0,1,0,16.4623,0Z"/>
              <path class="cls-9" d="M126.341,88.6744a22.8555,22.8555,0,0,1-12.3263-.0039,6.6445,6.6445,0,0,0,1.3715-4.0418V80.4663h9.593v4.1643a6.6753,6.6753,0,0,0,1.3618,4.0438Z"/>
            </g>
            <path class="cls-6" d="M142.5434,110.6166v15.2245H139.67V110.6166a1.4367,1.4367,0,0,1,2.8733,0Z"/>
          </g>
          <g>
            <g>
              <path class="cls-10" d="M99.6278,45.34c-1.5052,3.8612,1.9888,20.1331,1.5721,18.6259h37.9656c-.37,1.4379,3.7623-16.6589.5753-23.8785-2.89-6.5468-16.6675-6.8053-21.0811-5.6415-6.27,1.6534-16.6768,4.8527-19.0319,10.8941Z"/>
              <g>
                <path class="cls-11" d="M101.2007,63.9647h.0227C101.244,64.0928,101.2382,64.1,101.2007,63.9647Z"/>
                <path class="cls-11" d="M139.1651,63.9647c-.0264.1-.03.0959-.0169,0Z"/>
                <path class="cls-11" d="M96.2424,63.9647h.0227C96.2857,64.0928,96.28,64.1,96.2424,63.9647Z"/>
                <path class="cls-11" d="M134.19,63.9647h.0169C134.1806,64.0645,134.1769,64.0606,134.19,63.9647Z"/>
              </g>
            </g>
            <g>
              <g>
                <ellipse class="cls-8" cx="138.9374" cy="61.4878" rx="6.1863" ry="5.2718" transform="translate(34.1021 171.4602) rotate(-70.2421)"/>
                <ellipse class="cls-8" cx="101.4613" cy="61.4148" rx="5.2718" ry="6.1863" transform="translate(-14.788 37.9141) rotate(-19.7579)"/>
              </g>
              <path class="cls-12" d="M110.4661,47.6609a6.7987,6.7987,0,0,0-6.7987,6.7987V65.0011s0,19.73,16.5153,19.73,16.5154-19.7295,16.5154-19.7295V54.46a6.7987,6.7987,0,0,0-6.7987-6.7987Z"/>
              <path class="cls-8" d="M133.3381,48.5942c-1.0113,3.988-4.1223,7.4647-11.7767,7.4647-7.3018,0-11.8053-2.64-17.45-4.0187a6.7983,6.7983,0,0,1,6.3556-4.3789H129.9A6.75,6.75,0,0,1,133.3381,48.5942Z"/>
            </g>
            <path class="cls-13" d="M121.3657,30.64c12.6474,0,12.3873,6.1369,12.3873,10.5162,0,5.2128-2.3016,11.0158-12.1914,11.0158-8.6534,0-13.3778-3.7065-20.7306-4.6331a2.6151,2.6151,0,0,1-2.0061-3.7353C101.18,38.9056,107.2458,30.64,121.3657,30.64Z"/>
            <path class="cls-14" d="M133.7533,41.1569c0,5.2123-2.3012,11.016-12.1909,11.016-.8944,0-1.7475-.04-2.5649-.111,8.1235-.8322,10.099-6.2046,10.099-11.07,0-3.84.1976-9.0142-8.0332-10.3474.1-.0041.2014-.0041.3031-.0041C134.0131,30.64,133.7533,36.7769,133.7533,41.1569Z"/>
            <path class="cls-7" d="M120.1827,76.7045a4.6853,4.6853,0,0,1-4.6853-4.6853v-.5636a.9577.9577,0,0,1,.9578-.9577h7.455a.9577.9577,0,0,1,.9578.9577v.5636A4.6852,4.6852,0,0,1,120.1827,76.7045Z"/>
            <g>
              <path class="cls-9" d="M130.7039,62.3184a1.43,1.43,0,0,1-.8432-.2745,2.7914,2.7914,0,0,0-3.065,0,1.4366,1.4366,0,1,1-1.6888-2.3246,5.6558,5.6558,0,0,1,6.4429,0,1.4368,1.4368,0,0,1-.8459,2.5991Z"/>
              <path class="cls-9" d="M114.4124,62.3184a1.43,1.43,0,0,1-.8432-.2745,2.7914,2.7914,0,0,0-3.065,0,1.4366,1.4366,0,1,1-1.6887-2.3246,5.6557,5.6557,0,0,1,6.4428,0,1.4368,1.4368,0,0,1-.8459,2.5991Z"/>
            </g>
          </g>
        </g>
        <path class="cls-9" d="M120.7435,67.15h-1.1216a1.4366,1.4366,0,1,1,0-2.8731h1.1216a1.4366,1.4366,0,1,1,0,2.8731Z"/>
      </g>
      <g>
        <path class="cls-15" d="M114.5891,97.5279V88.7073a.9579.9579,0,0,0-.8583-.9526l-1.7092-.1783a3.7016,3.7016,0,0,0-2.9674,1.0294,18.6188,18.6188,0,0,0-5.0631,10.5366.957.957,0,0,0,1.3741,1.0158c1.9758-1.0007,5.3785-2.385,8.0368-1.7015a.9547.9547,0,0,0,1.1871-.9288Z"/>
        <path class="cls-15" d="M125.7667,97.5279V88.7073a.9578.9578,0,0,1,.8583-.9526l1.7091-.1783a3.7015,3.7015,0,0,1,2.9674,1.0294,18.6181,18.6181,0,0,1,5.0632,10.5366.957.957,0,0,1-1.3741,1.0158c-1.9758-1.0007-5.3785-2.385-8.0369-1.7015a.9547.9547,0,0,1-1.187-.9288Z"/>
      </g>
    </g>
    <g>
      <path class="cls-12" d="M105.4236,96.2639v9.8825a4.2108,4.2108,0,0,1-1.0854,2.825l-1.9395,2.1556a1.9154,1.9154,0,0,0-.4916,1.2811v11.5175a1.9155,1.9155,0,0,1-1.9156,1.9155H89.75a1.9154,1.9154,0,0,1-1.9155-1.9155V115.86a1.9148,1.9148,0,0,0-.561-1.3544l-5.8121-5.8121a6.1171,6.1171,0,0,1-1.8012-4.454,6.3115,6.3115,0,0,1,1.884-4.3309l3.5832-3.5832V95.356A3.4839,3.4839,0,0,1,88.45,91.8432a3.4056,3.4056,0,0,1,1.889.5015.9675.9675,0,0,0,1.0833-.04,3.3237,3.3237,0,0,1,4.1079.1294.98.98,0,0,0,1.0725.1227,3.2148,3.2148,0,0,1,3.68.5837.9466.9466,0,0,0,1.0027.2064,3.0136,3.0136,0,0,1,1.2968-.1949,3.0922,3.0922,0,0,1,2.841,3.1119Z"/>
      <path class="cls-8" d="M105.4236,96.2786v9.8676a4.2106,4.2106,0,0,1-1.0854,2.825l-1.9395,2.1556a1.9154,1.9154,0,0,0-.4916,1.2811v11.5175a1.9155,1.9155,0,0,1-1.9156,1.9156h-3.74V112.5a2.1581,2.1581,0,0,1,.5524-1.4407l1.88-2.0881a4.2177,4.2177,0,0,0,1.0837-2.825V95.2083a3.1269,3.1269,0,0,0-2.095-2.9657,2.9985,2.9985,0,0,1,.3589-.0212,3.2122,3.2122,0,0,1,2.2515.9195.9524.9524,0,0,0,1.0078.2045,3.0389,3.0389,0,0,1,1.2393-.1967,3.1037,3.1037,0,0,1,2.8928,3.13Z"/>
      <path class="cls-8" d="M85.1277,96.3249v7.53a1.4366,1.4366,0,0,1-2.8732,0V99.198Z"/>
    </g>
  </g>
</svg>
