<svg xmlns="http://www.w3.org/2000/svg" width="512" height="471.1" viewBox="0 0 512 471.1">
  <g id="appointment" transform="translate(0 -20.45)">
    <path id="Path_538" data-name="Path 538" d="M461.81,64.59h-5.85V93.73a15,15,0,1,1-30,0V64.59H381.98V93.73a15,15,0,1,1-30,0V64.59H308V93.73a15,15,0,1,1-30,0V64.59H234V93.73a15,15,0,1,1-30,0V64.59H160.02V93.73a15,15,0,1,1-30,0V64.59H86.04V93.73a15,15,0,0,1-30,0V64.59H50.18A50.238,50.238,0,0,0,0,114.78v29.81H512V114.78a50.247,50.247,0,0,0-50.19-50.19Z" fill="#fff"/>
    <path id="Path_539" data-name="Path 539" d="M241.07,363v48.27h29.87V363a15,15,0,0,1,15-15H334.2V318.14H285.94a15,15,0,0,1-15-15V254.87H241.07v48.27a15.005,15.005,0,0,1-15,15H177.79V348h48.28A15.005,15.005,0,0,1,241.07,363Z" fill="#fff"/>
    <path id="Path_540" data-name="Path 540" d="M0,441.36a50.238,50.238,0,0,0,50.18,50.19H461.81A50.247,50.247,0,0,0,512,441.36V174.59H0ZM147.79,303.14a15,15,0,0,1,15-15h48.28V239.87a14.993,14.993,0,0,1,15-15h59.87a15,15,0,0,1,15,15v48.27H349.2a15,15,0,0,1,15,15V363a15,15,0,0,1-15,15H300.94v48.27a15,15,0,0,1-15,15H226.07a14.993,14.993,0,0,1-15-15V378H162.79a15,15,0,0,1-15-15Z" fill="#fff"/>
    <path id="Path_541" data-name="Path 541" d="M234,35.45a15,15,0,0,0-30,0V64.59h30Z" fill="#fff"/>
    <path id="Path_542" data-name="Path 542" d="M160.02,35.45a15,15,0,0,0-30,0V64.59h30Z" fill="#fff"/>
    <path id="Path_543" data-name="Path 543" d="M86.04,35.45a15,15,0,1,0-30,0V64.59h30Z" fill="#fff"/>
    <path id="Path_544" data-name="Path 544" d="M455.96,35.45a15,15,0,0,0-30,0V64.59h30Z" fill="#fff"/>
    <path id="Path_545" data-name="Path 545" d="M381.98,35.45a15,15,0,0,0-30,0V64.59h30Z" fill="#fff"/>
    <path id="Path_546" data-name="Path 546" d="M308,35.45a15,15,0,0,0-30,0V64.59h30Z" fill="#fff"/>
  </g>
</svg>
