<svg width="513" height="512" viewBox="0 0 513 512" fill="none" xmlns="http://www.w3.org/2000/svg">
<g clip-path="url(#clip0)">
<path d="M198.232 0H38.2319C28.3342 0.0108523 18.8449 3.94752 11.8462 10.9463C4.84742 17.945 0.910755 27.4343 0.899902 37.332L0.899902 133.332C0.90996 143.23 4.84624 152.72 11.8451 159.72C18.8439 166.72 28.3336 170.657 38.2319 170.668H198.232C208.131 170.658 217.621 166.721 224.621 159.721C231.621 152.722 235.558 143.231 235.568 133.332V37.332C235.557 27.4337 231.619 17.944 224.62 10.9452C217.62 3.94634 208.13 0.0100579 198.232 0V0Z" fill="#727272"/>
<path d="M198.232 213.332H38.2319C28.3336 213.343 18.8439 217.28 11.8451 224.28C4.84624 231.28 0.90996 240.77 0.899902 250.668L0.899902 474.668C0.910755 484.566 4.84742 494.055 11.8462 501.054C18.8449 508.052 28.3342 511.989 38.2319 512H198.232C208.13 511.99 217.62 508.054 224.62 501.055C231.619 494.056 235.557 484.566 235.568 474.668V250.668C235.558 240.769 231.621 231.279 224.621 224.279C217.621 217.279 208.131 213.342 198.232 213.332V213.332Z" fill="#727272"/>
<path d="M475.568 341.332H315.568C305.669 341.342 296.178 345.279 289.179 352.279C282.179 359.279 278.242 368.769 278.232 378.668V474.668C278.243 484.566 282.18 494.056 289.18 501.055C296.179 508.054 305.67 511.99 315.568 512H475.568C485.466 511.989 494.955 508.052 501.954 501.054C508.952 494.055 512.889 484.566 512.9 474.668V378.668C512.89 368.77 508.954 359.28 501.955 352.28C494.956 345.28 485.466 341.343 475.568 341.332V341.332Z" fill="#727272"/>
<path d="M475.568 0H315.568C305.67 0.0100579 296.179 3.94634 289.18 10.9452C282.18 17.944 278.243 27.4337 278.232 37.332V261.332C278.242 271.231 282.179 280.722 289.179 287.721C296.178 294.721 305.669 298.658 315.568 298.668H475.568C485.466 298.657 494.956 294.72 501.955 287.72C508.954 280.72 512.89 271.23 512.9 261.332V37.332C512.889 27.4343 508.952 17.945 501.954 10.9463C494.955 3.94752 485.466 0.0108523 475.568 0V0Z" fill="#727272"/>
</g>
<defs>
<clipPath id="clip0">
<rect width="512" height="512" fill="white" transform="translate(0.899902)"/>
</clipPath>
</defs>
</svg>
