<svg xmlns="http://www.w3.org/2000/svg" width="390" height="512" viewBox="0 0 390 512">
  <g id="google-forms" transform="translate(-61)">
    <path id="Path_553" data-name="Path 553" d="M346,120h96.211L331,8.789V105A15.011,15.011,0,0,0,346,120Z" fill="#fff"/>
    <path id="Path_554" data-name="Path 554" d="M106,512H406a45.05,45.05,0,0,0,45-45V150H346a45.05,45.05,0,0,1-45-45V0H106A45.05,45.05,0,0,0,61,45V467A45.05,45.05,0,0,0,106,512Zm90-271H346a15,15,0,0,1,0,30H196a15,15,0,0,1,0-30Zm0,60H346a15,15,0,0,1,0,30H196a15,15,0,0,1,0-30Zm0,60H346a15,15,0,0,1,0,30H196a15,15,0,0,1,0-30ZM136,241a15,15,0,1,1-15,15A15,15,0,0,1,136,241Zm0,60a15,15,0,1,1-15,15A15,15,0,0,1,136,301Zm0,60a15,15,0,1,1-15,15A15,15,0,0,1,136,361Z" fill="#fff"/>
  </g>
</svg>
