<svg width="518" height="483" viewBox="0 0 518 483" fill="none" xmlns="http://www.w3.org/2000/svg">
<g clip-path="url(#clip0)">
<path d="M275.911 0C154.681 0 54.3479 90.033 37.5439 206.674H0.899902L52.0139 292.788L107.128 206.674H72.3479C88.8249 109.085 173.7 34.446 275.911 34.446C389.877 34.446 482.585 127.153 482.585 241.12C482.585 355.087 389.878 447.794 275.911 447.794C244.471 447.877 213.43 440.749 185.176 426.958C156.922 413.166 132.208 393.078 112.933 368.239L85.7869 389.431C108.273 418.407 137.104 441.84 170.064 457.93C203.023 474.019 239.234 482.335 275.911 482.239C408.866 482.239 517.03 374.058 517.03 241.12C517.03 108.182 408.866 0.001 275.911 0Z" fill="#727272"/>
<path d="M277.9 392.002C267.679 392.005 257.483 390.977 247.468 388.934C228.153 384.979 209.806 377.258 193.474 366.213C169.196 349.825 150.192 326.746 138.765 299.776C134.903 290.641 131.955 281.147 129.965 271.432C125.874 251.35 125.874 230.65 129.965 210.569C133.921 191.254 141.642 172.907 152.686 156.574C169.074 132.297 192.152 113.293 219.123 101.865C228.257 98.0035 237.752 95.056 247.467 93.0657C267.548 88.9745 288.248 88.9745 308.33 93.0657C327.644 97.0219 345.991 104.743 362.323 115.787C386.6 132.177 405.603 155.254 417.03 182.225C420.891 191.359 423.839 200.853 425.83 210.569C429.92 230.65 429.92 251.35 425.83 271.432C421.874 290.749 414.154 309.098 403.11 325.432C386.721 349.709 363.644 368.713 336.675 380.141C327.541 384.003 318.046 386.95 308.331 388.941C298.316 390.981 288.121 392.007 277.9 392.002V392.002ZM210.227 286.574C210.146 293.844 211.631 301.047 214.58 307.693C217.407 313.862 221.543 319.344 226.7 323.755C236.937 332.617 251.429 338.121 268.609 339.671V362.188H286.68V339.388C295.293 338.699 303.721 336.523 311.591 332.955C318.422 329.833 324.601 325.447 329.803 320.031C334.604 315.015 338.398 309.125 340.979 302.679C343.493 296.407 344.783 289.712 344.779 282.955C344.81 278.495 344.356 274.043 343.423 269.681C342.618 265.976 341.336 262.391 339.61 259.016C338.027 255.964 336.049 253.134 333.726 250.6C331.456 248.145 328.916 245.954 326.154 244.07C320.376 240.261 314.092 237.282 307.486 235.221C300.586 232.921 293.212 231.147 286.702 229.583H286.68V169.532C292.77 170.972 298.259 174.277 302.38 178.987C306.071 183.294 308.351 188.631 308.912 194.276H342.831C342.335 187.03 340.527 179.934 337.496 173.334C334.697 167.38 330.719 162.056 325.802 157.685C320.729 153.248 314.896 149.765 308.584 147.403C301.542 144.777 294.168 143.15 286.675 142.567V120.055H268.611V142.855C260.485 143.516 252.506 145.404 244.945 148.455C238.138 151.198 231.886 155.152 226.492 160.127C221.368 164.881 217.285 170.644 214.5 177.055C211.624 183.818 210.169 191.1 210.226 198.449C210.195 202.914 210.654 207.369 211.594 211.735C212.408 215.452 213.7 219.049 215.438 222.435C217.036 225.505 219.029 228.353 221.367 230.906C223.655 233.382 226.212 235.596 228.991 237.506C234.8 241.366 241.115 244.404 247.757 246.532C254.627 248.884 262.057 250.742 268.608 252.381V313.538C261.08 312.194 255.141 309.06 250.955 304.226C248.931 301.866 247.338 299.17 246.247 296.26C245.091 293.148 244.384 289.886 244.147 286.574H210.228L210.227 286.574ZM286.681 313.536V257.104C295.297 259.817 301.237 262.864 305.381 266.694C310.381 271.326 312.817 277.194 312.817 284.627C312.94 291.529 310.515 298.234 306.006 303.461C301.4 308.713 294.716 312.198 286.683 313.536H286.681ZM268.609 224.857C260.036 222.157 254.096 219.057 249.916 215.093C244.916 210.351 242.48 204.36 242.48 196.78C242.429 192.937 243.084 189.118 244.412 185.511C245.604 182.364 247.444 179.502 249.812 177.111C252.193 174.748 254.997 172.853 258.078 171.525C261.435 170.081 264.983 169.131 268.612 168.703L268.609 224.857Z" fill="#727272"/>
</g>
<defs>
<clipPath id="clip0">
<rect width="516.13" height="482.238" fill="white" transform="translate(0.899902)"/>
</clipPath>
</defs>
</svg>
