<svg width="512" height="512" viewBox="0 0 512 512" fill="none" xmlns="http://www.w3.org/2000/svg">
<path d="M280.26 197.18C329.215 197.18 376.79 159.574 376.79 96.53C376.76 70.9377 366.581 46.4022 348.484 28.3057C330.388 10.2093 305.852 0.0296421 280.26 0L96.56 0C47.27 0 0.0300293 37.9 0.0300293 100.65C0.0587441 123.645 8.28219 145.877 23.2244 163.356C38.1666 180.835 58.8492 192.415 81.56 196.02V260.17C81.56 273.876 98.591 280.447 107.76 270.14L172.76 197.18H280.26ZM279.86 80.01C283.535 80.01 287.127 81.0997 290.183 83.1413C293.238 85.1829 295.619 88.0847 297.026 91.4797C298.432 94.8748 298.8 98.6106 298.083 102.215C297.366 105.819 295.597 109.13 292.998 111.728C290.4 114.327 287.089 116.096 283.485 116.813C279.881 117.53 276.145 117.162 272.75 115.756C269.355 114.349 266.453 111.968 264.411 108.912C262.37 105.857 261.28 102.265 261.28 98.59C261.281 93.6626 263.239 88.9373 266.723 85.4531C270.207 81.9689 274.933 80.0111 279.86 80.01ZM96.95 117.17C93.2757 117.168 89.6844 116.077 86.6303 114.034C83.5761 111.991 81.1962 109.089 79.7915 105.693C78.3867 102.298 78.0202 98.5626 78.7383 94.9591C79.4563 91.3556 81.2267 88.0459 83.8255 85.4484C86.4244 82.851 89.735 81.0824 93.3389 80.3663C96.9428 79.6502 100.678 80.0187 104.073 81.4253C107.467 82.8318 110.368 85.2133 112.409 88.2685C114.451 91.3238 115.54 94.9156 115.54 98.59C115.54 101.031 115.059 103.447 114.124 105.702C113.19 107.957 111.82 110.006 110.094 111.731C108.368 113.456 106.318 114.825 104.063 115.758C101.808 116.691 99.3908 117.171 96.95 117.17V117.17ZM188.41 80.01C192.085 80.01 195.677 81.0997 198.733 83.1413C201.788 85.1829 204.169 88.0847 205.576 91.4797C206.982 94.8748 207.35 98.6106 206.633 102.215C205.916 105.819 204.147 109.13 201.548 111.728C198.95 114.327 195.639 116.096 192.035 116.813C188.431 117.53 184.695 117.162 181.3 115.756C177.905 114.349 175.003 111.968 172.961 108.912C170.92 105.857 169.83 102.265 169.83 98.59C169.831 93.6624 171.788 88.9369 175.273 85.4525C178.757 81.9682 183.482 80.0105 188.41 80.01V80.01Z" fill="#727272"/>
<path d="M415.4 236.83H231.7C206.107 236.862 181.571 247.044 163.474 265.142C145.378 283.24 135.199 307.777 135.17 333.37C135.17 395.543 181.95 434.02 231.7 434.02H339.2L404.2 506.98C413.29 517.199 430.4 510.793 430.4 497V432.85C453.111 429.246 473.793 417.665 488.736 400.186C503.678 382.707 511.901 360.475 511.93 337.48C511.93 275.44 465.275 236.83 415.4 236.83V236.83ZM232.1 354.009C228.424 354.01 224.831 352.921 221.774 350.88C218.717 348.838 216.334 345.936 214.927 342.541C213.519 339.145 213.15 335.409 213.866 331.803C214.582 328.198 216.351 324.886 218.95 322.286C221.548 319.686 224.859 317.915 228.464 317.197C232.069 316.479 235.806 316.846 239.202 318.252C242.599 319.658 245.502 322.039 247.545 325.095C249.588 328.15 250.679 331.743 250.68 335.419C250.681 340.348 248.724 345.076 245.24 348.562C241.755 352.048 237.029 354.007 232.1 354.009V354.009ZM323.55 354.009C319.874 354.01 316.281 352.921 313.224 350.88C310.167 348.838 307.784 345.936 306.377 342.541C304.969 339.145 304.6 335.409 305.316 331.803C306.032 328.198 307.801 324.886 310.4 322.286C312.998 319.686 316.309 317.915 319.914 317.197C323.519 316.479 327.256 316.846 330.652 318.252C334.049 319.658 336.952 322.039 338.995 325.095C341.038 328.15 342.129 331.743 342.13 335.419C342.131 337.86 341.651 340.277 340.717 342.532C339.784 344.787 338.416 346.836 336.69 348.562C334.965 350.289 332.917 351.658 330.662 352.593C328.407 353.527 325.991 354.009 323.55 354.009ZM415.01 354.009C411.334 354.01 407.741 352.921 404.684 350.88C401.627 348.838 399.244 345.936 397.837 342.541C396.429 339.145 396.06 335.409 396.776 331.803C397.492 328.198 399.261 324.886 401.86 322.286C404.458 319.686 407.769 317.915 411.374 317.197C414.979 316.479 418.716 316.846 422.112 318.252C425.509 319.658 428.412 322.039 430.455 325.095C432.498 328.15 433.589 331.743 433.59 335.419C433.591 340.348 431.634 345.076 428.15 348.562C424.665 352.048 419.939 354.007 415.01 354.009V354.009Z" fill="#727272"/>
</svg>
