<svg xmlns="http://www.w3.org/2000/svg" width="390" height="512" viewBox="0 0 390 512">
  <g id="prescription" transform="translate(-61)">
    <path id="Path_560" data-name="Path 560" d="M166,307H151v30h15a15,15,0,0,0,0-30Z" fill="#fff"/>
    <path id="Path_561" data-name="Path 561" d="M361,8.787V90h81.213Z" fill="#fff"/>
    <path id="Path_562" data-name="Path 562" d="M346,120a15,15,0,0,1-15-15V0H76A15,15,0,0,0,61,15V497a15,15,0,0,0,15,15H436a15,15,0,0,0,15-15V120ZM136,90H286a15,15,0,0,1,0,30H136a15,15,0,0,1,0-30ZM251.535,424.322a15,15,0,0,1-21.213,21.213L214.5,429.713l-15.926,15.926a15,15,0,0,1-21.213-21.213L193.287,408.5l-41.5-41.5H151v38a15,15,0,0,1-30,0V292a15,15,0,0,1,15-15h30a44.985,44.985,0,0,1,22.284,84.071L214.5,387.287l15.894-15.894a15,15,0,0,1,21.213,21.213L235.713,408.5ZM376,360H286a15,15,0,0,1,0-30h90a15,15,0,0,1,0,30Zm0-60H286a15,15,0,0,1,0-30h90a15,15,0,0,1,0,30Zm0-60H136a15,15,0,0,1,0-30H376a15,15,0,0,1,0,30Zm0-60H136a15,15,0,0,1,0-30H376a15,15,0,0,1,0,30Z" fill="#fff"/>
  </g>
</svg>
