<svg xmlns="http://www.w3.org/2000/svg" width="567" height="567" viewBox="0 0 567 567">
  <g id="Group_4998" data-name="Group 4998" transform="translate(-2087 933)">
    <circle id="Ellipse_32" data-name="Ellipse 32" cx="283.5" cy="283.5" r="283.5" transform="translate(2087 -933)" fill="#80d7ed"/>
    <g id="Group_4997" data-name="Group 4997" transform="translate(87.465 968)">
      <g id="Asset_1_2x-01" data-name="Asset 1@2x-01" transform="translate(1973.892 -1932.857)">
        <path id="Path_73" data-name="Path 73" d="M230.973,232.133c.969-4.409,2.088-8.791,2.872-13.233,1.335-7.564,3.241-15,4.842-22.5,1.133-5.308,1.858-10.708,3.637-15.932-9.7-.472-15.683-6.428-20.424-13.772-7.427-11.505-8.867-24.187-5.3-37.2,2.67-9.729,8.551-17.415,18.564-20.5,9.291-2.865,17.608-.178,24.648,6.456a40.647,40.647,0,0,1,11.545,20.068c2.086-1.749,3.861-3.423,5.819-4.847,9.128-6.638,18.717-12.476,29.6-15.778,3.586-1.088,7.311-2.25,11.155-1.084,2.876.873,3.827,2.926,2.614,5.752-.708,1.648-1.695,3.176-2.648,4.926,4.189-.653,8.2-1.374,12.247-1.882a42,42,0,0,1,12.061-.2c3.842.63,5.645,3.962,4.552,8.433a48.691,48.691,0,0,1-1.708,4.827c1.383.337,2.37,1.138,3.053-1.311,2.61-9.355,7.606-17.181,15.97-22.578,11.549-7.452,26.285-3.526,34.018,8.134,9.925,14.965,7.414,37.718-3.886,50.936-4.513,5.279-9.762,9.441-17.226,9.55,2.566,11.682,5.13,23.251,7.638,34.833.944,4.356,1.894,8.719,2.563,13.122.257,1.69.986,2.214,2.444,2.3a5.36,5.36,0,0,0-.808,3.953c.336,4.089.674,8.181.935,12.275.44,2.537-.3,4.972-.975,7.318a46.747,46.747,0,0,1-13.376,21.962c-1.888,1.736-3.745,3.5-5.8,5.038-10.267,7.568-21.879,12.1-34.151,15.15-2.9.721-5.79,1.5-8.748,1.96-1.174-.027-2.012.867-3.078,1.141-1.918,0-3.846-.306-5.746.209-1.329.232-2.681.25-4.012.467-5.443.883-10.768-.493-16.146-.824a53.416,53.416,0,0,1-6.285-1.389,112.076,112.076,0,0,1-24.571-7.034,81.243,81.243,0,0,1-19.514-11.3c-7.867-6.607-13.809-14.537-16.81-24.487a34.267,34.267,0,0,1-1.471-9.061,80.242,80.242,0,0,0,1.9-13.9Z" fill="#9b654c"/>
        <path id="Path_75" data-name="Path 75" d="M469.7,264.215c-1.894-5.685-2.01-11.238.731-16.777,4.038-8.163,11.981-9.092,17.542-1.93,3.6-7.246,11.134-8.741,17.568-5.972,6.111,2.63,11.7,8.512,9.193,20.312a54.423,54.423,0,0,1,10.876-4.839A28,28,0,0,1,536,253.577c8.377.75,10.126,6.656,6.11,13.471-3.3,5.6-8.366,9.3-13.99,12.319-1.432.769-2.841,1.581-4.607,2.567a20.333,20.333,0,0,1,9.6,3.89c3.712,2.958,5.078,6.029,4.028,9.321-1.058,3.319-4.921,5.791-9.141,6.068a89.526,89.526,0,0,1-26.785-2.694c-3.288-.786-6.579-1.59-9.906-2.168-1.494-.26-3.134-.626-4.6.33-1.888.04-1.887-1.439-2.19-2.7-1.319-5.486-2.453-11.032-4.881-16.18-1.9-4.038-3.508-8.279-8.027-10.366a3.112,3.112,0,0,1-1.911-3.221Z" fill="#9b654c"/>
        <path id="Path_76" data-name="Path 76" d="M131.2,296.613c-2.29-1.054-4.585-.31-6.779.209-7.064,1.673-14.133,3.418-21.343,4.187-5.167.552-10.455.913-15.612-.342-3.447-.839-6-2.785-6.492-6.6a8.224,8.224,0,0,1,3.411-7.778,20.4,20.4,0,0,1,10.33-4.348,89.073,89.073,0,0,1-10.794-6.443c-4.56-3.347-8.307-7.327-9.577-13.108a6.677,6.677,0,0,1,4.6-8.177c4.97-1.673,9.734-.4,14.47,1.067a40.178,40.178,0,0,1,10.117,4.836c-1.421-5.331-1.146-9.96,1.618-14.325a16.174,16.174,0,0,1,11.717-7.437c4.966-.794,11.148,1.84,13.027,7.006,1.228-.466,1.55-1.82,2.568-2.527,5.709-3.966,12.859-1.827,15.493,4.78,2.094,5.252,2.551,10.6.53,16,.241,2.143-.868,3.415-2.7,4.256a10.128,10.128,0,0,0-4.4,4.219c-4.04,6.623-5.9,14-7.588,21.439C133.462,295.017,133.545,296.83,131.2,296.613Z" fill="#9b654c"/>
        <path id="Path_77" data-name="Path 77" d="M131.2,296.613a2.809,2.809,0,0,0,1.936-2.342c1.367-8.058,3.65-15.8,7.907-22.874a8.879,8.879,0,0,1,4.268-4,5.011,5.011,0,0,0,3.179-3.787c.126.935.937,1.018,1.6,1.343a51.522,51.522,0,0,1,9.329,5.614c2.4,1.893,5.664,1.562,8.55,2.072,6.085,1.076,12.224,1.849,18.344,2.725a89.64,89.64,0,0,1,11.438,2.007c1.034.288,1.337-.157,1.678-.874A111.9,111.9,0,0,1,209.5,259.708c1.054,1.865-.18,3.913.469,5.811a64.464,64.464,0,0,1-1.505,7.2c-1.6,2.542-2.729,5.326-4.126,7.971-1.631,3.088-2.514,3.555-5.918,3.294-11.942-.914-23.8-2.54-35.637-4.3-2.71-.4-2.691-.4-3.259,2.288-2.63,12.451-4.873,24.973-6.9,37.533-.106.657-.17,1.32-.275,1.975-.519,3.24.677,5.385,3.491,7.244,5.209,3.441,10.681,6.428,15.978,9.71,7.126,4.416,13.837,9.211,18.654,16.236a5.932,5.932,0,0,0,3.01,2.1c2.765,1.043,5.684,1.22,8.566,1.562,2.363.281,2.841-.159,2.814-2.534a125.119,125.119,0,0,1,1.064-20.642c.262-1.69.09-3.521,1.313-4.966,1.369-.425,1.447.794,1.788,1.513a57.032,57.032,0,0,0,2.515,5.429,3.319,3.319,0,0,1,.43.666,4.875,4.875,0,0,1,.448,2.816c-.321,3.959.012,7.922-.1,11.881a14.859,14.859,0,0,1-.194,2.957,2.931,2.931,0,0,1-1.571,1.827c-3.193,1.822-5.814,4.118-6.7,7.9a1.48,1.48,0,0,1-.784.924c-5.963-.008-11.91-.081-16.948-4-4.075-7.321-10.759-11.67-17.663-15.91-6.27-3.85-13.038-6.915-18.752-11.659a2.037,2.037,0,0,0-2.888-.2c-3.279,2.591-6.772,1.855-10.367.733-8.408-2.625-9.2-10.8-8.608-17.713C128.429,310.353,129.965,303.51,131.2,296.613Z" fill="#cacaca"/>
        <path id="Path_78" data-name="Path 78" d="M469.7,264.215a8.689,8.689,0,0,0,3.895,3.669c3.854,1.892,4.857,5.96,6.5,9.4a60.793,60.793,0,0,1,5.016,17.318,3.084,3.084,0,0,0,1.6,2.078,91.436,91.436,0,0,1,3.515,26.464,13.065,13.065,0,0,1-16.634,12.485c-.239-.066-.56-.055-.706-.209-2.6-2.734-4.644-.738-6.724.778-6.584,4.8-14.041,8.158-20.79,12.679a72.562,72.562,0,0,0-8.6,6.74,42.715,42.715,0,0,0-3.46,4.509c-2.272,3.9-6.043,4.819-10.034,5.49a25.066,25.066,0,0,1-10.09-.079c-.689-2.285.247-4.341.9-6.437,1.8-1.042,3.84-.912,5.794-1.168,3.833-.5,7.063-1.64,9.384-5.237,3.492-5.412,8.842-8.936,14.166-12.393,6.418-4.167,13.15-7.82,19.524-12.067,2.581-1.72,3.355-3.755,2.919-6.75-1.941-13.344-4.695-26.535-7.244-39.767-.407-2.112-1.317-2.448-3.254-2.128-11.735,1.939-23.542,3.291-35.385,4.417-3.173.3-4.862-.89-6.18-3.378a11.082,11.082,0,0,1-1.039-2.266c-.258-3.629-.605-7.249-.9-10.873a1.825,1.825,0,0,1,.529-1.81c2.831,3.118,4.356,7,6.173,10.7.5,1.011.8,1.272,1.984,1,9.653-2.192,19.539-2.964,29.273-4.677,2.272-.4,4.536-.868,6.821-1.174,2.228-.3,3.29-2.318,5.116-3.255C464.415,266.923,466.87,265.2,469.7,264.215Z" fill="#cacaca"/>
        <path id="Path_79" data-name="Path 79" d="M412.408,265.681l.96,13.058c.894,2.407.759,4.921.675,7.407a229.909,229.909,0,0,1-4.074,36.148c-1.048,4.2-1.675,8.524-3.483,12.517-1,1.568-.792,3.708-2.365,5.007-4.19-1.148-8.529-1.334-12.8-1.986a2.744,2.744,0,0,1-.245-2.81c.663-2.293.722-4.732,1.68-6.953.847-3.754,1.719-7.5,2.292-11.315a210.343,210.343,0,0,0,2.236-22.568,87.46,87.46,0,0,0,.045-14.642c-.323-6.778-.82-13.532-2.8-20.083a44.63,44.63,0,0,0-4.234-10.028c-.534-.578-.525-1.4-.92-2.045-1.244-2.454-.394-5.155-.9-7.726-.437-2.233-.154-4.6-.612-6.879-.288-1.433.233-2.2,1.766-2.13a7.15,7.15,0,0,1,2.84.735c7.535,3.5,12.076,9.653,15.312,17.025,2.128,4.846,3,10.008,4.045,15.134C411.975,264.267,412.213,264.969,412.408,265.681Z" fill="#2b2d2f"/>
        <path id="Path_80" data-name="Path 80" d="M209.62,265.694c-1.21-1.971-.107-3.99-.125-5.986,1.421-5.33,2.963-10.612,5.607-15.5a25.718,25.718,0,0,1,12.705-11.574,9.092,9.092,0,0,1,3.166-.5c.5.3,1.151.667.951,1.3-1.313,4.17-.683,8.695-2.368,12.788A23.969,23.969,0,0,1,228.3,249.1,28.773,28.773,0,0,0,224.109,260a2.691,2.691,0,0,1-1.984,2.324,74.063,74.063,0,0,0-11.116,3.551,1.2,1.2,0,0,1-1.389-.185Z" fill="#2b2d2f"/>
        <path id="Path_81" data-name="Path 81" d="M228.013,248.649a4.9,4.9,0,0,1,1.543-2.428,47.39,47.39,0,0,0,6.771,20.082c3.056,4.886,7.156,8.86,11.264,12.826,3.61,3.175,4.913,7.853,7.581,11.65,2.486,3.538,4.168,7.58,6.7,11.105,1.29,2.271,2.725,4.453,4.11,6.667,2.456,4.7,5.314,9.162,8.162,13.63,3.648,5.724,7.066,11.59,10.7,17.325,5.983,9.7,12.177,19.261,18.159,28.957,1.081,1.752,2.362,2.714,4.445,2.518.66-.062,1.331,0,2-.022a7,7,0,0,0,6.44-3.651c4.48-7.294,8.984-14.587,13.743-21.711a17.086,17.086,0,0,0,.847-1.527c5.728-9,11.154-18.191,16.86-27.208,1.857-2.934,3.556-5.967,5.313-8.962,2.051-2.676,3.328-5.839,5.352-8.533,2.984-5.561,6.506-10.806,9.535-16.339.487-.89,1.345-1.464,1.868-2.315,4.89-4.1,9.5-8.457,13.02-13.848a45.669,45.669,0,0,0,6.963-19.478,1.67,1.67,0,0,1,.976,1.213c.954,2.35.221,4.7-.6,6.759-1.649,4.145-1.441,7.46,1.483,11.228a44.8,44.8,0,0,1,6.71,12.606,75.637,75.637,0,0,1-.071,15.053c-1.219-.409-1.371-1.579-1.787-2.543-3.449-8-6.476-16.2-11.224-24.2-10.491,16.379-19.779,33.22-29.893,49.554-10.1,16.307-19.966,32.757-30.263,48.726,7.75-4.539,14.559-10.771,22.167-15.882.277-.2.565-.391.855-.573a10.587,10.587,0,0,0,2.108-1.679c8.688-5.839,17.519-11.464,26.087-17.478,5.572-3.911,11.227-7.7,16.714-11.738.9-.665,1.76-1.595,3.095-1.3a75.314,75.314,0,0,1-2.386,11.033,5.467,5.467,0,0,0-2.164,1.187c-11.141,8.257-22.749,15.835-34.278,23.526-3.665,2.444-7.076,5.236-10.739,7.674-1.686,1.122-1.649,2.706-1.53,4.412.885,12.689.281,25.392.326,38.09a2.18,2.18,0,0,1-.1.489c-1.36,1.723-2.6,3.679-5.322,2.9-1.034-1.284-.941-2.829-.86-4.3.6-10.888.467-21.784.481-32.679,0-.333.031-.668,0-1-.056-.632.281-1.447-.427-1.819-.687-.361-1.259.247-1.778.622a124.294,124.294,0,0,1-10.775,7.222,27.389,27.389,0,0,1-6.013,2.991c-1.446.412-1.9,1.218-1.835,2.742a220.55,220.55,0,0,1-.173,29.414c-.094,1.071-.05,2.19-1,2.98-2.048.537-3.045-.74-3.9-2.26-.97-3.972-.891-8.052-1.059-12.086-.235-5.63.015-11.276-.073-16.914-.016-1.016.33-2.351-1.041-2.767a5.712,5.712,0,0,0-4.141.113c-.965.463-.661,1.593-.736,2.474-.592,6.941-.571,13.9-.515,20.855a6.779,6.779,0,0,1-.288,2.456c-.19.355-.43.833-.87.654-1.827-.739-3.9-1.137-4.874-3.189.2-7.381-.105-14.768.174-22.149a1.972,1.972,0,0,0-1.451-2.251c-6.1-2.172-11.185-6.075-16.417-9.724-.849-.592-1.691-1.839-2.764-1.172-.989.615-.5,1.985-.391,3.024.752,6.871.219,13.759.317,20.638a2.713,2.713,0,0,1-.474,1.652,4.988,4.988,0,0,1-5.243-2.246,147.779,147.779,0,0,1-.05-17.18,44.451,44.451,0,0,0,.294-11.025c-.392-.814-.671-1.675-1.015-2.51-2.236-5.42-5.708-7.536-11.572-7.053a3.435,3.435,0,0,1-.98-.042c-2.986-1.884-5.708-4.163-8.805-5.884a2.192,2.192,0,0,1-1.211-1.486c.971-5.547.418-11.176.917-16.743,1.254-1.784,1.4-.1,1.5.591a25.654,25.654,0,0,1,.089,5.727c-.18,2.384.792,3.815,2.8,5.042,8.165,4.978,15.932,10.54,23.57,16.295,4.677,3.524,9.276,7.176,14.493,10.37-20.751-32.5-40.14-65.519-60.185-98.629-1.331,2.478-2.282,4.582-3.438,6.572-.457.786-.8,1.683-1.891,1.81-2.282.016-3.481-1.145-3.8-3.374a22.386,22.386,0,0,1,.008-8.1c1.069-1.162,1.192.023,1.383.631.342,1.09.027,2.261.3,3.678a47.134,47.134,0,0,1,3.622-5.87,2.841,2.841,0,0,0,.131-2.846,58.959,58.959,0,0,1-1.83-6.2,7.837,7.837,0,0,1,.268-4.861Z" fill="#cacaca"/>
        <path id="Path_82" data-name="Path 82" d="M313.541,291.624a66.738,66.738,0,0,1-24.688-2.864c-7.307-2.351-10.546-6.839-9.32-14.411a120.356,120.356,0,0,1,7.7-26.426,103.137,103.137,0,0,1,8.06-15.681,36.208,36.208,0,0,1,8.544-9.575c3.91-3.024,7.959-4.457,12.643-3.068a21.847,21.847,0,0,1,11.028,7.3c8.067,10,12.851,21.561,16.513,33.713a82.029,82.029,0,0,1,3.408,15.493c.694,6.924-3.211,10.475-9.253,12.548a62.1,62.1,0,0,1-24.631,2.967Z" fill="#e5ab6b"/>
        <path id="Path_83" data-name="Path 83" d="M330.962,344.116c-.212,1.678-1.543,2.716-2.361,4.038-4.536,7.326-9.153,14.6-13.72,21.908-.43.688-.871,1.2-1.755,1.09a.654.654,0,0,0-.248,0c-5.852,1.6-9.634-.04-12.7-5.8-4.74-8.9-10.583-17.221-15.959-25.787a5.823,5.823,0,0,1,.171-3.427c1.68-6.6,3.278-13.218,4.977-19.812a6.057,6.057,0,0,0-.215-4.346,25.761,25.761,0,0,1,5.738-10.679,21.853,21.853,0,0,1,2.555-2.637c4.716-.031,9.321,1.462,14.069,1.021.809-.075,1.626-.056,2.439-.08.662,1.1-.108,1.925-.61,2.722-3.317,5.27-8.311,7.932-14.283,8.977a60.994,60.994,0,0,1-6.122.809,17.5,17.5,0,0,0,9.72.457,12.923,12.923,0,0,1,6.114.123,61.444,61.444,0,0,0,14.028,1.776c1.223.037,2.507-.23,3.611.582-.318,2.69.477,5.236,1.038,7.807,1.309,6,2.452,12.033,3.579,18.068a5.541,5.541,0,0,1-.07,3.185Z" fill="#60a059"/>
        <path id="Path_84" data-name="Path 84" d="M230.3,142.336c.48-8.648,4.377-15.469,14.554-16.309,5.385-.445,9.789,2.138,12.623,6.9a34.132,34.132,0,0,1,3.041,7.343c.216.688.661,1.339-.641,1.594-8.506,1.667-13.059,7.24-14.7,15.413-.36,1.792-.975,3.632-.31,5.623.526,1.576-.611,1.343-1.541.835a23.827,23.827,0,0,1-8.029-6.563,23.544,23.544,0,0,1-5-14.833Z" fill="#5f3523"/>
        <path id="Path_85" data-name="Path 85" d="M388.843,142.6c-.629,8.954-4.185,16.174-12.35,20.711-2.036,1.131-2.235.45-2.167-1.49.272-7.661-2.9-13.632-9.208-17.931a11.94,11.94,0,0,0-5.282-2.033c-.756-.094-1.69-.048-1.311-1.211,1.5-4.6,3.029-9.206,7.2-12.2,8.086-5.8,20.521-.735,22.533,9.192a13.329,13.329,0,0,1,.58,4.963Z" fill="#5f3523"/>
        <path id="Path_86" data-name="Path 86" d="M261.483,302.177c-3.611-4.929-6.331-10.4-9.467-15.622-1.482-2.466-3.063-4.885-4.428-7.425,2.831,1.869,5.6,3.84,8.5,5.589,10.949,6.6,22.969,10.239,35.424,12.638,1.181.747.293,1.486-.115,2.066a25.532,25.532,0,0,0-3.23,6.162,3.9,3.9,0,0,1-2.542,2.557c-5.223,1.689-10.338,1.832-15.087-1.336C267.69,304.9,264.116,304.47,261.483,302.177Z" fill="#b0eaaa"/>
        <path id="Path_87" data-name="Path 87" d="M341.325,173.825c8.994.527,17.1,3.064,24.162,8.45a9.516,9.516,0,0,1,3.989,6.093c.547,3.425-1.936,5.627-5.179,4.485-3.008-1.059-5.322-3.321-8.173-4.7-7.4-3.578-14.983-3.832-22.725-1.564-3.647,1.068-6.305.215-7.417-2.714-1.168-3.077.339-6.072,3.7-7.569C333.454,174.621,337.494,174.294,341.325,173.825Z" fill="#5f3523"/>
        <path id="Path_88" data-name="Path 88" d="M300.474,181.762c.01,4.268-2.85,6.285-6.957,5.013-9.585-2.968-18.674-2.038-27.145,3.576a17.658,17.658,0,0,1-4.52,2.586c-3.175.965-5.529-.96-5.055-4.255a7.771,7.771,0,0,1,2.323-4.818c5.912-5.563,13.131-8.2,20.947-9.538a30.461,30.461,0,0,1,16.328,1.911C299.308,177.358,300.468,178.918,300.474,181.762Z" fill="#5f3523"/>
        <path id="Path_89" data-name="Path 89" d="M369.392,280.713c-3.284,6.546-7.378,12.622-11.009,18.966a75.01,75.01,0,0,0-8.494,6.018,18.064,18.064,0,0,1-15.286,4.08c-1.692-.295-3.085-.969-3.538-2.672a18.555,18.555,0,0,0-4.277-8.019,1.235,1.235,0,0,1-.348-1.362,136.861,136.861,0,0,0,30.774-9.713C361.534,286.011,365.358,283.188,369.392,280.713Z" fill="#b0eaaa"/>
        <path id="Path_90" data-name="Path 90" d="M326.48,315.217c-6.711-.049-13.393-.321-19.856-2.416a4.057,4.057,0,0,0-2.431.183,23.1,23.1,0,0,1-10.329.368c-1.063-.183-2.776-.172-2.558-1.671.149-1.027,1.719-.461,2.643-.5,6.555-.306,12.592-1.818,17.205-6.948a14.067,14.067,0,0,0,2.8-4.617,11.846,11.846,0,0,1,3.942-.49c.222,2.412-1.4,4.1-2.414,6.012-1.162,2.2-1.189,2.277,1.051,3.17a24.671,24.671,0,0,0,7.615,1.9c1.963.128,3.378-1.306,5.221-1.2,1.16.721.637,1.8.605,2.784C329.344,313.476,329.008,315.468,326.48,315.217Z" fill="#43743e"/>
        <path id="Path_91" data-name="Path 91" d="M261.483,302.177a47.623,47.623,0,0,1,9.705,4.3c4.634,3.006,9.579,2.485,14.559,1.025a2.65,2.65,0,0,0,1.749-1.951,20.131,20.131,0,0,1,4.064-7.294c.142-.163-.024-.594-.047-.9l5.934,1.316c-.235.612-.291,1.46-.735,1.8-3.751,2.867-5.088,7.27-7.249,11.146-1.284,2.288-3.711,2.356-5.823,2.795a18.11,18.11,0,0,1-18.133-5.921C263.673,306.7,262.661,304.385,261.483,302.177Z" fill="#6d9069"/>
        <path id="Path_92" data-name="Path 92" d="M367.979,218.565c-2.378-1.844-4.066-4.313-6.5-6.027-6.507-4.582-15.692-6.422-22.427-1.063-1.732,1.378-2.515,3.793-4.911,4.4,1.863-9.462,8.585-15.5,18.627-13.228,5.368,1.215,9.894,3.622,13.075,8.315C367.4,213.259,367.794,215.8,367.979,218.565Z" fill="#542a18"/>
        <path id="Path_93" data-name="Path 93" d="M292.409,216.544c-12.757-14.011-23.694-8.96-34.069,2.321-.929-6.268,5.342-14.74,16.3-16.475C283.962,200.915,290.04,206.316,292.409,216.544Z" fill="#542a18"/>
        <path id="Path_94" data-name="Path 94" d="M329.455,311.706c-.3-.826.563-1.684-.07-2.5-1.994-3.275-4.241-6.412-5.519-10.079a2.3,2.3,0,0,1,2.573-1.4c2.407,2.674,4.549,5.471,5.14,9.189.22,1.387,1.366,2,2.7,2.22a18.185,18.185,0,0,0,15.871-4.45,36.015,36.015,0,0,1,7.133-4.957c.338-.177.714-.505,1.1-.047-2.057,2.675-2.928,6.122-5.51,8.456a17.915,17.915,0,0,1-22.048,4.147C330.381,312.052,329.908,311.906,329.455,311.706Z" fill="#6d9069"/>
        <path id="Path_95" data-name="Path 95" d="M323.867,299.126c2.2,3.161,4.378,6.336,5.519,10.079-5.288,3.442-10.142.738-15.035-1.1-1.107-.417-.829-1.156-.231-1.974a40.233,40.233,0,0,0,3.779-7.007,9.218,9.218,0,0,1,5.969.005Z" fill="#60a059"/>
        <path id="Path_96" data-name="Path 96" d="M404.3,377.581c5.869-1.067,11.733-2.166,17.609-3.193,9.965-1.741,19.343-.291,27.847,5.422,1.33.894,1.948.662,2.66-.658,1.092-2.024,2.58-4.11,5.094-3.661,2.75.49,3.865,2.9,4.24,5.549.359,2.534.689,5.073,1.03,7.6,4.329-2.024,6.914-.633,7.97,4.339,2.567,12.086.52,23.48-4.723,34.562-3.072,6.493-6.289,12.823-11.182,18.14-8.812,9.577-19.361,16.839-30.714,23.061-4.959,2.718-10.2,4.808-15.257,7.306a20.583,20.583,0,0,1-3.062.974c-.373-1.25.678-1.4.813-1.544-10.91,5.832-23.3,8.222-36.162,9.229-10.259.8-20.59.751-30.781,2.4a112.42,112.42,0,0,0-26.179,7.88c-7.921,3.372-13.756,9.107-20,14.526-5.727,4.974-11.979,8.936-19.637,10.257a15.214,15.214,0,0,1-7.622-.533c-3.457-1.17-4.743-3.882-3.4-7.3a17.048,17.048,0,0,1,3.282-5.269,118.912,118.912,0,0,1,10.161-10.005c-6.729,2.918-12.719,6.242-16.07,12.854-.85,1.677-1.9,1.349-2.927.253a7.527,7.527,0,0,1-2.22-6.858,15.035,15.035,0,0,1,4.662-8.584c2.961-2.614,5.329-5.886,9.111-8.071a2.927,2.927,0,0,0-3.01-.112,21.219,21.219,0,0,0-8.134,4.714c-.593.586-1.3,1.666-2.263.883-.8-.656-.353-1.712.041-2.549a18.832,18.832,0,0,1,2.6-4.53c3.066-3.457,5.764-7.255,9.895-9.72,10.393-6.2,19.749-13.79,28.756-21.846,8.247-7.378,16.093-15.163,23.948-22.946,3.541-3.509,7.268-6.83,10.984-10.16,5.773-5.172,10.63-11.216,15.806-16.954a2.474,2.474,0,0,0,.772-1.787c1.873-2.512,4.845-3.419,7.363-4.964a143.212,143.212,0,0,1,23.239-11.4,179.779,179.779,0,0,1,22.53-7.208A4.3,4.3,0,0,1,404.3,377.581Z" fill="#9b654c"/>
        <path id="Path_97" data-name="Path 97" d="M299.853,402.188l5.1,2.816a21.824,21.824,0,0,1,8.957,5.605,7.645,7.645,0,0,0,2.885,2.052c2.8,1.747,5.918,3.118,7.41,6.384a2.8,2.8,0,0,1-1.213,1.806c-7.835,7.086-15.242,14.614-22.836,21.95a279.477,279.477,0,0,1-22.245,19.625c-5.565,4.336-10.766,9.182-17.2,12.293-2.668,1.289-4.192,4.013-6.807,5.358-9.8-2.162-19.717-3.72-29.361-6.621-13.348-4.015-26.238-8.958-37.44-17.476-8.041-6.114-14.878-13.424-18.732-22.867-5.849-14.329-7.444-29-2.049-43.959a27.248,27.248,0,0,1,3.86-7.753c1.068-1.37,2.293-2.765,4.324-2.351,1.971.4,2.772,2,3.275,3.726.389,1.333.616,2.713.98,4.368,1.278-1.492,2.467-2.732,3.488-4.1a48.854,48.854,0,0,1,15.143-13.08c1.814-1.041,3.625-1.676,5.664-.707,1.558,1.517,1.823,3.541,2.135,5.535a12.258,12.258,0,0,0,.252,2.41,1.042,1.042,0,0,0,1.527.755,6.115,6.115,0,0,1,2.418-.457c3.432.9,6.816,2,10.444.793,1.819-.6,3.289-1.931,5.2-2.29a85.515,85.515,0,0,1,20,3.692c8.9,2.926,17.943,5.429,26.593,9.085a5.7,5.7,0,0,1,2.349,1.339l4.539,1.861a1.867,1.867,0,0,1,1.892.106c6.066,2.643,12.192,5.163,17.873,8.605C298.894,401.07,299.6,401.4,299.853,402.188Z" fill="#9b654c"/>
        <path id="Path_98" data-name="Path 98" d="M253.9,480.077c2.675-3.651,6.357-6.022,10.294-8.055,4.384-2.263,7.8-5.821,11.688-8.745,7.62-5.73,14.523-12.318,21.614-18.672,2.9-2.6,5.577-5.448,8.322-8.216,5.67-5.717,11.473-11.293,17.541-16.588a3.946,3.946,0,0,0,.559-.812,4.88,4.88,0,0,1,1.617-2.153c4.108-3.582,8.248-7.124,13.058-9.768a2.143,2.143,0,0,1,1.4-.383,15.216,15.216,0,0,0,4.4-3.047c1.168-1.063,2.259-2.279,4.078-2.042,1.253.343.292.8.018,1.112-5.754,6.522-11.34,13.168-17.865,19.007-6.986,6.251-13.469,13.063-20.24,19.559-10.869,10.429-21.971,20.594-34.311,29.3a35.439,35.439,0,0,1-4.859,3.01c-4.923,2.392-8.372,6.478-11.866,10.422a13.438,13.438,0,0,0-3.669,7.628,24.829,24.829,0,0,1,9.4-5.946c1.476-.532,3.688-1.558,4.386-.384.805,1.353-1.533,2.073-2.549,3.046-4.245,4.067-9.327,7.424-11.044,13.606a7.84,7.84,0,0,0,.531,5.526c.46,1.033,1.07,2.364,2.185,2.6,1.468.312,1.206-1.439,1.718-2.22,4.213-6.434,9.932-9.6,17.3-12.193-.141.93-.94,1.318-1.477,1.87-3,3.086-6.276,5.885-9.145,9.112a19.94,19.94,0,0,0-3.621,5.618c-1.244,3-.047,5.383,3.081,6.392,5.642,1.819,10.793.095,15.805-2.278,6.854-3.245,12.122-8.554,17.693-13.529,3.514-3.138,7.185-6.16,11.989-7.639,2.759-.85,5.365-2.591,8.127-3.685a93.868,93.868,0,0,1,24.093-5.612c7.494-.857,15.028-.923,22.537-1.46,13.87-.991,27.5-2.979,40-9.649a6.024,6.024,0,0,1,.992-.265l-1.857,2.478a14.524,14.524,0,0,0-1.9,1.107c-9.616,7.7-20.581,11.438-32.89,11.89a269.672,269.672,0,0,0-28.165,2.02,16.06,16.06,0,0,1,4.281,9.41c.641,5.861-.042,11.609-4.044,15.939-2.345,2.537-3.481,5.235-4.737,8.216-2.488,5.908-10.334,10.5-16.756,10.291a11.712,11.712,0,0,1-6.22-2.305c-.615-.415-1.027-.77-1.946-.31-4.7,2.35-9.021,1.52-12.936-2.008a30.16,30.16,0,0,1-7.647-10.63c-.63-1.467-1.1-1.785-2.619-.8-4.932,3.2-10.243,5.541-16.221,5.882-5.212.3-10.331-.645-13.342-5.145a48.922,48.922,0,0,0-6.672-7.637c-2.806-2.768-3.33-6.615-3.122-10.447a12.333,12.333,0,0,0-.736-5.065c-2.007-5.556-.074-10.6,2.525-15.478C253.024,481.293,253.491,480.7,253.9,480.077Z" fill="#794a35"/>
        <path id="Path_99" data-name="Path 99" d="M348.474,401.595l-4.078,2.042c-.017-10.892-.085-21.783-.014-32.674.016-2.5-.328-4.957-.533-7.427a3.5,3.5,0,0,1,1.767-3.473c10.026-7.354,20.518-14.019,30.794-21,5.133-3.487,10.091-7.232,15.153-10.825.5-.355,1.145-1.624,1.785-.064l-2.007,9.455c-.326,1.564-1.636,1.069-2.583,1.16-9.647.934-18.255,10.254-17.688,19.607.486,8.016,5.236,13.328,12.187,16.591a20.537,20.537,0,0,0,18.734-.192c.855-.432,1.7-1.117,2.789-.627a9.4,9.4,0,0,0-.475,3.415c-6.8,1.815-13.531,3.846-20.188,6.155A150.331,150.331,0,0,0,358.627,395.4C355.184,397.372,351.545,399.015,348.474,401.595Z" fill="#fefefe"/>
        <path id="Path_100" data-name="Path 100" d="M204.9,377.557a31.043,31.043,0,0,0-1.844-8.3q0-1.575,0-3.152c.707-5.136,4.113-7.977,8.493-9.99,1.73-1.659,3.875-.914,6.152-.937-2.617-4.855-5.678-9.372-5.7-14.994l-.477-2.5c-.343-.562-.241-.963.419-1.161,1.715,1.543,2.469,3.713,3.532,5.651,2.663,4.86,6.36,8.924,9.785,13.2a8.184,8.184,0,0,0,2.636,1.867c7.754,4.22,15.574,8.274,24.743,9.086a23.848,23.848,0,0,1,.1-7.88c.312-1.344-.8-1.443-1.637-1.722a47.955,47.955,0,0,1-16.679-9.276c-3.583-3.137-7.02-6.416-8.808-10.983-.5-1.288-1.162-2.748.751-3.6,2.035.293,2.9,2.034,4.115,3.34.553.593.954,1.7,1.8,1.519,1.061-.232.751-1.507.983-2.337a9.883,9.883,0,0,0,.095-2.729c.236-2.615-.077-5.224-.048-7.836-.056-3.91-.15-7.818.033-11.723.18-.713.254-1.584,1.253-1.569.776.012,1.129.694,1.328,1.321,2.837,8.9,5.1,17.832.972,26.963a2.324,2.324,0,0,0,.758,3.234c1.055.81,2.08,1.66,3.193,2.39,2.683,1.76,2.986,1.661,3.814-1.364a66.235,66.235,0,0,0,2.136-14.769,42.357,42.357,0,0,1,.7-5.935c.244-1.32.708-2.657,2.544-2.429a5.229,5.229,0,0,1,1.534,6.182c-.324,5.01.419,10.059-.56,15.045-.19.966-.363,1.935-.544,2.9.539,1.158-.194,2.112-.638,3.016-.727,1.481-.222,2.07,1.2,2.489,2.915.86,5.811,1.708,8.89.936,7.427-1.28,11.784,1.695,14.111,9.635.6,1.615.076,3.219-.05,4.825-1.414,7.744-8.713,11.362-15.647,7.625a11.187,11.187,0,0,0-5.428-1.381c-5.178-.05-9.867-2.038-14.532-3.991-2.924-1.225-2.768-1.224-4.737,1.19-2.411,2.957-5.094,5.672-8.724,7.192-5.039,3.362-10.347,3.649-15.877,1.391a6.868,6.868,0,0,1-3.824-2.84C205.776,376.086,205.823,376.871,204.9,377.557Z" fill="#79828b"/>
        <path id="Path_101" data-name="Path 101" d="M404.779,374.166c-6.712,3.946-13.746,4.89-21,1.819-10.378-4.392-16.394-15.077-12.106-24.926,3.393-7.794,9.565-12.076,18.029-13.007.571-.063,1.177.04,1.641-.425,4.418-.265,8.76-.029,12.84,1.943a4.349,4.349,0,0,1,2.371.828c3.335,2.6,5.333,6.122,6.859,9.972.706,2.852,2.289,5.606.964,8.681q-.591,3.244-1.183,6.487C411.035,369.045,408.535,372.218,404.779,374.166Z" fill="#79828b"/>
        <path id="Path_102" data-name="Path 102" d="M494.619,258.775a5.13,5.13,0,0,1-5.009,4.863c-2.578.014-4.777-2.427-4.819-5.35-.03-2.122,2.811-6.389,4.213-6.328C490.736,252.035,494.578,256.7,494.619,258.775Z" fill="#fefdfd"/>
        <path id="Path_103" data-name="Path 103" d="M133.148,258.6c-.093,2.992-2.088,5.136-4.684,5.035a4.673,4.673,0,0,1-4.773-5.163c.089-2.259,3.583-6.315,5.556-6.449C130.735,251.924,133.225,256.123,133.148,258.6Z" fill="#fefefd"/>
        <path id="Path_104" data-name="Path 104" d="M207.562,330.145c-.991,3.014-1.053,6.18-1.475,9.283-.787,5.781-.585,11.607-.52,17.418.019,1.686-.389,2.437-2.22,2.27a71.883,71.883,0,0,1-8.6-1.164,9.557,9.557,0,0,1-6.013-4.36c-4.525-6.46-11.027-10.609-17.578-14.74-5.957-3.756-12.32-6.858-17.913-11.219a3.89,3.89,0,0,1-1.677-3.544c.064-5.426,1.544-10.638,2.29-15.959,1.322-9.435,3.658-18.676,5.236-28.059.217-1.289.529-1.642,1.873-1.426,6.53,1.048,13.064,2.1,19.625,2.92,5.582.7,11.268.728,16.785,1.729,4.234.768,5.8-1.26,7.18-4.519a31.111,31.111,0,0,1,3.512-6.564c.788,4.116,2.014,7.9-1.208,12.033-5.53,7.1-6.162,15.484-3.982,24.1a15.213,15.213,0,0,0,1.549,2.823c.572,3.8.252,7.716,1.565,11.437.572,1.622,1.015,3.3,1.519,4.952C207.77,328.4,208.21,329.272,207.562,330.145Z" fill="#fefefe"/>
        <path id="Path_105" data-name="Path 105" d="M204.059,311.126c-2.426-1.5-2.326-4.1-2.551-6.4-.717-7.317-.129-14.518,4.48-20.585,1.809-2.38,3.058-4.432,2.318-7.473a23.236,23.236,0,0,1-.236-4.456,28,28,0,0,1,1.55-6.517c4.049-1.486,8.01-3.252,12.312-3.932,1.275-.2,1.409-1.193,1.674-2.132,1.637,1.031,1.708,2.46,1.036,4.077,0,2.394.036,4.788-.024,7.181-.069,2.738,1.024,4.327,3.938,4.282,2.566-.682,4.219,1.03,5.913,2.393a30.084,30.084,0,0,1,8.448,11.206,57.485,57.485,0,0,1,4.144,15.312,3.179,3.179,0,0,1-.341,2.171c-4.663,1.016-9.216,3.264-14.154,1.289a5.45,5.45,0,0,1-1.833-2.877,29.766,29.766,0,0,0-2.744-5.561c-1.617-2.4-3.461-3.183-5.657-2.5a5.608,5.608,0,0,0-3.783,5.553c0,1.878.572,3.8-.4,5.606C213.942,310.924,209.184,311.793,204.059,311.126Z" fill="#6d7277"/>
        <path id="Path_106" data-name="Path 106" d="M204.059,311.126c2.177-.784,4.512-.156,6.736-.83,2.171-.658,4.566-.681,6.04-2.838.272-.4.744-.093,1.072.18,1.409-.238,1.61.88,1.908,1.783a15.735,15.735,0,0,1,.435,5.425c-.424,3.3,1.038,6.248,1.778,9.328.674,2.605,2.38,4.68,3.615,7,.336.63,1.074,1.074.9,1.94-1.452.7-.839,1.789-.49,2.776,1.643,4.649,5.122,7.9,8.676,11.019a46.311,46.311,0,0,0,17.8,9.572c1.178.344,1.186.809.947,1.7a14.7,14.7,0,0,0-.048,7.844c.521,1.913-1.1,1.1-1.652.985-4.449-.936-8.985-1.617-13.127-3.637-3.8-1.853-7.565-3.778-11.329-5.7-3.468-1.774-5.129-5.262-7.524-8.05a47.513,47.513,0,0,1-7.777-12.942c-.484-.222-.6-.7-.8-1.194a2.831,2.831,0,0,1-.141,2.148l-3.517-7.479C205.65,323.943,203.32,317.817,204.059,311.126Z" fill="#bdc3c4"/>
        <path id="Path_107" data-name="Path 107" d="M133.615,318.424c-.135-7.375,1.657-14.052,2.791-20.822,1.337-7.981,4.133-15.53,6.744-23.136a10.01,10.01,0,0,1,.984-2c1.76-2.833,2.236-2.988,5.46-1.838a19.812,19.812,0,0,1,2.066.861c4.822,2.364,4.74,2.344,3.192,7.29a266.644,266.644,0,0,0-9.783,43.335c-.262,1.9-.638,3.735-.049,5.648.352,1.143-.434,1.409-1.417,1.407-5.1-.008-10.838-1.635-10-8.93A12.955,12.955,0,0,0,133.615,318.424Z" fill="#fefefe"/>
        <path id="Path_108" data-name="Path 108" d="M212,340.183c1.455,5.005,2.908,10.009,6.223,14.2.257.325.894.726.311,1.2a1.742,1.742,0,0,1-1.35.412c-1.913-.639-3.767-.2-5.638.114-.01-4.62-.032-9.241-.019-13.861C211.529,341.547,211.287,340.745,212,340.183Z" fill="#fdfdfd"/>
        <path id="Path_109" data-name="Path 109" d="M211.079,337.624v-2.519c.757.324.621,1.083.943,1.565-.417.214-.452.616-.5,1.013Q211.3,337.645,211.079,337.624Z" fill="#91abc6"/>
        <path id="Path_110" data-name="Path 110" d="M414.375,359.051a34.264,34.264,0,0,0-1.614-8.915c-1.666-8.789-2.231-17.73-3.679-26.55a1.314,1.314,0,0,1,.206-.948c2.3-14.546,4.1-29.137,4.08-43.9,3.626,5.45,3.607,5.314,9.976,4.381,6.543-.959,13.137-1.571,19.7-2.42q6.764-.875,13.494-2.007c1.6-.269,2.31.154,2.582,1.788,1.832,11.019,4.668,21.852,6.126,32.943.366,2.786.938,5.545,1.394,8.32.465,2.835-.15,4.983-2.824,6.77-5.185,3.464-10.641,6.46-15.9,9.781-5.118,3.23-10.342,6.332-14.627,10.672a29.53,29.53,0,0,0-4.648,5.808c-1.605,2.755-4.633,3.167-7.345,3.652a23.931,23.931,0,0,1-6.914.623Z" fill="#fefefe"/>
        <path id="Path_111" data-name="Path 111" d="M484.686,318.611c0,1.173.039,2.09-.006,3-.245,4.944-6.281,9.038-11.02,7.538-.847-.268-.663-.7-.575-1.313.639-4.435-.433-8.737-1.092-13.067-1.612-10.578-4.434-20.878-7.187-31.194a36.3,36.3,0,0,0-2.534-7.269c-.649-1.269-.554-2.041.774-2.835a39.012,39.012,0,0,1,6.176-3.186,3.255,3.255,0,0,1,4.538,1.68c2.391,4.334,3.451,9.128,4.974,13.765a142.4,142.4,0,0,1,5.31,24.971C484.417,313.388,484.972,316.111,484.686,318.611Z" fill="#fefefe"/>
        <path id="Path_112" data-name="Path 112" d="M347.352,350.137c-8.007,5.759-15.424,12.36-24.484,17.355,21.491-33.5,41.427-67.425,62-101.444a172.907,172.907,0,0,1,9.48,19.963c1.1,2.773,2.343,5.492,3.521,8.235a117.1,117.1,0,0,1-2.14,22.892c-7.262,5.052-14.5,10.144-21.8,15.142-5.121,3.507-10.325,6.893-15.5,10.316-2.83,1.871-5.684,3.706-8.526,5.556a.458.458,0,0,1-.637-.015,1.7,1.7,0,0,1,.151-1.649,9.243,9.243,0,0,0,.59-1.364c.664-2.312-.069-4.759-1.648-5.511s-3.829.309-5.135,2.463a7.262,7.262,0,0,0-1.152,3.75c-.014,2.578,1.29,3.871,3.911,3.9A1.6,1.6,0,0,1,347.352,350.137Z" fill="#fefefe"/>
        <path id="Path_113" data-name="Path 113" d="M397.945,279.193c-2.557-3.567-4.233-7.642-6.547-11.35-.306-.491-.442-1.143-.848-1.51-3.3-2.985-3.414-6.351-1.658-10.229,1.052-2.325,1.207-4.955,1.459-7.5,2.423,2.646,3.416,6.022,4.5,9.288a65.356,65.356,0,0,1,3.1,21.306Z" fill="#fefefe"/>
        <path id="Path_114" data-name="Path 114" d="M409.288,322.638a155.983,155.983,0,0,1,3.473,27.5,26.366,26.366,0,0,0-6.461-9.4c-1.378-1.936-.379-4.019-.374-6.041Z" fill="#cacaca"/>
        <path id="Path_115" data-name="Path 115" d="M405.926,334.7c.769,1.973.241,4.027.374,6.04a4.061,4.061,0,0,1-2.119-1.166Z" fill="#eff1f3"/>
        <path id="Path_116" data-name="Path 116" d="M224.642,263.707c-.224-1.39-.1-2.869-1.036-4.077.861-3.9,1.982-7.7,4.407-10.981-.232,3.9.973,7.516,2.3,11.085a3.2,3.2,0,0,1-.614,3.728,57.672,57.672,0,0,0-4.3,6.681C224.574,267.855,225.659,265.64,224.642,263.707Z" fill="#fdfdfd"/>
        <path id="Path_117" data-name="Path 117" d="M246.464,306.142a48.9,48.9,0,0,0-6.233-20.905c-2.723-4.725-6.364-8.357-11.674-10.066l4.609-9.21c20.693,33.847,40.345,67.743,61.733,100.9a20.672,20.672,0,0,1-6.326-3.409c-10.241-7.895-20.541-15.755-31.526-22.55-4-2.476-5.783-4.866-5.094-9.391a6.584,6.584,0,0,0-.383-4.381c-.166-2.083-.336-4.165-1.593-5.956a4.6,4.6,0,0,1-1.235-2.637c-.885-3.275-1.276-6.683-2.578-9.842a2.458,2.458,0,0,1,.3-2.553Z" fill="#fefefe"/>
        <path id="Path_118" data-name="Path 118" d="M340,406.683a111.822,111.822,0,0,0-16.077,12.3c-1.913-2.629-5.011-3.923-7.125-6.326a20.236,20.236,0,0,0,1.027-7.31c.154-7.56.481-15.16-.117-22.675-.317-3.978.455-5.409,4.275-6.84,5.392-2.02,10.035-5.748,14.671-9.253a4.147,4.147,0,0,1,1.2-.857c.693-.184,1.4-.936,2.1-.423.656.483-.04,1.226-.026,1.862.033,1.495-.035,2.992-.033,4.487.016,10.376.02,20.752-.464,31.12a9.624,9.624,0,0,0,.575,3.91Z" fill="#fefefe"/>
        <path id="Path_119" data-name="Path 119" d="M299.853,402.188A234.368,234.368,0,0,0,278.5,391.98c-.026-5.49-.151-10.983-.034-16.47.059-2.759-.551-5.446-.5-8.187.047-2.472.328-2.681,2.523-1.43,1.141.65,2.1,1.606,3.209,2.327,5.186,3.378,9.971,7.487,16.22,8.948.788.184.957.8.876,1.552-.729,6.88-.143,13.784-.364,20.674C300.4,400.343,300.816,401.42,299.853,402.188Z" fill="#fefefe"/>
        <path id="Path_120" data-name="Path 120" d="M224.908,376.613c1.9-1.6,3.828-3.172,5.683-4.826.926-.826,1.709-1.811,2.567-2.714.8-.841.587-2.716,1.773-2.778,1.2-.063,2.462.838,3.682,1.351,5.383,2.262,10.8,4.389,16.812,3.935a2.663,2.663,0,0,1,1.859.514c7.764,5.548,13.125,1.1,15.712-4.553.207-.453.382-.922.572-1.383,1.293,1.9.547,3.955.428,5.96q-.015,9-.029,18c-4.716-.986-8.955-3.337-13.544-4.705-6.65-1.983-13.254-4.12-19.887-6.161C235.445,377.687,230.126,377.436,224.908,376.613Z" fill="#fefefe"/>
        <path id="Path_121" data-name="Path 121" d="M329.455,311.706c.467-.015.2-1.355,1.2-.547,4.061,3.269,8.72,2.912,13.39,1.923,3.421-.725,5.872-3.31,8.823-4.947-.725,2.9-2.662,5.182-4.152,7.641-5.775,9.534-11.816,18.907-17.759,28.34-1.812-8.717-3.213-17.519-5.4-26.158-.281-1.107-.255-2.121.923-2.742a4.026,4.026,0,0,0,2.975-3.511Z" fill="#b0eaaa"/>
        <path id="Path_122" data-name="Path 122" d="M265.508,308.489c1.6,1.04,3.174,2.12,4.8,3.115,6.375,3.9,12.767,3.316,19.155.012,1.263,1.377,1.1,2.806.632,4.553-2.069,7.771-3.935,15.6-5.875,23.4q-5.156-8.289-10.309-16.579c-2.477-4-4.918-8.024-7.4-12.023A4.413,4.413,0,0,1,265.508,308.489Z" fill="#b0eaaa"/>
        <path id="Path_123" data-name="Path 123" d="M313.91,410.61,304.953,405c-.172-8.533.13-17.057.414-25.583.048-1.43.569-1.863,1.923-1.839,6.882.12,5.509-1.08,5.613,5.265.091,5.556-.188,11.129.14,16.668C313.262,403.208,313.061,406.958,313.91,410.61Z" fill="#fefefe"/>
        <path id="Path_124" data-name="Path 124" d="M347.352,350.137c-4.029.607-5.692-.43-5.957-3.714-.3-3.664,2.716-7.686,5.827-7.781,3.007-.092,4.8,3.935,3.228,7.3-.346.742-.751,1.457-1.129,2.185-.226.75-.9,1.075-1.447,1.518Z" fill="#cacaca"/>
        <path id="Path_125" data-name="Path 125" d="M259.914,351.517c-3.938,2.483-7.4-.179-11.013-1.051-.821-.2-.586-.739-.286-1.335.667-1.326,1.24-2.7,1.85-4.055A32.816,32.816,0,0,1,259.914,351.517Z" fill="#fdfdfd"/>
        <path id="Path_126" data-name="Path 126" d="M273.995,372.12c-.269-1.978.433-4.025-.428-5.96l.458-5.007c.2.141.572.3.56.42C274.217,365.08,274.954,368.649,273.995,372.12Z" fill="#edeeef"/>
        <path id="Path_127" data-name="Path 127" d="M347.874,349.642a3.236,3.236,0,0,1,1.448-1.518l.587.03a2.612,2.612,0,0,1-2.034,1.489Z" fill="#ebebeb"/>
        <path id="Path_128" data-name="Path 128" d="M329.114,237.054a6.13,6.13,0,0,1-1.613,2.774c-3.585,3.723-7.911,6.528-11.983,9.647a2.882,2.882,0,0,1-3.651.049,48.161,48.161,0,0,1-12.111-10.139c-1.747-2.135-1.122-3.674,1.6-4.535s5.584-.77,8.367-.9a118.285,118.285,0,0,1,16.611.8C327.824,234.89,328.861,235.471,329.114,237.054Z" fill="#694c3d"/>
        <path id="Path_129" data-name="Path 129" d="M312.619,276.437a35,35,0,0,1-20.455-10.229c-.589-.608-1.489-1.535-.7-2.34.71-.723,1.536.238,2.132.714,3.952,3.152,8.563,4.989,13.177,6.881a14.492,14.492,0,0,0,11.581-.178,118.515,118.515,0,0,0,12.875-6.459c.956-.539,2.291-1.9,3.243-.575.85,1.183-.516,2.338-1.406,3.109A37.1,37.1,0,0,1,312.619,276.437Z" fill="#542a18"/>
        <path id="Path_130" data-name="Path 130" d="M204.9,377.557l.243-2.952,3.889,3.4a22.289,22.289,0,0,0-2.356.728C205.419,379.268,205.021,378.657,204.9,377.557Z" fill="#d0cccb"/>
        <path id="Path_131" data-name="Path 131" d="M338.918,513.913a55.293,55.293,0,0,0-7.448-13.031c.2,1.448.316,2.916.627,4.34a56.859,56.859,0,0,1,1.351,12.558,9.517,9.517,0,0,1-3.092,7.342c-3.192,2.85-6.858,4.853-11.372,4.826-1.833-.011-2.437-.306-1.951-2.4,1.555-6.7-.715-12.616-4.607-18.174,0,3.354-.06,6.71.022,10.062a16.9,16.9,0,0,1-1.133,6.074c-1.009,2.862-3.328,3.868-6.126,2.759-4.945-1.96-7.655-6.143-10.271-10.411-.385-.629-.537-1.309.155-1.767,4.373-2.889,6.537-7.9,10.562-11.068a52,52,0,0,1,18.069-9.163,119.572,119.572,0,0,1,13.03-2.86c1.156-.187,1.745.092,2.322,1.446,2.114,4.96,3.062,9.965,1.776,15.266A9.788,9.788,0,0,1,338.918,513.913Z" fill="#9b654c"/>
        <path id="Path_132" data-name="Path 132" d="M246.464,306.142c-.187,2.534,1.421,4.62,1.725,7.072a77.892,77.892,0,0,0,1.788,7.96c-1.565.111-1.8,1.374-1.925,2.49-.415,3.692-.747,7.394-1.032,11.1a51.989,51.989,0,0,1-2.428,11.864c-.386,1.21-.821,1.437-1.916.806a60.3,60.3,0,0,1-6.847-4.9,1.054,1.054,0,0,1-.312-1.653c3.451-5.743,3.373-12,2.324-18.287a88.98,88.98,0,0,0-2.5-9.594c-.148-.521-.426-2.214-1.333-.318-2.923-2.5-3.228-3.649-1.463-5.512a18.171,18.171,0,0,0,11.483-1.072C244.99,305.7,245.664,307.065,246.464,306.142Z" fill="#bdc3c4"/>
        <path id="Path_133" data-name="Path 133" d="M232.541,307.165c-.469,1.168-1.419,2.323.663,3.1.779.289,0,1.756.8,2.416q0,6.227,0,12.454c-2.4.012-3.707-1.983-5.449-3.1-3.183-2.043-6.514-3.961-8.995-6.941-.247-1.837.168-3.712-.412-5.545-.251-.793-.34-1.586-1.247-1.906-.037-1.816-.113-3.633-.1-5.449.02-2.984,1.835-5.661,4.258-6.381,2.753-.818,4.892.2,6.777,3.251C230.411,301.6,231.318,304.458,232.541,307.165Z" fill="#fefefe"/>
        <path id="Path_134" data-name="Path 134" d="M214.75,373.587A8.09,8.09,0,0,1,209.1,372.1c-2.953-1.835-3.433-4.953-1.187-7.618,3.953-4.691,9.037-5.02,12.827-1.039,2.258,2.371,2.111,5.031,1.116,7.607-.747,1.934-3.041,2.07-4.868,2.51a9.786,9.786,0,0,1-2.234.028Z" fill="#bdc3c4"/>
        <path id="Path_135" data-name="Path 135" d="M263.194,355.615c3.926.066,6.871,2.851,6.781,6.413-.081,3.2-4,7.567-6.762,7.544-3.757-.03-7.3-3.582-7.147-7.167A7.02,7.02,0,0,1,263.194,355.615Z" fill="#bdc3c4"/>
        <path id="Path_136" data-name="Path 136" d="M219.564,315.089l14.443,10.043a39.184,39.184,0,0,1-.061,8.056,1.1,1.1,0,0,1-.957-.03c-4.032-2.527-8.069-5.051-11.436-8.475C220.667,321.531,219.1,318.52,219.564,315.089Z" fill="#cacaca"/>
        <path id="Path_137" data-name="Path 137" d="M221.553,324.682l12.394,8.505a12.485,12.485,0,0,1-.5,4.659c-.28,1.458-.962,1.5-1.965.453-1.655-1.721-2.9-3.832-4.939-5.188a26.065,26.065,0,0,1-4.989-8.429Z" fill="#fdfdfe"/>
        <path id="Path_138" data-name="Path 138" d="M224.141,359.682c1.831,1.269,3.626,2.6,5.508,3.786,1.193.754,1.291,1.3.058,2.069-.826.514-1.576,1.149-2.462,1.8a26.6,26.6,0,0,0-3.1-7.66Z" fill="#bdc3c4"/>
        <path id="Path_139" data-name="Path 139" d="M409.832,358.738c.728,4.281-2.358,7.2-5.775,9.637-8,5.709-20.453,6.042-27.528-2.906-2.736-3.461-3.773-7.455-1.752-11.65,3.638-7.551,10.616-11.309,18.129-11.879C402.57,341.208,409.673,347.106,409.832,358.738Z" fill="#bdc3c4"/>
        <path id="Path_140" data-name="Path 140" d="M367.857,331.073a7.467,7.467,0,0,1-5.367,6.951,3.293,3.293,0,0,1-4.056-2.358c-.607-2.228,1.035-6.746,2.973-8.02a4.46,4.46,0,0,1,4.685-.611C367.839,327.89,367.874,329.463,367.857,331.073Z" fill="#cacaca"/>
        <path id="Path_141" data-name="Path 141" d="M311.426,384.826c-.048,3.228-1.141,4.961-2.9,4.749-2.579-.31-2.29-2.588-2.487-4.237-.264-2.207,1.091-3.872,2.692-3.731C310.868,381.795,311.219,383.451,311.426,384.826Z" fill="#cbcbcb"/>
        <path id="Path_142" data-name="Path 142" d="M306.406,399.34c.043-1.309-.168-2.712,1.688-2.763,1.989-.054,2.56,1.444,2.6,2.928.04,1.379-.469,2.988-2.246,2.99C306.346,402.5,306.45,400.749,306.406,399.34Z" fill="#cbcbcb"/>
        <path id="Path_143" data-name="Path 143" d="M315.633,235.661c1.518.2,2.994.356,4.456.593.812.131,1.788.33,1.654,1.426a1.581,1.581,0,0,1-1.93,1.49c-3.118-.707-6.253-.333-9.383-.345-.753,0-1.631.008-1.786-.929-.193-1.161.9-1.327,1.623-1.47C312.043,236.076,313.853,235.9,315.633,235.661Z" fill="#c4ac9f"/>
        <path id="Path_144" data-name="Path 144" d="M379.821,360.057c.28-5.114,2.352-9.346,6.784-12.013a12.038,12.038,0,0,1,12.963-.031c5.115,3,8.154,10.742,4.751,16.226a8.73,8.73,0,0,1-2.216,2.288c-5.109,3.971-13.132,4.7-17.738,1.585C381.541,366.2,379.6,363.741,379.821,360.057Z" fill="#79828b"/>
        <path id="Path_145" data-name="Path 145" d="M391.192,366.618c-3.566.018-5.369-1.754-6.613-6.028a6.335,6.335,0,0,1,2.6-7.367,12.366,12.366,0,0,1,11-.86c3.69,1.382,4.913,6.337,2.628,9.532C398.3,365.394,394.725,366.43,391.192,366.618Z" fill="#bdc3c4"/>
      </g>
    </g>
  </g>
</svg>
