<svg xmlns="http://www.w3.org/2000/svg" width="47.891" height="66.824" viewBox="0 0 47.891 66.824">
  <g id="heart" transform="translate(-72.535 0.001)">
    <g id="Group_2599" data-name="Group 2599" transform="translate(72.535 -0.001)">
      <path id="Path_2681" data-name="Path 2681" d="M112.516,30.073a5.707,5.707,0,0,0,.113-1.116,10.228,10.228,0,0,0-3.523-7.077c.123.014.238.021.364.038a3.852,3.852,0,0,0,1.791-7.45,18.233,18.233,0,0,0-4.473-1.052,10.7,10.7,0,0,0,.272-2.278c0-3.025-2.205-5.766-5.569-7.026V3.34a3.341,3.341,0,1,0-6.682,0v.191q-.554.1-1.077.241l-.581-1.451a2.967,2.967,0,0,0-5.608,1.916l.9,3.138A13.333,13.333,0,0,0,87,9.762a14.84,14.84,0,0,0-1.983-7.147A5.241,5.241,0,0,0,80.5,0H76.129a2.266,2.266,0,0,0-1.8,3.633c1.216,1.622,2.666,4.046,2.666,6.391V25.036c-2.083,2.231-4.455,6.414-4.455,13.944,0,9.942,1.2,11.78,2.375,12.266a1.6,1.6,0,0,0,.613.123,1.546,1.546,0,0,0,.187-.021,20.757,20.757,0,0,0,1.279,2.417v8.046a4.991,4.991,0,0,0,8.91,3.111,4.958,4.958,0,0,0,8.148-.5,13.829,13.829,0,0,0,1.876.169,37.776,37.776,0,0,1,9.752,1.314,24.365,24.365,0,0,0,5.84.914c2.679,0,8.91-1.3,8.91-13.365C120.425,47.884,117.652,37.876,112.516,30.073ZM110.4,28.956a3.8,3.8,0,0,1-.062.825,1.093,1.093,0,0,0-.076.156,1.269,1.269,0,0,1-.323.561l-.038.033a1.529,1.529,0,0,1-.18.136c-.034.023-.068.045-.106.067a2.254,2.254,0,0,1-.317.148c-.035.013-.076.024-.113.037a3.825,3.825,0,0,1-.385.106c-.041.009-.081.019-.125.028-.185.036-.394.065-.628.087l-.139.011c-.256.02-.532.034-.85.034-.206,0-.4-.01-.594-.029l-.041-.006c-.175-.019-.344-.043-.5-.075l-.037-.009c-.156-.033-.305-.071-.445-.115-.026-.008-.05-.019-.075-.027-.119-.04-.233-.082-.338-.129-.046-.021-.087-.043-.131-.065-.074-.037-.148-.073-.214-.113s-.109-.071-.161-.108-.082-.057-.118-.086a1.789,1.789,0,0,1-.152-.14c-.021-.022-.043-.043-.062-.065a1.208,1.208,0,0,1-.117-.157c-.013-.02-.025-.04-.036-.06a.828.828,0,0,1-.049-.105.68.68,0,0,1-.036-.267.8.8,0,0,1,.016-.124,1.014,1.014,0,0,1,.046-.147,1.26,1.26,0,0,1,.087-.2l.015-.024a2.438,2.438,0,0,1,.39-.5h0v0h0a4.879,4.879,0,0,0,.483-.578c.025-.035.059-.065.083-.1.052-.073.09-.153.137-.229,0-.007.011-.012.016-.019.027-.043.047-.089.072-.133a5.722,5.722,0,0,0,.324-.636c0-.008.01-.014.014-.023.021-.049.034-.1.053-.149.077-.2.15-.4.208-.6,0-.011.011-.019.014-.03l0-.007c.022-.08.034-.162.053-.242.042-.173.084-.345.114-.52h0v0c.014-.081.022-.161.033-.242l.006-.017h0v0q.018-.131.034-.261l0-.017,0-.038c.015-.146.025-.291.033-.436,0-.008.006-.015.006-.023.005-.085.009-.17.013-.255v-.1l0-.1c0-.037,0-.074,0-.111v-.011c0-.028,0-.055,0-.082l0-.018c0-.012-.005-.025-.006-.037v-.051c0-.177,0-.347-.013-.513,0-.056-.006-.111-.01-.166-.006-.1-.01-.206-.018-.3A8.025,8.025,0,0,1,110.4,28.956Zm-5.049-13.364h.594a14.547,14.547,0,0,1,4.571.975,1.619,1.619,0,0,1,.974.931,1.6,1.6,0,0,1-.055,1.331,1.623,1.623,0,0,1-1.671.881,9.686,9.686,0,0,0-5.415.449l-.005,0-.01,0a1.093,1.093,0,0,0-.342.281c-.01.012-.026.017-.036.029s-.015.04-.027.058a1.1,1.1,0,0,0-.161.345c-.007.025-.019.048-.024.073a1.1,1.1,0,0,0-.01.394l.194,1.154c.012.1.021.22.031.335.007.09.014.179.019.272s.01.2.013.3c0,.2,0,.408,0,.617,0,.04,0,.079-.005.119a7.406,7.406,0,0,1-.08.763l-.007.038a5.5,5.5,0,0,1-.166.7c-.007.022-.014.043-.021.065s-.024.066-.035.1a3.913,3.913,0,0,1-.223.513c-.034.064-.066.128-.1.189a2.841,2.841,0,0,1-.407.541l0,.006-.017.02a5.047,5.047,0,0,0-.407.465l-.007.007v0l-.007.008-.183.026c-.571.077-1.168.14-1.8.182-.084.006-.171.009-.255.014-.674.04-1.372.064-2.105.064-.234,0-.483-.017-.738-.043-.12-.012-.246-.032-.37-.05s-.269-.038-.405-.062c-.153-.028-.309-.06-.464-.094-.108-.024-.216-.048-.325-.074q-.265-.065-.53-.14l-.212-.062a9.972,9.972,0,0,1-2.38-1.028,4.214,4.214,0,0,0-.437-.394.979.979,0,0,1,0-.117c0-.024.017-.044.019-.069A4.794,4.794,0,0,1,92.67,24.4l.031-.076c.094-.226.207-.467.331-.715.03-.061.061-.122.093-.184.135-.261.283-.53.448-.807l.043-.071a20.932,20.932,0,0,1,2.14-2.918l.083-.093c.278-.315.567-.627.871-.93h0a11.7,11.7,0,0,1,.925-.826c.057-.046.115-.1.172-.141a9.589,9.589,0,0,1,.792-.547c.111-.069.221-.139.332-.2.229-.131.459-.246.69-.352q.212-.1.425-.181c.218-.086.437-.166.658-.233.14-.043.279-.08.419-.117.238-.061.476-.119.717-.163.1-.019.207-.034.311-.05.283-.044.567-.084.857-.11l.134-.01C103.854,15.613,104.587,15.6,105.352,15.592ZM87.013,22.374c0-6.6,1.178-11.319,3.5-14.018h0a1.112,1.112,0,0,0,.227-1.032l-1.056-3.7a.74.74,0,0,1,1.4-.478l.972,2.429A1.113,1.113,0,0,0,93.5,6.2a8.875,8.875,0,0,1,2.518-.58,1.114,1.114,0,0,0,1.015-1.109V3.34a1.114,1.114,0,1,1,2.227,0V4.914a1.115,1.115,0,0,0,.8,1.07c2.85.823,4.764,2.894,4.764,5.152a8.84,8.84,0,0,1-.317,2.238h-.02a21.231,21.231,0,0,0-2.245.154l-.15.018c-.316.043-.634.1-.953.167-.112.023-.224.048-.336.074-.289.069-.578.146-.868.239-.134.042-.268.093-.4.141q-.31.112-.621.246c-.175.075-.35.155-.525.242q-.356.176-.713.386c-.07.041-.14.07-.209.113.316-.951.858-1.792,1.789-1.792a1.114,1.114,0,0,0,0-2.227c-3.308,0-4.334,3.716-4.444,6.223-.137.143-.273.288-.411.44-.093.1-.184.2-.274.307q-.228.26-.453.532c-.1.123-.2.245-.3.369q-.3.378-.591.772c-.046.062-.089.124-.134.186A15.206,15.206,0,0,0,90.275,24.5h-.687L89.5,24.47c-.146-.053-.3-.106-.449-.158l-.6-.212c-.447-.154-.919-.317-1.41-.5l-.024-.009v-1.22ZM76.129,2.227H80.5a3.008,3.008,0,0,1,2.591,1.5,12.581,12.581,0,0,1,1.693,6.292V21.549c-.564.183-1.067.37-1.536.572a6.34,6.34,0,0,0-4.033,1.062V10.023C79.217,7.064,77.525,4.188,76.129,2.227ZM77.2,47.99l-.007.017c-.253.6-.534.9-1.015.968-.008,0-.014.007-.021.008a2.074,2.074,0,0,1-.284.021,1.139,1.139,0,0,0-.149.01c-.313-.652-.965-2.869-.965-10.033s2.26-10.855,4.081-12.671c.013-.011.03-.015.042-.028,1.782-1.758,3.508-2.109,4.177-1.922.016,0,.032,0,.048,0s.048.011.064.019A35.385,35.385,0,0,0,87.707,26.2c.19.065.35.123.523.184s.337.118.5.176a9.5,9.5,0,0,1,1.873.847c.03.034.049.075.082.108a4.444,4.444,0,0,0,.437.356,1.549,1.549,0,0,1,.148.2c.009.016.017.035.026.052a1.5,1.5,0,0,1,.112.31c.007.028.016.051.022.08a2.222,2.222,0,0,1,.043.439c0,3.855-6.2,8.92-9.53,11.641-1.051.858-1.88,1.536-2.394,2.05a5.076,5.076,0,0,0-.389.437c-.011.014-.02.029-.031.043a9.408,9.408,0,0,0-1.463,3.416A13,13,0,0,1,77.2,47.99Zm7.582,13.821a2.784,2.784,0,0,1-5.569,0V56.73a22.728,22.728,0,0,0,5.569,4.457v.624ZM89.8,64.6a2.787,2.787,0,0,1-2.732-2.256A27.951,27.951,0,0,0,91.6,63.928,2.748,2.748,0,0,1,89.8,64.6Zm12.838-1.63a36.471,36.471,0,0,0-6.712-.6,13.2,13.2,0,0,1-2.256-.26c-.01,0-.018-.01-.028-.012a25.686,25.686,0,0,1-7.212-2.577c-.3-.163-.594-.335-.884-.508-.125-.075-.249-.147-.374-.224-.24-.15-.474-.306-.706-.463q-.284-.193-.565-.4c-.2-.149-.41-.3-.607-.453-.234-.183-.462-.378-.691-.574q-.431-.371-.836-.762c-.184-.176-.366-.354-.545-.54q-.3-.31-.577-.633c-.131-.149-.258-.306-.385-.461q-.536-.656-1.01-1.358A17.978,17.978,0,0,1,77.831,50.7c.022-.014.039-.034.061-.048a3.073,3.073,0,0,0,.389-.311c.066-.063.124-.131.184-.2a3.647,3.647,0,0,0,.24-.3c.05-.07.1-.138.146-.211.078-.124.149-.253.216-.384s.122-.25.177-.379c.043-.1.086-.2.124-.3.052-.139.1-.276.145-.415l.026-.081c.1-.321.194-.638.275-.936a9.359,9.359,0,0,1,.846-2.313,3.09,3.09,0,0,1,.46-.6c.435-.435,1.266-1.114,2.229-1.9l.74-.605a21.735,21.735,0,0,1,.7,5.059,5.921,5.921,0,0,0,2.843,5.451,1.1,1.1,0,0,0,.492.116,1.116,1.116,0,0,0,.519-2.1,3.52,3.52,0,0,1-1.551-2.549,10.784,10.784,0,0,0,2.152.2,1.114,1.114,0,1,0,0-2.228,7.234,7.234,0,0,1-2.277-.327c0-.011-.011-.019-.015-.03a26.575,26.575,0,0,0-.982-5.163l.083-.072c.208-.179.416-.358.625-.543.105-.093.21-.189.315-.283.183-.164.367-.327.549-.495.113-.1.223-.21.335-.315.173-.162.346-.323.517-.487.117-.113.231-.229.347-.344.162-.16.325-.32.483-.483.116-.12.228-.241.341-.362l.027-.028a4.66,4.66,0,0,0,1.092,1.924,4.376,4.376,0,0,1,.787,2.554,1.114,1.114,0,1,0,2.227,0c0-.043,0-.151-.01-.286a2.806,2.806,0,0,0,1.124.286,1.122,1.122,0,0,0,1.123-1.114,1.105,1.105,0,0,0-1.1-1.113,8.321,8.321,0,0,1-2.571-1.9l0,0a4.379,4.379,0,0,1-.787-2.557l0-.012c.1-.129.182-.26.272-.39.113-.161.227-.322.332-.485.09-.139.169-.279.253-.418.1-.161.2-.322.283-.484.077-.142.143-.285.213-.428.079-.16.159-.32.228-.481.062-.145.112-.29.166-.435s.121-.319.17-.48.076-.292.111-.437.079-.319.106-.479.036-.293.05-.439c.012-.12.036-.239.041-.359.087.031.18.055.268.085.13.044.259.084.391.125.244.076.485.148.732.212.1.026.2.047.3.072.265.064.526.124.788.173.117.022.226.035.341.054.23.037.459.075.68.1a9.143,9.143,0,0,0,.96.057c.571,0,1.121-.015,1.66-.038.162-.007.319-.017.478-.026q.592-.033,1.156-.085c.091-.008.19-.011.279-.021v.006a2.881,2.881,0,0,0,.117.585q.013.044.028.087c.022.066.037.134.064.2.036.088.092.167.136.251.02.039.03.079.052.117s.034.045.049.069a3.357,3.357,0,0,0,.224.317c.051.065.1.129.158.191a3.851,3.851,0,0,0,.275.275c.067.061.137.12.21.178.1.08.2.157.315.23.085.056.174.109.264.161.112.064.225.128.345.185.1.05.213.094.323.139s.236.1.36.139.26.077.393.113.234.067.357.093c.062.013.126.024.19.035a39.031,39.031,0,0,0-1.865,9.048,6.126,6.126,0,0,0,.052.775c-.19.56-1.1,2.567-2.279,2.567a1.114,1.114,0,0,0,0,2.227,4.1,4.1,0,0,0,3.268-1.919c.253.48.525.94.789,1.379a7.855,7.855,0,0,1,1.512,3.882,11.221,11.221,0,0,1-2.247,6.259A11.8,11.8,0,0,0,102.635,62.965Zm8.88,1.63a22.351,22.351,0,0,1-5.317-.852c-.44-.106-.9-.214-1.361-.322a9.242,9.242,0,0,1,1.871-4.762,15.618,15.618,0,0,0,2.374-5.341,11.245,11.245,0,0,1,2.419,2.646,4.026,4.026,0,0,1-.773,2.274,1.114,1.114,0,1,0,1.575,1.575,4.338,4.338,0,0,0,.931-1.493,2.7,2.7,0,0,0,1.622.706,1.114,1.114,0,0,0,.1-2.223c-.092-.032-.666-.276-1.336-1.616a15.281,15.281,0,0,0-4.374-4.56,10.756,10.756,0,0,0-1.793-4.425,7.854,7.854,0,0,1-1.512-3.882,13.161,13.161,0,0,1,.193-2.005,8.2,8.2,0,0,0,5.106,4.2c1.316.33,2.313,2.058,2.585,2.694a1.114,1.114,0,0,0,2.052-.866c-.143-.338-1.472-3.332-4.1-3.988-3.7-.927-4.737-5.774-4.748-5.823a1.023,1.023,0,0,0-.04-.095c.332-1.249.665-2.354.881-3.044a7.751,7.751,0,0,0,1.824-.3c.044-.013.088-.025.132-.039.09-.03.178-.065.267-.1a4.08,4.08,0,0,0,1.19-.676c4.492,7.271,6.9,16.158,6.9,21.177C118.2,63.149,114.011,64.6,111.516,64.6Z" transform="translate(-72.535 0.001)" fill="#fff"/>
    </g>
  </g>
</svg>
