<svg version="1.1" id="Layer_1" xmlns="http://www.w3.org/2000/svg" xmlns:xlink="http://www.w3.org/1999/xlink" x="0px" y="0px"
	 width="100%" viewBox="0 0 512 512" enable-background="new 0 0 512 512" xml:space="preserve">
<path fill="#000000" opacity="1.000000" stroke="none" 
	d="
M308.000000,513.000000 
	C205.358261,513.000000 103.216515,513.000000 1.037387,513.000000 
	C1.037387,342.399902 1.037387,171.799789 1.037387,1.099841 
	C171.558426,1.099841 342.116913,1.099841 512.837708,1.099841 
	C512.837708,171.666534 512.837708,342.333252 512.837708,513.000000 
	C444.799774,513.000000 376.649872,513.000000 308.000000,513.000000 
M275.950226,479.550751 
	C295.350708,471.448853 306.317261,456.775482 309.347382,435.999573 
	C311.541565,435.999573 313.363525,435.999573 315.185455,435.999573 
	C358.351044,435.999542 401.516663,436.003296 444.682251,435.994690 
	C450.212219,435.993591 453.962097,432.759705 453.976044,427.746368 
	C454.032104,407.580353 454.035065,387.413971 453.969513,367.248016 
	C453.956024,363.103546 452.150970,360.154114 447.820557,358.905090 
	C435.891144,355.464294 424.009399,351.858124 411.999298,348.284760 
	C411.999298,311.684265 412.116852,275.191284 411.906006,238.700165 
	C411.860626,230.841385 411.297241,222.862137 409.825867,215.157333 
	C404.594269,187.762283 392.972015,163.180481 374.556885,142.241653 
	C356.660034,121.892097 335.137604,106.390015 308.999420,97.595490 
	C308.999420,92.482666 309.080200,87.492844 308.983704,82.506462 
	C308.729767,69.382698 304.044983,57.939022 294.962738,48.571972 
	C284.300751,37.575706 271.348450,32.705238 255.713562,32.772511 
	C234.272400,32.864765 214.570892,48.108082 207.930588,67.897377 
	C205.047592,76.489227 204.742508,85.299683 205.043381,94.190529 
	C205.125259,96.610458 204.612244,98.116951 202.080093,98.990509 
	C183.131790,105.527397 166.710602,116.357780 151.966232,129.668213 
	C137.722809,142.526428 126.523811,157.906448 118.051834,175.079193 
	C107.430176,196.609329 102.282066,219.603043 102.056808,243.577316 
	C101.809418,269.907654 102.000130,296.242157 101.999977,322.574829 
	C101.999924,331.224854 101.999969,339.874878 101.999969,348.559387 
	C90.849304,351.757690 79.999352,354.988037 69.078331,357.957001 
	C62.692814,359.692932 60.012188,362.747711 60.006458,369.331299 
	C59.990498,387.664185 59.992149,405.997040 60.004742,424.329926 
	C60.010593,432.850037 63.121586,435.998596 71.476181,435.998871 
	C114.475121,436.000336 157.474060,435.999542 200.472992,435.999573 
	C202.255783,435.999573 204.038559,435.999573 205.783829,435.999573 
	C206.578369,450.462585 215.465546,464.995789 225.593903,472.302490 
	C240.938950,483.372528 257.394409,485.819580 275.950226,479.550751 
z"/>
<path fill="#26A1E8" opacity="1.000000" stroke="none" 
	d="
M275.594360,479.743042 
	C257.394409,485.819580 240.938950,483.372528 225.593903,472.302490 
	C215.465546,464.995789 206.578369,450.462585 205.783829,435.999573 
	C204.038559,435.999573 202.255783,435.999573 200.472992,435.999573 
	C157.474060,435.999542 114.475121,436.000336 71.476181,435.998871 
	C63.121586,435.998596 60.010593,432.850037 60.004742,424.329926 
	C59.992149,405.997040 59.990498,387.664185 60.006458,369.331299 
	C60.012188,362.747711 62.692814,359.692932 69.078331,357.957001 
	C79.999352,354.988037 90.849304,351.757690 101.999969,348.559387 
	C101.999969,339.874878 101.999924,331.224854 101.999977,322.574829 
	C102.000130,296.242157 101.809418,269.907654 102.056808,243.577316 
	C102.282066,219.603043 107.430176,196.609329 118.051834,175.079193 
	C126.523811,157.906448 137.722809,142.526428 151.966232,129.668213 
	C166.710602,116.357780 183.131790,105.527397 202.080093,98.990509 
	C204.612244,98.116951 205.125259,96.610458 205.043381,94.190529 
	C204.742508,85.299683 205.047592,76.489227 207.930588,67.897377 
	C214.570892,48.108082 234.272400,32.864765 255.713562,32.772511 
	C271.348450,32.705238 284.300751,37.575706 294.962738,48.571972 
	C304.044983,57.939022 308.729767,69.382698 308.983704,82.506462 
	C309.080200,87.492844 308.999420,92.482666 308.999420,97.595490 
	C335.137604,106.390015 356.660034,121.892097 374.556885,142.241653 
	C392.972015,163.180481 404.594269,187.762283 409.825867,215.157333 
	C411.297241,222.862137 411.860626,230.841385 411.906006,238.700165 
	C412.116852,275.191284 411.999298,311.684265 411.999298,348.284760 
	C424.009399,351.858124 435.891144,355.464294 447.820557,358.905090 
	C452.150970,360.154114 453.956024,363.103546 453.969513,367.248016 
	C454.035065,387.413971 454.032104,407.580353 453.976044,427.746368 
	C453.962097,432.759705 450.212219,435.993591 444.682251,435.994690 
	C401.516663,436.003296 358.351044,435.999542 315.185455,435.999573 
	C313.363525,435.999573 311.541565,435.999573 309.347382,435.999573 
	C306.317261,456.775482 295.350708,471.448853 275.594360,479.743042 
M392.303375,229.184189 
	C391.883636,226.223633 391.541260,223.249710 391.032898,220.304459 
	C378.399872,147.111435 307.551178,94.854012 230.697998,110.579659 
	C165.387146,123.943535 121.461044,178.886444 121.222336,245.251450 
	C121.107239,277.250793 121.195709,309.250885 121.215614,341.250641 
	C121.216713,343.018402 121.434631,344.786072 121.547081,346.485077 
	C212.311371,346.485077 302.520996,346.485077 393.038452,346.485077 
	C393.038452,344.528137 393.038849,343.038239 393.038361,341.548309 
	C393.027191,308.215302 393.032593,274.882233 392.981964,241.549271 
	C392.976166,237.725876 392.657166,233.902939 392.303375,229.184189 
M104.500000,417.001251 
	C214.553482,417.001251 324.606964,417.001251 435.189026,417.001251 
	C435.189026,406.990631 435.189026,397.539978 435.189026,388.089325 
	C435.189026,374.841858 435.073486,375.202881 422.402527,371.148163 
	C407.828491,366.484497 393.093292,364.977295 377.798065,365.040924 
	C296.344513,365.379822 214.885712,365.577545 133.436234,364.909058 
	C115.315460,364.760376 98.758003,369.690735 81.856407,374.340790 
	C80.758080,374.642944 79.223076,376.189819 79.209755,377.175507 
	C79.032692,390.280426 79.091515,403.388550 79.091515,417.001251 
	C87.595261,417.001251 95.547630,417.001251 104.500000,417.001251 
M263.984680,89.466209 
	C272.531250,90.361183 281.077820,91.256157 289.740204,92.163261 
	C291.520569,77.216141 287.667664,64.359001 273.967224,56.321083 
	C261.803864,49.184937 249.418610,49.987564 237.826508,58.077175 
	C227.371994,65.372910 222.080704,79.728577 224.821060,91.546730 
	C237.621964,90.826630 250.339340,90.111221 263.984680,89.466209 
M262.678406,463.396484 
	C277.384979,460.519623 289.736206,447.672913 288.709229,436.288300 
	C267.557037,436.288300 246.406357,436.288300 225.194855,436.288300 
	C227.491959,453.755310 243.565536,465.538025 262.678406,463.396484 
z"/>
<path fill="#C7E8FC" opacity="1.000000" stroke="none" 
	d="
M392.393372,229.631989 
	C392.657166,233.902939 392.976166,237.725876 392.981964,241.549271 
	C393.032593,274.882233 393.027191,308.215302 393.038361,341.548309 
	C393.038849,343.038239 393.038452,344.528137 393.038452,346.485077 
	C302.520996,346.485077 212.311371,346.485077 121.547081,346.485077 
	C121.434631,344.786072 121.216713,343.018402 121.215614,341.250641 
	C121.195709,309.250885 121.107239,277.250793 121.222336,245.251450 
	C121.461044,178.886444 165.387146,123.943535 230.697998,110.579659 
	C307.551178,94.854012 378.399872,147.111435 391.032898,220.304459 
	C391.541260,223.249710 391.883636,226.223633 392.393372,229.631989 
z"/>
<path fill="#F4F5F5" opacity="1.000000" stroke="none" 
	d="
M104.000000,417.001251 
	C95.547630,417.001251 87.595261,417.001251 79.091515,417.001251 
	C79.091515,403.388550 79.032692,390.280426 79.209755,377.175507 
	C79.223076,376.189819 80.758080,374.642944 81.856407,374.340790 
	C98.758003,369.690735 115.315460,364.760376 133.436234,364.909058 
	C214.885712,365.577545 296.344513,365.379822 377.798065,365.040924 
	C393.093292,364.977295 407.828491,366.484497 422.402527,371.148163 
	C435.073486,375.202881 435.189026,374.841858 435.189026,388.089325 
	C435.189026,397.539978 435.189026,406.990631 435.189026,417.001251 
	C324.606964,417.001251 214.553482,417.001251 104.000000,417.001251 
z"/>
<path fill="#F3F4F5" opacity="1.000000" stroke="none" 
	d="
M263.520691,89.431015 
	C250.339340,90.111221 237.621964,90.826630 224.821060,91.546730 
	C222.080704,79.728577 227.371994,65.372910 237.826508,58.077175 
	C249.418610,49.987564 261.803864,49.184937 273.967224,56.321083 
	C287.667664,64.359001 291.520569,77.216141 289.740204,92.163261 
	C281.077820,91.256157 272.531250,90.361183 263.520691,89.431015 
z"/>
<path fill="#C6E8FC" opacity="1.000000" stroke="none" 
	d="
M262.260437,463.511353 
	C243.565536,465.538025 227.491959,453.755310 225.194855,436.288300 
	C246.406357,436.288300 267.557037,436.288300 288.709229,436.288300 
	C289.736206,447.672913 277.384979,460.519623 262.260437,463.511353 
z"/>
</svg>