<?xml version="1.0" standalone="no"?>
<!DOCTYPE svg PUBLIC "-//W3C//DTD SVG 20010904//EN"
 "http://www.w3.org/TR/2001/REC-SVG-20010904/DTD/svg10.dtd">
<svg version="1.0" xmlns="http://www.w3.org/2000/svg"
 width="5120.000000pt" height="5120.000000pt" viewBox="0 0 5120.000000 5120.000000"
 preserveAspectRatio="xMidYMid meet">

<g transform="translate(0.000000,5120.000000) scale(0.100000,-0.100000)"
fill="#000000" stroke="none">
<path d="M12935 33893 c-11 -2 -90 -20 -175 -40 -168 -38 -535 -142 -695 -197
-313 -106 -591 -223 -920 -386 -648 -321 -1195 -696 -1725 -1179 -1133 -1035
-1930 -2424 -2249 -3921 -329 -1540 -167 -3130 462 -4560 30 -69 62 -138 70
-155 8 -16 30 -61 48 -100 206 -431 559 -996 836 -1337 32 -39 67 -82 78 -97
10 -14 55 -69 99 -121 485 -573 1052 -1068 1681 -1471 634 -406 1346 -720
2081 -919 146 -39 406 -100 432 -100 9 0 12 137 12 653 l0 652 -112 29 c-148
38 -520 161 -680 225 -433 173 -794 365 -1188 630 -69 46 -130 84 -137 84 -7
0 -10 3 -8 7 2 4 -17 22 -43 41 -26 18 -101 76 -167 128 -512 403 -970 901
-1327 1441 -559 845 -885 1764 -995 2810 -14 129 -17 257 -18 590 0 454 8 580
60 925 260 1729 1239 3259 2706 4228 546 361 1134 627 1772 803 l137 38 0 653
c0 359 -3 652 -7 652 -5 -1 -17 -3 -28 -6z"/>
<path d="M38230 33247 l0 -653 138 -38 c1052 -290 1985 -835 2753 -1607 931
-937 1528 -2123 1724 -3424 52 -345 60 -471 60 -925 -1 -333 -4 -461 -18 -590
-110 -1046 -436 -1965 -995 -2810 -380 -575 -864 -1091 -1422 -1515 -63 -48
-114 -91 -113 -95 1 -3 -3 -7 -10 -7 -7 0 -68 -38 -137 -84 -394 -265 -755
-457 -1188 -630 -160 -64 -532 -187 -679 -225 l-113 -29 0 -652 c0 -436 3
-653 10 -653 22 0 253 53 400 91 1009 265 1985 760 2795 1418 403 328 834 760
1108 1111 225 288 282 367 424 580 164 247 361 592 482 845 18 39 40 84 48
100 8 17 40 86 70 155 582 1321 764 2782 527 4220 -184 1114 -633 2192 -1297
3115 -612 850 -1385 1553 -2297 2089 -91 53 -291 160 -445 236 -598 297 -1088
467 -1802 625 l-23 5 0 -653z"/>
<path d="M12810 30422 c-693 -353 -1287 -875 -1732 -1522 -170 -248 -378 -637
-481 -900 -168 -432 -274 -879 -313 -1327 -29 -335 -13 -793 41 -1135 48 -307
150 -679 264 -966 425 -1064 1195 -1912 2220 -2444 l156 -81 3 734 2 734 -24
20 c-13 11 -70 56 -127 100 -113 87 -381 345 -470 453 -404 486 -655 1028
-753 1625 -158 956 89 1913 690 2672 150 190 408 437 652 625 l33 25 -3 733
-3 733 -155 -79z"/>
<path d="M38230 29766 l0 -734 52 -39 c199 -145 475 -410 632 -608 478 -602
736 -1337 736 -2102 0 -817 -268 -1555 -799 -2195 -89 -108 -357 -366 -470
-453 -57 -44 -114 -89 -127 -100 l-24 -20 2 -734 3 -734 157 82 c1212 628
2075 1713 2401 3018 92 366 127 640 134 1043 6 342 -9 560 -58 853 -76 452
-207 860 -409 1272 -236 482 -514 871 -899 1255 -288 288 -565 503 -909 708
-96 58 -333 184 -394 210 l-28 12 0 -734z"/>
</g>
</svg>
