<svg xmlns="http://www.w3.org/2000/svg" width="58.815" height="67.7" viewBox="0 0 58.815 67.7">
  <g id="ear" transform="translate(-33.6 0.35)">
    <g id="Group_2603" data-name="Group 2603" transform="translate(33.95)">
      <g id="Group_2602" data-name="Group 2602" transform="translate(0)">
        <path id="Path_2687" data-name="Path 2687" d="M55.28,0A21.354,21.354,0,0,0,33.95,21.33V52.414a14.477,14.477,0,0,0,2.423,8.052.981.981,0,0,0,1.634-1.088,12.52,12.52,0,0,1-2.094-6.964V21.33a19.367,19.367,0,0,1,38.734,0c0,10.141-3.805,15.234-7.834,20.627-2.744,3.673-5.581,7.471-7.128,12.931-1.042,3.678-2.427,6.251-4.236,7.867a9.583,9.583,0,0,1-6.778,2.282,12.775,12.775,0,0,1-7.747-2.57.981.981,0,1,0-1.181,1.568A14.723,14.723,0,0,0,48.671,67c6.655,0,10.635-3.571,12.9-11.577,1.448-5.111,4.053-8.6,6.812-12.291,4.043-5.412,8.224-11.009,8.224-21.8A21.354,21.354,0,0,0,55.28,0Z" transform="translate(-33.95)" fill="#fff" stroke="#fff" stroke-width="0.7"/>
        <path id="Path_2688" data-name="Path 2688" d="M104.36,68.347a14.224,14.224,0,0,0-23.1,11.124.981.981,0,1,0,1.963,0,12.193,12.193,0,0,1,1.356-5.6c2.144-1.411,6.9-1.127,10.323,1.421,4.718,3.513,3.688,8.75,2.653,11.56a.981.981,0,1,0,1.842.678,13.145,13.145,0,0,0,.579-8.333,10.55,10.55,0,0,0-3.9-5.48,13.576,13.576,0,0,0-9.6-2.551A12.27,12.27,0,0,1,107.421,76.6a.981.981,0,1,0,1.908-.46A14.317,14.317,0,0,0,104.36,68.347Z" transform="translate(-75.072 -56.704)" fill="#fff" stroke="#fff" stroke-width="0.7"/>
        <path id="Path_2689" data-name="Path 2689" d="M95.03,200.209a7.256,7.256,0,0,0,6.036,4.965,8.969,8.969,0,0,0,1.16.078,7,7,0,0,0,5.011-2.052,19.121,19.121,0,0,0,3.3-4.825c.439-.81.854-1.575,1.282-2.216l.013-.021c.668-1.056,1.39-2.1,2.089-3.112,3.039-4.4,5.91-8.558,6.263-15.328a.981.981,0,0,0-1.96-.1c-.324,6.215-3.041,10.15-5.919,14.317-.707,1.023-1.437,2.081-2.124,3.166-.476.713-.91,1.514-1.369,2.361-1.684,3.107-3.424,6.319-7.5,5.789a5.331,5.331,0,0,1-4.431-3.651,5.54,5.54,0,0,1,1.251-5.754,5.395,5.395,0,0,0-3.815-9.209.981.981,0,0,0,0,1.963,3.432,3.432,0,0,1,2.427,5.858A7.489,7.489,0,0,0,95.03,200.209Z" transform="translate(-85.571 -153.547)" fill="#fff" stroke="#fff" stroke-width="0.7"/>
        <path id="Path_2690" data-name="Path 2690" d="M362.814,193.979a16.251,16.251,0,0,1,4.791-11.567.981.981,0,0,0-1.388-1.388,18.321,18.321,0,0,0,0,25.91.981.981,0,0,0,1.388-1.388A16.251,16.251,0,0,1,362.814,193.979Z" transform="translate(-318.073 -157.085)" fill="#fff" stroke="#fff" stroke-width="0.7"/>
        <path id="Path_2691" data-name="Path 2691" d="M452.438,249.073A4.6,4.6,0,0,1,453.8,245.8a.981.981,0,0,0-1.388-1.388,6.584,6.584,0,0,0,0,9.32.981.981,0,0,0,1.388-1.388A4.6,4.6,0,0,1,452.438,249.073Z" transform="translate(-395.969 -212.18)" fill="#fff" stroke="#fff" stroke-width="0.7"/>
        <path id="Path_2692" data-name="Path 2692" d="M410.7,212.74a.982.982,0,0,0-1.388,0,12.438,12.438,0,0,0,0,17.609.981.981,0,0,0,1.388-1.388,10.476,10.476,0,0,1,0-14.834A.981.981,0,0,0,410.7,212.74Z" transform="translate(-357.02 -184.651)" fill="#fff" stroke="#fff" stroke-width="0.7"/>
      </g>
    </g>
  </g>
</svg>
