<svg id="Group_11663" data-name="Group 11663" xmlns="http://www.w3.org/2000/svg" width="145.935" height="121.472" viewBox="0 0 145.935 121.472">
  <path id="Path_2664" data-name="Path 2664" d="M-196.28-1090.433s7.835-18.153,25.606-19.09,28.125,15.681,28.125,15.681,22.7-6.573,35.5,7.408,10.977,28.266,10.977,28.266,18.924,8.7,14.215,27.873-25.192,17.08-25.192,17.08-11.33,23.14-35.5,24.975a48.05,48.05,0,0,1-37.956-13.654s-12.36,6.357-23.316-2.429-8.983-22.666-8.983-22.666a36.959,36.959,0,0,1-13.723-35.414C-222.857-1085.757-196.28-1090.433-196.28-1090.433Z" transform="translate(227.035 1109.562)" fill="#6bcae2"/>
  <path id="Subtraction_5" data-name="Subtraction 5" d="M58.995,79.213h0A9.862,9.862,0,0,1,53.827,77.7a15.75,15.75,0,0,1-3.79-3.339A22.962,22.962,0,0,1,46.908,69.5h0a18.4,18.4,0,0,1-2.4.686,29.587,29.587,0,0,1-6.388.687,31.373,31.373,0,0,1-10.352-1.767,36.621,36.621,0,0,1-12.093-7.218,36.916,36.916,0,0,1-4.98-5.318A33.273,33.273,0,0,1,4.157,40.852a34.771,34.771,0,0,1-.211-7.686,22.665,22.665,0,0,1,.438-3.024h0a16.484,16.484,0,0,1-2.244-2.177A11,11,0,0,1,.626,25.714,5.438,5.438,0,0,1,0,23.114a10.525,10.525,0,0,1,1-4.532A8.079,8.079,0,0,1,4.351,15.3a6.859,6.859,0,0,1,3.426-.914,7.068,7.068,0,0,1,3.207.767,5.719,5.719,0,0,1,2.271,2.017,6.032,6.032,0,0,1,.285,4.542A12.413,12.413,0,0,1,11.925,25.4a66.573,66.573,0,0,1-5.093,5.191,23.085,23.085,0,0,0-.277,2.8,36.14,36.14,0,0,0,.38,7.089,33.818,33.818,0,0,0,2.854,9.4A32.06,32.06,0,0,0,16.935,59.6a30.432,30.432,0,0,0,11.018,6.656,30.745,30.745,0,0,0,9.891,1.6,31.687,31.687,0,0,0,5.737-.52,19.539,19.539,0,0,0,2.191-.52l-.879-5.042a29.912,29.912,0,0,1-5.084-4.062,5.719,5.719,0,0,1-1.383-2.722,3.021,3.021,0,0,1,1.07-2.759,8.4,8.4,0,0,1,2.8-1.7,9.3,9.3,0,0,1,4.2-.522,3.022,3.022,0,0,1,2.486,1.547,5.464,5.464,0,0,1,.509,3,42.174,42.174,0,0,1-1.664,6.874l.872,4.341a22.278,22.278,0,0,0,2.541-1.145,34.832,34.832,0,0,0,5.877-3.846,32.845,32.845,0,0,0,6.6-7.166,31.832,31.832,0,0,0,4.7-11.1,32.611,32.611,0,0,0,.349-12.122,34.361,34.361,0,0,0-2.972-9.407A36.515,36.515,0,0,0,62.1,14.9a23.221,23.221,0,0,0-1.808-2.164h0A26.7,26.7,0,0,1,57.3,12.9a15.3,15.3,0,0,1-5.115-.715,10.155,10.155,0,0,1-2.025-.986,7.515,7.515,0,0,1-1.356-1.11,8.271,8.271,0,0,1-1.4-2.045,3.758,3.758,0,0,1-.339-1.2A5.677,5.677,0,0,1,47.1,5.15a4.863,4.863,0,0,1,2.324-3.4A11.477,11.477,0,0,1,55.265,0,7.392,7.392,0,0,1,59.7,1.389a5.45,5.45,0,0,1,1.76,2.455,13.025,13.025,0,0,1,.768,3.148,21.873,21.873,0,0,1,.14,3.87h0c.06.068,1.49,1.688,3.1,3.876.968,1.315,1.818,2.583,2.526,3.767a23.477,23.477,0,0,1,1.976,4.028,37.2,37.2,0,0,1,2.11,11.609A37.924,37.924,0,0,1,68.414,51.18a31.059,31.059,0,0,1-5.421,7.952,37.73,37.73,0,0,1-6.229,5.345,40.685,40.685,0,0,1-5.134,3.008c-1.294.632-2.126.939-2.134.942a21.505,21.505,0,0,0,2.616,4.051,13.576,13.576,0,0,0,3.03,2.785,7.27,7.27,0,0,0,3.965,1.266,7.871,7.871,0,0,0,4.654-1.707,17.325,17.325,0,0,0,3.1-2.94,23.659,23.659,0,0,0,2.388-3.509,65.912,65.912,0,0,0,3.609-8.013c.855-2.145,1.738-4.364,2.772-6.453a28.2,28.2,0,0,1,3.739-5.853c4.016-4.716,7.248-5.706,9.252-5.706a4.452,4.452,0,0,1,2.2.493h0a10.609,10.609,0,0,1,2.1-2.1,11.141,11.141,0,0,1,2.571-1.488,10.328,10.328,0,0,1,3.542-.764c.2-.007.4-.011.6-.011a14.293,14.293,0,0,1,3.879.512,10.532,10.532,0,0,1,3.515,1.708,9.206,9.206,0,0,1,2.647,3.164,12.623,12.623,0,0,1,1.277,4.878,10.312,10.312,0,0,1-.908,5.186,10.883,10.883,0,0,1-2.731,3.566,12.19,12.19,0,0,1-5.694,2.88,14.14,14.14,0,0,1-1.538.086,11.632,11.632,0,0,1-4.229-.762,11.092,11.092,0,0,1-4.579-3.385,9.207,9.207,0,0,1-1.764-3.546,13.21,13.21,0,0,1-.4-3.554,16.161,16.161,0,0,1,.519-3.832,1.621,1.621,0,0,0-1.306-.529c-1.279,0-3.609,1-7.448,5.777a27.827,27.827,0,0,0-3.264,5.356c-.945,1.954-1.8,4.073-2.624,6.123a60.17,60.17,0,0,1-4.541,9.625A19.512,19.512,0,0,1,67.312,75.6a13.968,13.968,0,0,1-4.172,2.727A10.664,10.664,0,0,1,58.995,79.213ZM99.943,40.374a9.9,9.9,0,0,0-3.26.528,8.55,8.55,0,0,0-2.228,1.161,6.92,6.92,0,0,0-1.685,1.689,9.363,9.363,0,0,0-1,1.725,10.211,10.211,0,0,0-.658,1.907,8.707,8.707,0,0,0-.231,2.383,9.947,9.947,0,0,0,.579,2.754,9.29,9.29,0,0,0,1.525,2.71,8.364,8.364,0,0,0,2.632,2.143,9.957,9.957,0,0,0,3.9,1.053c.2.009.4.014.585.014a9,9,0,0,0,4.477-1.073,7.954,7.954,0,0,0,2.566-2.35,8.757,8.757,0,0,0,1.253-2.62,11.327,11.327,0,0,0,.426-2.494,11.815,11.815,0,0,0-.113-2.6A11.041,11.041,0,0,0,107.18,44.1a8.982,8.982,0,0,0-2.307-2.332,7.9,7.9,0,0,0-3.694-1.33A12.207,12.207,0,0,0,99.943,40.374Z" transform="translate(22.079 23.643)" fill="#fff" stroke="#fff" stroke-width="1"/>
  <g id="Ellipse_259" data-name="Ellipse 259" transform="translate(117.498 68.989)" fill="#fff" stroke="#fff" stroke-width="1">
    <circle cx="4.419" cy="4.419" r="4.419" stroke="none"/>
    <circle cx="4.419" cy="4.419" r="3.919" fill="none"/>
  </g>
  <path id="Path_2665" data-name="Path 2665" d="M-113.464-923.708c-.449,1.376.954,2.52-.229,4.318s-7.749,2.327-9.293-2.52-.161-9.433,5.1-12.258,9.444.568,9.7,2.159c.252,1.568-1.324,3.724-2.522,4.981S-113.015-925.084-113.464-923.708Z" transform="translate(162.314 988.551)" fill="#fff" stroke="#fff" stroke-width="1"/>
  <path id="Path_2666" data-name="Path 2666" d="M5.141,12.123c.435,1.444-.925,2.646.222,4.533s7.512,2.443,9.009-2.645.156-9.9-4.943-12.869-9.156.6-9.4,2.266c-.244,1.647,1.284,3.91,2.445,5.23S4.706,10.678,5.141,12.123Z" transform="matrix(0.695, -0.719, 0.719, 0.695, 59.853, 51.821)" fill="#fff" stroke="#fff" stroke-width="1"/>
</svg>
