<svg width="57" height="57" viewBox="0 0 57 57" fill="none" xmlns="http://www.w3.org/2000/svg">
<g clip-path="url(#clip0)">
<path d="M34.947 23.2053L26.3827 31.2944L22.2725 27.0659C21.8168 26.5967 21.0665 26.5861 20.5979 27.0417C20.1288 27.4979 20.1181 28.2477 20.5737 28.7168L25.5034 33.7773C25.9614 34.2381 26.7015 34.2539 27.1785 33.8126L36.5984 24.9277C36.8272 24.7119 36.9608 24.414 36.9696 24.0999C36.9784 23.7858 36.862 23.4809 36.6457 23.2526C36.1873 22.7761 35.4314 22.7552 34.947 23.2053V23.2053Z" fill="#6BCAE2" fill-opacity="0.5"/>
<path d="M28.5918 10.7563C18.804 10.7563 10.8452 18.715 10.8452 28.5029C10.8452 38.2912 18.804 46.25 28.5918 46.25C38.3802 46.25 46.3389 38.2912 46.3389 28.5029C46.3389 18.715 38.3802 10.7563 28.5918 10.7563V10.7563ZM28.5918 43.8742C20.1106 43.8742 13.221 36.9725 13.221 28.5029C13.221 20.0333 20.1106 13.132 28.5918 13.132C37.0814 13.132 43.9632 20.0138 43.9632 28.5029C43.9632 36.992 37.0814 43.8742 28.5918 43.8742V43.8742Z" fill="#6BCAE2" fill-opacity="0.5"/>
<path d="M53.0147 21.9696L53.4068 14.9254C53.4342 14.4526 53.1771 14.0086 52.7535 13.797L46.4814 10.6254L43.3099 4.35339C43.0941 3.93346 42.6528 3.67779 42.1814 3.70006L35.1252 4.08055L29.2452 0.195838C28.8489 -0.0654013 28.3353 -0.0654013 27.9386 0.195838L22.0586 4.08055L15.0149 3.68846C14.5416 3.66062 14.098 3.91768 13.8864 4.34179L10.7144 10.6138L4.44283 13.7854C4.02244 14.0007 3.76723 14.4419 3.7895 14.9138L4.18113 21.958L0.296881 27.838C0.0356424 28.2342 0.0356424 28.7479 0.296881 29.1446L4.16953 35.0362L3.77744 42.0804C3.75006 42.5532 4.00666 42.9973 4.43077 43.2088L10.7028 46.3804L13.8743 52.6524C14.0896 53.0728 14.5309 53.328 15.0028 53.3058L22.047 52.9137L27.927 56.7979C28.3209 57.0675 28.8397 57.0675 29.2336 56.7979L35.1136 52.9137L42.1577 53.3058C42.6306 53.3331 43.0742 53.0761 43.2862 52.6524L46.4577 46.3804L52.7298 43.2088C53.1497 42.9931 53.4054 42.5523 53.3831 42.0804L52.991 35.0362L56.8753 29.1562C57.1365 28.76 57.1365 28.2458 56.8753 27.8496L53.0147 21.9696ZM50.8051 34.0622C50.6603 34.2748 50.593 34.5304 50.6153 34.787L50.9833 41.4507L45.056 44.444C44.83 44.5573 44.6467 44.741 44.5335 44.967L41.5397 50.8943L34.876 50.5263C34.6208 50.517 34.3688 50.5829 34.1512 50.7161L28.5919 54.3869L23.033 50.7161C22.84 50.5857 22.6126 50.5152 22.3797 50.5143H22.3203L15.6562 50.8827L12.6628 44.9549C12.5496 44.7289 12.3663 44.5457 12.1399 44.4324L6.20051 41.4507L6.56894 34.787C6.57822 34.5318 6.51186 34.2799 6.37869 34.0622L2.70835 28.5029L6.37869 22.9436C6.52393 22.7315 6.59121 22.4754 6.56894 22.2193L6.20051 15.5551L12.1283 12.5618C12.3542 12.4485 12.5375 12.2653 12.6507 12.0393L15.6441 6.11153L22.3082 6.47996C22.563 6.48877 22.8149 6.42288 23.033 6.28971L28.5919 2.61937L34.1512 6.28971C34.3637 6.43495 34.6199 6.50223 34.876 6.47996L41.5397 6.11153L44.5335 12.0393C44.6467 12.2653 44.83 12.4485 45.056 12.5618L50.9833 15.5551L50.6153 22.2193C50.606 22.474 50.6724 22.726 50.8051 22.9436L54.4759 28.5029L50.8051 34.0622Z" fill="#6BCAE2" fill-opacity="0.5"/>
</g>
<defs>
<clipPath id="clip0">
<rect width="57" height="57" fill="white"/>
</clipPath>
</defs>
</svg>
