<svg xmlns="http://www.w3.org/2000/svg" width="67.217" height="67.025" viewBox="0 0 67.217 67.025">
  <g id="teeth" transform="translate(0.103 0)">
    <path id="Path_2673" data-name="Path 2673" d="M5.333,34.817c.618,1.022,1.257,2.077,1.826,3.146A26.934,26.934,0,0,1,10.4,47.642a72.873,72.873,0,0,0,1.948,11.477c.734,2.728,2.1,7.806,6.464,7.806,3.421,0,6.067-6.534,7.862-19.42.6-4.268,2.45-4.687,3.377-4.8a.639.639,0,0,1,.1.02c.062.172.122.347.188.515a24.479,24.479,0,0,0,1.967,3.722c.38.628.762,1.257,1.113,1.913a16.166,16.166,0,0,1,1.942,5.8,54.941,54.941,0,0,0,.9,5.848.573.573,0,0,0,.01.078c.01.026.018.046.027.071.087.377.166.754.271,1.128.446,1.663,1.378,5.122,4.392,5.122.97,0,3.545,0,5.261-12.319.316-2.228,1.155-2.51,1.655-2.582l.138.024c.334.069,1.225.25,1.559,2.561,1.713,12.317,4.287,12.317,5.256,12.317,3.006,0,3.906-3.331,4.391-5.112a45.728,45.728,0,0,0,1.215-7.137,16.2,16.2,0,0,1,1.949-5.806c.351-.663.735-1.3,1.113-1.931a24.134,24.134,0,0,0,1.951-3.7c1.868-4.743,2.367-11.24-1.834-15.255a10.659,10.659,0,0,0-4.543-2.53c2.28-8.382.849-16.025-3.932-20.609-6.432-6.175-17.9-6.3-25.063-.466-7.166-5.836-18.631-5.709-25.068.469C-1.546,11.126-.746,21.381,2.195,28.882a39.126,39.126,0,0,0,3.138,5.935Zm58.051,7.61A22.325,22.325,0,0,1,61.6,45.794c-.405.668-.811,1.337-1.178,2.035a18.4,18.4,0,0,0-2.2,6.6,44.027,44.027,0,0,1-1.148,6.792c-.46,1.681-1.046,3.474-2.222,3.474-.446-.137-1.953-2.344-3.075-10.4-.369-2.561-1.484-4.054-3.322-4.43a4.259,4.259,0,0,0-.439-.072,1.091,1.091,0,0,0-.122.011,1.1,1.1,0,0,0-.129-.012c-2.1.233-3.358,1.748-3.748,4.5-1.123,8.067-2.638,10.272-3.056,10.4-1.206,0-1.79-1.793-2.245-3.481a44.223,44.223,0,0,1-1.145-6.792,18.293,18.293,0,0,0-2.194-6.6c-.367-.691-.769-1.355-1.171-2.018a22.533,22.533,0,0,1-1.792-3.377c-1.6-4.073-2.093-9.585,1.3-12.839s9.79-3.2,13.427.118c.327.319,4.527,4.324,8.292,4.324a1.114,1.114,0,0,0,0-2.227c-1.911,0-4.331-1.652-5.8-2.862a10.957,10.957,0,0,1,7.866-1.586,8.676,8.676,0,0,1,4.575,2.236c3.4,3.259,2.829,8.946,1.3,12.836ZM6.553,6.45c5.758-5.526,16.61-5.437,22.771.183.434.423,7.121,6.843,13,6.843a1.114,1.114,0,0,0,0-2.227c-3.91,0-8.6-3.7-10.545-5.392,6.276-4.829,16.349-4.661,21.825.595,4.211,4.039,5.406,10.94,3.278,18.589a12.885,12.885,0,0,0-8.976,2.414c-4.584-3.505-11.7-3.34-15.732.526-3.444,3.3-3.721,8.279-2.673,12.583-2.779.508-4.479,2.721-5.032,6.631C22.537,61.04,19.922,64.7,18.81,64.7c-2.45,0-3.511-3.178-4.317-6.167A72.5,72.5,0,0,1,12.611,47.4,29.071,29.071,0,0,0,9.124,36.915c-.6-1.122-1.252-2.2-1.893-3.252a36.931,36.931,0,0,1-2.969-5.6C1.591,21.24.785,11.974,6.553,6.45Zm0,0" transform="translate(0 0)" fill="#fff" stroke="#fff" stroke-width="0.2"/>
    <path id="Path_2674" data-name="Path 2674" d="M37.4,73.652a1.114,1.114,0,0,0,1.075-1.407c-2.486-9.116,3.323-12.121,3.588-12.254a1.113,1.113,0,0,0-.968-2c-.075.037-7.758,3.868-4.769,14.845a1.114,1.114,0,0,0,1.075.821Zm0,0" transform="translate(-30.988 -50.248)" fill="#fff" stroke="#fff" stroke-width="0.2"/>
    <path id="Path_2675" data-name="Path 2675" d="M104.727,43.977a1.114,1.114,0,1,1-1.114-1.113A1.114,1.114,0,0,1,104.727,43.977Zm0,0" transform="translate(-89.124 -37.183)" fill="#fff" stroke="#fff" stroke-width="0.2"/>
    <path id="Path_2676" data-name="Path 2676" d="M259.932,234.392c-1.708.969-4.43,4.269-2.5,9.828a1.114,1.114,0,1,0,2.1-.732c-1.782-5.122,1.347-7.072,1.5-7.163a1.114,1.114,0,1,0-1.107-1.933Zm0,0" transform="translate(-223.262 -203.59)" fill="#fff" stroke="#fff" stroke-width="0.2"/>
    <path id="Path_2677" data-name="Path 2677" d="M300.993,223.177a1.114,1.114,0,1,1-1.113-1.114A1.113,1.113,0,0,1,300.993,223.177Zm0,0" transform="translate(-259.779 -192.998)" fill="#fff" stroke="#fff" stroke-width="0.2"/>
  </g>
</svg>
