<svg xmlns="http://www.w3.org/2000/svg" width="1369.564" height="343.671" viewBox="0 0 1369.564 343.671">
  <g id="Group_4999" data-name="Group 4999" transform="translate(-2137 1729.478)">
    <path id="Path_147" data-name="Path 147" d="M-842.7,0a12.9,12.9,0,0,1-9.455-3.947,13.005,13.005,0,0,1-3.947-9.547v-.184q0-21.205-.275-44.246-4.5,13.678-7.895,23.5a13.166,13.166,0,0,1-4.957,6.563,13.326,13.326,0,0,1-7.8,2.433,13.435,13.435,0,0,1-7.986-2.708,13.1,13.1,0,0,1-4.773-6.839q-3.3-10.648-7.619-24.877-1.285,24.418-1.285,46.174v.184a13.005,13.005,0,0,1-3.947,9.547A12.9,12.9,0,0,1-912.094,0a13.005,13.005,0,0,1-9.547-3.947,13.005,13.005,0,0,1-3.947-9.547q0-26.529,1.469-54.619a355.187,355.187,0,0,1,6.334-52.049q2.295-9.822,13.127-10.648a13.238,13.238,0,0,1,6.747,1.836,13.432,13.432,0,0,1,5,5.049A241.84,241.84,0,0,1-876.2-83.352q3.947-11.658,8.308-22.353a143.622,143.622,0,0,1,9.317-19.048q4.5-6.334,11.475-6.334a12.957,12.957,0,0,1,8.583,3.121,13.394,13.394,0,0,1,4.636,8.078,318.324,318.324,0,0,1,3.9,40.62q.78,21.8.78,43.1v22.674a13.005,13.005,0,0,1-3.947,9.547A13.005,13.005,0,0,1-842.7,0Zm-74.172-95.469a1.246,1.246,0,0,0,.918-.367,1.245,1.245,0,0,0,.367-.918q.826-10.832,1.79-16.432t2.57-8.032a11.166,11.166,0,0,1,4.269-3.81,1.332,1.332,0,0,0,.643-1.1,1.525,1.525,0,0,0-.321-.964,1.145,1.145,0,0,0-.964-.413,1.509,1.509,0,0,0-.367.046,1.794,1.794,0,0,0-.367.138,12.979,12.979,0,0,0-4.773,4.269q-1.928,2.8-3.167,8.858a137.03,137.03,0,0,0-1.974,17.441,1.222,1.222,0,0,0,.321.826,1.427,1.427,0,0,0,.872.459Zm60.586-22.674a1.357,1.357,0,0,0,1.193-.826,13.393,13.393,0,0,1,3.167-4.085,6.826,6.826,0,0,1,3.626-1.79,1.282,1.282,0,0,0,1.01-.413,1.405,1.405,0,0,0,.367-.964,1.407,1.407,0,0,0-1.469-1.285q-5.875.826-9.088,7.344l-.184.643a1.368,1.368,0,0,0,.734,1.193Zm-11.566,27.355a1.343,1.343,0,0,0,.826-.275,1.236,1.236,0,0,0,.459-.826q.184-.643,1.377-4.039t3.075-8.078q1.882-4.682,3.993-9a9.672,9.672,0,0,1,.551-.826.947.947,0,0,0,.184-.367,1.322,1.322,0,0,0,.459-.918,1.405,1.405,0,0,0-.367-.964,1.282,1.282,0,0,0-1.01-.413,1.3,1.3,0,0,0-1.056.5,12.093,12.093,0,0,0-.872,1.239,4.5,4.5,0,0,1-.275.459q-1.01,2.02-1.515,3.075t-.734,1.606q-.23.551-.5,1.193-.367,1.01-1.744,4.131l-2.754,7.436q-.367.918-.643,1.744a9.847,9.847,0,0,0-.826,2.938,1.4,1.4,0,0,0,.321.872,1.34,1.34,0,0,0,.872.5Zm-50.121,7.711a1.405,1.405,0,0,0,.964-.367,1.177,1.177,0,0,0,.413-.918l.551-6.334a1.478,1.478,0,0,0-.413-1.01,1.357,1.357,0,0,0-1.056-.459,1.6,1.6,0,0,0-.826.459,1.6,1.6,0,0,0-.459.826l-.459,6.518a1.141,1.141,0,0,0,.367.826A1.644,1.644,0,0,0-917.969-83.076Zm37.361,53.793q1.193,0,1.285-1.285a1.222,1.222,0,0,0-.321-.826,1.372,1.372,0,0,0-.78-.459,7.734,7.734,0,0,1-3.259-2.02,5.915,5.915,0,0,1-1.882-3.213,1.245,1.245,0,0,0-.367-.918,1.245,1.245,0,0,0-.918-.367,1.405,1.405,0,0,0-.964.367,1.177,1.177,0,0,0-.413.918,8.171,8.171,0,0,0,2.433,5.187,8.882,8.882,0,0,0,4.819,2.616Zm104.924,65.176a38.372,38.372,0,0,1-11.475-1.606,46.048,46.048,0,0,1-8.812-3.672,41.324,41.324,0,0,1-5.646-3.672l-1.974-1.606a13.931,13.931,0,0,1-4.131-9.73,13.73,13.73,0,0,1,3.947-9.455,13.671,13.671,0,0,1,9.547-4.039A13.671,13.671,0,0,1-784.68,6.15l.964.688a14.362,14.362,0,0,0,2.708,1.423A10.341,10.341,0,0,0-776.969,9a6.5,6.5,0,0,0,3.259-.918,7.454,7.454,0,0,0,2.8-3.672,26.856,26.856,0,0,0,1.652-7.986v-.092a25.045,25.045,0,0,1-6.013,2.662A26.229,26.229,0,0,1-782.844,0a26.457,26.457,0,0,1-12.484-2.8,32.584,32.584,0,0,1-9.822-8.216,34.827,34.827,0,0,1-6.655-12.347,49.1,49.1,0,0,1-2.065-14.274V-81.791a13.063,13.063,0,0,1,3.764-9.409,13.217,13.217,0,0,1,9.455-4.085h.184a13.005,13.005,0,0,1,9.547,3.947,13.005,13.005,0,0,1,3.947,9.547v44.154a12.505,12.505,0,0,0,2.433,7.849,7.391,7.391,0,0,0,6.013,2.892,7.393,7.393,0,0,0,5.691-2.387,18.043,18.043,0,0,0,3.488-5.6,43.473,43.473,0,0,0,1.928-5.875v-6.426q0-16.982-1.469-33.689l-.092-1.469a13.026,13.026,0,0,1,3.81-9.363,13.4,13.4,0,0,1,9.593-4.131,13.1,13.1,0,0,1,9.088,3.488,13.4,13.4,0,0,1,4.406,8.9q1.561,17.9,1.561,35.617,0,23.225-1.928,46.266-1.744,17.533-11.521,27.493T-775.684,35.893Zm-32.771-93.449a1.177,1.177,0,0,0,.918-.413,1.405,1.405,0,0,0,.367-.964l-.275-11.383a54.089,54.089,0,0,1,.734-10.465,9.075,9.075,0,0,1,1.79-4.269,9.687,9.687,0,0,1,3.718-2.433,1.357,1.357,0,0,0,.826-1.193,1.405,1.405,0,0,0-.367-.964,1.282,1.282,0,0,0-1.01-.413l-.551.092q-5.508,2.111-7.068,8.629a63.421,63.421,0,0,0-.734,11.107q0,4.773.184,11.383A1.407,1.407,0,0,0-808.455-57.557Zm46.266,0a1.282,1.282,0,0,0,1.01-.413,1.405,1.405,0,0,0,.367-.964q-.092-.826-.092-3.488-.184-3.3-.321-7.757t-.229-8.17q-.092-3.718-.092-5a1.644,1.644,0,0,0-.459-.918,1.365,1.365,0,0,0-1.01-.367,1.177,1.177,0,0,0-.918.413,1.405,1.405,0,0,0-.367.964l.734,24.326a1.726,1.726,0,0,0,.459,1.01A1.245,1.245,0,0,0-762.189-57.557ZM-808.73-45.164a1.245,1.245,0,0,0,.918-.367,1.245,1.245,0,0,0,.367-.918l.184-6.334a1.405,1.405,0,0,0-.367-.964,1.177,1.177,0,0,0-.918-.413h-.184a1.1,1.1,0,0,0-.872.367,1.344,1.344,0,0,0-.321.918l-.184,6.334a1.405,1.405,0,0,0,.367.964A1.282,1.282,0,0,0-808.73-45.164Zm34.7,24.051.551-.092q8.721-4.773,11.107-15.514v-.275a1.405,1.405,0,0,0-.367-.964,1.282,1.282,0,0,0-1.01-.413,1.222,1.222,0,0,0-.826.321,1.372,1.372,0,0,0-.459.78q-2.2,9.639-9.547,13.586a1.416,1.416,0,0,0-.826,1.285l.092.551A1.588,1.588,0,0,0-774.031-21.113Zm-25.061,46.082a1.405,1.405,0,0,0,1.193-.643,1.221,1.221,0,0,0,.275-.734,1.332,1.332,0,0,0-.643-1.1,8.722,8.722,0,0,1-1.836-2.2,9.907,9.907,0,0,1-1.285-3.121,8.381,8.381,0,0,1-.275-2.02,5.129,5.129,0,0,1,1.561-3.764,1.4,1.4,0,0,0,.459-1.01,1.4,1.4,0,0,0-.321-.872,1.414,1.414,0,0,0-.964-.5,1.51,1.51,0,0,0-.459.092,1.152,1.152,0,0,0-.459.275,7.268,7.268,0,0,0-1.882,2.754,8.685,8.685,0,0,0-.6,3.121,10.989,10.989,0,0,0,.275,2.479,11.922,11.922,0,0,0,4.223,6.977A1.221,1.221,0,0,0-799.092,24.969ZM-647.994,0a37.809,37.809,0,0,1-18.313-4.452,34.571,34.571,0,0,1-13.265-12.806,58.206,58.206,0,0,1-6.7-18.864,148.488,148.488,0,0,1-2.111-24.372l-.092-7.068a158.38,158.38,0,0,1,1.423-22.031,75.079,75.079,0,0,1,5-18.635,38.758,38.758,0,0,1,13.4-16.478,33.878,33.878,0,0,1,20.1-6.472,27.391,27.391,0,0,1,12.163,2.662,34.085,34.085,0,0,1,9.271,6.472,32.007,32.007,0,0,1,5.829,7.665,42.6,42.6,0,0,1,3.718,10.144l.872,4.36.092,1.652a12.9,12.9,0,0,1-3.4,8.858,13.742,13.742,0,0,1-8.629,4.544l-1.377.092a13.035,13.035,0,0,1-9.042-3.442,13.686,13.686,0,0,1-4.452-8.858q-.551-4.039-2.524-5.646a6.122,6.122,0,0,0-3.81-1.606,6.39,6.39,0,0,0-3.993,1.377,13.813,13.813,0,0,0-3.534,5.232q-4.131,10.557-4.131,36.627a92.778,92.778,0,0,0,1.7,19.736q1.7,7.527,3.442,10.373a12.957,12.957,0,0,0,2.846,3.81,5.365,5.365,0,0,0,3.58,1.239,4.681,4.681,0,0,0,3.442-1.561,9.262,9.262,0,0,0,2.157-3.4,24.125,24.125,0,0,0,.826-4.59q.184-2.295.184-3.4l-.092-2.111a13.055,13.055,0,0,1,3.3-8.9,13.427,13.427,0,0,1,9.271-4.314h1.01a12.693,12.693,0,0,1,9.226,3.626,13.834,13.834,0,0,1,4.177,9.042l.092,3.029q0,2.57-.413,6.609a48.622,48.622,0,0,1-1.79,8.721,43.437,43.437,0,0,1-3.167,7.619,31.058,31.058,0,0,1-5.646,7.527A29.144,29.144,0,0,1-647.994,0Zm-31.854-99.232a1.343,1.343,0,0,0,.826-.275,1.175,1.175,0,0,0,.459-.734,33.077,33.077,0,0,1,9.547-16.432,25.786,25.786,0,0,1,14.871-6.977,1.763,1.763,0,0,0,.826-.413,1,1,0,0,0,.367-.78v-.184a1.177,1.177,0,0,0-.413-.918,1.405,1.405,0,0,0-.964-.367h-.092a28.161,28.161,0,0,0-16.432,7.619q-7.344,6.7-10.281,17.809l-.092.367a1.316,1.316,0,0,0,1.01,1.285Zm-2.57,12.025a1.4,1.4,0,0,0,.872-.321.96.96,0,0,0,.413-.78q.367-2.2.826-4.59a15.516,15.516,0,0,1,.275-1.652v-.275a1.405,1.405,0,0,0-.367-.964,1.177,1.177,0,0,0-.918-.413,1.222,1.222,0,0,0-.826.321,1.372,1.372,0,0,0-.459.78q-.734,3.213-1.193,6.426v.184a1.222,1.222,0,0,0,.321.826,1.427,1.427,0,0,0,.872.459ZM-639.732-42.5a1.343,1.343,0,0,0,.826-.275,1.175,1.175,0,0,0,.459-.734,6.223,6.223,0,0,1,3.029-4.223,1.557,1.557,0,0,0,.826-1.285,1.4,1.4,0,0,0-.321-.872,1.145,1.145,0,0,0-.964-.413h-.321a.74.74,0,0,0-.321.092,7.668,7.668,0,0,0-2.983,2.662,11.941,11.941,0,0,0-1.515,3.4l-.092.367A1.316,1.316,0,0,0-640.1-42.5ZM-582.359.092h-.367a13.246,13.246,0,0,1-10.373-5.6,31.764,31.764,0,0,1-5.462-11.429,78.55,78.55,0,0,1-1.79-12.163v-.734a185.644,185.644,0,0,1-.918-19l.184-10.74q.643-21.572,1.744-36.9.734-11.475,1.193-22.949a12.317,12.317,0,0,1,4.039-9.317,13.125,13.125,0,0,1,9.271-3.81h.367a12.291,12.291,0,0,1,9.409,4.131,13.443,13.443,0,0,1,3.81,9.363v.734q-.459,9.271-1.193,20.746-.918,14.229-1.469,29.1-.184,5.967-.367,9.547-.184,3.4-.275,6.839t-.092,9.317a102.651,102.651,0,0,0,.6,11.153,38.087,38.087,0,0,0,2.433,10.052,23.3,23.3,0,0,1,2.111,9.271v.551a11.746,11.746,0,0,1-4.682,9.18A14.422,14.422,0,0,1-582.359.092Zm-11.2-95.285a1.222,1.222,0,0,0,.826-.321,1.1,1.1,0,0,0,.367-.872q0-5.324.184-9.363,0-1.285.092-2.479a52.515,52.515,0,0,1,1.01-10.189,9.328,9.328,0,0,1,2.02-4.177,9.179,9.179,0,0,1,3.764-2.157,1.968,1.968,0,0,0,.918-1.285,1.3,1.3,0,0,0-.367-.872,1.53,1.53,0,0,0-.918-.5h-.413q-.138,0-.138.092-5.691,1.928-7.344,8.262a46.24,46.24,0,0,0-1.285,10.74l-.184,11.75a1.321,1.321,0,0,0,.413.964,1.321,1.321,0,0,0,.964.413Zm-.918,12.393a1.53,1.53,0,0,0,1.056-.367,1.177,1.177,0,0,0,.413-.918l.367-6.518a1.141,1.141,0,0,0-.367-.826,1.644,1.644,0,0,0-.918-.459,1.321,1.321,0,0,0-.964.413,1.321,1.321,0,0,0-.413.964q-.184,1.928-.184,3.121,0,1.469-.184,3.3a1.245,1.245,0,0,0,.367.918A1.142,1.142,0,0,0-594.477-82.8Zm20.012,68.021a1.509,1.509,0,0,0,.367-.046,1.794,1.794,0,0,0,.367-.138A1.242,1.242,0,0,0-573-16.156l-.184-.551a44.863,44.863,0,0,1-2.937-7.711,38.4,38.4,0,0,1-1.561-11.2l.092-1.469a2.631,2.631,0,0,0-.275-1.193,1.026,1.026,0,0,0-1.01-.551,1.405,1.405,0,0,0-.964.367,1.177,1.177,0,0,0-.413.918l-.092,2.2a39.508,39.508,0,0,0,1.652,11.75,46.175,46.175,0,0,0,3.213,8.17A1.007,1.007,0,0,0-574.465-14.779ZM-520.3,0a32.03,32.03,0,0,1-17.12-4.773A36.022,36.022,0,0,1-549.588-16.8a49.064,49.064,0,0,1-5.921-15.055,78.789,78.789,0,0,1-1.7-16.432A69.754,69.754,0,0,1-555.233-64.9a46.723,46.723,0,0,1,6.655-15.055,36.376,36.376,0,0,1,13.035-11.337,36.955,36.955,0,0,1,17.533-4.269,33.537,33.537,0,0,1,17.579,4.819,34.348,34.348,0,0,1,12.347,12.255,46.4,46.4,0,0,1,5.554,15.1,91.156,91.156,0,0,1,1.423,16.11,63.7,63.7,0,0,1-2.249,16.982,46.831,46.831,0,0,1-7.114,14.963A38.29,38.29,0,0,1-503.322-4.223,35.113,35.113,0,0,1-520.3,0Zm-28.641-66.369a1.316,1.316,0,0,0,1.285-1.01A34.109,34.109,0,0,1-537.7-83.03q6.931-6.1,14.733-6.1a1.321,1.321,0,0,0,.964-.413,1.321,1.321,0,0,0,.413-.964,1.321,1.321,0,0,0-.413-.964,1.321,1.321,0,0,0-.964-.413,25.714,25.714,0,0,0-16.615,6.839A36.418,36.418,0,0,0-550.23-68.205v.367a1.47,1.47,0,0,0,.918,1.377ZM-519.754-26.9a8.382,8.382,0,0,0,6.609-2.937,18.6,18.6,0,0,0,3.81-7.619,38.231,38.231,0,0,0,1.239-9.822v-.459a45.984,45.984,0,0,0-1.056-9.868,20.322,20.322,0,0,0-3.4-7.94,7.286,7.286,0,0,0-6.1-3.121,8.318,8.318,0,0,0-6.7,3.075,19.355,19.355,0,0,0-3.764,7.757,38.5,38.5,0,0,0-1.193,9.547,45.577,45.577,0,0,0,1.1,9.914,22.2,22.2,0,0,0,3.442,8.216A7.116,7.116,0,0,0-519.754-26.9Zm-31.762-27.723a1.222,1.222,0,0,0,.826-.321,1.427,1.427,0,0,0,.459-.872,50.676,50.676,0,0,1,1.01-6.242v-.184a1.321,1.321,0,0,0-.413-.964,1.321,1.321,0,0,0-.964-.413,1.222,1.222,0,0,0-.826.321,1.372,1.372,0,0,0-.459.78q-.092.643-.184,1.377-.551,2.662-.826,5.049v.184a1.344,1.344,0,0,0,.321.918,1.1,1.1,0,0,0,.872.367Zm37.178,33.6.643-.184q8.721-4.682,11.016-15.422V-36.9a1.406,1.406,0,0,0-.367-.964,1.177,1.177,0,0,0-.918-.413,1.222,1.222,0,0,0-.826.321,1.372,1.372,0,0,0-.459.78q-2.295,9.73-9.547,13.586a1.416,1.416,0,0,0-.826,1.285l.092.551A1.368,1.368,0,0,0-514.338-21.021ZM-407.211,0q-6.609,0-11.2-5.967a24.7,24.7,0,0,1-7.114,4.314A25.487,25.487,0,0,1-435.117,0,26.457,26.457,0,0,1-447.6-2.8a32.584,32.584,0,0,1-9.822-8.216,34.826,34.826,0,0,1-6.655-12.347,49.1,49.1,0,0,1-2.065-14.274V-81.791a13.062,13.062,0,0,1,3.764-9.409,13.217,13.217,0,0,1,9.455-4.085h.184a13.005,13.005,0,0,1,9.547,3.947,13.005,13.005,0,0,1,3.947,9.547v44.154a12.5,12.5,0,0,0,2.433,7.849A7.391,7.391,0,0,0-430.8-26.9a7.326,7.326,0,0,0,5.691-2.433,18.633,18.633,0,0,0,3.488-5.646A43.464,43.464,0,0,0-419.7-40.85v-4.223q0-18.727-1.01-35.984v-.918a13.157,13.157,0,0,1,3.947-9.593,12.93,12.93,0,0,1,9.547-3.993h.275a13.451,13.451,0,0,1,9.088,3.9,13.455,13.455,0,0,1,4.039,8.95q1.1,17.441,1.1,36.26,0,17.074-1.1,33.689-1.01,9.271-9.914,12.3A13.657,13.657,0,0,1-407.211,0Zm-52.967-57.557a1.245,1.245,0,0,0,.918-.367,1.142,1.142,0,0,0,.367-.826l-.184-10.74a61.1,61.1,0,0,1,.734-11.291,9.075,9.075,0,0,1,1.79-4.269,9.687,9.687,0,0,1,3.718-2.433,1.357,1.357,0,0,0,.826-1.193,1.406,1.406,0,0,0-.367-.964,1.282,1.282,0,0,0-1.01-.413l-.551.092q-5.6,2.111-7.068,8.629a63.418,63.418,0,0,0-.734,11.107q0,4.773.184,11.383a1.177,1.177,0,0,0,.413.918A1.405,1.405,0,0,0-460.178-57.557Zm46.357,0a1.282,1.282,0,0,0,1.01-.413,1.406,1.406,0,0,0,.367-.964l-.826-24.418a1.246,1.246,0,0,0-.367-.918,1.365,1.365,0,0,0-1.01-.367,1.177,1.177,0,0,0-.918.413,1.406,1.406,0,0,0-.367.964l.734,24.326a1.282,1.282,0,0,0,.413,1.01A1.405,1.405,0,0,0-413.82-57.557Zm-46.633,12.393a1.405,1.405,0,0,0,.964-.367,1.177,1.177,0,0,0,.413-.918l.184-6.334a1.321,1.321,0,0,0-.413-.964,1.321,1.321,0,0,0-.964-.413h-.184a1,1,0,0,0-.78.367,1.813,1.813,0,0,0-.413.918l-.092,6.334a1.406,1.406,0,0,0,.367.964A1.177,1.177,0,0,0-460.453-45.164Zm34.791,24.051.551-.092q8.721-4.773,11.016-15.514v-.275a1.406,1.406,0,0,0-.367-.964,1.177,1.177,0,0,0-.918-.413,1.222,1.222,0,0,0-.826.321,1.372,1.372,0,0,0-.459.78q-2.295,9.639-9.639,13.586a1.438,1.438,0,0,0-.734,1.285l.092.551A1.588,1.588,0,0,0-425.662-21.113ZM-342.127,0a30.387,30.387,0,0,1-14.779-3.81,35.433,35.433,0,0,1-11.658-10.144Q-377.377-26.8-377.377-44.8v-.551a95.272,95.272,0,0,1,1.515-17.12,51.542,51.542,0,0,1,5.37-15.422,37.535,37.535,0,0,1,10.74-12.255,29.885,29.885,0,0,1,17.441-5.416q1.01.092,1.928.092a28.63,28.63,0,0,1,6.885,1.377,23.859,23.859,0,0,1,3.3,1.193q-.092-12.668-.551-24.418v-.551a12.853,12.853,0,0,1,3.672-9.18,13.554,13.554,0,0,1,9.271-4.223h.459a12.98,12.98,0,0,1,9.409,3.81,13.377,13.377,0,0,1,4.085,9.5q1.01,31.119,1.01,61.963,0,23.592-1.01,42.777a13.32,13.32,0,0,1-8.9,12.025,12.715,12.715,0,0,1-4.5.826,13.664,13.664,0,0,1-10.006-4.5,26.923,26.923,0,0,1-6.7,3.534A23.833,23.833,0,0,1-342.127,0Zm16.8-94a1.177,1.177,0,0,0,.918-.413,1.406,1.406,0,0,0,.367-.964l-.734-24.326a1.246,1.246,0,0,0-.367-.918,1.141,1.141,0,0,0-.826-.367h-.184a1.245,1.245,0,0,0-.918.367,1.142,1.142,0,0,0-.367.826v.184q0,1.377.184,6.885t.321,10.74q.138,5.232.229,6.7a1.177,1.177,0,0,0,.413.918A1.405,1.405,0,0,0-325.328-94Zm-43.053,27.447A1.474,1.474,0,0,0-367-67.562a35.5,35.5,0,0,1,9.363-15.651q6.426-6.1,14.229-6.1a1.321,1.321,0,0,0,.964-.413,1.321,1.321,0,0,0,.413-.964,1.321,1.321,0,0,0-.413-.964,1.321,1.321,0,0,0-.964-.413,23.882,23.882,0,0,0-16.156,6.885,37.922,37.922,0,0,0-10.1,16.8v.367a1.527,1.527,0,0,0,.229.826,1.39,1.39,0,0,0,.688.551ZM-341.117-26.9a6.866,6.866,0,0,0,5.187-2.295,20.579,20.579,0,0,0,3.58-5.278q1.423-2.983,2.341-5.462a.374.374,0,0,0,.092-.275q.184-9.271.092-19.369a17.253,17.253,0,0,0-3.855-6.38,8.069,8.069,0,0,0-5.967-2.983,7.957,7.957,0,0,0-4.957,1.974,14.787,14.787,0,0,0-4.177,6.15,29.279,29.279,0,0,0-1.7,10.878q0,10.557,2.387,16.8T-341.117-26.9ZM-372.512-54.8a1.7,1.7,0,0,0,.964-.275,1.173,1.173,0,0,0,.5-.826q.734-2.937,1.652-6.059v-.275a1.669,1.669,0,0,0-.321-1.056,1.146,1.146,0,0,0-.964-.413h-.092a1.376,1.376,0,0,0-.734.229,1.39,1.39,0,0,0-.551.688q-.275,1.1-.551,2.111-.643,2.2-1.1,4.223v.367a1.343,1.343,0,0,0,.275.826,1.175,1.175,0,0,0,.734.459Zm36.443,33.139a1.629,1.629,0,0,0,.734-.184,20.344,20.344,0,0,0,6.426-6.013,23.543,23.543,0,0,0,3.58-7.206l.092-.459a1.177,1.177,0,0,0-.413-.918,1.53,1.53,0,0,0-1.056-.367,1.041,1.041,0,0,0-.688.275,1.85,1.85,0,0,0-.5.734,21.813,21.813,0,0,1-3.3,6.334,19.357,19.357,0,0,1-5.416,5.324,1.368,1.368,0,0,0-.734,1.193l.184.643A1.332,1.332,0,0,0-336.068-21.664ZM-235.092,0a13.175,13.175,0,0,1-9.5-3.993,13.04,13.04,0,0,1-4.085-9.685v-.551q-1.285-10.1-1.836-24t-.551-28.687q0-14.779.459-27.677a165.044,165.044,0,0,1,2.02-21.894,11.916,11.916,0,0,1,4.223-9,23.8,23.8,0,0,1,10.052-4.728,55.017,55.017,0,0,1,12.53-1.423,9.076,9.076,0,0,0,1.285.092q10.373.184,20.654,6.885,10.1,7.16,15.33,21.021t5.232,34.607q0,16.064-3.9,28.044a67.206,67.206,0,0,1-10.1,20.1A50.839,50.839,0,0,1-206.727-8.262,51.721,51.721,0,0,1-221.46-1.974a57.435,57.435,0,0,1-10.97,1.7A13.567,13.567,0,0,1-235.092,0Zm-9.639-99.6a1.142,1.142,0,0,0,.826-.367,1.245,1.245,0,0,0,.367-.918q.092-1.469.092-2.754-.092-9.18,1.974-15.1t11.062-7.39a1.34,1.34,0,0,0,.872-.5,1.4,1.4,0,0,0,.321-.872,1.644,1.644,0,0,0-.459-.918,1.245,1.245,0,0,0-.918-.367h-.184q-10.465,1.836-12.943,8.813t-2.387,17.35a14.95,14.95,0,0,0-.092,1.652,1.405,1.405,0,0,0,.367.964,1.177,1.177,0,0,0,.918.413Zm21.664,69.674a25.4,25.4,0,0,0,7.711-5.783q3.855-4.039,6.518-11.888t2.662-21.435a87.43,87.43,0,0,0-1.561-18.543,35.82,35.82,0,0,0-3.718-10.419,14.909,14.909,0,0,0-3.993-4.728,13.4,13.4,0,0,0-7.344-1.928q-1.377,16.523-1.377,37.729Q-224.168-47.459-223.066-29.926Zm-22.307-57.648a1.222,1.222,0,0,0,.826-.321,1.427,1.427,0,0,0,.459-.872l.367-6.518a1.177,1.177,0,0,0-.413-.918,1.405,1.405,0,0,0-.964-.367,1.245,1.245,0,0,0-.918.367,1.245,1.245,0,0,0-.367.918l-.459,6.334a1.405,1.405,0,0,0,.367.964,1.177,1.177,0,0,0,.918.413Zm31.3,57.74a1.47,1.47,0,0,0,.918-.367,27.266,27.266,0,0,0,6.655-9.042,57.783,57.783,0,0,0,4.177-11.979l.092-.367q0-1.285-1.561-1.285a1.041,1.041,0,0,0-.688.275,1.259,1.259,0,0,0-.413.734Q-208.1-38.83-214.9-32.221a1.4,1.4,0,0,0-.459,1.01,1.405,1.405,0,0,0,.367.964A1.177,1.177,0,0,0-214.07-29.834ZM-130.811,0a32.03,32.03,0,0,1-17.12-4.773A36.022,36.022,0,0,1-160.094-16.8a49.065,49.065,0,0,1-5.921-15.055,78.788,78.788,0,0,1-1.7-16.432A69.753,69.753,0,0,1-165.739-64.9a46.724,46.724,0,0,1,6.655-15.055,36.376,36.376,0,0,1,13.035-11.337,36.955,36.955,0,0,1,17.533-4.269,33.537,33.537,0,0,1,17.579,4.819A34.348,34.348,0,0,1-98.59-78.486a46.4,46.4,0,0,1,5.554,15.1,91.157,91.157,0,0,1,1.423,16.11,63.7,63.7,0,0,1-2.249,16.982,46.831,46.831,0,0,1-7.114,14.963A38.29,38.29,0,0,1-113.828-4.223,35.114,35.114,0,0,1-130.811,0Zm-28.641-66.369a1.316,1.316,0,0,0,1.285-1.01,34.109,34.109,0,0,1,9.96-15.651q6.931-6.1,14.733-6.1a1.321,1.321,0,0,0,.964-.413,1.321,1.321,0,0,0,.413-.964,1.321,1.321,0,0,0-.413-.964,1.321,1.321,0,0,0-.964-.413,25.714,25.714,0,0,0-16.615,6.839,36.418,36.418,0,0,0-10.648,16.845v.367a1.47,1.47,0,0,0,.918,1.377ZM-130.26-26.9a8.382,8.382,0,0,0,6.609-2.937,18.6,18.6,0,0,0,3.81-7.619,38.231,38.231,0,0,0,1.239-9.822v-.459a45.984,45.984,0,0,0-1.056-9.868,20.322,20.322,0,0,0-3.4-7.94,7.286,7.286,0,0,0-6.1-3.121,8.318,8.318,0,0,0-6.7,3.075,19.355,19.355,0,0,0-3.764,7.757,38.5,38.5,0,0,0-1.193,9.547,45.577,45.577,0,0,0,1.1,9.914,22.2,22.2,0,0,0,3.442,8.216A7.116,7.116,0,0,0-130.26-26.9Zm-31.762-27.723a1.222,1.222,0,0,0,.826-.321,1.427,1.427,0,0,0,.459-.872,50.673,50.673,0,0,1,1.01-6.242v-.184a1.321,1.321,0,0,0-.413-.964,1.321,1.321,0,0,0-.964-.413,1.222,1.222,0,0,0-.826.321,1.372,1.372,0,0,0-.459.78q-.092.643-.184,1.377-.551,2.662-.826,5.049v.184a1.344,1.344,0,0,0,.321.918,1.1,1.1,0,0,0,.872.367Zm37.178,33.6.643-.184q8.721-4.682,11.016-15.422V-36.9a1.405,1.405,0,0,0-.367-.964,1.177,1.177,0,0,0-.918-.413,1.222,1.222,0,0,0-.826.321,1.372,1.372,0,0,0-.459.78q-2.295,9.73-9.547,13.586a1.416,1.416,0,0,0-.826,1.285l.092.551A1.368,1.368,0,0,0-124.844-21.021ZM-42.869,0A31.287,31.287,0,0,1-57.648-3.672,36.75,36.75,0,0,1-69.582-13.678q-9.639-12.76-9.639-31.119v-.551a71.635,71.635,0,0,1,2.065-17.258,55.544,55.544,0,0,1,6.472-15.605A39.456,39.456,0,0,1-58.291-90.558a33.45,33.45,0,0,1,17.35-5.187h.826q12.576.459,20.379,7.573t10.1,15.743a14.734,14.734,0,0,1,.459,3.58,13.244,13.244,0,0,1-2.708,8.124,13.3,13.3,0,0,1-7.3,4.911,13.657,13.657,0,0,1-3.488.459,13.162,13.162,0,0,1-8.078-2.754,13.435,13.435,0,0,1-4.957-7.344,3.976,3.976,0,0,0-.6-1.239,5.359,5.359,0,0,0-1.515-1.469,4.643,4.643,0,0,0-2.662-.688,6.974,6.974,0,0,0-4.177,1.285,12.479,12.479,0,0,0-3.259,3.672A30.263,30.263,0,0,0-51.039-56a42.017,42.017,0,0,0-1.285,10.74v.092A30.307,30.307,0,0,0-51.085-35.8a19.765,19.765,0,0,0,2.708,5.691A6.95,6.95,0,0,0-42.5-26.9a7.487,7.487,0,0,0,3.9-1.01,12.26,12.26,0,0,0,2.892-2.341,18.665,18.665,0,0,0,1.836-2.341l.643-1.01a13.083,13.083,0,0,1,5.095-5.921,13.49,13.49,0,0,1,7.206-2.065,13.962,13.962,0,0,1,5.6,1.193A13.259,13.259,0,0,1-9.5-35.342a13.259,13.259,0,0,1,2.065,7.16,13.739,13.739,0,0,1-1.377,5.875l-1.239,2.295a38.846,38.846,0,0,1-3.855,5.554,44.2,44.2,0,0,1-6.7,6.563,38.972,38.972,0,0,1-9.593,5.6A32.712,32.712,0,0,1-42.869,0ZM-69.4-66.553a1.316,1.316,0,0,0,1.285-1.01A35.5,35.5,0,0,1-58.75-83.214q6.426-6.1,14.229-6.1a1.282,1.282,0,0,0,1.01-.413,1.405,1.405,0,0,0,.367-.964,1.405,1.405,0,0,0-.367-.964,1.282,1.282,0,0,0-1.01-.413,23.782,23.782,0,0,0-16.064,6.885,37.922,37.922,0,0,0-10.1,16.8v.367a1.47,1.47,0,0,0,.918,1.377ZM-73.529-54.8a1.7,1.7,0,0,0,.964-.275,1.173,1.173,0,0,0,.5-.826,47.814,47.814,0,0,1,1.193-4.682q.184-.643.367-1.377l.092-.459a1.245,1.245,0,0,0-.367-.918,1.245,1.245,0,0,0-.918-.367h-.092a1.3,1.3,0,0,0-1.285.918q-.275,1.1-.551,2.111-.643,2.2-1.1,4.223v.367a1.343,1.343,0,0,0,.275.826,1.175,1.175,0,0,0,.734.459ZM-28.182-33.6a1.39,1.39,0,0,0,1.1-.551,6.017,6.017,0,0,1,4.5-2.846,1.177,1.177,0,0,0,.918-.413,1.405,1.405,0,0,0,.367-.964,1.229,1.229,0,0,0-.413-.872,1.321,1.321,0,0,0-.964-.413h-.092a6.9,6.9,0,0,0-3.81,1.239A10.619,10.619,0,0,0-29.191-35.8a1.343,1.343,0,0,0-.275.826,1.5,1.5,0,0,0,.459,1.1A1.343,1.343,0,0,0-28.182-33.6Z" transform="translate(3514 -1508.924)" fill="#6bcae2"/>
    <g id="Asset_1_2x-01" data-name="Asset 1@2x-01" transform="translate(2062.892 -1837.335)">
      <path id="Path_73" data-name="Path 73" d="M227.44,205.089c.758-3.449,1.633-6.878,2.247-10.353,1.045-5.918,2.536-11.735,3.789-17.6.886-4.153,1.453-8.377,2.846-12.465-7.589-.369-12.27-5.029-15.979-10.775-5.811-9-6.937-18.924-4.144-29.1,2.089-7.612,6.69-13.625,14.524-16.041,7.269-2.241,13.776-.139,19.285,5.051a31.8,31.8,0,0,1,9.033,15.7c1.632-1.368,3.021-2.678,4.553-3.792,7.142-5.193,14.644-9.761,23.16-12.345,2.806-.851,5.72-1.76,8.728-.848,2.25.683,2.994,2.289,2.045,4.5-.554,1.289-1.326,2.485-2.072,3.854,3.277-.511,6.419-1.075,9.582-1.472a32.856,32.856,0,0,1,9.436-.154c3.006.493,4.417,3.1,3.561,6.6a38.093,38.093,0,0,1-1.337,3.777c1.082.264,1.854.89,2.389-1.026,2.042-7.32,5.951-13.443,12.495-17.665,9.036-5.83,20.565-2.759,26.615,6.364,7.765,11.709,5.8,29.51-3.041,39.852-3.531,4.13-7.637,7.387-13.477,7.472,2.007,9.14,4.014,18.192,5.976,27.253.738,3.408,1.482,6.822,2.005,10.266.2,1.322.772,1.732,1.913,1.8a4.194,4.194,0,0,0-.632,3.093c.263,3.2.527,6.4.731,9.6a12.739,12.739,0,0,1-.763,5.725,36.574,36.574,0,0,1-10.465,17.183c-1.478,1.358-2.93,2.735-4.535,3.942-8.033,5.921-17.118,9.467-26.72,11.853-2.27.564-4.53,1.174-6.845,1.533-.919-.021-1.574.678-2.408.892a16.69,16.69,0,0,0-4.5.164c-1.04.182-2.1.2-3.139.365-4.258.691-8.425-.386-12.633-.645a41.807,41.807,0,0,1-4.917-1.087,87.687,87.687,0,0,1-19.224-5.5,63.565,63.565,0,0,1-15.268-8.838c-6.155-5.169-10.8-11.374-13.152-19.159a26.809,26.809,0,0,1-1.151-7.089,62.783,62.783,0,0,0,1.483-10.876Z" transform="translate(-30.602 0)" fill="#9b654c"/>
      <path id="Path_74" data-name="Path 74" d="M372.517,355.617c1.7,1.535,4.022,1.6,5.992,2.523a77.491,77.491,0,0,1,7.559,4.017,50.353,50.353,0,0,1,10.3,8.176c6.077,6.382,9.608,13.837,8.923,22.846a33.921,33.921,0,0,1-2.117,8.862,1.96,1.96,0,0,0,.134,1.949c3.352,5.55,5.837,11.414,6.5,17.958.692,6.82-.123,13.379-3.582,19.367a36.087,36.087,0,0,1-25.644,18.209c-3.2.587-4.252,2.11-5.8,4.663a43.37,43.37,0,0,1-11.173,12.286,61.137,61.137,0,0,1-28.548,11.561,44.918,44.918,0,0,1-19.074-1.183,34.885,34.885,0,0,1-4.522-1.785c-.812-.368-1.339-.282-1.773.5-3.585,6.421-10.018,9.015-16.2,11.835a93.151,93.151,0,0,1-24.034,6.952c-8.816,1.416-17.714,1.707-26.446-.646-5.876-1.583-11.195-4.22-14.5-9.729a1.481,1.481,0,0,0-1.9-.8c-8.312,2.373-16.845,2.171-25.338,1.869-5.628-.2-10.926-2.077-15.987-4.526-9.069-4.389-15.632-11.248-20.543-20.018a34.7,34.7,0,0,1-4.345-20.369,19.716,19.716,0,0,1,2.335-8.574c.85-1.43.486-2.126-.822-2.881a45.447,45.447,0,0,1-10.838-8.168,34.038,34.038,0,0,1-9.559-22.975,48.3,48.3,0,0,1,5.115-23.7c4.47-8.786,10.945-15.623,19.857-19.882,3.108-1.485,6.587-2.193,9.9-3.256a1.229,1.229,0,0,1,1.113.164c3.195,2.044,6.8,2.294,10.437,2.431a2.779,2.779,0,0,1,1.839.476,2.271,2.271,0,0,1,.14,2.213c-.108.162-.236.361-.428.364-4.324.07-7.191,2.915-10.3,5.334-2.758,2.143-4.752,4.967-7.007,7.562-.415.477-.8,1.179-1.549.952-.621-.188-.669-.911-.807-1.465a7.761,7.761,0,0,0-1.238-3.25,2.03,2.03,0,0,0-3.071-.467,8.568,8.568,0,0,0-2.732,3.5,41.982,41.982,0,0,0-3.868,15.227,48.077,48.077,0,0,0,3.432,20.827A42.89,42.89,0,0,0,174.24,431c10.058,8.99,22.249,13.435,34.889,17.086,5.889,1.7,11.94,2.6,17.9,3.927a5.233,5.233,0,0,1,2.549.87c.164.876-.468,1.445-.819,2.122-2.079,4-3.183,8.108-1.383,12.55a9.855,9.855,0,0,1,.306,3.869c-.027,3.77,1.128,6.907,4.592,8.859a3.416,3.416,0,0,1,1.6,1.9c1.609,4.645,6.771,6.273,11.214,6a26.3,26.3,0,0,0,11.376-3.817c2.881-1.63,3.009-1.659,4.5,1.376a20.589,20.589,0,0,0,4.9,6.491c2.842,2.5,5.883,4.144,9.728,2.141a2.043,2.043,0,0,1,2.228.068c3.862,2.717,7.7,1.725,11.437-.189,3.45-1.768,5.92-4.425,6.626-8.42a3.613,3.613,0,0,1,1.256-2.358c4.4-3.442,5.082-8.249,4.725-13.341a11.24,11.24,0,0,0-1.987-5.844c-1.36-1.914-1.058-2.546,1.293-2.8,4-.437,8.029-.642,12.049-.891,5.313-.329,10.656-.279,15.914-1.3a39.635,39.635,0,0,0,15.734-7.016,11.826,11.826,0,0,1,3.3-2.041,101.908,101.908,0,0,0,13.643-6.246,117.16,117.16,0,0,0,15.584-10.006c10.368-7.828,17.028-18.168,20.678-30.483a36.234,36.234,0,0,0,.427-18.905,5.427,5.427,0,0,0-1.1-2.264c-.873-1.047-1.906-1.643-3.235-.862-1.3.767-1.735.2-1.87-1.058-.118-1.1-.318-2.187-.437-3.289a7.292,7.292,0,0,0-1.443-4.179c-1.351-1.576-2.472-1.645-3.963-.239-.19.179.06-.029-.14.135-.934.767-1.2,2.357-2.606,2.465-1.295.1-2.242-.964-3.293-1.571-7.163-4.139-14.766-4.066-22.551-2.508-2.807.562-5.635,1.018-8.426,1.666-.8.185-1.643.536-2.452-.033a2.591,2.591,0,0,1,.124-2.69c2.343-2,4.755-3.931,6.324-6.672a1.256,1.256,0,0,1,.835-.452,26.916,26.916,0,0,0,7.923-.154c2.943-.521,5.6-1.425,7.33-4.2C370.276,357.516,370.845,355.973,372.517,355.617Z" transform="translate(-14.662 -53.914)" fill="rgba(255,255,255,0.36)"/>
      <path id="Path_75" data-name="Path 75" d="M469.4,258.561c-1.482-4.448-1.573-8.792.572-13.127,3.159-6.386,9.374-7.114,13.724-1.51,2.816-5.669,8.711-6.839,13.745-4.672,4.781,2.058,9.153,6.659,7.192,15.892a42.582,42.582,0,0,1,8.509-3.786,21.908,21.908,0,0,1,8.13-1.12c6.554.587,7.923,5.208,4.78,10.54-2.58,4.378-6.545,7.276-10.946,9.638-1.12.6-2.223,1.237-3.6,2.008a15.908,15.908,0,0,1,7.512,3.044c2.9,2.314,3.973,4.717,3.152,7.292-.828,2.6-3.85,4.531-7.151,4.747a70.046,70.046,0,0,1-20.956-2.108c-2.573-.615-5.147-1.244-7.751-1.7-1.169-.2-2.452-.49-3.6.258-1.478.031-1.476-1.126-1.713-2.111-1.032-4.292-1.919-8.631-3.819-12.659-1.49-3.159-2.745-6.478-6.28-8.111a2.434,2.434,0,0,1-1.5-2.52Z" transform="translate(-85.785 -28.371)" fill="#9b654c"/>
      <path id="Path_76" data-name="Path 76" d="M118.776,283.9c-1.792-.825-3.587-.243-5.3.164a135.1,135.1,0,0,1-16.7,3.276c-4.042.432-8.18.714-12.214-.268-2.7-.656-4.7-2.179-5.08-5.167a6.435,6.435,0,0,1,2.669-6.085,15.959,15.959,0,0,1,8.082-3.4,69.68,69.68,0,0,1-8.445-5.041c-3.568-2.619-6.5-5.733-7.493-10.255a5.224,5.224,0,0,1,3.6-6.4c3.888-1.309,7.616-.313,11.321.835a31.435,31.435,0,0,1,7.915,3.784c-1.112-4.171-.9-7.793,1.266-11.207a12.654,12.654,0,0,1,9.168-5.819c3.885-.621,8.722,1.44,10.192,5.482.961-.365,1.213-1.424,2.009-1.977a7.842,7.842,0,0,1,12.121,3.74,16.846,16.846,0,0,1,.415,12.522,3.065,3.065,0,0,1-2.112,3.33,7.924,7.924,0,0,0-3.445,3.3c-3.161,5.182-4.616,10.95-5.937,16.773C120.546,282.656,120.611,284.074,118.776,283.9Z" transform="translate(0 -28.366)" fill="#9b654c"/>
      <path id="Path_77" data-name="Path 77" d="M130.433,288.582a2.2,2.2,0,0,0,1.515-1.833,50.474,50.474,0,0,1,6.187-17.9,6.946,6.946,0,0,1,3.34-3.126,3.921,3.921,0,0,0,2.487-2.963c.1.731.733.8,1.249,1.051a40.309,40.309,0,0,1,7.3,4.392c1.876,1.481,4.431,1.222,6.689,1.621,4.761.842,9.564,1.446,14.352,2.132a70.134,70.134,0,0,1,8.949,1.57c.809.226,1.046-.123,1.313-.684a87.551,87.551,0,0,1,7.878-13.138c.824,1.459-.141,3.061.367,4.546a50.437,50.437,0,0,1-1.178,5.632c-1.251,1.989-2.135,4.167-3.228,6.236-1.276,2.416-1.967,2.781-4.631,2.578-9.344-.715-18.619-1.987-27.882-3.364-2.12-.315-2.105-.316-2.55,1.79-2.058,9.741-3.812,19.538-5.4,29.366-.083.514-.133,1.033-.215,1.545-.406,2.535.53,4.213,2.732,5.668,4.076,2.692,8.357,5.029,12.5,7.6,5.576,3.455,10.826,7.207,14.594,12.7a4.641,4.641,0,0,0,2.355,1.645,27.948,27.948,0,0,0,6.7,1.222c1.849.22,2.223-.124,2.2-1.983a97.891,97.891,0,0,1,.833-16.15c.2-1.322.07-2.755,1.027-3.885,1.071-.333,1.132.621,1.4,1.184a44.614,44.614,0,0,0,1.968,4.247,2.6,2.6,0,0,1,.336.521,3.814,3.814,0,0,1,.35,2.2c-.251,3.1.01,6.2-.08,9.3a11.628,11.628,0,0,1-.152,2.313,2.293,2.293,0,0,1-1.229,1.429c-2.5,1.425-4.548,3.222-5.245,6.181a1.158,1.158,0,0,1-.614.723c-4.665-.007-9.318-.063-13.26-3.131-3.189-5.728-8.417-9.131-13.82-12.448-4.906-3.012-10.2-5.41-14.672-9.122a1.594,1.594,0,0,0-2.259-.153c-2.565,2.028-5.3,1.451-8.111.573-6.579-2.054-7.2-8.451-6.735-13.858C128.265,299.332,129.466,293.978,130.433,288.582Z" transform="translate(-11.656 -33.044)" fill="#cacaca"/>
      <path id="Path_78" data-name="Path 78" d="M457.108,264.215a6.8,6.8,0,0,0,3.047,2.871c3.016,1.48,3.8,4.663,5.086,7.353a47.566,47.566,0,0,1,3.925,13.55,2.413,2.413,0,0,0,1.249,1.626,71.539,71.539,0,0,1,2.75,20.705,10.222,10.222,0,0,1-13.015,9.768c-.187-.051-.438-.043-.552-.164-2.031-2.139-3.633-.577-5.261.608-5.151,3.752-10.985,6.383-16.266,9.92a56.772,56.772,0,0,0-6.727,5.273,33.423,33.423,0,0,0-2.707,3.528c-1.778,3.053-4.728,3.77-7.851,4.3a19.611,19.611,0,0,1-7.894-.062c-.539-1.788.193-3.4.706-5.036,1.406-.815,3-.713,4.533-.914,3-.393,5.526-1.283,7.342-4.1,2.732-4.235,6.918-6.992,11.084-9.7,5.022-3.26,10.288-6.118,15.275-9.441a4.787,4.787,0,0,0,2.284-5.281c-1.519-10.441-3.673-20.761-5.668-31.113-.318-1.653-1.03-1.915-2.546-1.665-9.182,1.517-18.419,2.575-27.685,3.456a4.362,4.362,0,0,1-4.835-2.643,8.67,8.67,0,0,1-.813-1.773c-.2-2.839-.474-5.671-.7-8.507a1.428,1.428,0,0,1,.414-1.416c2.215,2.44,3.408,5.478,4.83,8.372.388.791.625,1,1.552.785,7.553-1.715,15.287-2.319,22.9-3.659,1.778-.313,3.549-.679,5.336-.918,1.743-.234,2.574-1.814,4-2.547A50.2,50.2,0,0,1,457.108,264.215Z" transform="translate(-73.488 -34.025)" fill="#cacaca"/>
      <path id="Path_79" data-name="Path 79" d="M407.051,258.057l.751,10.217a14.857,14.857,0,0,1,.528,5.795,179.883,179.883,0,0,1-3.188,28.282c-.82,3.288-1.31,6.669-2.725,9.793-.781,1.227-.619,2.9-1.851,3.917-3.278-.9-6.673-1.043-10.013-1.554a2.147,2.147,0,0,1-.192-2.2c.519-1.794.565-3.7,1.314-5.44.663-2.937,1.345-5.871,1.793-8.853a164.559,164.559,0,0,0,1.749-17.657,68.425,68.425,0,0,0,.035-11.456,64.3,64.3,0,0,0-2.192-15.713,34.917,34.917,0,0,0-3.313-7.846c-.418-.452-.411-1.1-.72-1.6-.973-1.92-.308-4.033-.7-6.045-.342-1.747-.12-3.6-.479-5.382-.226-1.121.182-1.725,1.381-1.666a5.594,5.594,0,0,1,2.222.575c5.9,2.737,9.448,7.552,11.98,13.32,1.665,3.791,2.348,7.83,3.165,11.841C406.712,256.951,406.9,257.5,407.051,258.057Z" transform="translate(-68.26 -26.72)" fill="#2b2d2f"/>
      <path id="Path_80" data-name="Path 80" d="M209.5,258.39c-.947-1.542-.084-3.122-.1-4.684a54.756,54.756,0,0,1,4.387-12.13,20.122,20.122,0,0,1,9.941-9.055,7.113,7.113,0,0,1,2.477-.389c.394.237.9.522.744,1.017-1.027,3.263-.535,6.8-1.853,10.006a18.752,18.752,0,0,1-.982,2.249,22.512,22.512,0,0,0-3.28,8.535,2.106,2.106,0,0,1-1.552,1.818,57.945,57.945,0,0,0-8.7,2.778A.941.941,0,0,1,209.5,258.39Z" transform="translate(-29.365 -27.043)" fill="#2b2d2f"/>
      <path id="Path_81" data-name="Path 81" d="M227.089,248.12a3.835,3.835,0,0,1,1.207-1.9,37.077,37.077,0,0,0,5.3,15.712c2.391,3.823,5.6,6.932,8.813,10.035,2.824,2.484,3.844,6.145,5.931,9.114,1.945,2.768,3.261,5.931,5.239,8.688,1.009,1.777,2.132,3.484,3.216,5.216,1.921,3.679,4.158,7.168,6.386,10.664,2.854,4.478,5.528,9.068,8.368,13.555,4.681,7.587,9.527,15.069,14.208,22.656a3.431,3.431,0,0,0,3.478,1.97c.516-.048,1.041,0,1.562-.018a5.477,5.477,0,0,0,5.039-2.857c3.505-5.707,7.029-11.412,10.752-16.986a13.363,13.363,0,0,0,.663-1.195c4.481-7.043,8.727-14.233,13.191-21.287,1.453-2.3,2.782-4.668,4.157-7.012,1.6-2.093,2.6-4.568,4.187-6.676,2.335-4.351,5.091-8.454,7.46-12.784.381-.7,1.052-1.145,1.462-1.811a50.229,50.229,0,0,0,10.187-10.834,35.731,35.731,0,0,0,5.448-15.239,1.307,1.307,0,0,1,.763.949c.746,1.839.173,3.674-.469,5.288-1.29,3.243-1.127,5.836,1.16,8.785a35.047,35.047,0,0,1,5.25,9.863,59.178,59.178,0,0,1-.056,11.777c-.953-.32-1.073-1.235-1.4-1.99-2.7-6.262-5.067-12.675-8.782-18.934-8.208,12.815-15.475,25.991-23.388,38.771-7.9,12.758-15.621,25.629-23.677,38.123,6.064-3.551,11.391-8.427,17.343-12.426.217-.159.442-.306.669-.448a8.281,8.281,0,0,0,1.649-1.313c6.8-4.568,13.707-8.969,20.41-13.675,4.359-3.06,8.784-6.028,13.077-9.184.708-.52,1.377-1.248,2.421-1.014a58.924,58.924,0,0,1-1.867,8.632,4.277,4.277,0,0,0-1.693.928c-8.717,6.46-17.8,12.389-26.819,18.406-2.867,1.913-5.536,4.1-8.4,6-1.319.878-1.29,2.117-1.2,3.452.693,9.928.22,19.867.255,29.8a1.7,1.7,0,0,1-.078.383c-1.064,1.348-2.031,2.878-4.164,2.271a4.608,4.608,0,0,1-.673-3.368c.467-8.518.366-17.044.376-25.568,0-.26.024-.523,0-.781-.044-.494.22-1.132-.334-1.423-.538-.283-.985.194-1.391.487a97.244,97.244,0,0,1-8.43,5.651,21.43,21.43,0,0,1-4.7,2.34,1.787,1.787,0,0,0-1.436,2.145,172.553,172.553,0,0,1-.135,23.013,3,3,0,0,1-.779,2.332c-1.6.42-2.383-.579-3.054-1.768a47.852,47.852,0,0,1-.829-9.456c-.184-4.4.012-8.822-.057-13.233-.012-.795.258-1.84-.815-2.165a4.469,4.469,0,0,0-3.24.088c-.755.362-.517,1.247-.576,1.936-.463,5.431-.446,10.873-.4,16.317a5.3,5.3,0,0,1-.226,1.921c-.149.278-.336.652-.681.512-1.429-.578-3.05-.889-3.813-2.495.153-5.775-.082-11.554.136-17.329a1.543,1.543,0,0,0-1.135-1.761c-4.774-1.7-8.751-4.753-12.845-7.608-.664-.464-1.323-1.439-2.162-.917-.774.481-.395,1.553-.306,2.366.588,5.376.172,10.765.248,16.147a2.123,2.123,0,0,1-.371,1.292,3.9,3.9,0,0,1-4.1-1.757,115.613,115.613,0,0,1-.039-13.442,34.779,34.779,0,0,0,.23-8.626c-.307-.637-.525-1.311-.794-1.964-1.749-4.241-4.466-5.9-9.054-5.518a2.688,2.688,0,0,1-.767-.033c-2.336-1.474-4.466-3.257-6.889-4.6a1.715,1.715,0,0,1-.947-1.163c.76-4.34.327-8.744.718-13.1.981-1.4,1.092-.077,1.173.462a20.071,20.071,0,0,1,.069,4.48,3.867,3.867,0,0,0,2.195,3.945c6.388,3.895,12.465,8.246,18.441,12.749,3.659,2.757,7.257,5.614,11.34,8.113-16.235-25.428-31.405-51.262-47.088-77.167-1.041,1.938-1.785,3.585-2.69,5.142-.357.615-.625,1.317-1.479,1.416a2.7,2.7,0,0,1-2.975-2.64,17.516,17.516,0,0,1,.006-6.334c.836-.909.932.018,1.082.494.267.852.021,1.769.233,2.878A36.876,36.876,0,0,1,228.209,259a2.223,2.223,0,0,0,.1-2.227,46.127,46.127,0,0,1-1.432-4.849,6.132,6.132,0,0,1,.21-3.8Z" transform="translate(-32.567 -30.109)" fill="#cacaca"/>
      <path id="Path_82" data-name="Path 82" d="M306.085,275.835a52.215,52.215,0,0,1-19.316-2.241c-5.717-1.84-8.251-5.351-7.292-11.275a94.165,94.165,0,0,1,6.021-20.675,80.692,80.692,0,0,1,6.306-12.269,28.329,28.329,0,0,1,6.685-7.492c3.059-2.366,6.227-3.487,9.892-2.4a17.093,17.093,0,0,1,8.628,5.714c6.312,7.82,10.054,16.869,12.92,26.377A64.177,64.177,0,0,1,332.6,263.7c.543,5.418-2.512,8.2-7.24,9.817a48.584,48.584,0,0,1-19.271,2.321Z" transform="translate(-44.647 -24.2)" fill="#e5ab6b"/>
      <path id="Path_83" data-name="Path 83" d="M320.752,334.227c-.166,1.313-1.207,2.125-1.847,3.159-3.549,5.732-7.161,11.424-10.734,17.141-.336.538-.681.942-1.373.853a.512.512,0,0,0-.194,0c-4.578,1.255-7.538-.031-9.935-4.535-3.709-6.967-8.28-13.474-12.486-20.175a4.556,4.556,0,0,1,.134-2.681c1.314-5.163,2.565-10.342,3.894-15.5a4.739,4.739,0,0,0-.168-3.4,20.156,20.156,0,0,1,4.489-8.355,17.093,17.093,0,0,1,2-2.063c3.69-.024,7.293,1.144,11.008.8.633-.059,1.272-.044,1.908-.063.518.859-.085,1.506-.477,2.13-2.6,4.123-6.5,6.206-11.175,7.023a47.728,47.728,0,0,1-4.79.633,13.69,13.69,0,0,0,7.6.357,10.111,10.111,0,0,1,4.784.1,48.072,48.072,0,0,0,10.975,1.389c.957.029,1.961-.18,2.825.455-.249,2.1.374,4.1.812,6.108,1.024,4.694,1.918,9.414,2.8,14.136a4.335,4.335,0,0,1-.055,2.492Z" transform="translate(-45.683 -41.522)" fill="#60a059"/>
      <path id="Path_84" data-name="Path 84" d="M230.295,138.776c.376-6.767,3.424-12.1,11.387-12.76,4.213-.348,7.659,1.673,9.876,5.395a26.7,26.7,0,0,1,2.379,5.745c.169.538.517,1.048-.5,1.247-6.655,1.3-10.217,5.665-11.5,12.059-.282,1.4-.763,2.841-.243,4.4.412,1.233-.478,1.051-1.206.654a18.642,18.642,0,0,1-6.282-5.135,18.42,18.42,0,0,1-3.91-11.6Z" transform="translate(-33.987 -3.943)" fill="#5f3523"/>
      <path id="Path_85" data-name="Path 85" d="M382.226,138.99c-.492,7.005-3.274,12.655-9.663,16.2-1.593.885-1.749.352-1.7-1.166a15.422,15.422,0,0,0-7.2-14.029,9.342,9.342,0,0,0-4.132-1.59c-.591-.073-1.322-.038-1.026-.948,1.17-3.6,2.37-7.2,5.637-9.546,6.327-4.538,16.056-.575,17.629,7.192a10.428,10.428,0,0,1,.454,3.883Z" transform="translate(-61.873 -3.948)" fill="#5f3523"/>
      <path id="Path_86" data-name="Path 86" d="M258.46,297.161c-2.825-3.857-4.954-8.14-7.407-12.223-1.159-1.929-2.4-3.822-3.464-5.809,2.215,1.462,4.381,3,6.652,4.373,8.566,5.162,17.97,8.011,27.715,9.888.924.585.23,1.162-.09,1.617a19.976,19.976,0,0,0-2.527,4.821,3.048,3.048,0,0,1-1.989,2c-4.086,1.321-8.088,1.433-11.8-1.045C263.316,299.294,260.52,298.956,258.46,297.161Z" transform="translate(-37.751 -37.27)" fill="#b0eaaa"/>
      <path id="Path_87" data-name="Path 87" d="M337.9,173.825a33.471,33.471,0,0,1,18.9,6.611,7.445,7.445,0,0,1,3.121,4.767c.428,2.68-1.515,4.4-4.052,3.509-2.353-.829-4.163-2.6-6.395-3.677a23.969,23.969,0,0,0-17.78-1.224c-2.853.836-4.933.168-5.8-2.124-.914-2.407.265-4.751,2.892-5.922C331.743,174.448,334.9,174.192,337.9,173.825Z" transform="translate(-54.724 -14.355)" fill="#5f3523"/>
      <path id="Path_88" data-name="Path 88" d="M290.957,180.063c.008,3.339-2.23,4.917-5.443,3.922-7.5-2.322-14.611-1.594-21.238,2.8a13.816,13.816,0,0,1-3.536,2.023c-2.484.755-4.326-.751-3.955-3.329a6.08,6.08,0,0,1,1.817-3.77c4.626-4.353,10.273-6.416,16.389-7.462a23.832,23.832,0,0,1,12.775,1.495C290.044,176.617,290.951,177.838,290.957,180.063Z" transform="translate(-39.741 -14.383)" fill="#5f3523"/>
      <path id="Path_89" data-name="Path 89" d="M360.029,280.713c-2.57,5.122-5.772,9.875-8.614,14.839a58.691,58.691,0,0,0-6.645,4.708,14.133,14.133,0,0,1-11.96,3.192c-1.323-.231-2.413-.758-2.768-2.091a14.517,14.517,0,0,0-3.346-6.274.966.966,0,0,1-.272-1.065,107.077,107.077,0,0,0,24.077-7.6C353.88,284.858,356.873,282.65,360.029,280.713Z" transform="translate(-54.893 -37.615)" fill="#b0eaaa"/>
      <path id="Path_90" data-name="Path 90" d="M318.822,311.712c-5.25-.038-10.479-.251-15.535-1.89a3.174,3.174,0,0,0-1.9.143,18.073,18.073,0,0,1-8.081.288c-.832-.143-2.172-.135-2-1.308.117-.8,1.345-.361,2.068-.395,5.128-.239,9.852-1.423,13.461-5.436a11.005,11.005,0,0,0,2.191-3.612,9.269,9.269,0,0,1,3.084-.383c.174,1.887-1.1,3.211-1.889,4.7-.909,1.718-.93,1.782.822,2.48A19.3,19.3,0,0,0,317,307.791c1.536.1,2.643-1.022,4.085-.935.908.564.5,1.411.474,2.178C321.063,310.35,320.8,311.908,318.822,311.712Z" transform="translate(-47.26 -41.618)" fill="#43743e"/>
      <path id="Path_91" data-name="Path 91" d="M261.483,301.127a37.26,37.26,0,0,1,7.593,3.361c3.626,2.352,7.495,1.945,11.391.8a2.073,2.073,0,0,0,1.368-1.527,15.75,15.75,0,0,1,3.18-5.707c.111-.128-.019-.464-.036-.7l4.642,1.03c-.184.479-.228,1.142-.575,1.408-2.935,2.243-3.981,5.688-5.671,8.721-1,1.79-2.9,1.843-4.556,2.186a14.169,14.169,0,0,1-14.187-4.633A18.881,18.881,0,0,1,261.483,301.127Z" transform="translate(-40.774 -41.236)" fill="#6d9069"/>
      <path id="Path_92" data-name="Path 92" d="M360.616,215c-1.86-1.443-3.181-3.375-5.086-4.716-5.091-3.585-12.277-5.024-17.547-.832-1.355,1.078-1.968,2.967-3.842,3.446,1.458-7.4,6.717-12.128,14.573-10.35,4.2.951,7.741,2.834,10.23,6.506A11.444,11.444,0,0,1,360.616,215Z" transform="translate(-56.585 -20.524)" fill="#542a18"/>
      <path id="Path_93" data-name="Path 93" d="M284.976,213.412c-9.981-10.962-18.538-7.01-26.655,1.816-.727-4.9,4.18-11.532,12.755-12.89C278.367,201.184,283.122,205.409,284.976,213.412Z" transform="translate(-40.071 -20.519)" fill="#542a18"/>
      <path id="Path_94" data-name="Path 94" d="M328.239,308.655c-.235-.646.44-1.318-.055-1.956-1.56-2.562-3.318-5.016-4.318-7.886a1.8,1.8,0,0,1,2.013-1.1c1.883,2.092,3.559,4.28,4.022,7.189.172,1.085,1.069,1.561,2.112,1.737a14.228,14.228,0,0,0,12.417-3.482,28.18,28.18,0,0,1,5.581-3.878c.264-.138.559-.4.86-.037-1.61,2.093-2.291,4.79-4.311,6.616a14.016,14.016,0,0,1-17.25,3.244C328.964,308.925,328.593,308.811,328.239,308.655Z" transform="translate(-54.349 -41.308)" fill="#6d9069"/>
      <path id="Path_95" data-name="Path 95" d="M321.632,299.018a28.648,28.648,0,0,1,4.318,7.886c-4.137,2.693-7.935.578-11.763-.862-.866-.326-.648-.9-.181-1.545a31.481,31.481,0,0,0,2.956-5.482,7.213,7.213,0,0,1,4.67,0Z" transform="translate(-52.114 -41.513)" fill="#60a059"/>
      <path id="Path_96" data-name="Path 96" d="M371.8,376.736c4.592-.835,9.18-1.695,13.777-2.5,7.8-1.362,15.133-.228,21.787,4.242,1.041.7,1.524.518,2.081-.514.854-1.583,2.019-3.216,3.986-2.865,2.152.383,3.024,2.271,3.317,4.341.281,1.983.539,3.969.806,5.947,3.387-1.583,5.41-.495,6.236,3.394,2.008,9.456.407,18.371-3.7,27.041-2.4,5.08-4.921,10.032-8.748,14.193-6.894,7.493-15.148,13.175-24.03,18.043-3.88,2.126-7.982,3.762-11.937,5.716a16.094,16.094,0,0,1-2.4.762c-.292-.978.531-1.1.636-1.208-8.536,4.563-18.23,6.432-28.293,7.22-8.027.629-16.109.588-24.083,1.878a87.955,87.955,0,0,0-20.482,6.165c-6.2,2.638-10.763,7.125-15.644,11.365-4.481,3.892-9.372,6.991-15.364,8.025a11.9,11.9,0,0,1-5.964-.417c-2.7-.915-3.711-3.038-2.664-5.714a13.339,13.339,0,0,1,2.568-4.122,93.039,93.039,0,0,1,7.95-7.828c-5.265,2.283-9.951,4.884-12.573,10.057-.665,1.312-1.487,1.055-2.29.2a5.889,5.889,0,0,1-1.737-5.366,11.763,11.763,0,0,1,3.648-6.716c2.316-2.045,4.169-4.605,7.128-6.315a2.29,2.29,0,0,0-2.355-.088,16.6,16.6,0,0,0-6.364,3.688c-.464.458-1.02,1.3-1.771.691-.629-.513-.276-1.34.032-1.995a14.733,14.733,0,0,1,2.037-3.544c2.4-2.7,4.509-5.677,7.741-7.6a147.126,147.126,0,0,0,22.5-17.092c6.452-5.772,12.591-11.863,18.737-17.953,2.771-2.745,5.686-5.344,8.594-7.949,4.517-4.047,8.317-8.775,12.367-13.265a1.936,1.936,0,0,0,.6-1.4c1.465-1.965,3.791-2.675,5.761-3.883a112.045,112.045,0,0,1,18.182-8.917,140.654,140.654,0,0,1,17.627-5.64A3.361,3.361,0,0,1,371.8,376.736Z" transform="translate(-39.352 -57.849)" fill="#9b654c"/>
      <path id="Path_97" data-name="Path 97" d="M270.077,394.918l3.99,2.2a17.076,17.076,0,0,1,7.008,4.386,5.982,5.982,0,0,0,2.258,1.606c2.189,1.367,4.63,2.44,5.8,4.994a2.192,2.192,0,0,1-.949,1.413c-6.13,5.544-11.925,11.434-17.866,17.173a218.658,218.658,0,0,1-17.4,15.354c-4.354,3.392-8.423,7.184-13.459,9.618-2.087,1.009-3.28,3.14-5.326,4.192-7.665-1.691-15.426-2.91-22.972-5.18-10.444-3.141-20.529-7.009-29.293-13.673-6.291-4.784-11.64-10.5-14.656-17.891-4.576-11.211-5.824-22.686-1.6-34.393a21.318,21.318,0,0,1,3.02-6.066c.836-1.072,1.794-2.163,3.383-1.839,1.542.314,2.169,1.566,2.562,2.915.3,1.043.482,2.123.767,3.417,1-1.167,1.93-2.138,2.729-3.206a38.224,38.224,0,0,1,11.847-10.234c1.419-.814,2.836-1.311,4.431-.554,1.219,1.187,1.426,2.771,1.67,4.33a9.59,9.59,0,0,0,.2,1.886.815.815,0,0,0,1.195.591,4.785,4.785,0,0,1,1.892-.357c2.685.7,5.333,1.561,8.171.621,1.423-.471,2.573-1.511,4.066-1.792a66.908,66.908,0,0,1,15.646,2.889c6.962,2.289,14.038,4.247,20.806,7.108a4.463,4.463,0,0,1,1.838,1.047l3.551,1.456a1.461,1.461,0,0,1,1.48.083,115.757,115.757,0,0,1,13.983,6.733C269.327,394.043,269.881,394.3,270.077,394.918Z" transform="translate(-19.348 -56.779)" fill="#9b654c"/>
      <path id="Path_98" data-name="Path 98" d="M252.905,462.992a22.012,22.012,0,0,1,8.054-6.3c3.43-1.771,6.1-4.555,9.144-6.842,5.962-4.483,11.363-9.637,16.911-14.609,2.269-2.033,4.363-4.263,6.511-6.429,4.436-4.473,8.976-8.835,13.724-12.979a3.084,3.084,0,0,0,.437-.636,3.818,3.818,0,0,1,1.266-1.685,59.389,59.389,0,0,1,10.216-7.643,1.676,1.676,0,0,1,1.1-.3,11.906,11.906,0,0,0,3.44-2.384c.914-.832,1.768-1.783,3.191-1.6.98.268.228.627.014.87-4.5,5.1-8.872,10.3-13.978,14.871-5.466,4.891-10.538,10.22-15.836,15.3-8.5,8.159-17.19,16.112-26.844,22.925a27.732,27.732,0,0,1-3.8,2.355c-3.852,1.871-6.55,5.068-9.284,8.154a10.514,10.514,0,0,0-2.871,5.968,19.426,19.426,0,0,1,7.351-4.652c1.155-.416,2.885-1.219,3.432-.3.63,1.059-1.2,1.622-1.994,2.383-3.321,3.182-7.3,5.808-8.64,10.645a6.134,6.134,0,0,0,.416,4.324c.36.808.837,1.85,1.71,2.035,1.148.244.944-1.126,1.344-1.737,3.3-5.034,7.77-7.509,13.533-9.54-.11.728-.735,1.031-1.156,1.463-2.345,2.415-4.91,4.6-7.155,7.129a15.6,15.6,0,0,0-2.833,4.4c-.973,2.346-.036,4.212,2.41,5,4.415,1.423,8.444.074,12.366-1.782,5.363-2.539,9.484-6.693,13.843-10.585,2.749-2.455,5.621-4.82,9.38-5.977,2.159-.665,4.2-2.027,6.358-2.883a73.445,73.445,0,0,1,18.85-4.391c5.864-.671,11.758-.722,17.633-1.142,10.852-.776,21.515-2.33,31.3-7.549a4.713,4.713,0,0,1,.777-.207l-1.453,1.939a11.36,11.36,0,0,0-1.483.866,42.375,42.375,0,0,1-25.733,9.3,210.974,210.974,0,0,0-22.036,1.58,12.565,12.565,0,0,1,3.349,7.362c.5,4.586-.033,9.083-3.164,12.47a20.289,20.289,0,0,0-3.706,6.428c-1.946,4.622-8.085,8.217-13.109,8.051a9.163,9.163,0,0,1-4.866-1.8c-.481-.325-.8-.6-1.522-.243-3.677,1.839-7.058,1.189-10.121-1.571a23.6,23.6,0,0,1-5.983-8.317c-.493-1.148-.864-1.4-2.049-.628a25.985,25.985,0,0,1-12.691,4.6c-4.078.233-8.083-.5-10.439-4.025a38.273,38.273,0,0,0-5.22-5.975c-2.2-2.166-2.605-5.175-2.442-8.174a9.649,9.649,0,0,0-.576-3.963c-1.57-4.347-.058-8.3,1.976-12.109C252.217,463.943,252.583,463.479,252.905,462.992Z" transform="translate(-38.127 -63.913)" fill="#794a35"/>
      <path id="Path_99" data-name="Path 99" d="M347.462,385.452l-3.191,1.6c-.014-8.521-.066-17.043-.011-25.564.013-1.96-.256-3.878-.417-5.811a2.742,2.742,0,0,1,1.382-2.717c7.844-5.754,16.053-10.968,24.093-16.431,4.016-2.729,7.895-5.658,11.855-8.469.391-.277.9-1.27,1.4-.05L381,335.4c-.255,1.223-1.28.836-2.021.908-7.548.73-14.282,8.023-13.839,15.34.38,6.271,4.1,10.427,9.535,12.981a16.068,16.068,0,0,0,14.657-.15c.669-.338,1.334-.874,2.182-.491a7.357,7.357,0,0,0-.372,2.672c-5.321,1.42-10.586,3.009-15.795,4.816a117.621,117.621,0,0,0-19.942,9.126C352.712,382.148,349.865,383.434,347.462,385.452Z" transform="translate(-58.692 -47.777)" fill="#fefefe"/>
      <path id="Path_100" data-name="Path 100" d="M204.5,363.191a24.288,24.288,0,0,0-1.443-6.494q0-1.233,0-2.466c.553-4.018,3.218-6.241,6.645-7.816,1.354-1.3,3.032-.715,4.813-.733-2.047-3.8-4.443-7.332-4.458-11.731l-.373-1.956c-.269-.44-.189-.753.328-.908,1.342,1.207,1.932,2.905,2.763,4.422,2.084,3.8,4.976,6.982,7.656,10.328a6.4,6.4,0,0,0,2.062,1.461c6.067,3.3,12.185,6.474,19.358,7.109a18.659,18.659,0,0,1,.075-6.165c.244-1.051-.626-1.129-1.281-1.347a37.519,37.519,0,0,1-13.049-7.257c-2.8-2.454-5.492-5.02-6.891-8.593-.395-1.008-.909-2.15.588-2.813,1.592.23,2.269,1.592,3.22,2.613.432.464.747,1.334,1.41,1.188.83-.182.588-1.179.769-1.829a7.731,7.731,0,0,0,.074-2.135c.185-2.046-.06-4.087-.037-6.131-.044-3.059-.117-6.117.025-9.172.141-.558.2-1.239.98-1.227.607.009.883.543,1.039,1.033,2.219,6.96,3.986,13.951.76,21.1a1.818,1.818,0,0,0,.593,2.53c.825.634,1.627,1.3,2.5,1.87,2.1,1.377,2.336,1.3,2.984-1.067a51.822,51.822,0,0,0,1.671-11.555,33.143,33.143,0,0,1,.546-4.643c.191-1.033.554-2.079,1.99-1.9a4.091,4.091,0,0,1,1.2,4.837c-.253,3.92.328,7.87-.438,11.771-.149.756-.284,1.514-.425,2.271.422.906-.152,1.653-.5,2.36-.569,1.159-.174,1.62.936,1.947,2.28.673,4.547,1.336,6.955.732,5.811-1,9.22,1.326,11.04,7.539.467,1.264.059,2.519-.039,3.775-1.106,6.059-6.817,8.89-12.242,5.965a8.753,8.753,0,0,0-4.247-1.08c-4.051-.039-7.72-1.594-11.369-3.122-2.288-.958-2.166-.958-3.706.931a17.965,17.965,0,0,1-6.826,5.627,12.57,12.57,0,0,1-12.422,1.088,5.374,5.374,0,0,1-2.992-2.222C205.184,362.039,205.22,362.654,204.5,363.191Z" transform="translate(-28.06 -44.322)" fill="#79828b"/>
      <path id="Path_101" data-name="Path 101" d="M397.271,366.2c-5.251,3.087-10.755,3.826-16.432,1.423-8.12-3.436-12.826-11.8-9.472-19.5,2.654-6.1,7.484-9.448,14.106-10.177.447-.049.921.031,1.284-.332a19.772,19.772,0,0,1,10.046,1.52,3.4,3.4,0,0,1,1.855.648,17.7,17.7,0,0,1,5.367,7.8c.552,2.231,1.79,4.386.754,6.792q-.463,2.538-.926,5.075C402.165,362.189,400.209,364.671,397.271,366.2Z" transform="translate(-64.448 -49.98)" fill="#79828b"/>
      <path id="Path_102" data-name="Path 102" d="M492.481,257.292a4.014,4.014,0,0,1-3.919,3.8,4.07,4.07,0,0,1-3.77-4.186c-.023-1.66,2.2-5,3.3-4.951C489.442,252.019,492.449,255.668,492.481,257.292Z" transform="translate(-89.368 -31.358)" fill="#fefdfd"/>
      <path id="Path_103" data-name="Path 103" d="M131.085,257.172c-.073,2.341-1.633,4.019-3.665,3.939a3.656,3.656,0,0,1-3.735-4.04c.069-1.768,2.8-4.941,4.347-5.046C129.2,251.946,131.145,255.231,131.085,257.172Z" transform="translate(-10.784 -31.372)" fill="#fefefd"/>
      <path id="Path_104" data-name="Path 104" d="M195.375,317.538a40.091,40.091,0,0,0-1.154,7.263,93.041,93.041,0,0,0-.407,13.628c.015,1.319-.3,1.906-1.737,1.776a56.246,56.246,0,0,1-6.726-.911,7.477,7.477,0,0,1-4.7-3.411c-3.54-5.054-8.627-8.3-13.753-11.532-4.661-2.939-9.639-5.366-14.015-8.778a3.044,3.044,0,0,1-1.312-2.773c.05-4.246,1.208-8.323,1.792-12.486,1.034-7.382,2.862-14.612,4.1-21.953.169-1.008.414-1.284,1.465-1.116,5.109.82,10.221,1.642,15.354,2.285,4.367.547,8.816.569,13.133,1.353,3.312.6,4.535-.986,5.617-3.536a24.34,24.34,0,0,1,2.748-5.135c.616,3.22,1.575,6.177-.945,9.415-4.327,5.557-4.821,12.115-3.116,18.857a11.9,11.9,0,0,0,1.212,2.209c.447,2.975.2,6.037,1.225,8.948.448,1.269.794,2.582,1.188,3.875C195.537,316.174,195.881,316.854,195.375,317.538Z" transform="translate(-16.853 -35.765)" fill="#fefefe"/>
      <path id="Path_105" data-name="Path 105" d="M203.448,299.92c-1.9-1.172-1.819-3.21-2-5.009-.561-5.725-.1-11.359,3.505-16.105,1.415-1.862,2.392-3.468,1.814-5.847a18.178,18.178,0,0,1-.185-3.487,21.908,21.908,0,0,1,1.213-5.1c3.168-1.162,6.267-2.544,9.633-3.076,1-.158,1.1-.934,1.31-1.668,1.281.807,1.336,1.925.81,3.19,0,1.873.028,3.746-.019,5.618-.054,2.143.8,3.386,3.081,3.35,2.007-.534,3.3.806,4.626,1.873a23.537,23.537,0,0,1,6.61,8.768,44.977,44.977,0,0,1,3.242,11.98,2.487,2.487,0,0,1-.267,1.7c-3.648.795-7.21,2.554-11.074,1.008a4.264,4.264,0,0,1-1.434-2.251,23.289,23.289,0,0,0-2.147-4.351c-1.265-1.876-2.708-2.491-4.426-1.96a4.388,4.388,0,0,0-2.959,4.345c0,1.469.447,2.97-.313,4.386A14.471,14.471,0,0,1,203.448,299.92Z" transform="translate(-27.668 -33.027)" fill="#6d7277"/>
      <path id="Path_106" data-name="Path 106" d="M204.028,310.286c1.7-.613,3.53-.122,5.27-.649,1.7-.515,3.573-.533,4.726-2.22.213-.312.582-.073.839.141,1.1-.186,1.26.689,1.493,1.395a12.312,12.312,0,0,1,.34,4.245c-.332,2.583.812,4.888,1.391,7.3.528,2.039,1.862,3.662,2.828,5.475.263.493.84.84.7,1.518-1.136.544-.656,1.4-.383,2.172,1.286,3.637,4.008,6.181,6.788,8.621a36.233,36.233,0,0,0,13.93,7.489c.922.269.928.633.741,1.328a11.5,11.5,0,0,0-.037,6.137c.408,1.5-.864.861-1.292.77-3.481-.732-7.03-1.265-10.27-2.846-2.973-1.45-5.919-2.956-8.864-4.463-2.713-1.388-4.013-4.117-5.887-6.3a37.173,37.173,0,0,1-6.085-10.126c-.379-.174-.466-.551-.627-.935a2.215,2.215,0,0,1-.11,1.681l-2.752-5.852C205.273,320.314,203.45,315.521,204.028,310.286Z" transform="translate(-28.248 -43.393)" fill="#bdc3c4"/>
      <path id="Path_107" data-name="Path 107" d="M133.594,307.877c-.106-5.77,1.3-10.994,2.184-16.291,1.046-6.244,3.234-12.151,5.276-18.1a7.832,7.832,0,0,1,.77-1.566c1.377-2.217,1.749-2.338,4.272-1.438a15.5,15.5,0,0,1,1.617.674c3.773,1.85,3.709,1.834,2.5,5.7a208.624,208.624,0,0,0-7.654,33.9,9.9,9.9,0,0,0-.038,4.419c.276.895-.34,1.1-1.109,1.1-3.986-.007-8.479-1.279-7.823-6.987A10.141,10.141,0,0,0,133.594,307.877Z" transform="translate(-12.929 -35.274)" fill="#fefefe"/>
      <path id="Path_108" data-name="Path 108" d="M211.888,340.183c1.138,3.916,2.275,7.831,4.869,11.112.2.254.7.568.243.941a1.363,1.363,0,0,1-1.056.322,8.835,8.835,0,0,0-4.411.089c-.008-3.615-.025-7.23-.015-10.845C211.52,341.25,211.331,340.623,211.888,340.183Z" transform="translate(-29.895 -50.556)" fill="#fdfdfd"/>
      <path id="Path_109" data-name="Path 109" d="M211.079,337.076v-1.971c.592.254.486.848.738,1.225-.326.167-.354.482-.391.792Q211.253,337.093,211.079,337.076Z" transform="translate(-29.806 -49.451)" fill="#91abc6"/>
      <path id="Path_110" data-name="Path 110" d="M413.219,341.548a26.807,26.807,0,0,0-1.263-6.975c-1.3-6.876-1.746-13.872-2.878-20.772a1.028,1.028,0,0,1,.161-.741c1.8-11.381,3.211-22.8,3.192-34.346,2.837,4.264,2.822,4.158,7.805,3.428,5.12-.75,10.278-1.229,15.411-1.893q5.292-.685,10.558-1.57c1.255-.21,1.807.121,2.02,1.4,1.433,8.621,3.652,17.1,4.793,25.775.287,2.18.734,4.338,1.091,6.51a4.733,4.733,0,0,1-2.21,5.3c-4.057,2.71-8.326,5.054-12.443,7.653-4,2.527-8.091,4.954-11.444,8.349a23.1,23.1,0,0,0-3.637,4.544c-1.256,2.156-3.625,2.478-5.746,2.858a18.724,18.724,0,0,1-5.409.488Z" transform="translate(-72.889 -37.159)" fill="#fefefe"/>
      <path id="Path_111" data-name="Path 111" d="M479.724,308.015c0,.917.03,1.635-.005,2.349-.192,3.868-4.914,7.072-8.622,5.9-.663-.21-.518-.549-.45-1.027.5-3.47-.339-6.836-.855-10.223a228.46,228.46,0,0,0-5.623-24.406,28.4,28.4,0,0,0-1.982-5.687c-.508-.993-.433-1.6.606-2.218a30.521,30.521,0,0,1,4.832-2.492,2.547,2.547,0,0,1,3.55,1.314c1.871,3.391,2.7,7.142,3.892,10.769a111.417,111.417,0,0,1,4.154,19.537A25.647,25.647,0,0,1,479.724,308.015Z" transform="translate(-84.383 -35.265)" fill="#fefefe"/>
      <path id="Path_112" data-name="Path 112" d="M342.024,331.839c-6.265,4.506-12.068,9.67-19.156,13.578,16.815-26.207,32.412-52.753,48.512-79.369a135.287,135.287,0,0,1,7.417,15.619c.864,2.17,1.833,4.3,2.755,6.443a91.621,91.621,0,0,1-1.674,17.911c-5.682,3.953-11.342,7.937-17.053,11.847-4.007,2.744-8.078,5.393-12.13,8.071-2.214,1.464-4.447,2.9-6.671,4.347a.358.358,0,0,1-.5-.012,1.331,1.331,0,0,1,.118-1.29,7.225,7.225,0,0,0,.461-1.067c.519-1.809-.054-3.724-1.289-4.312s-3,.242-4.018,1.927a5.681,5.681,0,0,0-.9,2.934c-.011,2.017,1.009,3.028,3.06,3.054A1.252,1.252,0,0,1,342.024,331.839Z" transform="translate(-54.132 -34.424)" fill="#fefefe"/>
      <path id="Path_113" data-name="Path 113" d="M395.73,272.536c-2-2.791-3.311-5.979-5.122-8.88-.24-.384-.346-.894-.663-1.181-2.582-2.336-2.671-4.969-1.3-8a18.518,18.518,0,0,0,1.142-5.872c1.9,2.07,2.673,4.712,3.519,7.267A51.135,51.135,0,0,1,395.73,272.536Z" transform="translate(-68.255 -30.627)" fill="#fefefe"/>
      <path id="Path_114" data-name="Path 114" d="M408.479,322.638a122.039,122.039,0,0,1,2.717,21.514,20.627,20.627,0,0,0-5.055-7.354c-1.078-1.515-.3-3.145-.293-4.726Z" transform="translate(-72.129 -46.738)" fill="#cacaca"/>
      <path id="Path_115" data-name="Path 115" d="M405.546,334.7c.6,1.544.189,3.151.293,4.726a3.177,3.177,0,0,1-1.658-.912Z" transform="translate(-71.827 -49.362)" fill="#eff1f3"/>
      <path id="Path_116" data-name="Path 116" d="M224.416,260.431c-.175-1.088-.076-2.245-.81-3.19a21.916,21.916,0,0,1,3.448-8.592c-.181,3.053.761,5.881,1.8,8.673a2.5,2.5,0,0,1-.48,2.916,45.121,45.121,0,0,0-3.364,5.227C224.363,263.676,225.212,261.943,224.416,260.431Z" transform="translate(-32.532 -30.637)" fill="#fdfdfd"/>
      <path id="Path_117" data-name="Path 117" d="M242.567,297.4a38.259,38.259,0,0,0-4.877-16.356c-2.13-3.7-4.979-6.538-9.134-7.876l3.606-7.206c16.19,26.482,31.565,53,48.3,78.944a16.174,16.174,0,0,1-4.95-2.667,295.393,295.393,0,0,0-24.666-17.643c-3.132-1.937-4.524-3.807-3.986-7.348a5.151,5.151,0,0,0-.3-3.428,8.944,8.944,0,0,0-1.246-4.66,3.6,3.6,0,0,1-.967-2.063c-.692-2.562-1-5.229-2.017-7.7a1.923,1.923,0,0,1,.235-2Z" transform="translate(-33.609 -34.404)" fill="#fefefe"/>
      <path id="Path_118" data-name="Path 118" d="M334.949,397.64a87.49,87.49,0,0,0-12.579,9.627c-1.5-2.057-3.921-3.07-5.574-4.949a15.833,15.833,0,0,0,.8-5.719c.121-5.915.377-11.861-.092-17.741-.248-3.113.356-4.232,3.345-5.352,4.219-1.58,7.852-4.5,11.478-7.239a3.244,3.244,0,0,1,.939-.671c.542-.144,1.094-.733,1.64-.331.513.378-.031.959-.021,1.457.026,1.17-.028,2.341-.026,3.511.012,8.118.016,16.236-.363,24.348a7.53,7.53,0,0,0,.45,3.059Z" transform="translate(-52.811 -55.984)" fill="#fefefe"/>
      <path id="Path_119" data-name="Path 119" d="M295.09,394.127a183.349,183.349,0,0,0-16.7-7.986c-.02-4.3-.118-8.593-.027-12.886.046-2.159-.431-4.261-.391-6.406.037-1.934.257-2.1,1.974-1.119.893.509,1.645,1.257,2.511,1.821,4.058,2.643,7.8,5.858,12.69,7,.616.144.748.623.686,1.214-.571,5.383-.112,10.785-.285,16.175C295.522,392.683,295.844,393.526,295.09,394.127Z" transform="translate(-44.361 -55.987)" fill="#fefefe"/>
      <path id="Path_120" data-name="Path 120" d="M224.908,374.338c1.485-1.255,3-2.482,4.446-3.775.724-.646,1.337-1.417,2.008-2.123.625-.658.459-2.125,1.387-2.173s1.926.656,2.881,1.057c4.212,1.77,8.447,3.434,13.154,3.079a2.084,2.084,0,0,1,1.455.4c6.074,4.341,10.269.864,12.293-3.562.162-.355.3-.721.447-1.082,1.012,1.49.428,3.094.335,4.663q-.011,7.042-.023,14.083c-3.69-.771-7.007-2.611-10.6-3.681-5.2-1.551-10.37-3.223-15.559-4.82C233.152,375.179,228.991,374.982,224.908,374.338Z" transform="translate(-32.815 -56.209)" fill="#fefefe"/>
      <path id="Path_121" data-name="Path 121" d="M328.575,310.929c.365-.012.157-1.06.942-.428,3.177,2.558,6.822,2.278,10.476,1.5,2.676-.567,4.594-2.59,6.9-3.87-.567,2.268-2.083,4.055-3.248,5.979-4.518,7.46-9.245,14.793-13.894,22.173-1.418-6.82-2.514-13.707-4.229-20.465-.22-.866-.2-1.66.722-2.145a3.15,3.15,0,0,0,2.328-2.747Z" transform="translate(-54.685 -43.582)" fill="#b0eaaa"/>
      <path id="Path_122" data-name="Path 122" d="M265.508,308.489c1.251.814,2.484,1.659,3.757,2.437,4.988,3.048,9.989,2.595,14.986.009.988,1.077.858,2.2.494,3.562-1.619,6.08-3.079,12.2-4.6,18.31q-4.034-6.485-8.065-12.971c-1.938-3.13-3.848-6.278-5.788-9.407A3.453,3.453,0,0,1,265.508,308.489Z" transform="translate(-41.65 -43.659)" fill="#b0eaaa"/>
      <path id="Path_123" data-name="Path 123" d="M311.95,403.419l-7.008-4.386c-.135-6.676.1-13.345.324-20.016.037-1.119.445-1.458,1.5-1.439,5.384.094,4.31-.845,4.392,4.119.071,4.347-.147,8.707.11,13.041C311.443,397.627,311.286,400.561,311.95,403.419Z" transform="translate(-50.223 -58.69)" fill="#fefefe"/>
      <path id="Path_124" data-name="Path 124" d="M346.051,347.635c-3.152.475-4.453-.336-4.66-2.906-.231-2.867,2.125-6.013,4.559-6.088,2.352-.072,3.752,3.078,2.526,5.709-.271.581-.588,1.14-.884,1.709-.177.587-.7.841-1.132,1.188Z" transform="translate(-58.159 -50.22)" fill="#cacaca"/>
      <path id="Path_125" data-name="Path 125" d="M257.4,350.116c-3.081,1.943-5.786-.14-8.616-.822-.642-.155-.459-.578-.224-1.045.522-1.038.97-2.112,1.448-3.172A25.674,25.674,0,0,1,257.4,350.116Z" transform="translate(-37.914 -51.621)" fill="#fdfdfd"/>
      <path id="Path_126" data-name="Path 126" d="M273.9,369.733c-.21-1.547.339-3.149-.335-4.663l.358-3.918c.153.111.448.236.438.329C274.076,364.225,274.652,367.018,273.9,369.733Z" transform="translate(-43.404 -55.119)" fill="#edeeef"/>
      <path id="Path_127" data-name="Path 127" d="M347.874,349.312a2.531,2.531,0,0,1,1.133-1.188l.459.023a2.044,2.044,0,0,1-1.592,1.165Z" transform="translate(-59.574 -52.284)" fill="#ebebeb"/>
      <path id="Path_128" data-name="Path 128" d="M322.513,236.372a4.8,4.8,0,0,1-1.262,2.17c-2.805,2.913-6.189,5.108-9.376,7.547a2.255,2.255,0,0,1-2.856.038,37.681,37.681,0,0,1-9.475-7.933c-1.367-1.67-.878-2.874,1.25-3.548a25.309,25.309,0,0,1,6.547-.7,92.542,92.542,0,0,1,13,.625C321.5,234.679,322.315,235.134,322.513,236.372Z" transform="translate(-48.89 -27.432)" fill="#694c3d"/>
      <path id="Path_129" data-name="Path 129" d="M307.949,273.645a27.382,27.382,0,0,1-16-8c-.461-.475-1.165-1.2-.546-1.831.556-.565,1.2.186,1.668.558,3.092,2.466,6.7,3.9,10.309,5.384a11.339,11.339,0,0,0,9.061-.139,92.72,92.72,0,0,0,10.074-5.054c.748-.421,1.792-1.487,2.537-.45.665.926-.4,1.829-1.1,2.432A29.031,29.031,0,0,1,307.949,273.645Z" transform="translate(-47.231 -33.893)" fill="#542a18"/>
      <path id="Path_130" data-name="Path 130" d="M204.9,376.915l.19-2.31,3.043,2.659a17.44,17.44,0,0,0-1.843.57C205.305,378.254,204.994,377.775,204.9,376.915Z" transform="translate(-28.461 -58.046)" fill="#d0cccb"/>
      <path id="Path_131" data-name="Path 131" d="M329.272,509.35a43.263,43.263,0,0,0-5.828-10.2c.159,1.133.247,2.281.491,3.4a44.484,44.484,0,0,1,1.057,9.825,7.446,7.446,0,0,1-2.419,5.744,13.039,13.039,0,0,1-8.9,3.776c-1.434-.009-1.907-.239-1.526-1.88,1.217-5.243-.559-9.871-3.6-14.219,0,2.624-.047,5.25.017,7.873a13.225,13.225,0,0,1-.886,4.753,3.342,3.342,0,0,1-4.793,2.158c-3.869-1.534-5.989-4.806-8.036-8.145-.3-.492-.42-1.024.122-1.382,3.421-2.261,5.115-6.182,8.264-8.659a40.687,40.687,0,0,1,14.137-7.169,93.545,93.545,0,0,1,10.195-2.238c.9-.147,1.365.072,1.817,1.131a18.529,18.529,0,0,1,1.389,11.944A7.658,7.658,0,0,1,329.272,509.35Z" transform="translate(-47.979 -83.798)" fill="#9b654c"/>
      <path id="Path_132" data-name="Path 132" d="M243.2,306.116c-.146,1.982,1.112,3.615,1.35,5.533a60.947,60.947,0,0,0,1.4,6.228c-1.224.087-1.408,1.075-1.506,1.948-.325,2.888-.584,5.785-.808,8.683a40.675,40.675,0,0,1-1.9,9.282c-.3.947-.642,1.124-1.5.631a47.173,47.173,0,0,1-5.357-3.836.825.825,0,0,1-.244-1.293c2.7-4.493,2.639-9.39,1.819-14.307a69.613,69.613,0,0,0-1.959-7.506c-.116-.408-.333-1.732-1.043-.249-2.287-1.954-2.526-2.855-1.145-4.313a14.217,14.217,0,0,0,8.984-.839C242.044,305.771,242.571,306.838,243.2,306.116Z" transform="translate(-34.239 -43.122)" fill="#bdc3c4"/>
      <path id="Path_133" data-name="Path 133" d="M229.334,304.635c-.367.914-1.11,1.817.518,2.423.609.227,0,1.374.626,1.89q0,4.872,0,9.744c-1.876.009-2.9-1.552-4.263-2.427-2.49-1.6-5.1-3.1-7.037-5.43-.194-1.437.132-2.9-.322-4.338-.2-.62-.266-1.241-.975-1.491-.029-1.421-.089-2.842-.079-4.263a5.181,5.181,0,0,1,3.332-4.993c2.154-.64,3.828.153,5.3,2.543A54.091,54.091,0,0,1,229.334,304.635Z" transform="translate(-31.269 -40.84)" fill="#fefefe"/>
      <path id="Path_134" data-name="Path 134" d="M212.955,370.78a6.33,6.33,0,0,1-4.424-1.164,3.717,3.717,0,0,1-.929-5.96c3.093-3.67,7.07-3.928,10.036-.813,1.767,1.855,1.652,3.936.873,5.952-.584,1.513-2.38,1.62-3.809,1.964A7.656,7.656,0,0,1,212.955,370.78Z" transform="translate(-28.81 -55.018)" fill="#bdc3c4"/>
      <path id="Path_135" data-name="Path 135" d="M261.642,355.615c3.072.052,5.376,2.231,5.306,5.017-.063,2.5-3.128,5.92-5.291,5.9-2.939-.023-5.71-2.8-5.592-5.607A5.492,5.492,0,0,1,261.642,355.615Z" transform="translate(-39.594 -53.914)" fill="#bdc3c4"/>
      <path id="Path_136" data-name="Path 136" d="M219.546,315.089l11.3,7.857a30.658,30.658,0,0,1-.048,6.3.863.863,0,0,1-.749-.023A47.471,47.471,0,0,1,221.1,322.6C220.409,320.129,219.185,317.773,219.546,315.089Z" transform="translate(-31.634 -45.095)" fill="#cacaca"/>
      <path id="Path_137" data-name="Path 137" d="M221.553,324.682l9.7,6.655a9.768,9.768,0,0,1-.392,3.645c-.219,1.141-.752,1.171-1.537.354-1.295-1.347-2.271-3-3.865-4.059A20.392,20.392,0,0,1,221.553,324.682Z" transform="translate(-32.085 -47.183)" fill="#fdfdfe"/>
      <path id="Path_138" data-name="Path 138" d="M224.141,359.682c1.433.993,2.837,2.032,4.309,2.962.933.59,1.01,1.018.045,1.619-.646.4-1.233.9-1.926,1.412a20.815,20.815,0,0,0-2.429-5.993Z" transform="translate(-32.648 -54.799)" fill="#bdc3c4"/>
      <path id="Path_139" data-name="Path 139" d="M401.974,355.069c.57,3.349-1.845,5.632-4.518,7.54-6.259,4.466-16,4.727-21.537-2.273-2.141-2.708-2.952-5.833-1.371-9.115,2.846-5.908,8.306-8.848,14.184-9.294C396.292,341.354,401.849,345.969,401.974,355.069Z" transform="translate(-65.198 -50.925)" fill="#bdc3c4"/>
      <path id="Path_140" data-name="Path 140" d="M365.778,330.107a5.842,5.842,0,0,1-4.2,5.439,2.577,2.577,0,0,1-3.173-1.845c-.475-1.743.81-5.278,2.326-6.275a3.489,3.489,0,0,1,3.665-.478C365.765,327.616,365.792,328.847,365.778,330.107Z" transform="translate(-61.844 -47.607)" fill="#cacaca"/>
      <path id="Path_141" data-name="Path 141" d="M310.246,384.124c-.038,2.526-.892,3.881-2.271,3.715-2.018-.243-1.792-2.025-1.945-3.315-.206-1.727.854-3.029,2.106-2.919C309.809,381.752,310.084,383.048,310.246,384.124Z" transform="translate(-50.462 -59.568)" fill="#cbcbcb"/>
      <path id="Path_142" data-name="Path 142" d="M306.406,398.738c.034-1.024-.132-2.122,1.32-2.162,1.556-.043,2,1.13,2.036,2.291.031,1.079-.367,2.338-1.757,2.339C306.359,401.209,306.44,399.841,306.406,398.738Z" transform="translate(-50.55 -62.827)" fill="#cbcbcb"/>
      <path id="Path_143" data-name="Path 143" d="M314.108,235.661c1.188.155,2.342.279,3.487.464.635.1,1.4.258,1.294,1.116a1.237,1.237,0,0,1-1.51,1.166c-2.44-.553-4.892-.26-7.341-.27-.589,0-1.276.006-1.4-.727-.151-.908.7-1.038,1.27-1.15C311.3,235.985,312.715,235.85,314.108,235.661Z" transform="translate(-51.032 -27.811)" fill="#c4ac9f"/>
      <path id="Path_144" data-name="Path 144" d="M379.817,357.027c.219-4,1.84-7.313,5.308-9.4a9.419,9.419,0,0,1,10.142-.024c4,2.344,6.38,8.4,3.717,12.7a6.83,6.83,0,0,1-1.734,1.79c-4,3.107-10.275,3.675-13.878,1.24C381.163,361.836,379.643,359.91,379.817,357.027Z" transform="translate(-66.522 -51.851)" fill="#79828b"/>
      <path id="Path_145" data-name="Path 145" d="M389.681,363.32c-2.79.014-4.2-1.372-5.174-4.716a4.956,4.956,0,0,1,2.036-5.764,9.675,9.675,0,0,1,8.6-.673,5,5,0,0,1,2.056,7.458C395.245,362.362,392.445,363.173,389.681,363.32Z" transform="translate(-67.489 -53.01)" fill="#bdc3c4"/>
    </g>
  </g>
</svg>
