<svg width="12" height="12" viewBox="0 0 12 12" fill="none" xmlns="http://www.w3.org/2000/svg">
<path d="M6 3.67969C4.38457 3.67969 3.07031 4.99395 3.07031 6.60938C3.07031 8.2248 4.38457 9.53906 6 9.53906C7.61543 9.53906 8.92969 8.2248 8.92969 6.60938C8.92969 4.99395 7.61543 3.67969 6 3.67969ZM6 8.60156C4.90151 8.60156 4.00781 7.70787 4.00781 6.60938C4.00781 5.51088 4.90151 4.61719 6 4.61719C7.09849 4.61719 7.99219 5.51088 7.99219 6.60938C7.99219 7.70787 7.09849 8.60156 6 8.60156Z" fill="white"/>
<path d="M10.5938 2.27344H8.86934C8.81475 2.27344 8.76555 2.24365 8.74024 2.19546L8.26317 1.19297C8.26186 1.19023 8.26055 1.18751 8.25916 1.18479C8.0745 0.815414 7.7032 0.585938 7.29021 0.585938H4.74319C4.3302 0.585938 3.9589 0.815414 3.77423 1.18481C3.77285 1.18753 3.77154 1.19025 3.77023 1.19299L3.29313 2.19553C3.26782 2.24365 3.21865 2.27344 3.16406 2.27344H1.40625C0.630844 2.27344 0 2.90428 0 3.67969V10.0078C0 10.7832 0.630844 11.4141 1.40625 11.4141H10.5938C11.3692 11.4141 12 10.7832 12 10.0078V3.67969C12 2.90428 11.3692 2.27344 10.5938 2.27344ZM11.0625 10.0078C11.0625 10.2663 10.8522 10.4765 10.5938 10.4765H1.40625C1.14778 10.4765 0.9375 10.2663 0.9375 10.0078V3.67969C0.9375 3.42122 1.14778 3.21094 1.40625 3.21094H3.16406C3.57703 3.21094 3.94833 2.98148 4.13302 2.61211C4.1344 2.60939 4.13571 2.60665 4.13705 2.60391L4.61414 1.60137C4.63943 1.55323 4.6886 1.52344 4.74319 1.52344H7.29021C7.3448 1.52344 7.39397 1.55323 7.41926 1.60134L7.89635 2.60388C7.89769 2.60663 7.899 2.60937 7.90038 2.61209C8.08507 2.98146 8.45637 3.21091 8.86934 3.21091H10.5938C10.8522 3.21091 11.0625 3.4212 11.0625 3.67966V10.0078Z" fill="white"/>
<path d="M10.125 4.14844H9.1875V5.08594H10.125V4.14844Z" fill="white"/>
</svg>
