<svg xmlns="http://www.w3.org/2000/svg" width="511.9" height="512.001" viewBox="0 0 511.9 512.001">
  <g id="chat-box" transform="translate(-0.05)">
    <path id="Path_547" data-name="Path 547" d="M280.28,197.18c48.955,0,96.53-37.606,96.53-100.65A96.642,96.642,0,0,0,280.28,0H96.58C47.29,0,.05,37.9.05,100.65a96.686,96.686,0,0,0,81.53,95.37v64.15c0,13.706,17.031,20.277,26.2,9.97l65-72.96Zm-.4-117.17A18.58,18.58,0,1,1,261.3,98.59,18.584,18.584,0,0,1,279.88,80.01ZM96.97,117.17a18.58,18.58,0,1,1,18.59-18.58A18.582,18.582,0,0,1,96.97,117.17Zm91.46-37.16a18.58,18.58,0,1,1-18.58,18.58A18.582,18.582,0,0,1,188.43,80.01Z" fill="#fff"/>
    <path id="Path_548" data-name="Path 548" d="M415.42,236.83H231.72a96.65,96.65,0,0,0-96.53,96.54c0,62.173,46.78,100.65,96.53,100.65h107.5l65,72.96c9.09,10.219,26.2,3.813,26.2-9.98V432.85a96.686,96.686,0,0,0,81.53-95.37c0-62.04-46.655-100.65-96.53-100.65ZM232.12,354.009a18.585,18.585,0,1,1,18.58-18.59A18.586,18.586,0,0,1,232.12,354.009Zm91.45,0a18.585,18.585,0,1,1,18.58-18.59A18.584,18.584,0,0,1,323.57,354.009Zm91.46,0a18.585,18.585,0,1,1,18.58-18.59A18.586,18.586,0,0,1,415.03,354.009Z" fill="#fff"/>
  </g>
</svg>
