<svg width="391" height="512" viewBox="0 0 391 512" fill="none" xmlns="http://www.w3.org/2000/svg">
<g clip-path="url(#clip0)">
<path d="M285.9 120H382.111L270.9 8.78906V105C270.903 108.977 272.484 112.791 275.297 115.603C278.109 118.416 281.923 119.997 285.9 120Z" fill="#727272"/>
<path d="M45.8999 512H345.9C357.831 511.987 369.269 507.241 377.705 498.805C386.141 490.369 390.887 478.931 390.9 467V150H285.9C273.969 149.987 262.531 145.241 254.095 136.805C245.658 128.369 240.913 116.931 240.9 105V0H45.8999C33.9692 0.0132343 22.531 4.75854 14.0947 13.1948C5.65844 21.6311 0.913137 33.0693 0.899902 45V467C0.913137 478.931 5.65844 490.369 14.0947 498.805C22.531 507.241 33.9692 511.987 45.8999 512V512ZM135.9 241H285.9C289.878 241 293.693 242.58 296.507 245.393C299.32 248.206 300.9 252.022 300.9 256C300.9 259.978 299.32 263.794 296.507 266.607C293.693 269.42 289.878 271 285.9 271H135.9C131.922 271 128.106 269.42 125.293 266.607C122.48 263.794 120.9 259.978 120.9 256C120.9 252.022 122.48 248.206 125.293 245.393C128.106 242.58 131.922 241 135.9 241V241ZM135.9 301H285.9C289.878 301 293.693 302.58 296.507 305.393C299.32 308.206 300.9 312.022 300.9 316C300.9 319.978 299.32 323.794 296.507 326.607C293.693 329.42 289.878 331 285.9 331H135.9C131.922 331 128.106 329.42 125.293 326.607C122.48 323.794 120.9 319.978 120.9 316C120.9 312.022 122.48 308.206 125.293 305.393C128.106 302.58 131.922 301 135.9 301V301ZM135.9 361H285.9C289.878 361 293.693 362.58 296.507 365.393C299.32 368.206 300.9 372.022 300.9 376C300.9 379.978 299.32 383.794 296.507 386.607C293.693 389.42 289.878 391 285.9 391H135.9C131.922 391 128.106 389.42 125.293 386.607C122.48 383.794 120.9 379.978 120.9 376C120.9 372.022 122.48 368.206 125.293 365.393C128.106 362.58 131.922 361 135.9 361V361ZM75.8999 241C78.8666 241 81.7667 241.88 84.2335 243.528C86.7002 245.176 88.6228 247.519 89.7581 250.26C90.8934 253.001 91.1905 256.017 90.6117 258.926C90.0329 261.836 88.6043 264.509 86.5065 266.607C84.4087 268.704 81.736 270.133 78.8263 270.712C75.9165 271.291 72.9005 270.993 70.1597 269.858C67.4188 268.723 65.0761 266.8 63.4279 264.334C61.7796 261.867 60.8999 258.967 60.8999 256C60.8999 252.022 62.4803 248.206 65.2933 245.393C68.1063 242.58 71.9217 241 75.8999 241V241ZM75.8999 301C78.8666 301 81.7667 301.88 84.2335 303.528C86.7002 305.176 88.6228 307.519 89.7581 310.26C90.8934 313.001 91.1905 316.017 90.6117 318.926C90.0329 321.836 88.6043 324.509 86.5065 326.607C84.4087 328.704 81.736 330.133 78.8263 330.712C75.9165 331.291 72.9005 330.993 70.1597 329.858C67.4188 328.723 65.0761 326.8 63.4279 324.334C61.7796 321.867 60.8999 318.967 60.8999 316C60.8999 312.022 62.4803 308.206 65.2933 305.393C68.1063 302.58 71.9217 301 75.8999 301V301ZM75.8999 361C78.8666 361 81.7667 361.88 84.2335 363.528C86.7002 365.176 88.6228 367.519 89.7581 370.26C90.8934 373.001 91.1905 376.017 90.6117 378.926C90.0329 381.836 88.6043 384.509 86.5065 386.607C84.4087 388.704 81.736 390.133 78.8263 390.712C75.9165 391.291 72.9005 390.993 70.1597 389.858C67.4188 388.723 65.0761 386.8 63.4279 384.334C61.7796 381.867 60.8999 378.967 60.8999 376C60.8999 372.022 62.4803 368.206 65.2933 365.393C68.1063 362.58 71.9217 361 75.8999 361V361Z" fill="#727272"/>
</g>
<defs>
<clipPath id="clip0">
<rect width="390" height="512" fill="white" transform="translate(0.899902)"/>
</clipPath>
</defs>
</svg>
